<svg width="24" height="24" viewBox="0 0 24 24" fill="none" xmlns="http://www.w3.org/2000/svg">
<path fill-rule="evenodd" clip-rule="evenodd" d="M12 4C9.79086 4 8 5.79086 8 8C8 10.2091 9.79086 12 12 12C14.2091 12 16 10.2091 16 8C16 5.79086 14.2091 4 12 4ZM6 8C6 4.68629 8.68629 2 12 2C15.3137 2 18 4.68629 18 8C18 11.3137 15.3137 14 12 14C8.68629 14 6 11.3137 6 8Z" fill="#0F1013"/>
<path fill-rule="evenodd" clip-rule="evenodd" d="M5.00283 19.5077C5.01615 19.5145 5.03146 19.522 5.04896 19.5301C5.30405 19.6483 5.75942 19.7595 6.45751 19.8399C7.83472 19.9984 9.76691 20 12 20C14.2331 20 16.1653 19.9984 17.5425 19.8399C18.2406 19.7595 18.696 19.6483 18.951 19.5301C18.9685 19.522 18.9838 19.5145 18.9972 19.5077C18.8939 16.6043 15.9721 14 12 14C8.02789 14 5.10608 16.6043 5.00283 19.5077ZM3 19.6667C3 15.2695 7.2079 12 12 12C16.7921 12 21 15.2695 21 19.6667C21 20.5704 20.3495 21.0865 19.7916 21.3449C19.237 21.6017 18.5208 21.7405 17.7712 21.8268C16.2663 22 14.2213 22 12.0574 22H11.9426C9.77865 22 7.73371 22 6.22878 21.8268C5.47916 21.7405 4.76296 21.6017 4.2084 21.3449C3.65051 21.0865 3 20.5704 3 19.6667Z" fill="#0F1013"/>
</svg>
