<svg width="24" height="24" viewBox="0 0 24 24" fill="none" xmlns="http://www.w3.org/2000/svg">
<path d="M3.5148 13C2.96251 13 2.5148 12.5523 2.5148 12C2.5148 11.4477 2.96251 11 3.5148 11L11.0001 11L11.0001 3.51472C11.0001 2.96243 11.4478 2.51472 12.0001 2.51472C12.5524 2.51472 13.0001 2.96244 13.0001 3.51472L13.0001 11L20.4854 11C21.0376 11 21.4854 11.4477 21.4854 12C21.4854 12.5523 21.0376 13 20.4854 13L13.0001 13L13.0001 20.4853C13.0001 21.0376 12.5524 21.4853 12.0001 21.4853C11.4478 21.4853 11.0001 21.0376 11.0001 20.4853L11.0001 13L3.5148 13Z" fill="#0F1013"/>
</svg>
