<svg width="24" height="24" viewBox="0 0 24 24" fill="none" xmlns="http://www.w3.org/2000/svg">
<path fill-rule="evenodd" clip-rule="evenodd" d="M12 3C10.3431 3 9 4.34315 9 6C9 7.31133 9.84136 8.42615 11.0137 8.8341C11.0047 8.88806 11 8.94348 11 9L11 11H10C9.44772 11 9 11.4477 9 12C9 12.5523 9.44772 13 10 13H11L11 17.8748C8.61954 17.2771 6.59989 14.591 6.59989 10.9999C6.59989 10.6551 6.42227 10.3346 6.12989 10.1519L4.52989 9.15189C4.06155 8.85918 3.4446 9.00155 3.15189 9.46989C2.85918 9.93823 3.00155 10.5552 3.46989 10.8479L4.61451 11.5633C4.82979 15.7069 7.40208 19.3461 11 19.921V20C11 20.5523 11.4477 21 12 21C12.5523 21 13 20.5523 13 20V19.921C16.5978 19.3459 19.17 15.7068 19.3853 11.5633L20.5299 10.8479C20.9982 10.5552 21.1406 9.93823 20.8479 9.46989C20.5552 9.00155 19.9382 8.85918 19.4699 9.15189L17.8699 10.1519C17.5775 10.3346 17.3999 10.6551 17.3999 10.9999C17.3999 14.5909 15.3804 17.2769 13 17.8748L13 13H14C14.5523 13 15 12.5523 15 12C15 11.4477 14.5523 11 14 11H13L13 9C13 8.94348 12.9953 8.88806 12.9863 8.8341C14.1586 8.42616 15 7.31133 15 6C15 4.34315 13.6569 3 12 3ZM11 6C11 5.44772 11.4477 5 12 5C12.5523 5 13 5.44772 13 6C13 6.55228 12.5523 7 12 7C11.4477 7 11 6.55228 11 6Z" fill="#0F1013"/>
</svg>
