<svg width="24" height="24" viewBox="0 0 24 24" fill="none" xmlns="http://www.w3.org/2000/svg">
<path fill-rule="evenodd" clip-rule="evenodd" d="M10.2001 5.39992C10.5315 4.95821 11.1582 4.86872 11.6 5.20006C12.0418 5.53143 12.1314 6.15823 11.8 6.60006L11 6.00006C11.8 6.60006 11.8001 6.59993 11.8 6.60006L11.7967 6.60448L11.789 6.61465L11.7609 6.65171C11.7365 6.68365 11.7011 6.72985 11.6553 6.78884C11.5638 6.90678 11.4309 7.07598 11.2623 7.28465C10.9256 7.70159 10.4451 8.27809 9.86829 8.91902C9.28357 9.56871 8.58734 10.2987 7.8315 11.0001L20 11.0001C20.5523 11.0001 21 11.4478 21 12.0001C21 12.5523 20.5523 13.0001 20 13.0001L7.8315 13.0001C8.58734 13.7014 9.28357 14.4314 9.86829 15.0811C10.4451 15.722 10.9256 16.2985 11.2623 16.7155C11.4309 16.9241 11.5638 17.0933 11.6553 17.2113C11.7011 17.2703 11.7365 17.3165 11.7609 17.3484L11.789 17.3855L11.7967 17.3956L11.7989 17.3986L11.7996 17.3995C11.7997 17.3996 11.8 17.4001 11 18.0001L11.7996 17.3995C12.131 17.8413 12.0418 18.4687 11.6 18.8001C11.1582 19.1314 10.5314 19.0419 10.2 18.6001L10.199 18.5987L10.1936 18.5916L10.1703 18.5609C10.1492 18.5333 10.1173 18.4916 10.0751 18.4373C9.99087 18.3287 9.86602 18.1697 9.70643 17.9721C9.38695 17.5766 8.92986 17.0281 8.38171 16.419C7.27328 15.1874 5.83987 13.7618 4.4453 12.8321C4.1671 12.6466 4 12.3344 4 12.0001C4 11.6657 4.1671 11.3535 4.4453 11.168C5.83987 10.2383 7.27328 8.81268 8.38171 7.58109C8.92986 6.97203 9.38695 6.42353 9.70643 6.02797C9.86602 5.83038 9.99087 5.67147 10.0751 5.56284C10.1173 5.50854 10.1492 5.46685 10.1703 5.43923L10.1936 5.40854L10.199 5.40145L10.2001 5.39992C10.2001 5.39989 10.2001 5.39995 10.2001 5.39992Z" fill="#0F1013"/>
</svg>
