<svg width="24" height="24" viewBox="0 0 24 24" fill="none" xmlns="http://www.w3.org/2000/svg">
<path fill-rule="evenodd" clip-rule="evenodd" d="M13.7999 5.39992C13.4685 4.95821 12.8418 4.86872 12.4 5.20006C11.9582 5.53143 11.8686 6.15823 12.2 6.60006L13 6.00006C12.2 6.60006 12.2 6.60006 12.2 6.60006L12.2033 6.60448L12.211 6.61465L12.2391 6.65171C12.2635 6.68365 12.2989 6.72985 12.3447 6.78884C12.4362 6.90678 12.5691 7.07598 12.7377 7.28465C13.0744 7.70159 13.5549 8.27809 14.1317 8.91902C14.7164 9.56871 15.4127 10.2987 16.1685 11.0001H4C3.44771 11.0001 3 11.4478 3 12.0001C3 12.5523 3.44771 13.0001 4 13.0001H16.1685C15.4127 13.7014 14.7164 14.4314 14.1317 15.0811C13.5549 15.722 13.0744 16.2985 12.7377 16.7155C12.5691 16.9241 12.4362 17.0933 12.3447 17.2113C12.2989 17.2703 12.2635 17.3165 12.2391 17.3484L12.211 17.3855L12.2033 17.3956L12.2011 17.3986L12.2004 17.3995C12.2004 17.3995 12.2 17.4001 13 18.0001L12.2004 17.3995C11.869 17.8413 11.9582 18.4687 12.4 18.8001C12.8418 19.1314 13.4686 19.0419 13.8 18.6001L13.801 18.5987L13.8064 18.5916L13.8297 18.5609C13.8508 18.5333 13.8827 18.4916 13.9249 18.4373C14.0091 18.3287 14.134 18.1697 14.2936 17.9721C14.6131 17.5766 15.0701 17.0281 15.6183 16.419C16.7267 15.1874 18.1601 13.7618 19.5547 12.8321C19.8329 12.6466 20 12.3344 20 12.0001C20 11.6657 19.8329 11.3535 19.5547 11.168C18.1601 10.2383 16.7267 8.81268 15.6183 7.58109C15.0701 6.97203 14.6131 6.42353 14.2936 6.02797C14.134 5.83038 14.0091 5.67147 13.9249 5.56284C13.8827 5.50854 13.8508 5.46685 13.8297 5.43923L13.8064 5.40854L13.801 5.40145L13.7999 5.39992Z" fill="#0F1013"/>
</svg>
