<svg width="24" height="24" viewBox="0 0 24 24" fill="none" xmlns="http://www.w3.org/2000/svg">
<path fill-rule="evenodd" clip-rule="evenodd" d="M5.39992 10.2001C4.95821 10.5315 4.86872 11.1582 5.20006 11.6C5.53143 12.0418 6.15823 12.1314 6.60006 11.8L6.00006 11C6.60006 11.8 6.60006 11.8 6.60006 11.8L6.60448 11.7967L6.61465 11.789L6.65171 11.7609C6.68365 11.7365 6.72985 11.7011 6.78884 11.6553C6.90678 11.5638 7.07598 11.4309 7.28465 11.2623C7.70159 10.9256 8.27809 10.4451 8.91902 9.86829C9.56871 9.28357 10.2987 8.58734 11.0001 7.8315V20C11.0001 20.5523 11.4478 21 12.0001 21C12.5523 21 13.0001 20.5523 13.0001 20V7.8315C13.7014 8.58734 14.4314 9.28357 15.0811 9.86829C15.722 10.4451 16.2985 10.9256 16.7155 11.2623C16.9241 11.4309 17.0933 11.5638 17.2113 11.6553C17.2703 11.7011 17.3165 11.7365 17.3484 11.7609L17.3855 11.789L17.3956 11.7967L17.3986 11.7989L17.3995 11.7996C17.3995 11.7996 17.4001 11.8 18.0001 11L17.3995 11.7996C17.8413 12.131 18.4687 12.0418 18.8001 11.6C19.1314 11.1582 19.0419 10.5314 18.6001 10.2L18.5987 10.199L18.5916 10.1936L18.5609 10.1703C18.5333 10.1492 18.4916 10.1173 18.4373 10.0751C18.3287 9.99087 18.1697 9.86602 17.9721 9.70643C17.5766 9.38695 17.0281 8.92986 16.419 8.38171C15.1874 7.27328 13.7618 5.83987 12.8321 4.4453C12.6466 4.1671 12.3344 4 12.0001 4C11.6657 4 11.3535 4.1671 11.168 4.4453C10.2383 5.83987 8.81268 7.27328 7.58109 8.38171C6.97203 8.92986 6.42353 9.38695 6.02797 9.70643C5.83038 9.86602 5.67147 9.99087 5.56284 10.0751C5.50854 10.1173 5.46685 10.1492 5.43923 10.1703L5.40854 10.1936L5.40145 10.199L5.39992 10.2001Z" fill="#0F1013"/>
</svg>
