<svg width="24" height="24" viewBox="0 0 24 24" fill="none" xmlns="http://www.w3.org/2000/svg">
<path fill-rule="evenodd" clip-rule="evenodd" d="M5.39992 13.7999C4.95821 13.4685 4.86872 12.8418 5.20006 12.4C5.53143 11.9582 6.15823 11.8686 6.60006 12.2L6.00006 13C6.60006 12.2 6.60006 12.2 6.60006 12.2L6.60448 12.2033L6.61465 12.211L6.65171 12.2391C6.68365 12.2635 6.72985 12.2989 6.78884 12.3447C6.90678 12.4362 7.07598 12.5691 7.28465 12.7377C7.70159 13.0744 8.27809 13.5549 8.91902 14.1317C9.56871 14.7164 10.2987 15.4127 11.0001 16.1685V4C11.0001 3.44771 11.4478 3 12.0001 3C12.5523 3 13.0001 3.44771 13.0001 4V16.1685C13.7014 15.4127 14.4314 14.7164 15.0811 14.1317C15.722 13.5549 16.2985 13.0744 16.7155 12.7377C16.9241 12.5691 17.0933 12.4362 17.2113 12.3447C17.2703 12.2989 17.3165 12.2635 17.3484 12.2391L17.3855 12.211L17.3956 12.2033L17.3986 12.2011L17.3995 12.2004C17.3995 12.2004 17.4001 12.2 18.0001 13L17.3995 12.2004C17.8413 11.869 18.4687 11.9582 18.8001 12.4C19.1314 12.8418 19.0419 13.4686 18.6001 13.8L18.5987 13.801L18.5916 13.8064L18.5609 13.8297C18.5333 13.8508 18.4916 13.8827 18.4373 13.9249C18.3287 14.0091 18.1697 14.134 17.9721 14.2936C17.5766 14.6131 17.0281 15.0701 16.419 15.6183C15.1874 16.7267 13.7618 18.1601 12.8321 19.5547C12.6466 19.8329 12.3344 20 12.0001 20C11.6657 20 11.3535 19.8329 11.168 19.5547C10.2383 18.1601 8.81268 16.7267 7.58109 15.6183C6.97203 15.0701 6.42353 14.6131 6.02797 14.2936C5.83038 14.134 5.67147 14.0091 5.56284 13.9249C5.50854 13.8827 5.46685 13.8508 5.43923 13.8297L5.40854 13.8064L5.40145 13.801L5.39992 13.7999Z" fill="#0F1013"/>
</svg>
