<svg width="24" height="24" viewBox="0 0 24 24" fill="none" xmlns="http://www.w3.org/2000/svg">
<path fill-rule="evenodd" clip-rule="evenodd" d="M9 14C9 12.3431 10.3431 11 12 11C13.6569 11 15 12.3431 15 14C15 15.6569 13.6569 17 12 17C10.3431 17 9 15.6569 9 14ZM12 13C11.4477 13 11 13.4477 11 14C11 14.5523 11.4477 15 12 15C12.5523 15 13 14.5523 13 14C13 13.4477 12.5523 13 12 13Z" fill="#0F1013"/>
<path fill-rule="evenodd" clip-rule="evenodd" d="M11 4V2C11 1.44772 11.4477 1 12 1C12.5523 1 13 1.44772 13 2V4H14C15.6569 4 17 5.34315 17 7V8.45597L22.2873 10.0422C22.5562 10.1228 22.7788 10.3128 22.9007 10.5656C23.0226 10.8184 23.0327 11.1108 22.9285 11.3714L18.9285 21.3714C18.7766 21.751 18.4089 22 18 22H6C5.5911 22 5.22339 21.751 5.07152 21.3714L1.07152 11.3714C0.967282 11.1108 0.977361 10.8184 1.0993 10.5656C1.22124 10.3128 1.44381 10.1228 1.71265 10.0422L7 8.45597V7C7 5.34315 8.34315 4 10 4H11ZM15 7.85597V7C15 6.44772 14.5523 6 14 6H10C9.44772 6 9 6.44772 9 7V7.85597L11.7127 7.04217C11.9001 6.98594 12.0999 6.98594 12.2873 7.04217L15 7.85597ZM6.67703 20L3.3345 11.6437L12 9.04403L20.6655 11.6437L17.323 20H6.67703Z" fill="#0F1013"/>
</svg>
