<svg width="24" height="24" viewBox="0 0 24 24" fill="none" xmlns="http://www.w3.org/2000/svg">
<path d="M3 11V13C3 15.8284 3 17.2426 3.87868 18.1213C4.75736 19 6.17157 19 9 19H15C17.8284 19 19.2426 19 20.1213 18.1213C21 17.2426 21 15.8284 21 13V11M3 11V11C3 10.07 3 9.60504 3.10222 9.22354C3.37962 8.18827 4.18827 7.37962 5.22354 7.10222C5.60504 7 6.07003 7 7 7H17C17.93 7 18.395 7 18.7765 7.10222C19.8117 7.37962 20.6204 8.18827 20.8978 9.22354C21 9.60504 21 10.07 21 11V11M3 11L10 13M21 11L14 13" stroke="#0F1013" stroke-width="2" stroke-linecap="round" stroke-linejoin="round"/>
<path d="M12 4C12.9711 4 13.5988 4.00212 14.0613 4.06431C14.495 4.12262 14.631 4.21677 14.7071 4.29289L16.1213 2.87868C15.6117 2.36902 14.9833 2.17027 14.3278 2.08214C13.701 1.99788 12.9145 2 12 2V4ZM17 7C17 6.08546 17.0021 5.29896 16.9179 4.67221C16.8297 4.01669 16.631 3.38834 16.1213 2.87868L14.7071 4.29289C14.7832 4.36902 14.8774 4.50496 14.9357 4.9387C14.9979 5.40121 15 6.02892 15 7H17ZM12 2C11.0855 2 10.299 1.99788 9.67221 2.08214C9.01669 2.17027 8.38834 2.36902 7.87868 2.87868L9.29289 4.29289C9.36902 4.21677 9.50496 4.12262 9.9387 4.06431C10.4012 4.00212 11.0289 4 12 4V2ZM9 7C9 6.02892 9.00212 5.40121 9.06431 4.9387C9.12262 4.50496 9.21677 4.36902 9.29289 4.29289L7.87868 2.87868C7.36902 3.38834 7.17027 4.01669 7.08214 4.67221C6.99788 5.29896 7 6.08546 7 7H9Z" fill="#0F1013"/>
<path d="M10 13C10 13.9428 10 14.4142 10.2929 14.7071C10.5858 15 11.0572 15 12 15V15C12.9428 15 13.4142 15 13.7071 14.7071C14 14.4142 14 13.9428 14 13V13C14 12.0572 14 11.5858 13.7071 11.2929C13.4142 11 12.9428 11 12 11V11C11.0572 11 10.5858 11 10.2929 11.2929C10 11.5858 10 12.0572 10 13V13Z" stroke="#0F1013" stroke-width="2" stroke-linecap="round" stroke-linejoin="round"/>
</svg>
