<svg width="24" height="24" viewBox="0 0 24 24" fill="none" xmlns="http://www.w3.org/2000/svg">
<path fill-rule="evenodd" clip-rule="evenodd" d="M16 3C15.4477 3 15 3.44772 15 4V5.49239C13.0302 5.98313 10.9698 5.98313 9 5.49239V4C9 3.44772 8.55229 3 8 3C7.44771 3 7 3.44772 7 4V4.88981L6.89482 4.85694C4.96303 4.25326 3 5.69646 3 7.72038V15.8598C3 16.9625 3.684 17.9495 4.71647 18.3367C9.41249 20.0977 14.5875 20.0977 19.2835 18.3367C20.316 17.9495 21 16.9625 21 15.8598V7.72038C21 5.69646 19.037 4.25326 17.1052 4.85694L17 4.88981V4C17 3.44772 16.5523 3 16 3ZM16.2983 7.20448L17.7017 6.7659C18.3457 6.56467 19 7.04574 19 7.72038V9.26481L18.8603 9.30846C14.3933 10.7044 9.60671 10.7044 5.13968 9.30846L5 9.26481V7.72038C5 7.04574 5.65434 6.56467 6.29827 6.7659L7.70173 7.20448C10.5005 8.0791 13.4995 8.0791 16.2983 7.20448ZM5 11.3554C9.5713 12.6888 14.4287 12.6888 19 11.3554V15.8598C19 16.1288 18.8331 16.3696 18.5813 16.464C14.338 18.0552 9.66197 18.0552 5.41872 16.464C5.16685 16.3696 5 16.1288 5 15.8598V11.3554Z" fill="#0F1013"/>
</svg>
