<svg width="24" height="24" viewBox="0 0 24 24" fill="none" xmlns="http://www.w3.org/2000/svg">
<path fill-rule="evenodd" clip-rule="evenodd" d="M14.2001 5.39992C14.5315 4.95821 15.1582 4.86872 15.6 5.20006C16.0418 5.53143 16.1314 6.15823 15.8 6.60006L15 6.00006C15.8 6.60006 15.8 6.60006 15.8 6.60006L15.7967 6.60448L15.789 6.61465L15.7609 6.65171C15.7365 6.68365 15.7011 6.72985 15.6553 6.78884C15.5638 6.90678 15.4309 7.07598 15.2623 7.28465C14.9256 7.70159 14.4451 8.27809 13.8683 8.91902C12.9963 9.88785 11.8764 11.0352 10.6807 12.0001C11.8764 12.9649 12.9963 14.1123 13.8683 15.0811C14.4451 15.722 14.9256 16.2985 15.2623 16.7155C15.4309 16.9241 15.5638 17.0933 15.6553 17.2113C15.7011 17.2703 15.7365 17.3165 15.7609 17.3484L15.789 17.3855L15.7967 17.3956L15.7989 17.3986L15.7996 17.3995C15.7996 17.3995 15.8 17.4001 15 18.0001L15.7996 17.3995C16.131 17.8413 16.0418 18.4687 15.6 18.8001C15.1582 19.1314 14.5314 19.0419 14.2 18.6001L14.199 18.5987L14.1936 18.5916L14.1703 18.5609C14.1492 18.5333 14.1173 18.4916 14.0751 18.4373C13.9909 18.3287 13.866 18.1697 13.7064 17.9721C13.3869 17.5766 12.9299 17.0281 12.3817 16.419C11.2733 15.1874 9.83987 13.7618 8.4453 12.8321C8.1671 12.6466 8 12.3344 8 12.0001C8 11.6657 8.1671 11.3535 8.4453 11.168C9.83987 10.2383 11.2733 8.81268 12.3817 7.58109C12.9299 6.97203 13.3869 6.42353 13.7064 6.02797C13.866 5.83038 13.9909 5.67147 14.0751 5.56284C14.1173 5.50854 14.1492 5.46685 14.1703 5.43923L14.1936 5.40854L14.199 5.40145L14.2001 5.39992Z" fill="#0F1013"/>
</svg>
