<svg width="24" height="24" viewBox="0 0 24 24" fill="none" xmlns="http://www.w3.org/2000/svg">
<path fill-rule="evenodd" clip-rule="evenodd" d="M18.6002 14.2001C19.0419 14.5315 19.1314 15.1582 18.8001 15.6C18.4687 16.0418 17.8419 16.1314 17.4001 15.8L18.0001 15C17.4001 15.8 17.4001 15.8 17.4001 15.8L17.3956 15.7967L17.3855 15.789L17.3484 15.7609C17.3165 15.7365 17.2703 15.7011 17.2113 15.6553C17.0933 15.5638 16.9241 15.4309 16.7155 15.2623C16.2985 14.9256 15.722 14.4451 15.0811 13.8683C14.1123 12.9963 12.9649 11.8764 12.0001 10.6807C11.0352 11.8764 9.88785 12.9963 8.91902 13.8683C8.27809 14.4451 7.70159 14.9256 7.28465 15.2623C7.07598 15.4309 6.90678 15.5638 6.78884 15.6553C6.72985 15.7011 6.68365 15.7365 6.65171 15.7609L6.61465 15.789L6.60448 15.7967L6.60154 15.7989L6.60062 15.7996C6.60062 15.7996 6.60006 15.8 6.00006 15L6.60062 15.7996C6.15879 16.131 5.53143 16.0418 5.20006 15.6C4.86869 15.1582 4.95823 14.5314 5.40006 14.2L5.40145 14.199L5.40854 14.1936L5.43923 14.1703C5.46685 14.1492 5.50854 14.1173 5.56284 14.0751C5.67147 13.9909 5.83038 13.866 6.02797 13.7064C6.42353 13.3869 6.97203 12.9299 7.58109 12.3817C8.81268 11.2733 10.2383 9.83987 11.168 8.4453C11.3535 8.1671 11.6657 8 12.0001 8C12.3344 8 12.6466 8.1671 12.8321 8.4453C13.7618 9.83987 15.1874 11.2733 16.419 12.3817C17.0281 12.9299 17.5766 13.3869 17.9721 13.7064C18.1697 13.866 18.3287 13.9909 18.4373 14.0751C18.4916 14.1173 18.5333 14.1492 18.5609 14.1703L18.5916 14.1936L18.5987 14.199L18.6002 14.2001Z" fill="#0F1013"/>
</svg>
