<svg width="24" height="24" viewBox="0 0 24 24" fill="none" xmlns="http://www.w3.org/2000/svg">
<path fill-rule="evenodd" clip-rule="evenodd" d="M5.39992 9.79995C4.95821 9.46855 4.86872 8.84184 5.20006 8.40006C5.53143 7.95823 6.15823 7.86869 6.60006 8.20006L6.00006 9.00006C6.60006 8.20006 6.60006 8.20006 6.60006 8.20006L6.60448 8.20338L6.61465 8.21106L6.65171 8.2392C6.68365 8.26355 6.72985 8.29898 6.78884 8.34474C6.90678 8.43624 7.07598 8.56921 7.28465 8.73774C7.70159 9.07451 8.27809 9.55492 8.91902 10.1318C9.88785 11.0037 11.0352 12.1236 12.0001 13.3194C12.9649 12.1236 14.1123 11.0037 15.0811 10.1318C15.722 9.55492 16.2985 9.07451 16.7155 8.73774C16.9241 8.56921 17.0933 8.43624 17.2113 8.34474C17.2703 8.29898 17.3165 8.26355 17.3484 8.2392L17.3855 8.21106L17.3956 8.20338L17.3986 8.20117L17.3995 8.20048C17.3995 8.20048 17.4001 8.20006 18.0001 9.00006L17.3995 8.20048C17.8413 7.86911 18.4687 7.95823 18.8001 8.40006C19.1314 8.84189 19.0419 9.46869 18.6001 9.80006L18.5987 9.80111L18.5916 9.80645L18.5609 9.82976C18.5333 9.85082 18.4916 9.88278 18.4373 9.92491C18.3287 10.0092 18.1697 10.134 17.9721 10.2936C17.5766 10.6131 17.0281 11.0702 16.419 11.6184C15.1874 12.7268 13.7618 14.1602 12.8321 15.5548C12.6466 15.833 12.3344 16.0001 12.0001 16.0001C11.6657 16.0001 11.3535 15.833 11.168 15.5548C10.2383 14.1602 8.81268 12.7268 7.58109 11.6184C6.97203 11.0702 6.42353 10.6131 6.02797 10.2936C5.83038 10.134 5.67147 10.0092 5.56284 9.92491C5.50854 9.88278 5.46685 9.85082 5.43923 9.82976L5.40854 9.80645L5.40145 9.80111L5.39992 9.79995Z" fill="#0F1013"/>
</svg>
