<svg width="24" height="24" viewBox="0 0 24 24" fill="none" xmlns="http://www.w3.org/2000/svg">
<path fill-rule="evenodd" clip-rule="evenodd" d="M9.79995 18.6002C9.46855 19.0419 8.84184 19.1314 8.40006 18.8001C7.95823 18.4687 7.86869 17.8419 8.20006 17.4001L9.00006 18.0001C8.20006 17.4001 8.20006 17.4001 8.20006 17.4001L8.20338 17.3956L8.21106 17.3855L8.2392 17.3484C8.26355 17.3165 8.29898 17.2703 8.34474 17.2113C8.43624 17.0933 8.56921 16.9241 8.73774 16.7155C9.07451 16.2985 9.55492 15.722 10.1318 15.0811C11.0037 14.1123 12.1236 12.9649 13.3194 12.0001C12.1236 11.0352 11.0037 9.88785 10.1318 8.91902C9.55492 8.27809 9.07451 7.70159 8.73774 7.28465C8.56921 7.07598 8.43624 6.90678 8.34474 6.78884C8.29898 6.72985 8.26355 6.68365 8.2392 6.65171L8.21106 6.61465L8.20338 6.60448L8.20117 6.60154L8.20048 6.60062C8.20048 6.60062 8.20006 6.60006 9.00006 6.00006L8.20048 6.60062C7.86911 6.15879 7.95823 5.53143 8.40006 5.20006C8.84189 4.86869 9.46869 4.95823 9.80006 5.40006L9.80111 5.40145L9.80645 5.40854L9.82976 5.43923C9.85082 5.46685 9.88278 5.50854 9.92491 5.56284C10.0092 5.67147 10.134 5.83038 10.2936 6.02797C10.6131 6.42353 11.0702 6.97203 11.6184 7.58109C12.7268 8.81268 14.1602 10.2383 15.5548 11.168C15.833 11.3535 16.0001 11.6657 16.0001 12.0001C16.0001 12.3344 15.833 12.6466 15.5548 12.8321C14.1602 13.7618 12.7268 15.1874 11.6184 16.419C11.0702 17.0281 10.6131 17.5766 10.2936 17.9721C10.134 18.1697 10.0092 18.3287 9.92491 18.4373C9.88278 18.4916 9.85082 18.5333 9.82976 18.5609L9.80645 18.5916L9.80111 18.5987L9.79995 18.6002Z" fill="#0F1013"/>
</svg>
