<svg width="24" height="24" viewBox="0 0 24 24" fill="none" xmlns="http://www.w3.org/2000/svg">
<path fill-rule="evenodd" clip-rule="evenodd" d="M16.9208 4.2348C18.1875 4.99485 19.2477 6.05503 20.0078 7.32177L20.5698 8.25844C20.8058 8.65192 20.7438 9.15557 20.4194 9.48004L12.3035 17.596C12.293 17.6069 12.2823 17.6177 12.2712 17.6282L10.3431 19.5563C10.1068 19.7926 9.7682 19.8952 9.44055 19.8299L9.43282 19.8284L9.40065 19.8223C9.37119 19.8168 9.32616 19.8087 9.26775 19.7987C9.15074 19.7787 8.98103 19.7517 8.77585 19.7247C8.36151 19.6701 7.82072 19.6177 7.28491 19.6183C6.88198 19.6188 6.51494 19.6494 6.22038 19.7163C5.91016 19.7867 5.78211 19.8747 5.7469 19.9099C5.35638 20.3004 4.72321 20.3004 4.33269 19.9099C3.94216 19.5193 3.94216 18.8862 4.33269 18.4957C4.3679 18.4604 4.45582 18.3324 4.52629 18.0222C4.5932 17.7276 4.62378 17.3606 4.62424 16.9576C4.62463 16.6114 4.60287 16.2612 4.57219 15.9423C4.54037 15.6116 4.49973 15.3223 4.46714 15.1165C4.45089 15.0138 4.43677 14.9327 4.42695 14.8785C4.42205 14.8514 4.41823 14.8311 4.41577 14.8182L4.41314 14.8046L4.41277 14.8027C4.34724 14.4749 4.44985 14.1359 4.68624 13.8995L6.62117 11.9645C6.62771 11.9578 6.63433 11.9512 6.64104 11.9447L14.7625 3.82319C15.087 3.49872 15.5906 3.43672 15.9841 3.6728L16.9208 4.2348ZM7.54949 13.8646L6.46485 14.9493C6.49737 15.1684 6.53343 15.4435 6.563 15.7508C6.58636 15.9936 6.60598 16.2597 6.61634 16.5367L7.7059 17.6262C8.20621 17.6449 8.67416 17.694 9.03722 17.7418C9.12892 17.7539 9.21464 17.766 9.29328 17.7777L10.3779 16.6931C9.74016 15.4882 8.75435 14.5024 7.54949 13.8646ZM11.842 15.229C11.1289 14.0818 10.1608 13.1136 9.01356 12.4006L15.6246 5.78949L15.8918 5.94979C16.877 6.54094 17.7016 7.36552 18.2928 8.35077L18.4531 8.61792L11.842 15.229Z" fill="#0F1013"/>
</svg>
