<svg width="24" height="24" viewBox="0 0 24 24" fill="none" xmlns="http://www.w3.org/2000/svg">
<path d="M2.99996 12L2.05126 11.6838C1.98286 11.889 1.98286 12.1109 2.05126 12.3162L2.99996 12ZM20.9999 12L21.9486 12.3162C22.017 12.1109 22.017 11.889 21.9486 11.6838L20.9999 12ZM3.94866 12.3162C5.19947 8.56307 8.38052 6 11.9999 6V4C7.3756 4 3.52578 7.25947 2.05126 11.6838L3.94866 12.3162ZM11.9999 6C15.6193 6 18.8004 8.56308 20.0512 12.3162L21.9486 11.6838C20.4741 7.25947 16.6243 4 11.9999 4V6ZM20.0512 11.6838C18.8004 15.4369 15.6193 17.9999 11.9999 17.9999V19.9999C16.6243 19.9999 20.4741 16.7405 21.9486 12.3162L20.0512 11.6838ZM11.9999 17.9999C8.38052 17.9999 5.19947 15.4369 3.94866 11.6838L2.05126 12.3162C3.52578 16.7405 7.3756 19.9999 11.9999 19.9999V17.9999Z" fill="#0F1013"/>
<circle cx="12" cy="12" r="3" stroke="#0F1013" stroke-width="2" stroke-linecap="round" stroke-linejoin="round"/>
<circle cx="13.5" cy="10.5" r="1.5" fill="#0F1013"/>
</svg>
