<svg width="24" height="24" viewBox="0 0 24 24" fill="none" xmlns="http://www.w3.org/2000/svg">
<path fill-rule="evenodd" clip-rule="evenodd" d="M3 9L5.12602 9C5.57006 10.7252 7.13616 12 9 12C10.8666 12 12.4346 10.7215 12.8759 8.99237C12.9166 8.99741 12.958 9 13 9H21C21.5523 9 22 8.55228 22 8C22 7.44772 21.5523 7 21 7H13C12.958 7 12.9166 7.00259 12.8759 7.00763C12.4346 5.27853 10.8666 4 9 4C7.13616 4 5.57006 5.27477 5.12602 7L3 7C2.44772 7 2 7.44772 2 8C2 8.55228 2.44772 9 3 9ZM9 6C7.89543 6 7 6.89543 7 8C7 9.10457 7.89543 10 9 10C10.1046 10 11 9.10457 11 8C11 6.89543 10.1046 6 9 6Z" fill="#0F1013"/>
<path fill-rule="evenodd" clip-rule="evenodd" d="M21 15H18.874C18.4299 13.2748 16.8638 12 15 12C13.1334 12 11.5655 13.2785 11.1241 15.0076C11.0834 15.0026 11.042 15 11 15L3 15C2.44772 15 2 15.4477 2 16C2 16.5523 2.44772 17 3 17L11 17C11.042 17 11.0834 16.9974 11.1241 16.9924C11.5655 18.7215 13.1334 20 15 20C16.8638 20 18.4299 18.7252 18.874 17H21C21.5523 17 22 16.5523 22 16C22 15.4477 21.5523 15 21 15ZM17 16C17 14.8954 16.1046 14 15 14C13.8954 14 13 14.8954 13 16C13 17.1046 13.8954 18 15 18C16.1046 18 17 17.1046 17 16Z" fill="#0F1013"/>
</svg>
