<svg width="24" height="24" viewBox="0 0 24 24" fill="none" xmlns="http://www.w3.org/2000/svg">
<path fill-rule="evenodd" clip-rule="evenodd" d="M6.39368 16.1923C5.70742 15.276 5.24052 14.1859 5.07089 13H3C2.44772 13 2 12.5523 2 12C2 11.4477 2.44772 11 3 11H5.07089C5.24051 9.81413 5.70736 8.72414 6.39355 7.80792L4.92888 6.34324C4.53836 5.95272 4.53836 5.31955 4.92888 4.92903C5.3194 4.53851 5.95257 4.53851 6.34309 4.92903L7.80774 6.39368C8.724 5.70742 9.81406 5.24052 11 5.07089V3C11 2.44772 11.4477 2 12 2C12.5523 2 13 2.44772 13 3V5.07089C14.1859 5.24052 15.276 5.70742 16.1923 6.39368L17.6569 4.92903C18.0474 4.53851 18.6806 4.53851 19.0711 4.92903C19.4616 5.31955 19.4616 5.95272 19.0711 6.34324L17.6065 7.80792C18.2926 8.72414 18.7595 9.81413 18.9291 11H21C21.5523 11 22 11.4477 22 12C22 12.5523 21.5523 13 21 13H18.9291C18.7595 14.1859 18.2926 15.276 17.6063 16.1923L19.071 17.6569C19.4615 18.0474 19.4615 18.6806 19.071 19.0711C18.6804 19.4616 18.0473 19.4616 17.6568 19.0711L16.1921 17.6064C15.2759 18.2926 14.1859 18.7595 13 18.9291V21C13 21.5523 12.5523 22 12 22C11.4477 22 11 21.5523 11 21V18.9291C9.81413 18.7595 8.72414 18.2926 7.80792 17.6064L6.34324 19.0711C5.95272 19.4616 5.31956 19.4616 4.92903 19.0711C4.53851 18.6806 4.53851 18.0474 4.92903 17.6569L6.39368 16.1923ZM11.0137 9.1659C11.0047 9.11194 11 9.05652 11 9V7.10002C9.04087 7.4977 7.4977 9.04087 7.10002 11H9C9.05652 11 9.11194 11.0047 9.1659 11.0137C9.46636 10.1503 10.1503 9.46636 11.0137 9.1659ZM9.1659 12.9863C9.11194 12.9953 9.05652 13 9 13H7.10002C7.4977 14.9591 9.04087 16.5023 11 16.9V15C11 14.9435 11.0047 14.8881 11.0137 14.8341C10.1503 14.5336 9.46636 13.8497 9.1659 12.9863ZM12.9863 14.8341C12.9953 14.8881 13 14.9435 13 15V16.9C14.9591 16.5023 16.5023 14.9591 16.9 13H15C14.9435 13 14.8881 12.9953 14.8341 12.9863C14.5336 13.8497 13.8497 14.5336 12.9863 14.8341ZM14.8341 11.0137C14.8881 11.0047 14.9435 11 15 11H16.9C16.5023 9.04087 14.9591 7.4977 13 7.10002V9C13 9.05652 12.9953 9.11194 12.9863 9.1659C13.8497 9.46636 14.5336 10.1503 14.8341 11.0137ZM11 12C11 11.4477 11.4477 11 12 11C12.5523 11 13 11.4477 13 12C13 12.5523 12.5523 13 12 13C11.4477 13 11 12.5523 11 12Z" fill="#0F1013"/>
</svg>
