<svg width="24" height="24" viewBox="0 0 24 24" fill="none" xmlns="http://www.w3.org/2000/svg">
<g clip-path="url(#clip0_1215_6856)">
<path fill-rule="evenodd" clip-rule="evenodd" d="M15.325 12.7343C16.3527 11.8185 17 10.4849 17 9C17 6.23858 14.7614 4 12 4C9.23858 4 7 6.23858 7 9C7 10.4849 7.64726 11.8185 8.67502 12.7343C6.52824 13.7428 5 15.7069 5 18.1025C5 18.5982 5.28346 18.9333 5.50104 19.1115C5.71438 19.2863 5.96316 19.3985 6.17487 19.4752C6.60741 19.632 7.16276 19.7373 7.74846 19.8121C8.93867 19.9639 10.4905 20.017 12.0142 19.9954C13.5403 19.9738 15.0832 19.8765 16.2607 19.7152C16.8419 19.6355 17.3774 19.5347 17.7873 19.4044C17.9853 19.3414 18.2161 19.2527 18.4175 19.1194C18.5755 19.0147 19 18.6925 19 18.1025C19 15.7069 17.4718 13.7428 15.325 12.7343ZM9 9C9 7.34315 10.3431 6 12 6C13.6569 6 15 7.34315 15 9C15 10.6569 13.6569 12 12 12C10.3431 12 9 10.6569 9 9ZM12 14C9.28962 14 7.30232 15.7087 7.03156 17.6498C7.26013 17.7128 7.58366 17.7748 8.00154 17.8281C9.06133 17.9633 10.5095 18.0165 11.9858 17.9956C13.4597 17.9747 14.9168 17.8806 15.9893 17.7337C16.3899 17.6788 16.7136 17.6195 16.9548 17.5608C16.6366 15.6568 14.6689 14 12 14Z" fill="#0F1013"/>
<path d="M17.1554 12.0709C17.4245 12.0246 17.7066 12 18 12C20.0885 12 21.6054 13.2469 21.9336 14.6738C21.7625 14.7094 21.5516 14.7454 21.3018 14.7796C20.7103 14.8606 19.975 14.9224 19.1869 14.9597C19.5211 15.5619 19.7641 16.2197 19.8934 16.9232C20.5027 16.8836 21.0762 16.8292 21.5733 16.7611C22.0607 16.6943 22.518 16.6087 22.8733 16.4958C23.0439 16.4416 23.2532 16.3621 23.4399 16.2384C23.5833 16.1434 24 15.8315 24 15.2521C24 13.2957 22.8269 11.686 21.1516 10.7846C21.6803 10.1715 22 9.37307 22 8.5C22 6.567 20.433 5 18.5 5C17.8918 5 17.3197 5.15516 16.8214 5.42805C17.2175 5.96184 17.5271 6.56368 17.7293 7.21285C17.9546 7.0777 18.2182 7 18.5 7C19.3284 7 20 7.67157 20 8.5C20 9.32843 19.3284 10 18.5 10C18.2999 10 18.109 9.96082 17.9344 9.88971C17.8173 10.6771 17.5471 11.4146 17.1554 12.0709Z" fill="#0F1013"/>
<path d="M5.5 5C6.10825 5 6.68026 5.15516 7.17862 5.42805C6.78251 5.96184 6.47294 6.56369 6.27066 7.21285C6.04543 7.0777 5.78179 7 5.5 7C4.67157 7 4 7.67157 4 8.5C4 9.32843 4.67157 10 5.5 10C5.7001 10 5.89105 9.96082 6.06559 9.88971C6.18274 10.6771 6.45293 11.4146 6.84457 12.0709C6.57547 12.0246 6.29337 12 6 12C3.87417 12 2.3406 13.2918 2.04997 14.7505C2.21522 14.7878 2.4278 14.8248 2.68904 14.8581C3.2742 14.9328 4.00601 14.9773 4.7946 14.9933C4.46213 15.6005 4.22231 16.2637 4.09772 16.9728C3.49725 16.9478 2.93026 16.9051 2.43596 16.842C1.94401 16.7793 1.46679 16.6897 1.08894 16.5527C0.904566 16.4859 0.677272 16.3847 0.478576 16.2219C0.275651 16.0556 0 15.7336 0 15.2521C0 13.2957 1.17309 11.686 2.84836 10.7846C2.31968 10.1715 2 9.37307 2 8.5C2 6.567 3.567 5 5.5 5Z" fill="#0F1013"/>
</g>
<defs>
<clipPath id="clip0_1215_6856">
<rect width="24" height="24" fill="white"/>
</clipPath>
</defs>
</svg>
