<svg width="24" height="24" viewBox="0 0 24 24" fill="none" xmlns="http://www.w3.org/2000/svg">
<path fill-rule="evenodd" clip-rule="evenodd" d="M12 20C16.4183 20 20 16.4183 20 12C20 7.58172 16.4183 4 12 4C7.58172 4 4 7.58172 4 12C4 16.4183 7.58172 20 12 20ZM9.64109 10.9904C9.42613 10.6363 8.96488 10.5235 8.61082 10.7385C8.25674 10.9534 8.14394 11.4147 8.35888 11.7688L9 11.3796C8.35888 11.7688 8.35884 11.7687 8.35888 11.7688L8.36029 11.7711L8.36371 11.7767L8.37635 11.7974L8.42377 11.8743C8.46476 11.9404 8.52397 12.0352 8.59778 12.1514C8.74519 12.3833 8.95184 12.702 9.18853 13.0483C9.64659 13.7183 10.2681 14.5683 10.8031 15.0549C11.0248 15.2565 11.3453 15.3068 11.6181 15.1827C12.229 14.905 12.7764 14.3887 13.2345 13.8509C13.7029 13.3008 14.1302 12.665 14.488 12.0732C14.8472 11.479 15.1453 10.9143 15.3533 10.4991C15.4575 10.291 15.5397 10.1192 15.5962 9.99869C15.6244 9.93839 15.6463 9.89081 15.6614 9.8578L15.6787 9.81941L15.6835 9.80882L15.6848 9.80575L15.6853 9.80478C15.6853 9.80465 15.6855 9.80419 15 9.5L15.6853 9.80478C15.8533 9.42617 15.6828 8.98246 15.3042 8.81446C14.9256 8.64648 14.4826 8.81715 14.3145 9.19565L14.3138 9.19722L14.3106 9.20452L14.2963 9.23606C14.2834 9.2644 14.2638 9.30703 14.238 9.36213C14.1863 9.47238 14.1098 9.63227 14.0121 9.82734C13.8162 10.2184 13.5374 10.7463 13.2043 11.2972C12.8698 11.8505 12.4894 12.4122 12.0925 12.8783C11.8589 13.1527 11.6357 13.3744 11.4289 13.5405C11.1102 13.1679 10.7521 12.6775 10.4269 12.2017C10.202 11.8728 10.0048 11.5688 9.86376 11.3468C9.79334 11.236 9.73716 11.1461 9.69882 11.0842L9.6552 11.0134L9.64429 10.9956L9.64172 10.9914L9.64109 10.9904Z" fill="#0F1013"/>
</svg>
