<svg width="112" height="112" viewBox="0 0 112 112" fill="none" xmlns="http://www.w3.org/2000/svg">
<rect width="112" height="112" rx="16" fill="#E6ECEF"/>
<g style="mix-blend-mode:soft-light">
<path d="M47.5431 53.2109C45.3224 53.2109 43.9286 51.9115 43.9286 49.8562C43.9286 49.2656 44.094 48.4624 44.4011 47.5883L53.709 22.2397C54.7012 19.4757 56.3785 18.2 59.0717 18.2C61.8593 18.2 63.513 19.4284 64.5288 22.216L73.884 47.5883C74.2147 48.5097 74.3328 49.1475 74.3328 49.8562C74.3328 51.817 72.8445 53.2109 70.7656 53.2109C68.7575 53.2109 67.6945 52.2895 67.0566 50.0688L65.2612 44.6826H52.953L51.1576 49.998C50.4961 52.2659 49.433 53.2109 47.5431 53.2109ZM54.5122 39.1545H63.6075L59.0953 25.1927H58.9299L54.5122 39.1545Z" fill="white"/>
<path d="M31.4942 53.2109C29.2499 53.2109 27.9269 51.8407 27.9269 49.5019V40.0286L17.5323 23.9642C17.0126 23.161 16.8 22.3578 16.8 21.5546C16.8 19.6174 18.3119 18.2 20.3672 18.2C21.9028 18.2 22.7296 18.7669 23.6746 20.397L31.4706 33.2249H31.6359L39.4555 20.397C40.3532 18.8378 41.2746 18.2 42.692 18.2C44.7001 18.2 46.212 19.6174 46.212 21.5073C46.212 22.3342 45.9758 23.1138 45.456 23.9406L35.0614 40.0286V49.5019C35.0614 51.8407 33.7385 53.2109 31.4942 53.2109Z" fill="white"/>
<path d="M62.7219 93.9902C60.4776 93.9902 59.1546 92.62 59.1546 90.2812V62.7119C59.1546 60.3494 60.4776 58.9792 62.7219 58.9792C64.9662 58.9792 66.2891 60.3494 66.2891 62.7119V90.2812C66.2891 92.62 64.9662 93.9902 62.7219 93.9902Z" fill="white"/>
<path d="M80.936 83.6192C78.928 83.6192 77.7468 82.249 77.7468 80.3118V79.9811C77.7468 77.1934 79.1879 75.3507 81.9755 73.7207C85.023 71.9016 85.9443 70.7204 85.9443 68.547C85.9443 66.2318 84.1489 64.6254 81.5503 64.6254C79.2351 64.6254 77.6759 65.7594 76.9199 67.8619C76.3293 69.3738 75.2663 70.0353 73.8252 70.0353C71.9589 70.0353 70.8013 68.8777 70.8013 67.0823C70.8013 66.0665 71.0375 65.1688 71.51 64.271C73.022 61.1527 76.8018 59.1446 81.881 59.1446C88.5902 59.1446 93.1024 62.83 93.1024 68.3344C93.1024 71.9016 91.3779 74.3349 88.0469 76.2957C84.9049 78.1148 84.1962 79.1306 83.8891 81.115C83.5347 82.6978 82.6133 83.6192 80.936 83.6192ZM80.9833 94.1319C78.8571 94.1319 77.1326 92.5018 77.1326 90.4229C77.1326 88.344 78.8571 86.7139 80.9833 86.7139C83.1331 86.7139 84.8576 88.344 84.8576 90.4229C84.8576 92.5018 83.1331 94.1319 80.9833 94.1319Z" fill="white"/>
<path d="M31.426 93.9901C29.1817 93.9901 27.8587 92.6199 27.8587 90.2812V62.7119C27.8587 60.3494 29.1817 58.9792 31.426 58.9792C33.6703 58.9792 34.9932 60.3494 34.9932 62.7119V74.5239H35.2058L48.0337 60.5148C49.0259 59.4281 49.9237 58.9792 51.1049 58.9792C52.9948 58.9792 54.4595 60.4203 54.4595 62.263C54.4595 63.2552 54.1051 64.0348 53.2074 64.9798L43.805 74.831L54.0342 87.2573C55.0973 88.5802 55.5698 89.5961 55.5698 90.5647C55.5698 92.5018 54.0815 94.0138 52.1207 94.0138C50.656 94.0138 49.6638 93.4704 48.5535 92.053L38.3951 79.5558L34.9932 83.1231V90.2812C34.9932 92.6199 33.6703 93.9901 31.426 93.9901Z" fill="white"/>
</g>
</svg>
