<svg width="265" height="75" viewBox="0 0 265 75" fill="none" xmlns="http://www.w3.org/2000/svg">
<path d="M23.4462 65.9579C23.4462 70.8861 26.2338 73.7733 30.9629 73.7733C35.6919 73.7733 38.4796 70.8861 38.4796 65.9579V45.9963L60.3826 12.0964C61.4777 10.3541 61.9755 8.71142 61.9755 6.96914C61.9755 2.98677 58.7896 0 54.5584 0C51.5716 0 49.6302 1.34405 47.7386 4.6295L31.2616 31.6598H30.9131L14.4858 4.6295C12.4947 1.19471 10.7524 0 7.51671 0C3.18589 0 0 2.98677 0 7.0687C0 8.7612 0.448016 10.4537 1.54317 12.1462L23.4462 45.9963V65.9579Z" fill="#0F1013"/>
<path fill-rule="evenodd" clip-rule="evenodd" d="M57.1641 66.7046C57.1641 71.0354 60.1011 73.7733 64.7803 73.7733C68.7627 73.7733 71.0028 71.7821 72.3966 67.0033L76.1798 55.8029H102.115L105.898 67.1526C107.242 71.8319 109.482 73.7733 113.714 73.7733C118.094 73.7733 121.23 70.8363 121.23 66.7046C121.23 65.2112 120.981 63.8672 120.285 61.9258L100.572 8.46252C98.4313 2.58854 94.9467 0 89.0727 0C83.3979 0 79.8635 2.6881 77.7728 8.5123L58.1596 61.9258C57.5125 63.7676 57.1641 65.4601 57.1641 66.7046ZM98.6304 44.1545H79.4653L88.7741 14.7347H89.1225L98.6304 44.1545Z" fill="#0F1013"/>
<path d="M200.462 73.7733C195.733 73.7733 192.945 70.8861 192.945 65.9579V7.86517C192.945 2.88721 195.733 0 200.462 0C205.191 0 207.978 2.88721 207.978 7.86517V65.9579C207.978 70.8861 205.191 73.7733 200.462 73.7733Z" fill="#0F1013"/>
<path d="M238.842 51.9201C234.611 51.9201 232.122 49.0329 232.122 44.9509V44.254C232.122 38.38 235.158 34.4972 241.032 31.0624C247.454 27.2294 249.395 24.7404 249.395 20.1607C249.395 15.2823 245.612 11.8973 240.136 11.8973C235.258 11.8973 231.972 14.2867 230.379 18.7171C229.135 21.903 226.895 23.2968 223.858 23.2968C219.926 23.2968 217.486 20.8576 217.486 17.0744C217.486 14.9339 217.984 13.0422 218.98 11.1506C222.166 4.57972 230.13 0.348457 240.833 0.348457C254.97 0.348457 264.478 8.11407 264.478 19.7127C264.478 27.2294 260.844 32.3567 253.825 36.4884C247.205 40.3214 245.711 42.4619 245.064 46.6434C244.318 49.9787 242.376 51.9201 238.842 51.9201ZM238.941 74.072C234.461 74.072 230.827 70.6372 230.827 66.2566C230.827 61.876 234.461 58.4412 238.941 58.4412C243.471 58.4412 247.105 61.876 247.105 66.2566C247.105 70.6372 243.471 74.072 238.941 74.072Z" fill="#0F1013"/>
<path d="M134.517 73.7733C129.788 73.7733 127 70.8861 127 65.9579V7.86517C127 2.88721 129.788 0 134.517 0C139.246 0 142.033 2.88721 142.033 7.86517V32.7549H142.481L169.512 3.23567C171.602 0.945812 173.494 0 175.983 0C179.965 0 183.052 3.03655 183.052 6.91936C183.052 9.0101 182.305 10.6528 180.413 12.644L160.601 33.4021L182.156 59.5861C184.396 62.3738 185.391 64.5143 185.391 66.5552C185.391 70.6372 182.255 73.8231 178.124 73.8231C175.037 73.8231 172.947 72.6781 170.607 69.6914L149.202 43.358L142.033 50.8747V65.9579C142.033 70.8861 139.246 73.7733 134.517 73.7733Z" fill="#0F1013"/>
</svg>
