<svg width="160" height="160" viewBox="0 0 160 160" fill="none" xmlns="http://www.w3.org/2000/svg">
<path fill-rule="evenodd" clip-rule="evenodd" d="M23.3323 65.6376C23.3323 70.5418 26.1064 73.415 30.8125 73.415C35.5186 73.415 38.2927 70.5418 38.2927 65.6376V45.7729L60.0893 12.0377C61.1792 10.3039 61.6745 8.66912 61.6745 6.93529C61.6745 2.97227 58.5041 0 54.2934 0C51.3212 0 49.3892 1.33752 47.5067 4.60702L31.1097 31.506H30.763L14.4155 4.60702C12.434 1.18891 10.7002 0 7.48021 0C3.17042 0 0 2.97227 0 7.03437C0 8.71865 0.44584 10.4029 1.53567 12.0872L23.3323 45.7729V65.6376ZM56.8864 66.3806C56.8864 70.6904 59.8092 73.415 64.4657 73.415C68.4288 73.415 70.658 71.4335 72.045 66.6779L75.8099 55.5319H101.619L105.384 66.8265C106.721 71.483 108.951 73.415 113.161 73.415C117.521 73.415 120.642 70.4923 120.642 66.3806C120.642 64.8945 120.394 63.557 119.7 61.625L100.083 8.42143C97.9533 2.57597 94.4856 0 88.6402 0C82.9929 0 79.4757 2.67504 77.3951 8.47096L57.8772 61.625C57.2332 63.4579 56.8864 65.1422 56.8864 66.3806ZM98.1514 43.94H79.0794L88.3429 14.6632H88.6897L98.1514 43.94ZM96.2943 158.926C91.5882 158.926 88.8141 156.052 88.8141 151.148V93.3377C88.8141 88.3839 91.5882 85.5107 96.2943 85.5107C101 85.5107 103.775 88.3839 103.775 93.3377V151.148C103.775 156.052 101 158.926 96.2943 158.926ZM134.488 137.179C130.277 137.179 127.8 134.305 127.8 130.243V129.55C127.8 123.704 130.822 119.84 136.668 116.422C143.058 112.608 144.99 110.131 144.99 105.573C144.99 100.719 141.225 97.3502 135.776 97.3502C130.921 97.3502 127.652 99.728 126.067 104.137C124.828 107.307 122.599 108.694 119.577 108.694C115.664 108.694 113.236 106.267 113.236 102.502C113.236 100.372 113.732 98.4896 114.722 96.6071C117.893 90.0682 125.819 85.8574 136.469 85.8574C150.538 85.8574 160 93.5853 160 105.128C160 112.608 156.384 117.71 149.399 121.822C142.81 125.636 141.324 127.766 140.68 131.928C139.937 135.247 138.005 137.179 134.488 137.179ZM134.587 159.223C130.129 159.223 126.512 155.805 126.512 151.445C126.512 147.086 130.129 143.668 134.587 143.668C139.095 143.668 142.711 147.086 142.711 151.445C142.711 155.805 139.095 159.223 134.587 159.223ZM23.1893 151.148C23.1893 156.052 25.9634 158.926 30.6695 158.926C35.3756 158.926 38.1497 156.052 38.1497 151.148V136.138L45.2832 128.658L66.5844 154.864C68.9127 157.836 70.9933 158.975 74.0646 158.975C78.1763 158.975 81.2971 155.805 81.2971 151.743C81.2971 149.712 80.3064 147.582 78.0772 144.807L56.6273 118.751L76.3434 98.0933C78.2258 96.1118 78.9689 94.477 78.9689 92.3964C78.9689 88.5325 75.8975 85.5107 71.9345 85.5107C69.4576 85.5107 67.5752 86.4519 65.4946 88.7306L38.5956 118.107H38.1497V93.3377C38.1497 88.3839 35.3756 85.5107 30.6695 85.5107C25.9634 85.5107 23.1893 88.3839 23.1893 93.3377V151.148Z" fill="#0F1013"/>
</svg>
