<svg width="112" height="112" viewBox="0 0 112 112" fill="none" xmlns="http://www.w3.org/2000/svg">
<path d="M60 102.5C63 102.5 74 94.5 74 91L60 93C60 93 56.29 102.5 60 102.5Z" fill="#383452" fill-opacity="0.25"/>
<path d="M23 21C23 19.8954 23.8954 19 25 19H72C73.1046 19 74 19.8954 74 21V91C74 92.1046 73.1046 93 72 93H25C23.8954 93 23 92.1046 23 91V21Z" fill="#383452"/>
<path fill-rule="evenodd" clip-rule="evenodd" d="M100.712 56.4999L79.8646 40.8643V48H51C49.8954 48 49 48.8954 49 50V64C49 65.1046 49.8954 66 51 66H79.8646V72.1356L100.712 56.4999Z" fill="#FF936B"/>
<rect x="23" y="19" width="42" height="74" fill="black" fill-opacity="0.5"/>
<path d="M23 19.4442C23 18.5101 23.6466 17.7004 24.5575 17.4937L59.5575 9.55406C60.8089 9.2702 62 10.2214 62 11.5045V100.495C62 101.779 60.8089 102.73 59.5575 102.446L24.5575 94.5063C23.6466 94.2996 23 93.4899 23 92.5558V19.4442Z" fill="#9289C8"/>
<ellipse cx="56.5" cy="56.5" rx="2.5" ry="3.5" fill="#494466"/>
<ellipse cx="56.5" cy="56.5" rx="2.5" ry="3.5" fill="#494466"/>
<path opacity="0.25" d="M59 56.5C59 58.433 57.8807 60 56.5 60C56.5 60 57 58.433 57 56.5C57 54.567 56.5 53 56.5 53C57.8807 53 59 54.567 59 56.5Z" fill="black"/>
<path opacity="0.11" d="M29 16.4861V95.5141L24.5575 94.5064C23.6466 94.2997 23 93.49 23 92.5559V19.4443C23 18.5102 23.6466 17.7005 24.5575 17.4938L29 16.4861Z" fill="white"/>
</svg>
