<svg version="1.1" id="Layer_1" xmlns="http://www.w3.org/2000/svg" xmlns:xlink="http://www.w3.org/1999/xlink" x="0px" y="0px"
	 width="100%" viewBox="0 0 512 512" enable-background="new 0 0 512 512" xml:space="preserve">
<path fill="#EAB14D" opacity="1.000000" stroke="none" 
	d="
M248.000000,513.000000 
	C240.645752,513.000000 233.291504,513.000000 225.806915,512.662598 
	C224.835663,511.886810 224.037521,511.203857 223.147141,511.048065 
	C215.137543,509.646545 207.031677,508.697784 199.105225,506.936066 
	C171.650757,500.834045 145.923035,490.235779 122.063164,475.440918 
	C99.152954,461.234985 79.106575,443.587097 61.503769,423.098663 
	C49.444660,409.062714 38.946781,393.950104 30.389973,377.650635 
	C16.101112,350.432434 6.210447,321.678497 2.916683,290.897217 
	C2.842544,290.204376 1.663592,289.629761 0.999998,289.000000 
	C1.000000,267.645782 1.000000,246.291550 1.331408,224.808212 
	C2.772835,219.504517 4.029169,214.356354 4.968606,209.150970 
	C10.201213,180.157257 20.395653,152.931656 35.224171,127.589340 
	C49.902580,102.503563 68.603561,80.648293 90.719147,61.669571 
	C104.741493,49.636158 119.815987,39.158657 136.068008,30.556700 
	C163.355286,16.113941 192.241196,6.316546 223.107056,2.916934 
	C223.800003,2.840613 224.371735,1.663586 225.000000,1.000000 
	C232.354248,1.000000 239.708496,1.000000 247.867737,1.218952 
	C257.055786,2.586541 265.479675,3.496791 273.815247,4.923074 
	C322.540833,13.260422 365.172607,34.389599 401.732941,67.415871 
	C428.744354,91.816299 449.683411,120.823204 464.213898,154.357452 
	C482.970551,197.645111 489.735229,242.707825 483.722778,289.458801 
	C479.565857,321.781555 469.588654,352.303772 453.654297,380.921295 
	C432.041260,419.737640 402.414307,450.804016 364.894257,474.357178 
	C336.637115,492.095612 305.973267,503.747437 273.027344,509.230743 
	C264.706268,510.615601 256.343567,511.750336 248.000000,513.000000 
M243.873428,455.987885 
	C262.786255,457.965759 281.456635,456.025360 299.894745,451.951263 
	C410.682953,427.471497 479.651154,315.972382 449.743988,205.576157 
	C432.079437,140.371063 390.471405,95.277382 327.690094,70.360657 
	C300.615173,59.615124 272.256470,55.299259 242.183395,58.100456 
	C221.270264,59.657063 201.152451,64.507210 181.664673,72.260460 
	C93.509026,107.333321 41.479458,204.640045 61.687408,297.349640 
	C74.700096,357.048950 108.184563,401.938446 161.303955,431.923065 
	C186.581909,446.191895 213.970261,454.074158 243.873428,455.987885 
z"/>
<path fill="#E49642" opacity="1.000000" stroke="none" 
	d="
M248.468658,513.000000 
	C256.343567,511.750336 264.706268,510.615601 273.027344,509.230743 
	C305.973267,503.747437 336.637115,492.095612 364.894257,474.357178 
	C402.414307,450.804016 432.041260,419.737640 453.654297,380.921295 
	C469.588654,352.303772 479.565857,321.781555 483.722778,289.458801 
	C489.735229,242.707825 482.970551,197.645111 464.213898,154.357452 
	C449.683411,120.823204 428.744354,91.816299 401.732941,67.415871 
	C365.172607,34.389599 322.540833,13.260422 273.815247,4.923074 
	C265.479675,3.496791 257.055786,2.586541 248.336365,1.218952 
	C261.354218,1.000000 274.708466,1.000000 288.294006,1.385387 
	C289.205505,2.170607 289.840363,2.781651 290.572662,2.939021 
	C304.669708,5.968472 318.927124,8.382926 332.846802,12.073358 
	C350.470032,16.745684 366.978546,24.354704 382.878021,33.334625 
	C399.274292,42.595116 414.812744,53.155842 428.349976,66.143257 
	C440.122681,77.437828 451.301422,89.521034 461.491241,102.256950 
	C477.522736,122.294273 489.434387,144.841095 498.065125,169.060638 
	C504.353485,186.707031 509.372803,204.652161 511.102112,223.398727 
	C511.156250,223.985840 512.341858,224.468597 513.000000,225.000000 
	C513.000000,246.020889 513.000000,267.041779 512.621399,288.274719 
	C511.832123,289.332947 511.232483,290.138214 511.038940,291.031464 
	C508.018158,304.972717 505.597351,319.071075 501.932281,332.838837 
	C497.243164,350.453247 489.660492,366.965485 480.676971,382.857574 
	C471.657471,398.813354 461.482452,414.043030 448.905762,427.266022 
	C437.323425,439.443512 424.773895,450.834473 411.759766,461.483490 
	C395.078796,475.132965 376.276306,485.699707 356.308929,493.788696 
	C335.210358,502.335968 313.513031,509.067139 290.630096,511.101196 
	C290.035187,511.154053 289.541107,512.341675 289.000000,513.000000 
	C275.645782,513.000000 262.291534,513.000000 248.468658,513.000000 
z"/>
<path fill="#F4FBFF" opacity="1.000000" stroke="none" 
	d="
M243.032501,455.815491 
	C213.970261,454.074158 186.581909,446.191895 161.303955,431.923065 
	C108.184563,401.938446 74.700096,357.048950 61.687408,297.349640 
	C41.479458,204.640045 93.509026,107.333321 181.664673,72.260460 
	C201.152451,64.507210 221.270264,59.657063 242.962250,58.324368 
	C248.519226,59.124352 253.340012,59.463249 258.068756,60.313820 
	C297.801758,67.460678 332.535492,84.795464 361.840240,112.505775 
	C379.635132,129.332458 393.650818,149.036484 404.227142,171.258301 
	C421.458069,207.462097 427.337311,245.446198 421.763031,284.949310 
	C415.721771,327.761566 397.405823,365.059296 367.171631,395.961395 
	C357.128296,406.226593 345.514130,415.177216 333.728638,423.463776 
	C315.895844,436.002228 296.041870,444.753174 274.797668,449.860107 
	C264.336609,452.374847 253.628708,453.862885 243.032501,455.815491 
M236.038437,249.205734 
	C221.556503,249.199326 207.074112,249.123993 192.592865,249.220978 
	C186.920334,249.258957 183.684296,252.390411 183.801483,257.212463 
	C183.913101,261.805450 187.063889,264.750824 192.525925,264.774292 
	C207.337402,264.837891 222.149673,264.715698 237.579300,265.022064 
	C247.037506,278.989166 256.787964,281.264465 271.420868,273.068665 
	C291.089447,283.192200 310.753021,293.325439 330.436798,303.419403 
	C331.899200,304.169342 333.461273,304.932861 335.055542,305.176697 
	C338.980713,305.777130 341.928986,304.157288 343.409821,300.426331 
	C344.819244,296.875427 343.719879,293.833801 340.760284,291.602661 
	C339.183502,290.414001 337.320160,289.591370 335.547241,288.679199 
	C316.322540,278.788361 297.090088,268.912537 277.733490,258.213867 
	C277.665894,252.187042 276.010895,246.723907 271.577179,242.464844 
	C269.460571,240.431625 266.976318,238.781113 264.786438,236.033371 
	C264.794098,208.242920 264.827576,180.452438 264.787903,152.662048 
	C264.779816,146.993607 261.805420,143.431244 257.276093,143.237335 
	C252.744415,143.043335 249.232300,146.665863 249.227402,152.099564 
	C249.201874,180.386307 249.290924,208.673141 248.981430,237.575821 
	C244.975616,241.494781 240.969818,245.413742 236.038437,249.205734 
M249.941315,114.176041 
	C251.823242,117.904083 254.850815,119.707260 258.914551,118.609230 
	C263.187469,117.454681 264.852356,114.128654 264.829559,109.863861 
	C264.810883,106.374237 265.045685,102.857277 264.688416,99.402039 
	C264.241425,95.079155 261.607513,92.446632 257.188507,92.129433 
	C253.156281,91.840004 249.537231,95.042923 249.316681,99.508484 
	C249.088852,104.121582 249.531525,108.767807 249.941315,114.176041 
M109.177994,263.943207 
	C115.572914,263.652924 119.131859,260.693848 118.922737,255.840942 
	C118.721451,251.169754 115.168007,248.478592 109.017555,248.412445 
	C105.865288,248.378540 102.696785,248.254013 99.562775,248.506943 
	C95.075867,248.869080 92.003098,252.233383 92.088959,256.294067 
	C92.175591,260.391327 95.313286,263.592163 99.805252,263.890259 
	C102.614639,264.076752 105.445671,263.937225 109.177994,263.943207 
M263.201202,416.270966 
	C263.442383,411.492126 263.945709,406.707916 263.848755,401.935974 
	C263.757507,397.445862 260.333588,394.281616 256.263092,394.212830 
	C252.234207,394.144684 248.862259,397.220642 248.490311,401.740875 
	C248.205063,405.207275 248.365845,408.712189 248.367294,412.199951 
	C248.368973,416.241730 249.925690,419.446045 253.957031,420.670624 
	C257.740753,421.819946 260.780273,420.364929 263.201202,416.270966 
M395.030853,253.694168 
	C393.468628,259.546753 395.588501,263.920776 400.928314,264.556305 
	C405.349213,265.082458 410.042938,265.370880 414.304688,264.399658 
	C416.811249,263.828400 419.866852,260.909210 420.536652,258.460876 
	C421.128967,256.295898 419.453094,252.534912 417.557617,250.862381 
	C413.247803,247.059509 399.387390,248.804459 395.030853,253.694168 
M360.675690,142.114105 
	C358.563110,144.233429 356.344879,146.258987 354.361908,148.493332 
	C351.124420,152.141235 351.207794,156.610458 354.385193,159.631989 
	C357.497650,162.591766 361.608795,162.609222 365.149353,159.460434 
	C367.505920,157.364639 369.671844,155.050781 371.878540,152.790985 
	C375.880310,148.692902 376.437347,144.245789 373.415619,140.902893 
	C370.163147,137.304688 365.995453,137.541809 360.675690,142.114105 
M149.441833,138.578094 
	C145.348694,136.977051 141.808746,137.740005 139.486618,141.547775 
	C137.135193,145.403595 138.413345,148.846085 141.464783,151.829498 
	C143.839874,154.151657 146.074234,156.627319 148.548492,158.836090 
	C151.967300,161.888077 156.343933,161.887878 159.336273,159.063156 
	C162.575043,156.005814 162.741699,151.540985 159.407990,147.952042 
	C156.479202,144.799042 153.230530,141.943161 149.441833,138.578094 
M373.589233,371.871002 
	C375.626068,368.409149 375.197327,365.126251 372.557007,362.252014 
	C369.974945,359.441101 367.289673,356.699493 364.431824,354.173981 
	C360.972900,351.117340 356.658081,351.268219 353.671021,354.238403 
	C350.702148,357.190521 350.551178,361.596863 353.564270,365.008606 
	C355.869965,367.619293 358.403473,370.037811 360.931183,372.441315 
	C365.069763,376.376556 368.488586,376.343750 373.589233,371.871002 
M151.434479,372.061005 
	C154.008484,369.466400 156.729004,366.998962 159.119003,364.244659 
	C162.037460,360.881378 161.816803,356.249207 158.701309,353.515503 
	C155.348160,350.573212 151.692581,350.585022 148.324478,353.417694 
	C145.789780,355.549438 143.535461,358.021393 141.213852,360.398102 
	C137.386383,364.316345 136.755081,368.561829 139.431870,371.913879 
	C142.200531,375.380890 146.047256,375.606293 151.434479,372.061005 
z"/>
<path fill="#DAF1F3" opacity="1.000000" stroke="none" 
	d="
M243.452972,455.901672 
	C253.628708,453.862885 264.336609,452.374847 274.797668,449.860107 
	C296.041870,444.753174 315.895844,436.002228 333.728638,423.463776 
	C345.514130,415.177216 357.128296,406.226593 367.171631,395.961395 
	C397.405823,365.059296 415.721771,327.761566 421.763031,284.949310 
	C427.337311,245.446198 421.458069,207.462097 404.227142,171.258301 
	C393.650818,149.036484 379.635132,129.332458 361.840240,112.505775 
	C332.535492,84.795464 297.801758,67.460678 258.068756,60.313820 
	C253.340012,59.463249 248.519226,59.124352 243.391449,58.365189 
	C272.256470,55.299259 300.615173,59.615124 327.690094,70.360657 
	C390.471405,95.277382 432.079437,140.371063 449.743988,205.576157 
	C479.651154,315.972382 410.682953,427.471497 299.894745,451.951263 
	C281.456635,456.025360 262.786255,457.965759 243.452972,455.901672 
z"/>
<path fill="#2B4D66" opacity="1.000000" stroke="none" 
	d="
M249.340103,236.959946 
	C249.290924,208.673141 249.201874,180.386307 249.227402,152.099564 
	C249.232300,146.665863 252.744415,143.043335 257.276093,143.237335 
	C261.805420,143.431244 264.779816,146.993607 264.787903,152.662048 
	C264.827576,180.452438 264.794098,208.242920 264.316040,236.498367 
	C259.010468,236.962234 254.175293,236.961090 249.340103,236.959946 
z"/>
<path fill="#3F6481" opacity="1.000000" stroke="none" 
	d="
M249.160767,237.267883 
	C254.175293,236.961090 259.010468,236.962234 264.252136,236.960297 
	C266.976318,238.781113 269.460571,240.431625 271.577179,242.464844 
	C276.010895,246.723907 277.665894,252.187042 277.622009,258.936310 
	C275.252869,264.025726 272.995239,268.392670 270.737579,272.759644 
	C256.787964,281.264465 247.037506,278.989166 237.272736,264.437622 
	C236.965469,259.013031 236.964752,254.172867 236.964020,249.332718 
	C240.969818,245.413742 244.975616,241.494781 249.160767,237.267883 
z"/>
<path fill="#DA4D57" opacity="1.000000" stroke="none" 
	d="
M271.079224,272.914154 
	C272.995239,268.392670 275.252869,264.025726 277.685150,259.345673 
	C297.090088,268.912537 316.322540,278.788361 335.547241,288.679199 
	C337.320160,289.591370 339.183502,290.414001 340.760284,291.602661 
	C343.719879,293.833801 344.819244,296.875427 343.409821,300.426331 
	C341.928986,304.157288 338.980713,305.777130 335.055542,305.176697 
	C333.461273,304.932861 331.899200,304.169342 330.436798,303.419403 
	C310.753021,293.325439 291.089447,283.192200 271.079224,272.914154 
z"/>
<path fill="#2B4D66" opacity="1.000000" stroke="none" 
	d="
M236.501221,249.269226 
	C236.964752,254.172867 236.965469,259.013031 236.963913,264.260193 
	C222.149673,264.715698 207.337402,264.837891 192.525925,264.774292 
	C187.063889,264.750824 183.913101,261.805450 183.801483,257.212463 
	C183.684296,252.390411 186.920334,249.258957 192.592865,249.220978 
	C207.074112,249.123993 221.556503,249.199326 236.501221,249.269226 
z"/>
<path fill="#32536B" opacity="1.000000" stroke="none" 
	d="
M249.811096,113.787788 
	C249.531525,108.767807 249.088852,104.121582 249.316681,99.508484 
	C249.537231,95.042923 253.156281,91.840004 257.188507,92.129433 
	C261.607513,92.446632 264.241425,95.079155 264.688416,99.402039 
	C265.045685,102.857277 264.810883,106.374237 264.829559,109.863861 
	C264.852356,114.128654 263.187469,117.454681 258.914551,118.609230 
	C254.850815,119.707260 251.823242,117.904083 249.811096,113.787788 
z"/>
<path fill="#33536C" opacity="1.000000" stroke="none" 
	d="
M108.722488,263.943604 
	C105.445671,263.937225 102.614639,264.076752 99.805252,263.890259 
	C95.313286,263.592163 92.175591,260.391327 92.088959,256.294067 
	C92.003098,252.233383 95.075867,248.869080 99.562775,248.506943 
	C102.696785,248.254013 105.865288,248.378540 109.017555,248.412445 
	C115.168007,248.478592 118.721451,251.169754 118.922737,255.840942 
	C119.131859,260.693848 115.572914,263.652924 108.722488,263.943604 
z"/>
<path fill="#32536C" opacity="1.000000" stroke="none" 
	d="
M263.051208,416.651764 
	C260.780273,420.364929 257.740753,421.819946 253.957031,420.670624 
	C249.925690,419.446045 248.368973,416.241730 248.367294,412.199951 
	C248.365845,408.712189 248.205063,405.207275 248.490311,401.740875 
	C248.862259,397.220642 252.234207,394.144684 256.263092,394.212830 
	C260.333588,394.281616 263.757507,397.445862 263.848755,401.935974 
	C263.945709,406.707916 263.442383,411.492126 263.051208,416.651764 
z"/>
<path fill="#32536C" opacity="1.000000" stroke="none" 
	d="
M395.203125,253.350891 
	C399.387390,248.804459 413.247803,247.059509 417.557617,250.862381 
	C419.453094,252.534912 421.128967,256.295898 420.536652,258.460876 
	C419.866852,260.909210 416.811249,263.828400 414.304688,264.399658 
	C410.042938,265.370880 405.349213,265.082458 400.928314,264.556305 
	C395.588501,263.920776 393.468628,259.546753 395.203125,253.350891 
z"/>
<path fill="#31526B" opacity="1.000000" stroke="none" 
	d="
M360.929321,141.856476 
	C365.995453,137.541809 370.163147,137.304688 373.415619,140.902893 
	C376.437347,144.245789 375.880310,148.692902 371.878540,152.790985 
	C369.671844,155.050781 367.505920,157.364639 365.149353,159.460434 
	C361.608795,162.609222 357.497650,162.591766 354.385193,159.631989 
	C351.207794,156.610458 351.124420,152.141235 354.361908,148.493332 
	C356.344879,146.258987 358.563110,144.233429 360.929321,141.856476 
z"/>
<path fill="#30526A" opacity="1.000000" stroke="none" 
	d="
M149.782501,138.767059 
	C153.230530,141.943161 156.479202,144.799042 159.407990,147.952042 
	C162.741699,151.540985 162.575043,156.005814 159.336273,159.063156 
	C156.343933,161.887878 151.967300,161.888077 148.548492,158.836090 
	C146.074234,156.627319 143.839874,154.151657 141.464783,151.829498 
	C138.413345,148.846085 137.135193,145.403595 139.486618,141.547775 
	C141.808746,137.740005 145.348694,136.977051 149.782501,138.767059 
z"/>
<path fill="#30526A" opacity="1.000000" stroke="none" 
	d="
M373.352844,372.165466 
	C368.488586,376.343750 365.069763,376.376556 360.931183,372.441315 
	C358.403473,370.037811 355.869965,367.619293 353.564270,365.008606 
	C350.551178,361.596863 350.702148,357.190521 353.671021,354.238403 
	C356.658081,351.268219 360.972900,351.117340 364.431824,354.173981 
	C367.289673,356.699493 369.974945,359.441101 372.557007,362.252014 
	C375.197327,365.126251 375.626068,368.409149 373.352844,372.165466 
z"/>
<path fill="#30526A" opacity="1.000000" stroke="none" 
	d="
M151.178406,372.324097 
	C146.047256,375.606293 142.200531,375.380890 139.431870,371.913879 
	C136.755081,368.561829 137.386383,364.316345 141.213852,360.398102 
	C143.535461,358.021393 145.789780,355.549438 148.324478,353.417694 
	C151.692581,350.585022 155.348160,350.573212 158.701309,353.515503 
	C161.816803,356.249207 162.037460,360.881378 159.119003,364.244659 
	C156.729004,366.998962 154.008484,369.466400 151.178406,372.324097 
z"/>
</svg>