<?xml version="1.0" encoding="UTF-8"?>
<!DOCTYPE svg PUBLIC "-//W3C//DTD SVG 1.1//EN" "http://www.w3.org/Graphics/SVG/1.1/DTD/svg11.dtd">
<svg xmlns="http://www.w3.org/2000/svg" version="1.1" width="512px" height="512px" style="shape-rendering:geometricPrecision; text-rendering:geometricPrecision; image-rendering:optimizeQuality; fill-rule:evenodd; clip-rule:evenodd" xmlns:xlink="http://www.w3.org/1999/xlink">
<g><path style="opacity:0.863" fill="#ff8e58" d="M 233.5,0.5 C 233.5,0.166667 233.5,-0.166667 233.5,-0.5C 237.833,-0.5 242.167,-0.5 246.5,-0.5C 246.5,0.166667 246.5,0.833333 246.5,1.5C 242.265,0.564039 237.931,0.230706 233.5,0.5 Z"/></g>
<g><path style="opacity:0.996" fill="#fec84f" d="M 246.5,-0.5 C 252.167,-0.5 257.833,-0.5 263.5,-0.5C 263.5,0.833333 263.5,2.16667 263.5,3.5C 260.517,19.4352 257.851,35.4352 255.5,51.5C 252.302,34.9892 249.302,18.3225 246.5,1.5C 246.5,0.833333 246.5,0.166667 246.5,-0.5 Z"/></g>
<g><path style="opacity:0.859" fill="#f48051" d="M 263.5,-0.5 C 268.167,-0.5 272.833,-0.5 277.5,-0.5C 280.833,0.166667 284.167,0.833333 287.5,1.5C 279.836,1.11138 272.17,0.778049 264.5,0.5C 264.737,1.79105 264.404,2.79105 263.5,3.5C 263.5,2.16667 263.5,0.833333 263.5,-0.5 Z"/></g>
<g><path style="opacity:1" fill="#fe5b60" d="M 233.5,0.5 C 237.931,0.230706 242.265,0.564039 246.5,1.5C 249.302,18.3225 252.302,34.9892 255.5,51.5C 260.787,87.9081 266.62,124.241 273,160.5C 274.049,162.107 275.549,162.773 277.5,162.5C 277.5,162.833 277.5,163.167 277.5,163.5C 276.5,163.5 275.5,163.5 274.5,163.5C 274.646,167.519 274.979,171.519 275.5,175.5C 262.01,176.496 248.344,176.829 234.5,176.5C 234.5,176.167 234.5,175.833 234.5,175.5C 234.461,171.267 233.795,167.267 232.5,163.5C 223.717,110.133 214.717,56.7994 205.5,3.5C 214.771,1.93753 224.104,0.937528 233.5,0.5 Z"/></g>
<g><path style="opacity:1" fill="#ec4c53" d="M 287.5,1.5 C 293.208,1.84037 298.875,2.50704 304.5,3.5C 295.391,56.4878 286.391,109.488 277.5,162.5C 275.549,162.773 274.049,162.107 273,160.5C 266.62,124.241 260.787,87.9081 255.5,51.5C 257.851,35.4352 260.517,19.4352 263.5,3.5C 264.404,2.79105 264.737,1.79105 264.5,0.5C 272.17,0.778049 279.836,1.11138 287.5,1.5 Z"/></g>
<g><path style="opacity:0.995" fill="#ffca4f" d="M 205.5,3.5 C 214.717,56.7994 223.717,110.133 232.5,163.5C 219.003,161.496 209.836,166.829 205,179.5C 204.5,185.825 204.334,192.158 204.5,198.5C 170.832,198.333 137.165,198.5 103.5,199C 98.1357,201.027 93.969,204.527 91,209.5C 89.3442,273.442 89.0109,337.442 90,401.5C 92.0724,408.573 96.5724,413.406 103.5,416C 204.5,416.667 305.5,416.667 406.5,416C 414,413.833 418.833,409 421,401.5C 421.989,337.442 421.656,273.442 420,209.5C 416.926,204.085 412.426,200.585 406.5,199C 373.168,198.5 339.835,198.333 306.5,198.5C 306.666,192.158 306.5,185.825 306,179.5C 300.994,166.353 291.494,161.02 277.5,163.5C 277.5,163.167 277.5,162.833 277.5,162.5C 286.391,109.488 295.391,56.4878 304.5,3.5C 391.233,23.0762 453.399,73.0762 491,153.5C 501.846,179.265 508.68,205.931 511.5,233.5C 511.5,248.167 511.5,262.833 511.5,277.5C 499.921,371.886 452.255,441.386 368.5,486C 339.491,499.666 309.157,508.166 277.5,511.5C 262.833,511.5 248.167,511.5 233.5,511.5C 139.114,499.921 69.6135,452.255 25,368.5C 11.3344,339.491 2.83436,309.157 -0.5,277.5C -0.5,262.833 -0.5,248.167 -0.5,233.5C 10.0012,144.963 53.3345,77.7964 129.5,32C 153.466,18.8449 178.799,9.34488 205.5,3.5 Z"/></g>
<g><path style="opacity:1" fill="#fefefe" d="M 232.5,163.5 C 233.795,167.267 234.461,171.267 234.5,175.5C 231.432,175.547 228.432,176.047 225.5,177C 223.859,178.129 222.859,179.629 222.5,181.5C 221.511,186.975 221.178,192.642 221.5,198.5C 244.167,198.5 266.833,198.5 289.5,198.5C 289.822,192.642 289.489,186.975 288.5,181.5C 288.489,179.983 287.823,178.816 286.5,178C 283.392,176.241 280.059,175.408 276.5,175.5C 276.167,175.5 275.833,175.5 275.5,175.5C 274.979,171.519 274.646,167.519 274.5,163.5C 275.5,163.5 276.5,163.5 277.5,163.5C 291.494,161.02 300.994,166.353 306,179.5C 306.5,185.825 306.666,192.158 306.5,198.5C 339.835,198.333 373.168,198.5 406.5,199C 412.426,200.585 416.926,204.085 420,209.5C 421.656,273.442 421.989,337.442 421,401.5C 418.833,409 414,413.833 406.5,416C 305.5,416.667 204.5,416.667 103.5,416C 96.5724,413.406 92.0724,408.573 90,401.5C 89.0109,337.442 89.3442,273.442 91,209.5C 93.969,204.527 98.1357,201.027 103.5,199C 137.165,198.5 170.832,198.333 204.5,198.5C 204.334,192.158 204.5,185.825 205,179.5C 209.836,166.829 219.003,161.496 232.5,163.5 Z"/></g>
<g><path style="opacity:1" fill="#ffca4f" d="M 234.5,175.5 C 234.5,175.833 234.5,176.167 234.5,176.5C 241.325,177.166 248.325,177.5 255.5,177.5C 262.867,177.497 269.867,176.83 276.5,175.5C 280.059,175.408 283.392,176.241 286.5,178C 287.823,178.816 288.489,179.983 288.5,181.5C 288.5,186.833 288.5,192.167 288.5,197.5C 266.5,197.5 244.5,197.5 222.5,197.5C 222.5,192.167 222.5,186.833 222.5,181.5C 222.859,179.629 223.859,178.129 225.5,177C 228.432,176.047 231.432,175.547 234.5,175.5 Z"/></g>
<g><path style="opacity:1" fill="#fca353" d="M 275.5,175.5 C 275.833,175.5 276.167,175.5 276.5,175.5C 269.867,176.83 262.867,177.497 255.5,177.5C 248.325,177.5 241.325,177.166 234.5,176.5C 248.344,176.829 262.01,176.496 275.5,175.5 Z"/></g>
<g><path style="opacity:1" fill="#ffde95" d="M 222.5,181.5 C 222.5,186.833 222.5,192.167 222.5,197.5C 244.5,197.5 266.5,197.5 288.5,197.5C 288.5,192.167 288.5,186.833 288.5,181.5C 289.489,186.975 289.822,192.642 289.5,198.5C 266.833,198.5 244.167,198.5 221.5,198.5C 221.178,192.642 221.511,186.975 222.5,181.5 Z"/></g>
<g><path style="opacity:1" fill="#24d0c2" d="M 116.5,211.5 C 208.834,211.333 301.167,211.5 393.5,212C 401.444,214.277 406.278,219.444 408,227.5C 408.667,281.167 408.667,334.833 408,388.5C 405.833,396 401,400.833 393.5,403C 301.5,403.667 209.5,403.667 117.5,403C 110,400.833 105.167,396 103,388.5C 102.333,334.833 102.333,281.167 103,227.5C 104.849,219.826 109.349,214.492 116.5,211.5 Z"/></g>
<g><path style="opacity:1" fill="#666766" d="M 209.5,264.5 C 208.504,264.414 207.671,264.748 207,265.5C 206.667,267.5 206.333,269.5 206,271.5C 205.086,267.858 204.252,264.192 203.5,260.5C 197.128,263.362 190.461,264.195 183.5,263C 178.677,261.088 174.011,258.921 169.5,256.5C 168.558,256.608 167.725,256.941 167,257.5C 165.394,262.469 163.728,267.469 162,272.5C 162.24,268.78 160.74,266.113 157.5,264.5C 157.09,258.379 157.59,252.379 159,246.5C 164.371,243.803 169.204,240.303 173.5,236C 187.159,231.124 198.659,234.291 208,245.5C 211.999,251.634 212.499,257.967 209.5,264.5 Z"/></g>
<g><path style="opacity:1" fill="#fefefe" d="M 255.5,240.5 C 299.833,240.5 344.167,240.5 388.5,240.5C 388.5,242.833 388.5,245.167 388.5,247.5C 344.167,247.5 299.833,247.5 255.5,247.5C 255.5,245.167 255.5,242.833 255.5,240.5 Z"/></g>
<g><path style="opacity:1" fill="#fbd097" d="M 209.5,264.5 C 211.735,265.286 212.735,266.952 212.5,269.5C 211.985,273.242 211.152,276.909 210,280.5C 209,281.167 208,281.833 207,282.5C 203.941,290.949 200.108,298.949 195.5,306.5C 193.5,308.972 191.167,311.138 188.5,313C 181.312,315.295 176.145,313.128 173,306.5C 172.79,308.058 172.29,309.391 171.5,310.5C 171.663,308.143 171.497,305.81 171,303.5C 166.305,295.432 161.638,287.432 157,279.5C 155.607,274.905 155.274,270.239 156,265.5C 156.383,264.944 156.883,264.611 157.5,264.5C 160.74,266.113 162.24,268.78 162,272.5C 163.728,267.469 165.394,262.469 167,257.5C 167.725,256.941 168.558,256.608 169.5,256.5C 174.011,258.921 178.677,261.088 183.5,263C 190.461,264.195 197.128,263.362 203.5,260.5C 204.252,264.192 205.086,267.858 206,271.5C 206.333,269.5 206.667,267.5 207,265.5C 207.671,264.748 208.504,264.414 209.5,264.5 Z"/></g>
<g><path style="opacity:1" fill="#fdfefe" d="M 255.5,257.5 C 299.833,257.5 344.167,257.5 388.5,257.5C 388.5,259.833 388.5,262.167 388.5,264.5C 344.167,264.5 299.833,264.5 255.5,264.5C 255.5,262.167 255.5,259.833 255.5,257.5 Z"/></g>
<g><path style="opacity:1" fill="#fefffe" d="M 255.5,275.5 C 299.5,275.5 343.5,275.5 387.5,275.5C 387.5,277.5 387.5,279.5 387.5,281.5C 343.5,281.5 299.5,281.5 255.5,281.5C 255.5,279.5 255.5,277.5 255.5,275.5 Z"/></g>
<g><path style="opacity:1" fill="#bcf0ec" d="M 255.5,275.5 C 299.664,274.501 343.997,274.168 388.5,274.5C 388.5,277.167 388.5,279.833 388.5,282.5C 343.997,282.832 299.664,282.499 255.5,281.5C 299.5,281.5 343.5,281.5 387.5,281.5C 387.5,279.5 387.5,277.5 387.5,275.5C 343.5,275.5 299.5,275.5 255.5,275.5 Z"/></g>
<g><path style="opacity:1" fill="#7ee3db" d="M 255.5,292.5 C 280.661,291.502 305.995,291.169 331.5,291.5C 331.806,294.385 331.473,297.052 330.5,299.5C 330.5,297.167 330.5,294.833 330.5,292.5C 305.5,292.5 280.5,292.5 255.5,292.5 Z"/></g>
<g><path style="opacity:1" fill="#fefefe" d="M 255.5,292.5 C 280.5,292.5 305.5,292.5 330.5,292.5C 330.5,294.833 330.5,297.167 330.5,299.5C 305.5,299.5 280.5,299.5 255.5,299.5C 255.5,297.167 255.5,294.833 255.5,292.5 Z"/></g>
<g><path style="opacity:1" fill="#f0ba7f" d="M 195.5,306.5 C 195.5,308.167 195.5,309.833 195.5,311.5C 195.509,313.308 195.009,314.975 194,316.5C 190.891,319.782 187.724,322.782 184.5,325.5C 184.167,325.5 183.833,325.5 183.5,325.5C 180.829,323.066 177.996,320.733 175,318.5C 173.295,316.423 172.128,314.09 171.5,311.5C 171.5,311.167 171.5,310.833 171.5,310.5C 172.29,309.391 172.79,308.058 173,306.5C 176.145,313.128 181.312,315.295 188.5,313C 191.167,311.138 193.5,308.972 195.5,306.5 Z"/></g>
<g><path style="opacity:1" fill="#807d7d" d="M 166.5,317.5 C 167.521,322.732 168.854,327.899 170.5,333C 174.002,340.02 177.002,347.187 179.5,354.5C 180.309,359.094 181.809,363.427 184,367.5C 186.007,362.98 187.507,358.313 188.5,353.5C 192.824,341.53 197.157,329.53 201.5,317.5C 203.987,318.323 206.321,319.323 208.5,320.5C 208.5,326.5 208.5,332.5 208.5,338.5C 205.984,338.755 203.65,339.589 201.5,341C 203.208,342.51 204.874,344.01 206.5,345.5C 200.552,356.397 194.885,367.397 189.5,378.5C 185.732,379.787 182.065,379.787 178.5,378.5C 173.013,368.194 167.513,357.86 162,347.5C 161.731,344.72 162.898,342.554 165.5,341C 163.351,339.836 161.185,338.67 159,337.5C 159.135,331.659 158.969,325.992 158.5,320.5C 160.936,319.129 163.603,318.129 166.5,317.5 Z"/></g>
<g><path style="opacity:1" fill="#656767" d="M 158.5,320.5 C 158.969,325.992 159.135,331.659 159,337.5C 161.185,338.67 163.351,339.836 165.5,341C 162.898,342.554 161.731,344.72 162,347.5C 167.513,357.86 173.013,368.194 178.5,378.5C 159.161,377.411 142.328,370.411 128,357.5C 127.277,348.175 128.61,339.175 132,330.5C 133.214,328.951 134.714,327.785 136.5,327C 143.703,324.32 151.037,322.154 158.5,320.5 Z"/></g>
<g><path style="opacity:1" fill="#656666" d="M 208.5,320.5 C 217.464,322.71 226.131,325.71 234.5,329.5C 236.194,331.554 237.361,333.888 238,336.5C 239.134,343.5 239.8,350.5 240,357.5C 225.632,370.239 208.799,377.239 189.5,378.5C 194.885,367.397 200.552,356.397 206.5,345.5C 204.874,344.01 203.208,342.51 201.5,341C 203.65,339.589 205.984,338.755 208.5,338.5C 208.5,332.5 208.5,326.5 208.5,320.5 Z"/></g>
<g><path style="opacity:1" fill="#fd6367" d="M 183.5,325.5 C 183.833,325.5 184.167,325.5 184.5,325.5C 185.117,325.611 185.617,325.944 186,326.5C 186.961,335.496 187.794,344.496 188.5,353.5C 187.507,358.313 186.007,362.98 184,367.5C 181.809,363.427 180.309,359.094 179.5,354.5C 179.902,345.165 180.402,335.832 181,326.5C 181.671,325.748 182.504,325.414 183.5,325.5 Z"/></g>
<g><path style="opacity:1" fill="#f2f2f3" d="M 171.5,311.5 C 172.128,314.09 173.295,316.423 175,318.5C 177.996,320.733 180.829,323.066 183.5,325.5C 182.504,325.414 181.671,325.748 181,326.5C 180.402,335.832 179.902,345.165 179.5,354.5C 177.002,347.187 174.002,340.02 170.5,333C 168.854,327.899 167.521,322.732 166.5,317.5C 168.196,315.475 169.863,313.475 171.5,311.5 Z"/></g>
<g><path style="opacity:1" fill="#f1f3f3" d="M 195.5,311.5 C 197.861,313.194 199.861,315.194 201.5,317.5C 197.157,329.53 192.824,341.53 188.5,353.5C 187.794,344.496 186.961,335.496 186,326.5C 185.617,325.944 185.117,325.611 184.5,325.5C 187.724,322.782 190.891,319.782 194,316.5C 195.009,314.975 195.509,313.308 195.5,311.5 Z"/></g>
<g><path style="opacity:1" fill="#fefffe" d="M 309.5,375.5 C 335.5,375.5 361.5,375.5 387.5,375.5C 387.5,377.5 387.5,379.5 387.5,381.5C 361.5,381.5 335.5,381.5 309.5,381.5C 309.5,379.5 309.5,377.5 309.5,375.5 Z"/></g>
<g><path style="opacity:1" fill="#b1eee9" d="M 309.5,375.5 C 335.661,374.502 361.995,374.169 388.5,374.5C 388.5,377.167 388.5,379.833 388.5,382.5C 361.995,382.831 335.661,382.498 309.5,381.5C 335.5,381.5 361.5,381.5 387.5,381.5C 387.5,379.5 387.5,377.5 387.5,375.5C 361.5,375.5 335.5,375.5 309.5,375.5 Z"/></g>
</svg>
