<?xml version="1.0" encoding="UTF-8" standalone="no"?>
<svg
   version="1.1"
   id="Layer_1"
   x="0px"
   y="0px"
   width="100%"
   viewBox="0 0 512 512"
   enable-background="new 0 0 512 512"
   xml:space="preserve"
   sodipodi:docname="image 1_adobe_express.svg"
   inkscape:version="1.2.2 (b0a8486, 2022-12-01)"
   xmlns:inkscape="http://www.inkscape.org/namespaces/inkscape"
   xmlns:sodipodi="http://sodipodi.sourceforge.net/DTD/sodipodi-0.dtd"
   xmlns="http://www.w3.org/2000/svg"
   xmlns:svg="http://www.w3.org/2000/svg"><defs
   id="defs216" /><sodipodi:namedview
   id="namedview214"
   pagecolor="#ffffff"
   bordercolor="#000000"
   borderopacity="0.25"
   inkscape:showpageshadow="2"
   inkscape:pageopacity="0.0"
   inkscape:pagecheckerboard="0"
   inkscape:deskcolor="#d1d1d1"
   showgrid="false"
   inkscape:zoom="0.4609375"
   inkscape:cx="257.08475"
   inkscape:cy="256"
   inkscape:window-width="1463"
   inkscape:window-height="456"
   inkscape:window-x="0"
   inkscape:window-y="25"
   inkscape:window-maximized="0"
   inkscape:current-layer="Layer_1" />


<path
   fill="#FFC839"
   opacity="1.000000"
   stroke="none"
   d=" M411.044495,459.099609   C401.728668,465.735199 392.810608,473.040924 383.009460,478.858948   C365.630188,489.175476 347.420502,498.017883 327.690338,502.969025   C315.181549,506.107971 302.446564,508.343262 289.825226,511.040985   C288.938171,511.230591 288.152344,511.893646 287.659729,512.668274   C267.312439,513.000000 246.624878,513.000000 225.468658,513.000000   C224.050598,512.333496 223.182388,511.281158 222.138931,511.061646   C214.017639,509.353180 205.862595,507.805084 197.286621,505.675049   C195.237198,499.482239 192.974716,493.914886 192.140320,488.141174   C190.584885,477.378082 195.089859,468.153381 201.416351,459.486572   C208.388504,458.202240 210.339249,455.942749 210.406876,448.981384   C210.588593,430.279510 210.700134,411.576935 211.317413,392.904694   C223.167679,392.936157 234.540039,392.937561 246.385773,392.967346   C253.933380,392.980072 261.007629,392.964386 268.544891,392.972931   C280.324432,393.004395 291.640991,393.011627 303.025024,393.482300   C303.108124,411.763824 303.112457,429.581940 303.156311,447.399963   C303.160797,449.219360 303.120361,451.114532 303.588654,452.842316   C304.787720,457.266266 307.827454,459.483337 312.456818,459.233368   C316.717834,459.003265 319.721039,455.982086 320.109467,451.490295   C320.295441,449.339874 320.203949,447.164398 320.215576,445.000153   C320.319092,425.689392 320.417572,406.378632 320.864197,387.066193   C330.791168,381.698486 340.371490,376.332458 350.246521,371.136414   C364.376160,381.404358 377.565399,392.152985 388.854706,405.212128   C402.325470,420.794708 411.699432,437.817688 411.044495,459.099609  z"
   id="path163" />
<path
   fill="#763616"
   opacity="1.000000"
   stroke="none"
   d=" M188.970901,32.084518   C197.509460,24.311710 208.132141,20.633291 218.734329,16.900873   C220.911758,16.134325 223.046951,15.239736 225.172562,14.335893   C228.242645,13.030447 229.578568,11.360379 227.543671,7.836633   C226.628296,6.251525 227.245941,3.781137 227.084000,1.356220   C237.020889,1.000000 247.041794,1.000000 257.700958,1.285730   C262.098694,6.198862 266.585754,10.416638 269.468811,15.537457   C275.812103,26.804279 275.491699,32.857323 266.563965,41.208088   C262.322479,45.175453 258.312256,50.120010 256.205566,55.420139   C254.357010,60.070847 255.312622,65.836143 254.799973,71.197083   C254.570282,71.285019 254.108032,71.453766 253.697662,71.354141   C250.641693,71.501770 247.996918,71.758041 245.350388,71.994759   C232.853394,73.112526 220.651260,75.410950 209.199051,80.827682   C191.119278,89.379143 181.553986,103.055794 182.804810,123.624390   C183.051315,127.677940 182.629898,132.039459 181.337631,135.860229   C179.067902,142.571060 175.887405,148.973831 172.704224,155.311890   C168.559052,154.703720 164.798035,154.289276 160.943481,153.496185   C156.163147,130.934555 155.229965,108.638664 159.529099,86.317818   C163.598465,65.189804 172.916870,46.774212 188.970901,32.084518  z"
   id="path165" />
<path
   fill="#945230"
   opacity="1.000000"
   stroke="none"
   d=" M255.029663,71.109146   C255.312622,65.836143 254.357010,60.070847 256.205566,55.420139   C258.312256,50.120010 262.322479,45.175453 266.563965,41.208088   C275.491699,32.857323 275.812103,26.804279 269.468811,15.537457   C266.585754,10.416638 262.098694,6.198862 258.169617,1.285730   C262.689240,1.000000 267.378510,1.000000 272.533875,1.000001   C273.831451,1.663669 274.587921,2.770934 275.505310,2.925910   C296.599182,6.489329 315.241028,15.113601 331.002441,29.681961   C332.799835,31.343304 334.213623,33.419701 336.051514,35.930714   C352.601105,57.005180 359.482910,80.745369 358.762360,106.410179   C358.316559,122.289650 355.518463,138.103073 353.342407,153.948669   C348.880981,154.493088 344.853394,155.034988 340.586853,155.264343   C339.156342,151.320602 338.643738,147.251968 336.640900,144.143494   C331.465393,136.110931 330.651642,127.547150 331.138489,118.316589   C331.858459,104.667564 326.266968,93.394226 315.168793,85.682434   C309.137390,81.491402 302.116669,77.723106 295.028564,76.270531   C281.894623,73.578979 268.383636,72.727142 255.029663,71.109146  z"
   id="path167" />
<path
   fill="#FF7186"
   opacity="1.000000"
   stroke="none"
   d=" M19.910315,331.073547   C17.946907,321.617065 15.058611,312.241119 14.226541,302.686127   C12.809829,286.417450 12.189664,270.037170 12.157653,253.701965   C12.125235,237.159225 15.341648,220.927597 19.571674,204.963028   C24.571812,186.091995 31.348974,167.795975 41.216419,150.968704   C48.914600,137.840775 57.608856,125.216972 66.769012,113.053337   C73.287071,104.398109 81.177986,96.747650 88.731483,88.914215   C92.228432,85.287666 96.381775,82.294052 100.900543,79.100845   C103.474152,80.517372 105.503525,81.705406 107.276794,83.197769   C123.152954,96.559013 131.314240,113.187355 128.177185,134.263458   C125.909904,149.496094 125.185966,164.732117 127.321281,179.996872   C129.462097,195.300964 132.199341,210.524475 134.179749,225.847351   C135.960693,239.626755 131.890366,251.810349 122.457970,262.109924   C111.498230,274.077271 97.125893,280.713226 83.015350,287.965607   C69.871719,294.721039 56.866444,301.937042 44.602081,310.147980   C35.694309,316.111694 28.093733,324.027893 19.910315,331.073547  z"
   id="path169" />
<path
   fill="#FF4155"
   opacity="1.000000"
   stroke="none"
   d=" M19.945946,331.472351   C28.093733,324.027893 35.694309,316.111694 44.602081,310.147980   C56.866444,301.937042 69.871719,294.721039 83.015350,287.965607   C97.125893,280.713226 111.498230,274.077271 122.457970,262.109924   C131.890366,251.810349 135.960693,239.626755 134.179749,225.847351   C132.199341,210.524475 129.462097,195.300964 127.321281,179.996872   C125.185966,164.732117 125.909904,149.496094 128.177185,134.263458   C131.314240,113.187355 123.152954,96.559013 107.276794,83.197769   C105.503525,81.705406 103.474152,80.517372 101.246902,79.046631   C109.945442,72.271530 118.654839,65.164391 128.040466,59.104607   C146.681229,47.069271 167.033844,38.605839 188.586395,32.078117   C172.916870,46.774212 163.598465,65.189804 159.529099,86.317818   C155.229965,108.638664 156.163147,130.934555 160.639664,153.663300   C154.208588,158.038773 151.705582,163.199005 153.631729,170.156982   C156.007919,178.740707 159.266998,187.080841 161.619476,195.670044   C164.183640,205.032150 168.199295,208.655807 177.933167,209.523697   C178.032303,211.310608 178.108810,212.685150 178.188583,214.489014   C178.311691,216.571228 178.356552,218.233582 178.563126,219.875595   C180.389297,234.391342 185.250809,247.920578 191.587494,260.948120   C179.853928,266.425476 168.188980,271.277924 157.189148,277.337708   C147.311371,282.779358 141.677795,291.921814 138.841461,302.926605   C136.249161,312.984619 136.907150,322.989105 137.775406,333.154663   C119.108070,339.834259 100.788986,346.389374 82.501907,353.032532   C64.718506,359.492767 51.028080,370.682220 42.640121,387.906769   C32.868607,370.125366 24.907942,351.611725 19.945946,331.472351  z"
   id="path171" />
<path
   fill="#FFB332"
   opacity="1.000000"
   stroke="none"
   d=" M201.071960,459.556671   C195.089859,468.153381 190.584885,477.378082 192.140320,488.141174   C192.974716,493.914886 195.237198,499.482239 196.927246,505.490265   C188.215805,503.226318 179.245346,501.114349 170.684311,497.908966   C145.748398,488.572601 122.815536,475.594666 102.284164,458.059875   C103.130508,452.195007 103.393173,446.846588 104.673950,441.754181   C109.960411,420.735016 123.575310,405.179077 139.050095,391.061646   C146.740051,384.046234 154.995956,377.651123 163.293045,370.949371   C163.786942,370.894043 163.983643,370.864746 164.473877,371.003174   C174.161377,376.479218 183.555344,381.787476 193.052429,387.546692   C193.209106,408.143341 193.240662,428.289124 193.328613,448.434662   C193.358170,455.202179 194.904724,457.325653 201.071960,459.556671  z"
   id="path173" />
<path
   fill="#FFC839"
   opacity="1.000000"
   stroke="none"
   d=" M162.995850,370.975403   C154.995956,377.651123 146.740051,384.046234 139.050095,391.061646   C123.575310,405.179077 109.960411,420.735016 104.673950,441.754181   C103.393173,446.846588 103.130508,452.195007 102.147514,457.742798   C77.323769,439.086029 58.489384,415.255432 42.845924,388.228088   C51.028080,370.682220 64.718506,359.492767 82.501907,353.032532   C100.788986,346.389374 119.108070,339.834259 137.986450,333.427917   C142.615738,346.714996 149.206512,358.209778 159.718216,367.262512   C160.957474,368.329773 161.910263,369.729706 162.995850,370.975403  z"
   id="path175" />
<path
   fill="#FF7186"
   opacity="1.000000"
   stroke="none"
   d=" M413.063782,78.895874   C421.252716,86.318474 430.100342,93.147629 437.460754,101.316734   C446.288055,111.113808 454.430908,121.657829 461.835144,132.580048   C477.831512,156.176819 488.789825,182.182098 495.823334,209.759705   C502.323151,235.244598 503.290619,261.350250 501.695465,287.383667   C500.804474,301.924408 497.135132,316.294891 494.084106,330.771271   C474.485626,311.073883 451.894470,296.789856 426.964752,285.797974   C419.245911,282.394623 411.853607,278.042664 404.797028,273.389221   C390.753265,264.128113 380.107819,252.040710 379.790344,234.279251   C379.608429,224.102844 380.896362,213.756927 382.757355,203.716171   C387.018707,180.724075 389.694458,157.826050 385.890564,134.445648   C382.240692,112.011742 393.243591,90.159569 413.063782,78.895874  z"
   id="path177" />
<path
   fill="#FF4155"
   opacity="1.000000"
   stroke="none"
   d=" M412.929321,78.587219   C393.243591,90.159569 382.240692,112.011742 385.890564,134.445648   C389.694458,157.826050 387.018707,180.724075 382.757355,203.716171   C380.896362,213.756927 379.608429,224.102844 379.790344,234.279251   C380.107819,252.040710 390.753265,264.128113 404.797028,273.389221   C411.853607,278.042664 419.245911,282.394623 426.964752,285.797974   C451.894470,296.789856 474.485626,311.073883 493.737732,330.981384   C488.659210,345.900513 483.400238,360.679108 477.856506,375.350128   C476.366699,379.292816 474.010376,382.908081 471.670471,386.805695   C462.341370,370.928864 449.498810,359.449249 432.125641,353.221832   C413.354523,346.493256 394.589722,339.747253 375.805237,332.571350   C376.190094,326.495667 377.143433,320.832611 376.889862,315.224121   C376.140015,298.640533 370.253052,284.385559 355.035522,276.107513   C344.406555,270.325531 333.050446,265.880310 322.092834,260.504517   C329.853790,245.688919 335.098267,230.487930 335.787476,213.538193   C335.909485,211.794006 336.014618,210.453110 336.528137,209.068680   C344.025269,209.408112 348.837799,205.947495 351.123199,199.561493   C354.408356,190.381729 357.232330,181.031128 360.055481,171.693680   C362.277039,164.345993 360.304016,158.292847 353.776306,153.946136   C355.518463,138.103073 358.316559,122.289650 358.762360,106.410179   C359.482910,80.745369 352.601105,57.005180 336.165283,36.247124   C343.619293,38.743706 351.386749,41.145695 358.756409,44.438095   C377.100769,52.633392 393.940582,63.415504 409.975861,75.470390   C411.025818,76.259720 411.860199,77.335838 412.929321,78.587219  z"
   id="path179" />
<path
   fill="#FFDD40"
   opacity="1.000000"
   stroke="none"
   d=" M375.822144,333.008881   C394.589722,339.747253 413.354523,346.493256 432.125641,353.221832   C449.498810,359.449249 462.341370,370.928864 471.560455,387.173340   C465.482727,397.139221 459.705444,407.307983 452.654999,416.500214   C441.167206,431.477783 428.647552,445.621826 413.441040,457.086517   C412.785919,457.580444 412.260742,458.246704 411.359741,458.966125   C411.699432,437.817688 402.325470,420.794708 388.854706,405.212128   C377.565399,392.152985 364.376160,381.404358 350.435608,370.861542   C359.596436,363.185394 367.106781,354.540253 371.719330,343.609406   C373.191742,340.120087 374.460297,336.544830 375.822144,333.008881  z"
   id="path181" />
<path
   fill="#FEE67F"
   opacity="1.000000"
   stroke="none"
   d=" M375.805237,332.571350   C374.460297,336.544830 373.191742,340.120087 371.719330,343.609406   C367.106781,354.540253 359.596436,363.185394 350.140900,370.691528   C340.371490,376.332458 330.791168,381.698486 320.759613,386.624420   C320.256592,384.863525 320.191162,383.543121 320.155396,382.221893   C319.998169,376.416870 316.725250,372.396210 312.033020,372.256500   C307.002533,372.106689 303.355957,376.088928 303.129608,382.112885   C302.993073,385.745239 303.009705,389.383331 302.957520,393.018860   C291.640991,393.011627 280.324432,393.004395 268.753967,392.729034   C281.622070,382.690674 292.270416,370.850128 299.215210,355.885223   C310.658478,331.226715 312.157745,305.446838 308.103027,278.712708   C312.844604,272.553345 317.431854,266.695679 322.019104,260.838013   C333.050446,265.880310 344.406555,270.325531 355.035522,276.107513   C370.253052,284.385559 376.140015,298.640533 376.889862,315.224121   C377.143433,320.832611 376.190094,326.495667 375.805237,332.571350  z"
   id="path183" />
<path
   fill="#FFAA7B"
   opacity="1.000000"
   stroke="none"
   d=" M307.948700,279.014343   C312.157745,305.446838 310.658478,331.226715 299.215210,355.885223   C292.270416,370.850128 281.622070,382.690674 268.290955,392.704803   C261.007629,392.964386 253.933380,392.980072 246.176208,392.725464   C238.626709,385.678741 231.760117,378.902283 225.211212,371.958405   C230.166183,367.625427 235.767532,364.138245 239.263626,359.169678   C250.656097,342.979004 255.063934,324.343658 256.550934,304.656433   C260.639709,303.994568 264.307098,303.478516 268.358337,302.961670   C269.384186,302.794373 270.042877,302.674957 270.665833,302.454559   C284.849854,297.436676 296.933899,289.075134 307.948700,279.014343  z"
   id="path185" />
<path
   fill="#FDE680"
   opacity="1.000000"
   stroke="none"
   d=" M224.893524,372.125824   C231.760117,378.902283 238.626709,385.678741 245.702850,392.697083   C234.540039,392.937561 223.167679,392.936157 211.270035,392.453430   C210.669205,388.175262 210.872482,384.347076 210.450211,380.589203   C209.871918,375.443024 206.034851,372.059875 201.632568,372.252228   C197.111389,372.449799 193.777023,375.961639 193.266403,381.166351   C193.073334,383.134247 193.050018,385.118774 192.949310,387.095734   C183.555344,381.787476 174.161377,376.479218 164.510590,370.642365   C164.810944,368.023621 165.258957,365.897034 165.943069,363.849304   C170.150665,351.254913 179.372330,343.362274 191.284515,343.154053   C197.531601,343.044830 203.803375,344.347748 210.276093,345.288513   C215.289948,354.417999 220.091736,363.271912 224.893524,372.125824  z"
   id="path187" />
<path
   fill="#DFEDFA"
   opacity="1.000000"
   stroke="none"
   d=" M193.052429,387.546692   C193.050018,385.118774 193.073334,383.134247 193.266403,381.166351   C193.777023,375.961639 197.111389,372.449799 201.632568,372.252228   C206.034851,372.059875 209.871918,375.443024 210.450211,380.589203   C210.872482,384.347076 210.669205,388.175262 210.792145,392.423370   C210.700134,411.576935 210.588593,430.279510 210.406876,448.981384   C210.339249,455.942749 208.388504,458.202240 201.416351,459.486572   C194.904724,457.325653 193.358170,455.202179 193.328613,448.434662   C193.240662,428.289124 193.209106,408.143341 193.052429,387.546692  z"
   id="path189" />
<path
   fill="#DFEEFC"
   opacity="1.000000"
   stroke="none"
   d=" M303.025024,393.482300   C303.009705,389.383331 302.993073,385.745239 303.129608,382.112885   C303.355957,376.088928 307.002533,372.106689 312.033020,372.256500   C316.725250,372.396210 319.998169,376.416870 320.155396,382.221893   C320.191162,383.543121 320.256592,384.863525 320.412964,386.626099   C320.417572,406.378632 320.319092,425.689392 320.215576,445.000153   C320.203949,447.164398 320.295441,449.339874 320.109467,451.490295   C319.721039,455.982086 316.717834,459.003265 312.456818,459.233368   C307.827454,459.483337 304.787720,457.266266 303.588654,452.842316   C303.120361,451.114532 303.160797,449.219360 303.156311,447.399963   C303.112457,429.581940 303.108124,411.763824 303.025024,393.482300  z"
   id="path191" />
<path
   fill="#FFC7AB"
   opacity="1.000000"
   stroke="none"
   d=" M336.119751,209.112228   C336.014618,210.453110 335.909485,211.794006 335.567444,213.781174   C330.516052,224.063019 323.746155,231.687225 313.585449,235.933853   C313.292328,235.407516 313.083557,235.136444 312.981384,234.829849   C312.666412,233.884781 312.399323,232.923889 312.100952,231.973114   C307.784271,218.218048 299.648468,208.336899 284.990051,204.863281   C280.313446,203.755051 275.639282,202.476089 271.148987,200.784332   C265.987183,198.839554 261.498322,198.829025 257.828522,203.921356   C254.767334,199.093704 250.834122,198.957870 246.250122,200.358948   C240.561417,202.097687 234.759583,203.466263 229.004852,204.533020   C227.826202,192.696030 227.146271,181.241394 225.346634,169.965469   C223.095505,155.860504 224.158539,142.607651 231.314499,129.945740   C233.024368,126.920265 233.508942,123.041687 233.912445,119.482391   C234.340744,115.704514 233.915222,111.837433 234.014740,108.013260   C234.298264,97.118950 237.763412,87.512299 245.683868,79.756012   C248.500702,76.997566 251.300476,74.221687 254.108032,71.453766   C254.108032,71.453766 254.570282,71.285019 254.799988,71.197083   C268.383636,72.727142 281.894623,73.578979 295.028564,76.270531   C302.116669,77.723106 309.137390,81.491402 315.168793,85.682434   C326.266968,93.394226 331.858459,104.667564 331.138489,118.316589   C330.651642,127.547150 331.465393,136.110931 336.640900,144.143494   C338.643738,147.251968 339.156342,151.320602 340.613953,155.686050   C340.693970,161.529602 340.773956,166.665375 340.269165,171.743011   C339.029449,184.213684 337.520447,196.657562 336.119751,209.112228  z"
   id="path193" />
<path
   fill="#FFAA7B"
   opacity="1.000000"
   stroke="none"
   d=" M253.697662,71.354141   C251.300476,74.221687 248.500702,76.997566 245.683868,79.756012   C237.763412,87.512299 234.298264,97.118950 234.014740,108.013260   C233.915222,111.837433 234.340744,115.704514 233.912445,119.482391   C233.508942,123.041687 233.024368,126.920265 231.314499,129.945740   C224.158539,142.607651 223.095505,155.860504 225.346634,169.965469   C227.146271,181.241394 227.826202,192.696030 228.836334,204.678986   C228.400436,205.431763 228.187775,205.635757 227.661255,205.942947   C212.478409,210.912720 206.112350,222.792892 202.388138,237.015869   C200.348495,236.062515 198.680679,235.365906 197.088974,234.525177   C188.387115,229.928940 182.826263,222.415695 178.185333,214.059708   C178.108810,212.685150 178.032303,211.310608 177.958313,209.067093   C177.789673,205.730927 177.672455,203.258591 177.438461,200.797348   C176.003128,185.698715 174.541336,170.602585 173.088364,155.505630   C175.887405,148.973831 179.067902,142.571060 181.337631,135.860229   C182.629898,132.039459 183.051315,127.677940 182.804810,123.624390   C181.553986,103.055794 191.119278,89.379143 209.199051,80.827682   C220.651260,75.410950 232.853394,73.112526 245.350388,71.994759   C247.996918,71.758041 250.641693,71.501770 253.697662,71.354141  z"
   id="path195" />
<path
   fill="#FC9360"
   opacity="1.000000"
   stroke="none"
   d=" M172.704224,155.311890   C174.541336,170.602585 176.003128,185.698715 177.438461,200.797348   C177.672455,203.258591 177.789673,205.730927 177.935699,208.654739   C168.199295,208.655807 164.183640,205.032150 161.619476,195.670044   C159.266998,187.080841 156.007919,178.740707 153.631729,170.156982   C151.705582,163.199005 154.208588,158.038773 160.733185,154.041962   C164.798035,154.289276 168.559052,154.703720 172.704224,155.311890  z"
   id="path197" />
<path
   fill="#FFA97B"
   opacity="1.000000"
   stroke="none"
   d=" M336.528137,209.068680   C337.520447,196.657562 339.029449,184.213684 340.269165,171.743011   C340.773956,166.665375 340.693970,161.529602 340.852966,155.998596   C344.853394,155.034988 348.880981,154.493088 353.342407,153.948669   C360.304016,158.292847 362.277039,164.345993 360.055481,171.693680   C357.232330,181.031128 354.408356,190.381729 351.123199,199.561493   C348.837799,205.947495 344.025269,209.408112 336.528137,209.068680  z"
   id="path199" />
<path
   fill="#FFDC40"
   opacity="1.000000"
   stroke="none"
   d=" M210.064011,345.012939   C203.803375,344.347748 197.531601,343.044830 191.284515,343.154053   C179.372330,343.362274 170.150665,351.254913 165.943069,363.849304   C165.258957,365.897034 164.810944,368.023621 164.217072,370.474609   C163.983643,370.864746 163.786942,370.894043 163.293060,370.949402   C161.910263,369.729706 160.957474,368.329773 159.718216,367.262512   C149.206512,358.209778 142.615738,346.714996 138.348724,333.341919   C136.907150,322.989105 136.249161,312.984619 138.841461,302.926605   C141.677795,291.921814 147.311371,282.779358 157.189148,277.337708   C168.188980,271.277924 179.853928,266.425476 191.852234,261.173889   C197.001282,267.241943 201.527481,273.183563 206.011017,279.533997   C205.312714,286.381409 204.410995,292.806305 204.050308,299.261444   C203.178284,314.867798 205.732529,330.067688 210.064011,345.012939  z"
   id="path201" />
<path
   fill="#763717"
   opacity="1.000000"
   stroke="none"
   d=" M206.053665,279.125183   C201.527481,273.183563 197.001282,267.241943 192.210358,261.074524   C185.250809,247.920578 180.389297,234.391342 178.563126,219.875595   C178.356552,218.233582 178.311691,216.571228 178.188599,214.489014   C182.826263,222.415695 188.387115,229.928940 197.088974,234.525177   C198.680679,235.365906 200.348495,236.062515 202.388138,237.015869   C206.112350,222.792892 212.478409,210.912720 227.659607,206.364990   C225.168030,216.271652 225.462662,225.205551 232.640900,232.964905   C227.548660,236.881226 222.664474,240.510208 218.032700,244.436920   C217.008865,245.304871 216.073059,247.507996 216.461853,248.618286   C219.930206,258.523163 236.442001,271.124146 248.009171,264.495636   C247.961029,266.082031 248.077408,267.271454 247.836426,268.383484   C245.477005,279.271973 248.823792,288.305359 257.047607,295.468201   C260.355957,298.349731 264.312836,300.486633 267.974518,302.962463   C264.307098,303.478516 260.639709,303.994568 256.116913,304.490295   C246.232437,304.077484 237.804398,301.503021 230.337967,296.516663   C222.062531,290.990021 214.133530,284.944672 206.053665,279.125183  z"
   id="path203" />
<path
   fill="#955331"
   opacity="1.000000"
   stroke="none"
   d=" M268.358337,302.961670   C264.312836,300.486633 260.355957,298.349731 257.047607,295.468201   C248.823792,288.305359 245.477005,279.271973 247.836426,268.383484   C248.077408,267.271454 247.961029,266.082031 248.054062,264.309631   C248.097656,263.690735 248.148148,263.311340 248.480804,263.204163   C250.578781,260.588379 252.290039,258.039276 254.128204,255.585266   C255.376190,253.919128 256.802216,252.386322 258.148621,250.793884   C259.322327,252.380585 260.980682,253.802475 261.585968,255.582458   C264.222382,263.334991 271.343781,267.823669 279.158356,265.721771   C287.771698,263.404999 294.246307,258.244141 297.963470,249.879471   C299.202362,247.091568 298.933685,245.045807 296.716370,242.769928   C289.624481,235.490692 281.142700,230.919327 271.223846,228.989288   C266.087036,227.989792 262.534119,225.065018 260.144470,220.532242   C259.505615,219.320435 258.812103,218.137466 257.622467,216.008621   C254.985428,225.081223 249.056274,228.594879 241.236618,229.941101   C238.699585,230.377884 236.332733,231.803131 233.651062,232.785309   C233.414078,232.794373 232.939880,232.784805 232.939880,232.784805   C225.462662,225.205551 225.168030,216.271652 228.029968,206.320679   C228.187775,205.635757 228.400436,205.431763 228.838104,205.140671   C234.759583,203.466263 240.561417,202.097687 246.250122,200.358948   C250.834122,198.957870 254.767334,199.093704 257.828522,203.921356   C261.498322,198.829025 265.987183,198.839554 271.148987,200.784332   C275.639282,202.476089 280.313446,203.755051 284.990051,204.863281   C299.648468,208.336899 307.784271,218.218048 312.100952,231.973114   C312.399323,232.923889 312.666412,233.884781 312.981384,234.829849   C313.083557,235.136444 313.292328,235.407516 313.585449,235.933853   C323.746155,231.687225 330.516052,224.063019 335.550537,214.184479   C335.098267,230.487930 329.853790,245.688919 322.092834,260.504517   C317.431854,266.695679 312.844604,272.553345 308.103027,278.712708   C296.933899,289.075134 284.849854,297.436676 270.665833,302.454559   C270.042877,302.674957 269.384186,302.794373 268.358337,302.961670  z"
   id="path205" />
<path
   fill="#FC9460"
   opacity="1.000000"
   stroke="none"
   d=" M206.011017,279.533997   C214.133530,284.944672 222.062531,290.990021 230.337967,296.516663   C237.804398,301.503021 246.232437,304.077484 255.695557,304.636139   C255.063934,324.343658 250.656097,342.979004 239.263626,359.169678   C235.767532,364.138245 230.166183,367.625427 225.211212,371.958405   C220.091736,363.271912 215.289948,354.417999 210.276093,345.288513   C205.732529,330.067688 203.178284,314.867798 204.050308,299.261444   C204.410995,292.806305 205.312714,286.381409 206.011017,279.533997  z"
   id="path207" />
<path
   fill="#FEA97A"
   opacity="1.000000"
   stroke="none"
   d=" M248.148148,263.311340   C248.148148,263.311340 248.097656,263.690735 248.052765,263.876770   C236.442001,271.124146 219.930206,258.523163 216.461853,248.618286   C216.073059,247.507996 217.008865,245.304871 218.032700,244.436920   C222.664474,240.510208 227.548660,236.881226 232.640900,232.964905   C232.939880,232.784805 233.414078,232.794373 233.815384,233.127838   C238.860504,243.411316 243.504333,253.361328 248.148148,263.311340  z"
   id="path209" />
<path
   fill="#FEC6AA"
   opacity="1.000000"
   stroke="none"
   d=" M248.480804,263.204163   C243.504333,253.361328 238.860504,243.411316 234.052368,233.118774   C236.332733,231.803131 238.699585,230.377884 241.236618,229.941101   C249.056274,228.594879 254.985428,225.081223 257.622467,216.008621   C258.812103,218.137466 259.505615,219.320435 260.144470,220.532242   C262.534119,225.065018 266.087036,227.989792 271.223846,228.989288   C281.142700,230.919327 289.624481,235.490692 296.716370,242.769928   C298.933685,245.045807 299.202362,247.091568 297.963470,249.879471   C294.246307,258.244141 287.771698,263.404999 279.158356,265.721771   C271.343781,267.823669 264.222382,263.334991 261.585968,255.582458   C260.980682,253.802475 259.322327,252.380585 258.148621,250.793884   C256.802216,252.386322 255.376190,253.919128 254.128204,255.585266   C252.290039,258.039276 250.578781,260.588379 248.480804,263.204163  z"
   id="path211" />
</svg>
