<svg width="112" height="112" viewBox="0 0 112 112" fill="none" xmlns="http://www.w3.org/2000/svg">
<g clip-path="url(#clip0_874_3164)">
<mask id="mask0_874_3164" style="mask-type:alpha" maskUnits="userSpaceOnUse" x="8" y="-21" width="96" height="125">
<path d="M104 56C104 82.5097 82.5097 104 56 104C29.4903 104 8 82.5097 8 56C8 -0.5 29.4903 -21 56 -21C82.5097 -21 104 1 104 56Z" fill="#FF0000"/>
</mask>
<g mask="url(#mask0_874_3164)">
<circle cx="56" cy="56" r="48" fill="#EDEAFF"/>
<path d="M28 27C28 20.9249 32.9249 16 39 16H73C79.0751 16 84 20.9249 84 27V44C84 50.0751 79.0751 55 73 55H39C32.9249 55 28 50.0751 28 44V27Z" fill="#87280C"/>
<path d="M21.6809 49.9646C21.6809 46.6704 24.3513 44 27.6455 44H84.1519C87.4461 44 90.1165 46.6704 90.1165 49.9646V50.5924C90.1165 53.8866 87.4461 56.557 84.152 56.557H27.6455C24.3513 56.557 21.6809 53.8866 21.6809 50.5924V49.9646Z" fill="#FFB186"/>
<path d="M20 118.915C20 102.271 33.4927 88.7781 50.1368 88.7781H61.8632C78.5073 88.7781 92 102.271 92 118.915V133.333C92 149.977 78.5073 163.47 61.8632 163.47H50.1368C33.4927 163.47 20 149.977 20 133.333V118.915Z" fill="#9289C8"/>
<path d="M44.8972 88.4626C44.8972 86.0353 46.8649 84.0676 49.2922 84.0676H62.7079C65.1351 84.0676 67.1028 86.0353 67.1028 88.4626V92.4577C67.1028 94.885 65.1351 96.8527 62.7079 96.8527H49.2922C46.8649 96.8527 44.8972 94.885 44.8972 92.4577V88.4626Z" fill="#625D80"/>
<path d="M44.8972 86.444C44.8972 84.0168 46.8649 82.0491 49.2922 82.0491H62.7079C65.1351 82.0491 67.1028 84.0168 67.1028 86.444V88.4205C67.1028 90.8477 65.1351 92.8154 62.7079 92.8154H49.2922C46.8649 92.8154 44.8972 90.8477 44.8972 88.4205V86.444Z" fill="#9289C8"/>
<path d="M47.5889 64.9113C47.5889 62.484 49.5566 60.5164 51.9838 60.5164H60.6892C63.1165 60.5164 65.0842 62.484 65.0842 64.9113V85.7289C65.0842 88.1562 63.1165 90.1238 60.6892 90.1238H51.9838C49.5566 90.1238 47.5889 88.1562 47.5889 85.7289V64.9113Z" fill="#F2AE87"/>
<path d="M30 30C30 18.9543 38.9543 10 50 10H62C73.0457 10 82 18.9543 82 30V63.499C82 69.3675 78.1132 74.5263 72.4724 76.1448L71.886 76.313C69.9743 76.8616 68.1624 77.7119 66.5189 78.8319C60.173 83.1563 51.827 83.1563 45.4811 78.8319C43.8376 77.7119 42.0257 76.8616 40.114 76.313L39.5276 76.1448C33.8868 74.5263 30 69.3675 30 63.499V30Z" fill="#FFC5A4"/>
<g style="mix-blend-mode:multiply" opacity="0.1">
<path d="M28 26C28 17.1634 35.1634 10 44 10H81.84C82.4806 10 83 10.5193 83 11.16C83 26.5356 70.5356 39 55.16 39H28V26Z" fill="#993510"/>
</g>
<path d="M28 22C28 13.1634 35.1634 6 44 6H84.84C85.4807 6 86 6.51935 86 7.16C86 22.5356 73.5356 35 58.16 35H28V22Z" fill="#993510"/>
<path d="M44 6C35.1634 6 28 13.1634 28 22V27C28 18.1634 35.1634 11 44 11H84.84C85.1729 11 85.473 11.1402 85.6845 11.3648C85.8923 9.99347 86 8.58931 86 7.16C86 6.51935 85.4807 6 84.84 6H44Z" fill="#A14927"/>
<path d="M37.0483 39.7505C37.0483 38.8089 37.8116 38.0457 38.7532 38.0457H44.8906C45.8322 38.0457 46.5954 38.8089 46.5954 39.7505C46.5954 40.6921 45.8322 41.4553 44.8906 41.4553H38.7532C37.8116 41.4553 37.0483 40.6921 37.0483 39.7505Z" fill="#0F1013"/>
<path d="M65.0078 37.7048C65.0078 36.7633 65.7711 36 66.7127 36H72.8501C73.7916 36 74.5549 36.7633 74.5549 37.7048C74.5549 38.6464 73.7916 39.4097 72.8501 39.4097H66.7127C65.7711 39.4097 65.0078 38.6464 65.0078 37.7048Z" fill="#0F1013"/>
<path fill-rule="evenodd" clip-rule="evenodd" d="M70.4632 47.1707C69.4769 47.1707 68.6773 47.9703 68.6773 48.9566C68.6773 49.4768 68.2556 49.8984 67.7355 49.8984C67.2153 49.8984 66.7937 49.4768 66.7937 48.9566C66.7937 46.93 68.4366 45.2871 70.4632 45.2871C72.4898 45.2871 74.1327 46.93 74.1327 48.9566C74.1327 49.4768 73.7111 49.8984 73.191 49.8984C72.6708 49.8984 72.2492 49.4768 72.2492 48.9566C72.2492 47.9703 71.4496 47.1707 70.4632 47.1707Z" fill="#0F1013"/>
<path fill-rule="evenodd" clip-rule="evenodd" d="M42.5037 47.1707C41.5174 47.1707 40.7178 47.9703 40.7178 48.9566C40.7178 49.4768 40.2961 49.8984 39.776 49.8984C39.2559 49.8984 38.8342 49.4768 38.8342 48.9566C38.8342 46.93 40.4771 45.2871 42.5037 45.2871C44.5304 45.2871 46.1733 46.93 46.1733 48.9566C46.1733 49.4768 45.7516 49.8984 45.2315 49.8984C44.7114 49.8984 44.2897 49.4768 44.2897 48.9566C44.2897 47.9703 43.4901 47.1707 42.5037 47.1707Z" fill="#0F1013"/>
<path d="M46.1866 59C45.4377 59 44.8519 59.6578 45.0332 60.3844C46.2676 65.3327 50.7595 69 56.1118 69C61.4642 69 65.9561 65.3327 67.1905 60.3844C67.3718 59.6578 66.786 59 66.0371 59H46.1866Z" fill="#993510"/>
<path d="M66.5099 62.331C66.4576 62.3326 66.405 62.3333 66.3523 62.3333H45.7148C45.431 61.7116 45.2017 61.0599 45.0332 60.3844C44.8519 59.6578 45.4377 59 46.1866 59H66.0371C66.786 59 67.3718 59.6578 67.1905 60.3844C67.0222 61.0591 66.7933 61.71 66.5099 62.331Z" fill="white"/>
<path d="M61.1439 67.8391C60.197 65.7707 58.1091 64.3337 55.6855 64.3337H46.8892C48.9654 67.1625 52.323 69.0001 56.1117 69.0001C57.9178 69.0001 59.6259 68.5826 61.1439 67.8391Z" fill="#D65D31"/>
<path d="M52 45.8411C52 43.6319 53.7909 41.8411 56 41.8411C58.2091 41.8411 60 43.6319 60 45.8411V58.028C60 60.2371 58.2091 62.028 56 62.028C53.7909 62.028 52 60.2371 52 58.028V45.8411Z" fill="#D65D31"/>
</g>
</g>
<defs>
<clipPath id="clip0_874_3164">
<rect width="112" height="112" fill="white"/>
</clipPath>
</defs>
</svg>
