<svg width="56" height="56" viewBox="0 0 56 56" fill="none" xmlns="http://www.w3.org/2000/svg">
<g clip-path="url(#clip0_1283_1977)">
<g mask="url(#mask0_1283_1977)">
<path d="M52 28C52 41.2548 41.2548 52 28 52C14.7452 52 4 41.2548 4 28C4 14.7452 14.7452 4 28 4C41.2548 4 52 14.7452 52 28Z" fill="#F2F6F9"/>
<path d="M14 15.5C14 10.2533 18.2533 6 23.5 6H32.5C37.7467 6 42 10.2533 42 15.5V28C42 33.2467 37.7467 37.5 32.5 37.5H23.5C18.2533 37.5 14 33.2467 14 28V15.5Z" fill="#87280C"/>
<path d="M17 15.5C17 11.3579 20.3579 8 24.5 8H31.5C35.6421 8 39 11.3579 39 15.5V33.5C39 37.6421 35.6421 41 31.5 41H24.5C20.3579 41 17 37.6421 17 33.5V15.5Z" fill="#87280C"/>
<path d="M12 25.75C12 24.2312 13.2312 23 14.75 23H41.25C42.7688 23 44 24.2312 44 25.75C44 27.2688 42.7688 28.5 41.25 28.5H14.75C13.2312 28.5 12 27.2688 12 25.75Z" fill="#FFB186"/>
<path d="M12 57.5684C12 49.2464 18.7464 42.5 27.0684 42.5H28.9316C37.2536 42.5 44 49.2464 44 57.5684V64.4316C44 72.7536 37.2536 79.5 28.9316 79.5H27.0684C18.7464 79.5 12 72.7536 12 64.4316V57.5684Z" fill="#D0D0D0"/>
<path d="M22.4487 42.2313C22.4487 41.0177 23.4326 40.0338 24.6462 40.0338H31.3541C32.5677 40.0338 33.5515 41.0177 33.5515 42.2313V44.2289C33.5515 45.4425 32.5677 46.4263 31.3541 46.4263H24.6462C23.4326 46.4263 22.4487 45.4425 22.4487 44.2289V42.2313Z" fill="#8C8C8C"/>
<path d="M22.4487 41.7161C22.4487 40.2296 23.6538 39.0245 25.1403 39.0245H30.8599C32.3465 39.0245 33.5515 40.2296 33.5515 41.7161C33.5515 43.2026 32.3465 44.4077 30.8599 44.4077H25.1403C23.6538 44.4077 22.4487 43.2026 22.4487 41.7161Z" fill="#D0D0D0"/>
<path d="M23.7944 30.4557C23.7944 29.242 24.7783 28.2582 25.9919 28.2582H30.3446C31.5583 28.2582 32.5421 29.242 32.5421 30.4557V40.8645C32.5421 42.0781 31.5583 43.0619 30.3446 43.0619H25.9919C24.7783 43.0619 23.7944 42.0781 23.7944 40.8645V30.4557Z" fill="#F2AE87"/>
<path d="M15 17.5C15 11.9772 19.4772 7.5 25 7.5H31C36.5228 7.5 41 11.9772 41 17.5V26.5C41 33.6797 35.1797 39.5 28 39.5C20.8203 39.5 15 33.6797 15 26.5V17.5Z" fill="#FFC5A4"/>
<g style="mix-blend-mode:multiply" opacity="0.1">
<path d="M22.938 19.2572C22.18 19.7339 21.3095 19.9999 20.3983 19.9999H19.6241C16.7942 19.9999 14.5 17.4555 14.5 14.3168C14.5 11.3249 16.5916 8.8453 19.2833 8.64628L20.0558 8.58916C20.1504 8.58216 20.2443 8.57797 20.3376 8.57651C21.8428 4.98789 25.1225 2.5 28.9262 2.5H38.3934C40.3853 2.5 42 4.29086 42 6.5V8C42 14.6274 37.1559 20 31.1803 20H25.7705C24.752 20 23.7898 19.7324 22.938 19.2572Z" fill="#993510"/>
</g>
<path d="M22.8585 17.2572C22.0179 17.7339 21.0523 17.9999 20.0418 17.9999H19.1831C16.0444 17.9999 13.5 15.4555 13.5 12.3168C13.5 9.32485 15.8198 6.8453 18.8051 6.64628L19.6618 6.58916C19.7668 6.58216 19.871 6.57797 19.9745 6.57651C21.6438 2.98789 25.2814 0.5 29.5 0.5H40C42.2091 0.5 44 2.29086 44 4.5V6C44 12.6274 38.6274 18 32 18H26C24.8704 18 23.8032 17.7324 22.8585 17.2572Z" fill="#993510"/>
<path fill-rule="evenodd" clip-rule="evenodd" d="M43.9835 6.63442C43.7989 4.59662 42.0859 3 40 3H29.5C25.2814 3 21.6438 5.48789 19.9745 9.07651C19.871 9.07797 19.7668 9.08216 19.6618 9.08916L18.8051 9.14628C16.2475 9.31678 14.1785 11.1611 13.638 13.5674C13.5477 13.165 13.5 12.7465 13.5 12.3168C13.5 9.32485 15.8198 6.8453 18.8051 6.64628L19.6618 6.58916C19.7668 6.58216 19.871 6.57797 19.9745 6.57651C21.6438 2.98789 25.2814 0.5 29.5 0.5H40C42.2091 0.5 44 2.29086 44 4.5V6C44 6.21281 43.9945 6.42433 43.9835 6.63442Z" fill="#A14927"/>
<path d="M18.5242 20.8752C18.5242 20.4045 18.9058 20.0228 19.3766 20.0228H22.4453C22.9161 20.0228 23.2977 20.4045 23.2977 20.8752C23.2977 21.346 22.9161 21.7277 22.4453 21.7277H19.3766C18.9058 21.7277 18.5242 21.346 18.5242 20.8752Z" fill="#0F1013"/>
<path d="M32.5039 19.8524C32.5039 19.3816 32.8855 19 33.3563 19H36.425C36.8958 19 37.2775 19.3816 37.2775 19.8524C37.2775 20.3232 36.8958 20.7048 36.425 20.7048H33.3563C32.8855 20.7048 32.5039 20.3232 32.5039 19.8524Z" fill="#0F1013"/>
<path fill-rule="evenodd" clip-rule="evenodd" d="M35.2317 24.5853C34.7386 24.5853 34.3387 24.9851 34.3387 25.4783C34.3387 25.7384 34.1279 25.9492 33.8679 25.9492C33.6078 25.9492 33.397 25.7384 33.397 25.4783C33.397 24.465 34.2184 23.6436 35.2317 23.6436C36.245 23.6436 37.0665 24.465 37.0665 25.4783C37.0665 25.7384 36.8557 25.9492 36.5956 25.9492C36.3355 25.9492 36.1247 25.7384 36.1247 25.4783C36.1247 24.9851 35.7249 24.5853 35.2317 24.5853Z" fill="#0F1013"/>
<path fill-rule="evenodd" clip-rule="evenodd" d="M21.252 24.5853C20.7588 24.5853 20.359 24.9851 20.359 25.4783C20.359 25.7384 20.1482 25.9492 19.8881 25.9492C19.6281 25.9492 19.4172 25.7384 19.4172 25.4783C19.4172 24.465 20.2387 23.6436 21.252 23.6436C22.2653 23.6436 23.0868 24.465 23.0868 25.4783C23.0868 25.7384 22.8759 25.9492 22.6159 25.9492C22.3558 25.9492 22.145 25.7384 22.145 25.4783C22.145 24.9851 21.7452 24.5853 21.252 24.5853Z" fill="#0F1013"/>
<path d="M23.0933 29C22.7188 29 22.426 29.3289 22.5166 29.6922C23.1338 32.1663 25.3798 34 28.0559 34C30.7321 34 32.978 32.1663 33.5952 29.6922C33.6859 29.3289 33.393 29 33.0185 29H23.0933Z" fill="#993510"/>
<path d="M33.255 30.6655C33.2288 30.6663 33.2025 30.6667 33.1761 30.6667H22.8574C22.7155 30.3558 22.6009 30.03 22.5166 29.6922C22.426 29.3289 22.7188 29 23.0933 29H33.0185C33.393 29 33.6859 29.3289 33.5952 29.6922C33.5111 30.0296 33.3966 30.355 33.255 30.6655Z" fill="white"/>
<path d="M30.5719 33.4196C30.0985 32.3853 29.0545 31.6669 27.8427 31.6669H23.4446C24.4827 33.0813 26.1615 34.0001 28.0559 34.0001C28.9589 34.0001 29.8129 33.7913 30.5719 33.4196Z" fill="#D65D31"/>
</g>
</g>
<defs>
<clipPath id="clip0_1283_1977">
<rect width="56" height="56" fill="white"/>
</clipPath>
</defs>
</svg>
