<svg width="112" height="112" viewBox="0 0 112 112" fill="none" xmlns="http://www.w3.org/2000/svg">
<g clip-path="url(#clip0_874_3177)">
<g mask="url(#mask0_874_3177)">
<path d="M104 56C104 82.5097 82.5097 104 56 104C29.4903 104 8 82.5097 8 56C8 29.4903 29.4903 8 56 8C82.5097 8 104 29.4903 104 56Z" fill="#F2F6F9"/>
<path d="M28 31C28 20.5066 36.5066 12 47 12H65C75.4934 12 84 20.5066 84 31V56C84 66.4934 75.4934 75 65 75H47C36.5066 75 28 66.4934 28 56V31Z" fill="#87280C"/>
<path d="M34 31C34 22.7157 40.7157 16 49 16H63C71.2843 16 78 22.7157 78 31V67C78 75.2843 71.2843 82 63 82H49C40.7157 82 34 75.2843 34 67V31Z" fill="#87280C"/>
<path d="M24 51.5C24 48.4624 26.4624 46 29.5 46H82.5C85.5376 46 88 48.4624 88 51.5C88 54.5376 85.5376 57 82.5 57H29.5C26.4624 57 24 54.5376 24 51.5Z" fill="#FFB186"/>
<path d="M24 115.137C24 98.4927 37.4927 85 54.1368 85H57.8632C74.5073 85 88 98.4927 88 115.137V128.863C88 145.507 74.5073 159 57.8632 159H54.1368C37.4927 159 24 145.507 24 128.863V115.137Z" fill="#D0D0D0"/>
<path d="M44.8972 84.4626C44.8972 82.0353 46.8649 80.0676 49.2922 80.0676H62.7079C65.1351 80.0676 67.1028 82.0353 67.1028 84.4626V88.4577C67.1028 90.885 65.1351 92.8527 62.7079 92.8527H49.2922C46.8649 92.8527 44.8972 90.885 44.8972 88.4577V84.4626Z" fill="#8C8C8C"/>
<path d="M44.8972 83.4323C44.8972 80.4592 47.3073 78.0491 50.2804 78.0491H61.7197C64.6927 78.0491 67.1028 80.4592 67.1028 83.4323C67.1028 86.4053 64.6927 88.8154 61.7196 88.8154H50.2804C47.3073 88.8154 44.8972 86.4053 44.8972 83.4323Z" fill="#D0D0D0"/>
<path d="M47.5889 60.9113C47.5889 58.484 49.5566 56.5164 51.9838 56.5164H60.6892C63.1165 56.5164 65.0842 58.484 65.0842 60.9113V81.7289C65.0842 84.1562 63.1165 86.1238 60.6892 86.1238H51.9838C49.5566 86.1238 47.5889 84.1562 47.5889 81.7289V60.9113Z" fill="#F2AE87"/>
<path d="M30 35C30 23.9543 38.9543 15 50 15H62C73.0457 15 82 23.9543 82 35V53C82 67.3594 70.3594 79 56 79C41.6406 79 30 67.3594 30 53V35Z" fill="#FFC5A4"/>
<g style="mix-blend-mode:multiply" opacity="0.1">
<path d="M45.876 38.5143C44.3601 39.4678 42.6189 39.9999 40.7966 39.9999H39.2483C33.5883 39.9999 29 34.911 29 28.6336C29 22.6497 33.1832 17.6906 38.5666 17.2926L40.1115 17.1783C40.3007 17.1643 40.4887 17.1559 40.6753 17.153C43.6855 9.97579 50.2451 5 57.8525 5H76.7869C80.7706 5 84 8.58172 84 13V16C84 29.2548 74.3117 40 62.3607 40H51.541C49.5039 40 47.5796 39.4648 45.876 38.5143Z" fill="#993510"/>
</g>
<path d="M45.717 34.5143C44.0357 35.4678 42.1046 35.9999 40.0835 35.9999H38.3663C32.0888 35.9999 27 30.911 27 24.6336C27 18.6497 31.6395 13.6906 37.6102 13.2926L39.3237 13.1783C39.5335 13.1643 39.742 13.1559 39.949 13.153C43.2876 5.97579 50.5627 1 59 1H80C84.4183 1 88 4.58172 88 9V12C88 25.2548 77.2548 36 64 36H52C49.7407 36 47.6064 35.4648 45.717 34.5143Z" fill="#993510"/>
<path fill-rule="evenodd" clip-rule="evenodd" d="M87.967 13.2688C87.5978 9.19325 84.1718 6 80 6H59C50.5627 6 43.2876 10.9758 39.949 18.153C39.742 18.1559 39.5335 18.1643 39.3237 18.1783L37.6102 18.2926C32.4951 18.6336 28.357 22.3221 27.2761 27.1347C27.0954 26.33 27 25.4929 27 24.6336C27 18.6497 31.6395 13.6906 37.6102 13.2926L39.3237 13.1783C39.5335 13.1643 39.742 13.1559 39.949 13.153C43.2876 5.97579 50.5627 1 59 1H80C84.4183 1 88 4.58172 88 9V12C88 12.4256 87.9889 12.8487 87.967 13.2688Z" fill="#A14927"/>
<path d="M37.0483 41.7505C37.0483 40.8089 37.8116 40.0457 38.7532 40.0457H44.8906C45.8322 40.0457 46.5954 40.8089 46.5954 41.7505C46.5954 42.6921 45.8322 43.4553 44.8906 43.4553H38.7532C37.8116 43.4553 37.0483 42.6921 37.0483 41.7505Z" fill="#0F1013"/>
<path d="M65.0078 39.7048C65.0078 38.7633 65.7711 38 66.7127 38H72.8501C73.7916 38 74.5549 38.7633 74.5549 39.7048C74.5549 40.6464 73.7916 41.4097 72.8501 41.4097H66.7127C65.7711 41.4097 65.0078 40.6464 65.0078 39.7048Z" fill="#0F1013"/>
<path fill-rule="evenodd" clip-rule="evenodd" d="M70.4632 49.1707C69.4769 49.1707 68.6773 49.9703 68.6773 50.9566C68.6773 51.4768 68.2556 51.8984 67.7355 51.8984C67.2153 51.8984 66.7937 51.4768 66.7937 50.9566C66.7937 48.93 68.4366 47.2871 70.4632 47.2871C72.4898 47.2871 74.1327 48.93 74.1327 50.9566C74.1327 51.4768 73.7111 51.8984 73.191 51.8984C72.6708 51.8984 72.2492 51.4768 72.2492 50.9566C72.2492 49.9703 71.4496 49.1707 70.4632 49.1707Z" fill="#0F1013"/>
<path fill-rule="evenodd" clip-rule="evenodd" d="M42.5037 49.1707C41.5174 49.1707 40.7178 49.9703 40.7178 50.9566C40.7178 51.4768 40.2961 51.8984 39.776 51.8984C39.2559 51.8984 38.8342 51.4768 38.8342 50.9566C38.8342 48.93 40.4771 47.2871 42.5037 47.2871C44.5304 47.2871 46.1733 48.93 46.1733 50.9566C46.1733 51.4768 45.7516 51.8984 45.2315 51.8984C44.7114 51.8984 44.2897 51.4768 44.2897 50.9566C44.2897 49.9703 43.4901 49.1707 42.5037 49.1707Z" fill="#0F1013"/>
<path d="M46.1866 58C45.4377 58 44.8519 58.6578 45.0332 59.3844C46.2676 64.3327 50.7595 68 56.1118 68C61.4642 68 65.9561 64.3327 67.1905 59.3844C67.3718 58.6578 66.786 58 66.0371 58H46.1866Z" fill="#993510"/>
<path d="M66.5099 61.331C66.4576 61.3326 66.405 61.3333 66.3523 61.3333H45.7148C45.431 60.7116 45.2017 60.0599 45.0332 59.3844C44.8519 58.6578 45.4377 58 46.1866 58H66.0371C66.786 58 67.3718 58.6578 67.1905 59.3844C67.0222 60.0591 66.7933 60.71 66.5099 61.331Z" fill="white"/>
<path d="M61.1439 66.8391C60.197 64.7707 58.1091 63.3337 55.6855 63.3337H46.8892C48.9654 66.1625 52.323 68.0001 56.1117 68.0001C57.9178 68.0001 59.6259 67.5826 61.1439 66.8391Z" fill="#D65D31"/>
</g>
</g>
<defs>
<clipPath id="clip0_874_3177">
<rect width="112" height="112" fill="white"/>
</clipPath>
</defs>
</svg>
