<svg width="112" height="112" viewBox="0 0 112 112" fill="none" xmlns="http://www.w3.org/2000/svg">
<g clip-path="url(#clip0_874_3172)">
<g mask="url(#mask0_874_3172)">
<path d="M104 56C104 82.5097 82.5097 104 56 104C29.4903 104 8 82.5097 8 56C8 29.4903 29.4903 8 56 8C82.5097 8 104 29.4903 104 56Z" fill="#FFD7C0"/>
<path d="M24.8889 28.6666C24.8889 13.939 36.828 2 51.5556 2H60.4445C75.172 2 87.1111 13.9391 87.1111 28.6667V80.8889C87.1111 95.6165 75.1721 107.556 60.4445 107.556H51.5556C36.828 107.556 24.8889 95.6165 24.8889 80.8889V28.6666Z" fill="#993510"/>
<g style="mix-blend-mode:multiply" opacity="0.3">
<path d="M24.8889 28.6666C24.8889 13.9391 36.828 2 51.5556 2H60.4445C75.172 2 87.1111 13.9391 87.1111 28.6667V62C87.1111 76.7276 75.1721 88.6667 60.4445 88.6667H51.5556C36.828 88.6667 24.8889 76.7276 24.8889 62V28.6666Z" fill="#993510"/>
</g>
<path d="M39.5495 101.149C42.2955 94.3073 48.9266 89.8235 56.2989 89.8235C63.7292 89.8235 70.4002 94.3773 73.1069 101.297L82.3355 124.89C88.9041 141.683 76.5208 159.823 58.4893 159.823H53.868C35.7401 159.823 23.3527 141.504 30.105 124.68L39.5495 101.149Z" fill="#FF936B"/>
<path d="M31.3333 110.157C31.3333 103.713 36.5566 98.49 42.9999 98.49H68.9999C75.4433 98.49 80.6666 103.713 80.6666 110.157C80.6666 116.6 75.4432 121.823 68.9999 121.823H42.9999C36.5566 121.823 31.3333 116.6 31.3333 110.157Z" fill="#FF936B"/>
<path d="M47.3333 86.6088C47.3333 82.1249 50.9682 78.49 55.4521 78.49H56.5477C61.0317 78.49 64.6666 82.1249 64.6666 86.6088V106.371C64.6666 110.855 61.0317 114.49 56.5477 114.49H55.4521C50.9682 114.49 47.3333 110.855 47.3333 106.371V86.6088Z" fill="#FF936B"/>
<path d="M43.4792 81.6861C43.4792 79.6166 45.1569 77.939 47.2264 77.939H64.7132C66.7827 77.939 68.4603 79.6166 68.4603 81.6861V85.4333C68.4603 87.5028 66.7827 89.1804 64.7132 89.1804H47.2264C45.1569 89.1804 43.4792 87.5028 43.4792 85.4333V81.6861Z" fill="#E25A5C"/>
<path d="M43.3333 81.5706C43.3333 79.5011 45.0109 77.8235 47.0804 77.8235H64.9194C66.9889 77.8235 68.6666 79.5011 68.6666 81.5706V85.4096C68.6666 87.4791 66.9889 89.1568 64.9194 89.1568H47.0804C45.0109 89.1568 43.3333 87.4791 43.3333 85.4096V81.5706Z" fill="#D65D31"/>
<path d="M43.4792 81.6861C43.4792 79.6166 45.1569 77.939 47.2264 77.939H64.7132C66.7827 77.939 68.4603 79.6166 68.4603 81.6861V82.3107C68.4603 84.3802 66.7827 86.0578 64.7132 86.0578H47.2264C45.1569 86.0578 43.4792 84.3801 43.4792 82.3106V81.6861Z" fill="#FF936B"/>
<path d="M47.3333 56.1567C47.3333 54.4999 48.6764 53.1567 50.3333 53.1567H61.6666C63.3234 53.1567 64.6666 54.4999 64.6666 56.1567V79.49C64.6666 81.1469 63.3234 82.49 61.6666 82.49H50.3333C48.6764 82.49 47.3333 81.1469 47.3333 79.49V56.1567Z" fill="#F2AE87"/>
<path d="M22.9124 51.0116C22.9124 47.7349 25.5687 45.0786 28.8454 45.0786H83.2436C86.5204 45.0786 89.1767 47.7349 89.1767 51.0116V51.1936C89.1767 54.4704 86.5204 57.1267 83.2436 57.1267H28.8454C25.5686 57.1267 22.9124 54.4704 22.9124 51.1937V51.0116Z" fill="#D65D31"/>
<path d="M25.5898 46.4175C25.5898 44.5692 27.0882 43.0708 28.9365 43.0708H83.1528C85.0011 43.0708 86.4995 44.5692 86.4995 46.4175C86.4995 48.2658 85.0011 49.7642 83.1528 49.7642H28.9365C27.0882 49.7642 25.5898 48.2658 25.5898 46.4175Z" fill="#F2AE87"/>
<path d="M28.2222 34.7589C28.2222 20.9623 39.4066 9.77783 53.2032 9.77783H58.7966C72.5933 9.77783 83.7777 20.9622 83.7777 34.7589V47.019C83.7777 60.8156 72.5933 72.0001 58.7966 72.0001H53.2032C39.4066 72.0001 28.2222 60.8157 28.2222 47.019V34.7589Z" fill="#FFC5A4"/>
<g style="mix-blend-mode:multiply" opacity="0.1">
<path d="M28.2222 30.3143C28.2222 16.5177 39.4066 5.33325 53.2032 5.33325H77.6704C80.4297 5.33325 82.6666 7.57013 82.6666 10.3295V20.6281C82.6666 33.0451 72.6006 43.111 60.1836 43.111H28.2222V30.3143Z" fill="#993510"/>
</g>
<path d="M24.8889 26.9811C24.8889 13.1844 36.0733 2 49.87 2H71.0179C78.065 2 83.7778 7.71281 83.7778 14.7599C83.7778 27.9633 73.0744 38.6667 59.8711 38.6667H24.8889V26.9811Z" fill="#993510"/>
<path opacity="0.1" d="M25 26.9811C25 13.1844 36.1844 2 49.9811 2H71.129C78.1761 2 83.8889 7.71281 83.8889 14.7599C83.8889 27.9633 73.1855 38.6667 59.9822 38.6667H25V26.9811Z" fill="#ECF9F6"/>
<path d="M24.8889 32.5365C24.8889 18.7398 36.0733 7.55542 49.87 7.55542H76.1267C80.3523 7.55542 83.7778 10.981 83.7778 15.2066C83.7778 28.7768 72.777 39.7776 59.2067 39.7776H24.8889V32.5365Z" fill="#993510"/>
<path fill-rule="evenodd" clip-rule="evenodd" d="M73.3334 43.6097C72.3781 43.6097 71.6036 44.3842 71.6036 45.3395C71.6036 45.8569 71.1841 46.2763 70.6668 46.2763C70.1494 46.2763 69.73 45.8569 69.73 45.3395C69.73 43.3494 71.3433 41.7361 73.3334 41.7361C75.3236 41.7361 76.9369 43.3494 76.9369 45.3395C76.9369 45.8569 76.5175 46.2763 76.0001 46.2763C75.4827 46.2763 75.0633 45.8569 75.0633 45.3395C75.0633 44.3842 74.2888 43.6097 73.3334 43.6097Z" fill="#0F1013"/>
<path fill-rule="evenodd" clip-rule="evenodd" d="M39.3332 43.6097C38.3778 43.6097 37.6033 44.3842 37.6033 45.3395C37.6033 45.8569 37.1839 46.2763 36.6665 46.2763C36.1492 46.2763 35.7297 45.8569 35.7297 45.3395C35.7297 43.3494 37.3431 41.7361 39.3332 41.7361C41.3233 41.7361 42.9366 43.3494 42.9366 45.3395C42.9366 45.8569 42.5172 46.2763 41.9999 46.2763C41.4825 46.2763 41.0631 45.8569 41.0631 45.3395C41.0631 44.3842 40.2886 43.6097 39.3332 43.6097Z" fill="#0F1013"/>
<path d="M45.8343 52.0457C45.0854 52.0457 44.4996 52.7034 44.6809 53.4301C45.9153 58.3783 50.4072 62.0456 55.7596 62.0456C61.1119 62.0456 65.6038 58.3783 66.8382 53.4301C67.0195 52.7034 66.4337 52.0457 65.6848 52.0457H45.8343Z" fill="#993510"/>
<path d="M66.1576 55.3767C66.1053 55.3782 66.0527 55.379 66 55.379H45.3625C45.0787 54.7573 44.8494 54.1056 44.6809 53.4301C44.4996 52.7034 45.0854 52.0457 45.8343 52.0457H65.6848C66.4337 52.0457 67.0195 52.7034 66.8382 53.4301C66.6699 54.1048 66.441 54.7557 66.1576 55.3767Z" fill="white"/>
<path d="M60.7917 60.8847C59.8449 58.8163 57.7569 57.3794 55.3333 57.3794H46.5371C48.6134 60.2081 51.9709 62.0457 55.7596 62.0457C57.5656 62.0457 59.2737 61.6281 60.7917 60.8847Z" fill="#D65D31"/>
<path d="M40.6667 52.0459C40.6667 54.255 38.8759 56.0459 36.6667 56.0459C34.4576 56.0459 32.6667 54.255 32.6667 52.0459C32.6667 49.8368 34.4576 48.0459 36.6667 48.0459C38.8759 48.0459 40.6667 49.8368 40.6667 52.0459Z" fill="#F2AE87"/>
<path d="M78.6667 52.0459C78.6667 54.255 76.8759 56.0459 74.6667 56.0459C72.4576 56.0459 70.6667 54.255 70.6667 52.0459C70.6667 49.8368 72.4576 48.0459 74.6667 48.0459C76.8759 48.0459 78.6667 49.8368 78.6667 52.0459Z" fill="#F2AE87"/>
<path d="M54.7207 49.044C54.7207 49.5613 54.3013 49.9808 53.784 49.9808C53.2666 49.9808 52.8472 49.5613 52.8472 49.044C52.8472 48.5266 53.2666 48.1072 53.784 48.1072C54.3013 48.1072 54.7207 48.5266 54.7207 49.044Z" fill="#E9B090"/>
<path d="M58.9363 49.044C58.9363 49.5613 58.5169 49.9808 57.9995 49.9808C57.4822 49.9808 57.0627 49.5613 57.0627 49.044C57.0627 48.5266 57.4822 48.1072 57.9995 48.1072C58.5169 48.1072 58.9363 48.5266 58.9363 49.044Z" fill="#E9B090"/>
</g>
</g>
<defs>
<clipPath id="clip0_874_3172">
<rect width="112" height="112" fill="white"/>
</clipPath>
</defs>
</svg>
