<?xml version="1.0" encoding="UTF-8" standalone="no"?>
<svg
   version="1.1"
   id="Layer_1"
   x="0px"
   y="0px"
   width="100%"
   viewBox="0 0 512 512"
   enable-background="new 0 0 512 512"
   xml:space="preserve"
   sodipodi:docname="image 5_adobe_express.svg"
   inkscape:version="1.2.2 (b0a8486, 2022-12-01)"
   xmlns:inkscape="http://www.inkscape.org/namespaces/inkscape"
   xmlns:sodipodi="http://sodipodi.sourceforge.net/DTD/sodipodi-0.dtd"
   xmlns="http://www.w3.org/2000/svg"
   xmlns:svg="http://www.w3.org/2000/svg"><defs
   id="defs97" /><sodipodi:namedview
   id="namedview95"
   pagecolor="#ffffff"
   bordercolor="#000000"
   borderopacity="0.25"
   inkscape:showpageshadow="2"
   inkscape:pageopacity="0.0"
   inkscape:pagecheckerboard="0"
   inkscape:deskcolor="#d1d1d1"
   showgrid="false"
   inkscape:zoom="0.4609375"
   inkscape:cx="257.08475"
   inkscape:cy="256"
   inkscape:window-width="1463"
   inkscape:window-height="456"
   inkscape:window-x="0"
   inkscape:window-y="25"
   inkscape:window-maximized="0"
   inkscape:current-layer="Layer_1" />
<path
   fill="#273B7A"
   opacity="1.000000"
   stroke="none"
   d=" M0.999995,289.000000   C1.000000,267.979095 1.000000,246.958206 1.412066,225.482758   C2.936132,218.964661 3.880980,212.864807 5.188949,206.843857   C10.973804,180.214523 19.810194,154.723007 33.466526,131.005844   C44.581917,111.701553 57.381161,93.678757 73.427429,78.144875   C81.042717,70.772758 88.768120,63.468765 96.913055,56.698662   C115.224884,41.477802 135.600906,29.498610 157.550674,20.356861   C178.494949,11.633882 200.186050,5.435760 222.830139,2.902640   C223.614548,2.814889 224.279404,1.658367 225.000000,0.999996   C246.020889,1.000000 267.041779,1.000000 288.517273,1.412061   C295.035400,2.936142 301.135284,3.881029 307.156281,5.188994   C333.785614,10.973805 359.277130,19.810238 382.994263,33.466560   C402.298523,44.581951 420.321350,57.381149 435.855194,73.427452   C443.227295,81.042763 450.531311,88.768166 457.301392,96.913101   C472.522217,115.224922 484.501343,135.600952 493.643127,157.550659   C502.366150,178.494904 508.564240,200.186005 511.097382,222.830078   C511.185150,223.614532 512.341614,224.279404 513.000000,225.000000   C513.000000,235.020889 513.000000,245.041794 512.690979,255.400208   C509.869476,253.574341 507.206573,251.561615 504.866791,249.225281   C462.375519,206.796646 419.935913,164.316284 377.414337,121.918114   C375.771027,120.279587 373.419861,119.350983 371.237762,118.007629   C370.923065,117.708504 370.888977,117.475746 370.925720,116.878891   C370.440521,116.040085 370.004303,115.547813 369.297119,114.885071   C368.601532,114.206985 368.174133,113.701668 367.752686,113.191460   C339.017822,78.405251 301.802002,61.663574 256.513092,61.052200   C224.616867,61.342426 196.225204,71.078461 170.881927,89.431023   C156.870255,99.577713 144.731049,111.631737 137.767059,127.961754   C132.062531,141.338440 134.335571,153.393478 144.619644,161.845047   C148.421066,164.969101 153.011475,167.133133 157.405487,170.045944   C157.782913,172.321472 157.996902,174.286087 158.268143,176.626740   C159.769638,180.389008 157.416473,185.487045 162.874146,187.288574   C162.885208,187.508057 162.956772,187.941681 162.950623,188.394592   C163.590515,194.866150 164.236557,200.884827 164.537750,206.959564   C161.840149,209.449707 158.271439,211.514877 157.396790,214.397461   C155.758194,219.797882 154.569214,225.794540 155.180557,231.323456   C156.508926,243.337036 160.593170,254.249496 173.166870,259.882568   C175.723785,273.550507 180.684921,285.967194 190.102905,295.706787   C197.400269,303.253296 206.199982,309.347076 214.299683,316.549683   C214.250809,322.717865 214.234100,328.422974 213.855972,334.046875   C210.099915,331.210297 207.239868,331.995758 204.547791,335.136230   C199.412292,341.127106 194.183990,347.038422 188.584686,352.990051   C182.777588,354.327179 177.379974,355.656982 171.600449,356.962158   C169.491745,357.315704 167.764984,357.693909 165.670807,358.103302   C163.503906,358.779205 161.704391,359.423889 159.528381,360.005676   C157.420837,360.300110 155.689758,360.657440 153.565414,361.024658   C151.262497,361.474487 149.368927,362.009644 147.439987,362.335175   C143.097137,363.067993 141.189636,365.451813 141.756104,370.023376   C124.098633,379.806183 116.007278,394.622101 116.414558,414.357117   C116.609764,423.816345 116.498505,433.283234 116.433693,442.746063   C116.368980,452.193817 116.188889,461.640808 115.735611,470.946655   C105.206253,462.968506 94.404465,455.781982 84.957230,447.118378   C74.844521,437.844482 65.576134,427.543488 56.710018,417.040161   C41.354828,398.849548 29.500067,378.375153 20.353485,356.435394   C11.624993,335.498566 5.435767,313.808289 2.903126,291.168671   C2.815417,290.384613 1.658537,289.720184 0.999995,289.000000  z"
   id="path2" />
<path
   fill="#121149"
   opacity="1.000000"
   stroke="none"
   d=" M371.398529,118.091568   C373.419861,119.350983 375.771027,120.279587 377.414337,121.918114   C419.935913,164.316284 462.375519,206.796646 504.866791,249.225281   C507.206573,251.561615 509.869476,253.574341 512.690979,255.868866   C513.000000,266.687561 513.000000,277.375122 512.610779,288.602905   C511.173248,294.055664 509.946503,298.937927 509.105927,303.885742   C504.046814,333.663910 493.274841,361.294617 478.160156,387.349731   C464.877808,410.246155 447.990570,430.251648 428.463348,447.907288   C419.060577,456.408936 408.286560,463.394012 398.047241,470.599762   C397.934357,451.323029 398.003967,432.511414 397.812073,413.702423   C397.765076,409.094666 397.265594,404.407227 396.278442,399.909088   C393.213043,385.941040 384.155304,376.660065 371.975281,369.585083   C372.597839,365.378387 371.006195,363.242401 367.218292,362.579163   C364.798096,362.155396 362.412811,361.532104 359.649780,360.878845   C357.536224,360.543915 355.784790,360.328430 353.795898,359.842010   C351.675507,359.064331 349.792572,358.557587 347.544006,357.972992   C345.456146,357.620148 343.733887,357.345184 341.739197,356.804138   C335.985413,355.356049 330.504089,354.174011 324.847168,352.709167   C319.846680,346.950348 314.892914,341.580841 310.242981,335.959991   C307.237000,332.326355 304.141693,331.041656 300.012695,333.533936   C299.939392,327.388336 299.898254,321.711182 300.078735,315.763275   C306.084198,311.323975 312.315857,307.648987 317.563019,302.888794   C330.276581,291.355042 337.867371,276.789612 341.319885,259.821106   C356.599762,253.602753 363.870239,228.264359 356.733887,213.935181   C355.278473,211.012894 351.670685,209.162552 349.062836,206.411072   C349.792328,200.292023 350.514099,194.579956 351.363708,187.856155   C344.402802,191.345535 338.689026,194.209747 332.607513,197.094971   C330.079224,197.956833 327.941345,198.862488 325.754578,199.628464   C303.162292,207.542206 279.979126,211.796188 255.979462,210.368530   C256.030396,200.038254 256.061615,190.165359 256.064697,180.221588   C256.036560,180.150696 256.039703,179.998154 256.475464,180.079590   C286.165955,182.114212 315.423859,184.021545 344.673615,186.046082   C354.613129,186.734055 354.603790,186.869110 355.963867,175.696350   C356.341766,173.488480 356.689087,171.679611 357.368042,169.785339   C361.184967,167.512299 364.889374,165.604660 368.112610,163.082184   C376.308624,156.668106 381.298553,148.368988 378.838531,137.745316   C377.272522,130.982422 373.939331,124.628738 371.398529,118.091568  z"
   id="path4" />
<path
   fill="#C0C0C0"
   opacity="1.000000"
   stroke="none"
   d=" M371.977783,370.000519   C384.155304,376.660065 393.213043,385.941040 396.278442,399.909088   C397.265594,404.407227 397.765076,409.094666 397.812073,413.702423   C398.003967,432.511414 397.934357,451.323029 397.852966,470.887726   C385.409607,478.252899 373.340790,485.434448 360.680237,491.349335   C338.435333,501.741974 314.909821,508.046661 290.518280,511.074982   C289.613159,511.187378 288.836517,512.334900 288.000000,513.000000   C280.645752,513.000000 273.291504,513.000000 265.551361,512.537415   C265.184479,483.838318 265.537628,455.595795 265.026398,427.368866   C264.865265,418.472473 266.663086,411.137634 273.486938,405.119629   C282.326843,411.000946 285.138550,410.435120 291.132935,401.763062   C297.658844,392.321991 304.158325,382.861481 310.812347,373.511200   C311.875275,372.017609 313.687622,371.057343 315.560303,369.910736   C323.041382,371.419861 330.115723,372.868805 337.455505,374.489990   C339.613495,375.063080 341.506012,375.463959 343.822388,375.957520   C346.172729,376.463287 348.099182,376.876373 350.300598,377.485565   C352.352692,378.056366 354.129822,378.431000 356.298706,378.900513   C358.441772,379.402435 360.192322,379.812622 361.944489,380.215942   C368.245941,381.666473 368.540741,381.438080 370.174103,374.923340   C370.596771,373.237640 371.367126,371.639099 371.977783,370.000519  z"
   id="path6" />
<path
   fill="#DFE1E1"
   opacity="1.000000"
   stroke="none"
   d=" M116.059380,471.088135   C116.188889,461.640808 116.368980,452.193817 116.433693,442.746063   C116.498505,433.283234 116.609764,423.816345 116.414558,414.357117   C116.007278,394.622101 124.098633,379.806183 142.047760,370.267334   C145.855179,382.225769 143.433121,382.519226 157.134705,379.032227   C157.454163,378.950897 157.775818,378.878113 158.441528,378.826538   C160.519272,378.339172 162.251923,377.826630 164.396271,377.254639   C166.736526,376.747223 168.665054,376.299255 170.924225,375.872559   C173.109634,375.370880 174.964417,374.847961 177.235962,374.252197   C185.085052,372.396759 192.517380,370.614136 200.100922,369.142761   C208.654327,381.379852 216.988541,393.354462 225.493896,405.206238   C228.666473,409.627045 233.199814,410.099365 237.594421,406.974426   C238.644211,406.227966 239.818390,405.656403 241.156708,405.257507   C247.600616,411.352631 249.257706,418.399506 249.085632,426.949860   C248.547363,453.697510 248.906158,480.462891 248.849670,507.221252   C248.845596,509.148102 248.295990,511.073792 248.000000,513.000000   C240.979050,513.000000 233.958099,513.000000 226.830566,512.662170   C225.580872,511.846466 224.479202,511.174316 223.288345,510.920441   C209.473953,507.975525 195.407822,505.919220 181.874619,502.012421   C158.378799,495.229584 136.497833,484.591003 116.059380,471.088135  z"
   id="path8" />




<path
   fill="#2B3447"
   opacity="1.000000"
   stroke="none"
   d=" M273.146027,405.071960   C266.663086,411.137634 264.865265,418.472473 265.026398,427.368866   C265.537628,455.595795 265.184479,483.838318 265.082733,512.537415   C262.299988,513.000000 259.599976,513.000000 256.462708,512.531494   C256.028381,487.396362 256.058807,462.729736 256.024841,438.063202   C256.001190,420.899780 255.889114,403.736511 255.901764,386.336151   C256.324036,385.728455 256.661072,385.357727 257.275024,385.171509   C259.278656,387.363708 261.088348,389.306732 262.715179,391.392365   C266.241760,395.913544 269.674744,400.507660 273.146027,405.071960  z"
   id="path18" />
<path
   fill="#283C7A"
   opacity="1.000000"
   stroke="none"
   d=" M255.816528,386.573151   C255.889114,403.736511 256.001190,420.899780 256.024841,438.063202   C256.058807,462.729736 256.028381,487.396362 256.012695,512.531494   C253.629440,513.000000 251.258896,513.000000 248.444183,513.000000   C248.295990,511.073792 248.845596,509.148102 248.849670,507.221252   C248.906158,480.462891 248.547363,453.697510 249.085632,426.949860   C249.257706,418.399506 247.600616,411.352631 241.189819,404.904968   C245.939926,398.390625 250.878220,392.481873 255.816528,386.573151  z"
   id="path20" />
<path
   fill="#FEFEFE"
   opacity="1.000000"
   stroke="none"
   d=" M157.242035,169.735016   C153.011475,167.133133 148.421066,164.969101 144.619644,161.845047   C134.335571,153.393478 132.062531,141.338440 137.767059,127.961754   C144.731049,111.631737 156.870255,99.577713 170.881927,89.431023   C196.225204,71.078461 224.616867,61.342426 256.507690,61.512798   C256.963043,70.633797 256.965363,79.223900 256.725342,87.906067   C256.329834,88.078201 256.176666,88.158279 255.652374,88.201485   C248.560867,89.443459 243.968124,93.173576 242.950684,100.088676   C241.921371,107.084427 244.772247,112.340309 251.233429,115.589478   C252.213745,116.082458 252.764053,117.430580 253.513260,118.383163   C252.336105,119.230515 251.158936,120.077866 249.735428,121.102547   C249.735428,122.612137 249.735428,124.415565 249.735428,126.248619   C255.944901,127.814987 253.066055,132.342712 253.354507,137.719345   C248.086197,134.440277 243.887619,131.827042 239.308167,128.976746   C238.137970,129.803955 236.541382,130.932587 234.769165,132.185364   C240.202133,139.600189 247.154053,143.443771 256.250671,143.916565   C256.642914,144.085876 256.804474,144.142456 256.961792,144.629562   C256.961182,147.644501 256.964783,150.228912 256.728455,152.898621   C256.332306,153.050568 256.176117,153.117218 255.554138,153.118683   C224.545029,155.123886 193.995926,157.114227 163.463135,159.329010   C156.987564,159.798721 156.578629,160.719193 157.052307,167.243958   C157.112595,168.074524 157.178650,168.904678 157.242035,169.735016  z"
   id="path22" />
<path
   fill="#E1E1E2"
   opacity="1.000000"
   stroke="none"
   d=" M256.967682,87.814003   C256.965363,79.223900 256.963043,70.633797 256.966125,61.583099   C301.802002,61.663574 339.017822,78.405251 367.752686,113.191460   C368.174133,113.701668 368.601532,114.206985 369.429688,115.186081   C370.213715,116.180183 370.594238,116.702797 370.974731,117.225418   C370.888977,117.475746 370.923065,117.708504 371.237762,118.007622   C373.939331,124.628738 377.272522,130.982422 378.838531,137.745316   C381.298553,148.368988 376.308624,156.668106 368.112610,163.082184   C364.889374,165.604660 361.184967,167.512299 357.344788,169.345337   C357.100555,164.844635 358.837646,159.902069 352.045502,159.218323   C338.313873,157.835983 324.612244,156.005966 310.849396,155.119888   C292.913910,153.965195 274.930969,153.547928 256.968445,152.813339   C256.964783,150.228912 256.961182,147.644501 257.383850,144.550354   C266.822540,143.644104 273.905579,139.774506 279.505615,132.159027   C277.466492,130.775391 275.730072,129.597153 274.567017,128.807968   C270.048462,131.717484 266.018066,134.312653 261.987671,136.907822   C261.608917,136.499130 261.230164,136.090454 260.851440,135.681763   C262.178772,132.808655 257.517670,128.188934 263.959717,126.538483   C264.219604,126.471901 263.588837,122.248558 263.030426,120.048889   C262.842865,119.309998 261.589294,118.841705 260.822968,118.249741   C261.591614,117.338966 262.189484,116.143845 263.156372,115.563240   C269.743286,111.607956 272.551178,106.109680 271.164215,99.520798   C269.734894,92.730507 264.987244,88.815483 256.967682,87.814003  z"
   id="path24" />
<path
   fill="#C18E56"
   opacity="1.000000"
   stroke="none"
   d=" M214.331848,316.086639   C206.199982,309.347076 197.400269,303.253296 190.102905,295.706787   C180.684921,285.967194 175.723785,273.550507 173.231659,259.377350   C172.360657,246.134628 171.590866,233.711563 171.254974,221.219452   C174.576630,221.332169 176.249237,220.579025 176.238373,217.083725   C176.229950,214.377960 177.258484,211.668961 178.119888,209.170258   C183.954163,222.559219 189.802460,235.621552 194.909103,248.967667   C197.584930,255.960876 200.557175,261.513153 209.235764,260.735901   C209.861450,260.679840 210.522736,261.021179 211.339264,261.443848   C224.186462,273.038727 241.336472,274.957214 255.970367,267.170288   C255.967422,286.147278 255.950089,304.635864 255.468628,323.134460   C240.895828,323.967896 227.288940,321.899567 214.331848,316.086639  z"
   id="path26" />
<path
   fill="#AFAFAE"
   opacity="1.000000"
   stroke="none"
   d=" M255.901764,386.336151   C250.878220,392.481873 245.939926,398.390625 240.968491,404.651886   C239.818390,405.656403 238.644211,406.227966 237.594421,406.974426   C233.199814,410.099365 228.666473,409.627045 225.493896,405.206238   C216.988541,393.354462 208.654327,381.379852 199.927582,368.865967   C196.066742,363.179535 192.530472,358.081146 188.994202,352.982758   C194.183990,347.038422 199.412292,341.127106 204.547791,335.136230   C207.239868,331.995758 210.099915,331.210297 214.084961,334.268433   C215.426025,335.829590 216.017914,337.222748 216.953125,338.324493   C223.044266,345.500305 229.165527,352.651672 235.363007,359.735748   C242.203156,367.554382 249.135529,375.292328 256.140198,383.280029   C256.462677,383.750458 256.716309,383.951111 257.000122,384.319092   C256.986664,384.541534 256.998108,384.987030 256.998108,384.987030   C256.661072,385.357727 256.324036,385.728455 255.901764,386.336151  z"
   id="path28" />
<path
   fill="#2E3544"
   opacity="1.000000"
   stroke="none"
   d=" M256.092865,180.292465   C256.061615,190.165359 256.030396,200.038254 255.992569,210.486389   C255.985992,211.061630 256.064178,211.285568 255.601868,211.184967   C246.671005,210.521759 238.173599,210.231934 229.740051,209.338928   C212.944183,207.560455 196.860428,202.785828 180.739197,196.854309   C174.606461,193.768524 168.781616,190.855103 162.956772,187.941681   C162.956772,187.941681 162.885208,187.508057 163.270050,187.133499   C194.312195,182.382736 225.118088,180.130386 256.092865,180.292465  z"
   id="path30" />
<path
   fill="#FBD088"
   opacity="1.000000"
   stroke="none"
   d=" M256.027710,383.065430   C249.135529,375.292328 242.203156,367.554382 235.363007,359.735748   C229.165527,352.651672 223.044266,345.500305 216.953125,338.324493   C216.017914,337.222748 215.426025,335.829590 214.446381,334.349640   C214.234100,328.422974 214.250809,322.717865 214.299683,316.549683   C227.288940,321.899567 240.895828,323.967896 255.525589,323.314636   C256.046661,323.484863 256.180847,323.839569 256.138885,324.322693   C256.073853,344.225677 256.050781,363.645569 256.027710,383.065430  z"
   id="path32" />
<path
   fill="#4C4C4A"
   opacity="1.000000"
   stroke="none"
   d=" M157.405487,170.045944   C157.178650,168.904678 157.112595,168.074524 157.052307,167.243958   C156.578629,160.719193 156.987564,159.798721 163.463135,159.329010   C193.995926,157.114227 224.545029,155.123886 255.552917,153.572968   C256.027222,158.726685 256.036865,163.360931 256.009521,168.174133   C255.972504,168.353058 255.965454,168.718445 255.499222,168.701599   C231.932449,169.824646 208.814880,170.706558 185.739777,172.231522   C176.515244,172.841141 167.384384,174.868622 158.210892,176.250687   C157.996902,174.286087 157.782913,172.321472 157.405487,170.045944  z"
   id="path34" />
<path
   fill="#FBC31C"
   opacity="1.000000"
   stroke="none"
   d=" M158.268143,176.626740   C167.384384,174.868622 176.515244,172.841141 185.739777,172.231522   C208.814880,170.706558 231.932449,169.824646 255.537491,169.179337   C256.041229,173.115341 256.040466,176.556747 256.039703,179.998154   C256.039703,179.998154 256.036560,180.150696 256.064697,180.221588   C225.118088,180.130386 194.312195,182.382736 163.258972,186.914032   C157.416473,185.487045 159.769638,180.389008 158.268143,176.626740  z"
   id="path36" />
<path
   fill="#FCEAB3"
   opacity="1.000000"
   stroke="none"
   d=" M170.821075,221.288483   C171.590866,233.711563 172.360657,246.134628 173.065659,259.062927   C160.593170,254.249496 156.508926,243.337036 155.180557,231.323456   C154.569214,225.794540 155.758194,219.797882 157.396790,214.397461   C158.271439,211.514877 161.840149,209.449707 164.654785,207.346588   C165.891220,211.181442 166.443176,214.758301 167.555603,218.151443   C167.970779,219.417847 169.694183,220.255386 170.821075,221.288483  z"
   id="path38" />
<path
   fill="#2E3646"
   opacity="1.000000"
   stroke="none"
   d=" M188.584686,352.990051   C192.530472,358.081146 196.066742,363.179535 199.776367,368.554718   C192.517380,370.614136 185.085052,372.396759 177.152191,373.869232   C175.095230,368.035004 173.538803,362.510895 171.982376,356.986816   C177.379974,355.656982 182.777588,354.327179 188.584686,352.990051  z"
   id="path40" />
<path
   fill="#6D4813"
   opacity="1.000000"
   stroke="none"
   d=" M171.254974,221.219452   C169.694183,220.255386 167.970779,219.417847 167.555603,218.151443   C166.443176,214.758301 165.891220,211.181442 164.999603,207.290527   C164.236557,200.884827 163.590515,194.866150 162.950623,188.394592   C168.781616,190.855103 174.606461,193.768524 180.635254,197.209885   C179.834824,201.479034 178.830429,205.220215 177.826050,208.961411   C177.258484,211.668961 176.229950,214.377960 176.238373,217.083725   C176.249237,220.579025 174.576630,221.332169 171.254974,221.219452  z"
   id="path42" />
<path
   fill="#2F3746"
   opacity="1.000000"
   stroke="none"
   d=" M158.096451,378.801361   C157.775818,378.878113 157.454163,378.950897 157.134705,379.032227   C143.433121,382.519226 145.855179,382.225769 142.360779,370.110474   C141.189636,365.451813 143.097137,363.067993 147.439987,362.335175   C149.368927,362.009644 151.262497,361.474487 153.569366,361.430054   C155.343216,367.484161 156.719833,373.142761 158.096451,378.801361  z"
   id="path44" />
<path
   fill="#F3BE1F"
   opacity="1.000000"
   stroke="none"
   d=" M171.600449,356.962158   C173.538803,362.510895 175.095230,368.035004 176.735413,373.942047   C174.964417,374.847961 173.109634,375.370880 170.832275,375.477905   C168.952530,369.398712 167.495361,363.735413 166.038208,358.072113   C167.764984,357.693909 169.491745,357.315704 171.600449,356.962158  z"
   id="path46" />
<path
   fill="#333944"
   opacity="1.000000"
   stroke="none"
   d=" M165.670807,358.103302   C167.495361,363.735413 168.952530,369.398712 170.501648,375.456635   C168.665054,376.299255 166.736526,376.747223 164.351410,376.847778   C162.564850,371.023071 161.234863,365.545837 159.904877,360.068604   C161.704391,359.423889 163.503906,358.779205 165.670807,358.103302  z"
   id="path48" />
<path
   fill="#F4BF1E"
   opacity="1.000000"
   stroke="none"
   d=" M159.528381,360.005676   C161.234863,365.545837 162.564850,371.023071 163.939697,376.907227   C162.251923,377.826630 160.519272,378.339172 158.441528,378.826538   C156.719833,373.142761 155.343216,367.484161 153.962646,361.420166   C155.689758,360.657440 157.420837,360.300110 159.528381,360.005676  z"
   id="path50" />
<path
   fill="#121149"
   opacity="1.000000"
   stroke="none"
   d=" M370.925720,116.878883   C370.594238,116.702797 370.213715,116.180183 369.700653,115.356552   C370.004303,115.547813 370.440521,116.040085 370.925720,116.878883  z"
   id="path52" />
<path
   fill="#B27E4B"
   opacity="1.000000"
   stroke="none"
   d=" M256.180847,323.839569   C256.180847,323.839569 256.046661,323.484863 255.989716,323.304657   C255.950089,304.635864 255.967422,286.147278 256.089722,266.957214   C256.397827,265.981903 256.659790,265.787140 257.271301,265.892883   C268.432587,273.978729 287.161133,273.778961 297.902924,265.531708   C299.501343,264.304474 300.580627,262.401093 302.216858,260.544769   C304.185303,260.193970 305.850647,259.931183 307.485931,260.057495   C312.197510,260.421265 315.127747,258.880005 316.769257,253.982498   C319.024719,247.253235 322.083893,240.786469 324.923676,234.261612   C328.599792,225.815170 332.399078,217.422318 336.403381,209.294525   C337.243134,213.290985 337.824829,216.999313 338.409546,220.726883   C340.220764,220.952255 341.689240,221.134979 343.122314,221.740234   C342.386353,234.743591 341.685791,247.324417 340.985229,259.905243   C337.867371,276.789612 330.276581,291.355042 317.563019,302.888794   C312.315857,307.648987 306.084198,311.323975 299.724731,315.815186   C285.545837,322.719208 271.011261,324.104584 256.180847,323.839569  z"
   id="path54" />
<path
   fill="#E7CE89"
   opacity="1.000000"
   stroke="none"
   d=" M336.145325,209.006378   C332.399078,217.422318 328.599792,225.815170 324.923676,234.261612   C322.083893,240.786469 319.024719,247.253235 316.769257,253.982498   C315.127747,258.880005 312.197510,260.421265 307.485931,260.057495   C305.850647,259.931183 304.185303,260.193970 301.807739,260.624390   C291.804962,262.384033 282.531708,265.046906 273.339355,260.420441   C267.630890,257.547363 261.793243,256.675110 255.920898,260.020020   C255.886337,259.832642 255.868729,259.451965 255.920303,258.957275   C256.002625,242.736893 256.033386,227.011230 256.064148,211.285568   C256.064178,211.285568 255.985992,211.061630 255.972885,210.943756   C279.979126,211.796188 303.162292,207.542206 325.754578,199.628464   C327.941345,198.862488 330.079224,197.956833 332.712891,197.443390   C334.172455,201.515991 335.158905,205.261185 336.145325,209.006378  z"
   id="path56" />
<path
   fill="#8E8E8E"
   opacity="1.000000"
   stroke="none"
   d=" M257.275024,385.171509   C256.998108,384.987030 256.986664,384.541534 257.289673,384.140961   C267.025757,372.891632 276.508118,362.085144 285.871521,351.176575   C290.705017,345.545441 295.327209,339.732971 300.044861,334.002411   C304.141693,331.041656 307.237000,332.326355 310.242981,335.959991   C314.892914,341.580841 319.846680,346.950348 324.679626,353.002808   C322.689392,356.413513 320.516724,359.143982 318.747284,362.114624   C317.299896,364.544678 316.333282,367.261078 315.153503,369.850525   C313.687622,371.057343 311.875275,372.017609 310.812347,373.511200   C304.158325,382.861481 297.658844,392.321991 291.132935,401.763062   C285.138550,410.435120 282.326843,411.000946 273.486938,405.119629   C269.674744,400.507660 266.241760,395.913544 262.715179,391.392365   C261.088348,389.306732 259.278656,387.363708 257.275024,385.171509  z"
   id="path58" />
<path
   fill="#DDAB63"
   opacity="1.000000"
   stroke="none"
   d=" M300.012695,333.533936   C295.327209,339.732971 290.705017,345.545441 285.871521,351.176575   C276.508118,362.085144 267.025757,372.891632 257.303131,383.918518   C256.716309,383.951111 256.462677,383.750458 256.140198,383.280029   C256.050781,363.645569 256.073853,344.225677 256.138885,324.322693   C271.011261,324.104584 285.545837,322.719208 299.503113,316.085968   C299.898254,321.711182 299.939392,327.388336 300.012695,333.533936  z"
   id="path60" />
<path
   fill="#3A3A39"
   opacity="1.000000"
   stroke="none"
   d=" M256.046509,167.995193   C256.036865,163.360931 256.027222,158.726685 256.018738,153.638153   C256.176117,153.117218 256.332306,153.050568 256.728455,152.898621   C274.930969,153.547928 292.913910,153.965195 310.849396,155.119888   C324.612244,156.005966 338.313873,157.835983 352.045502,159.218323   C358.837646,159.902069 357.100555,164.844635 357.013153,169.430725   C356.689087,171.679611 356.341766,173.488480 355.622223,175.501511   C339.133270,173.810486 323.055756,171.405884 306.888977,170.160263   C289.986237,168.857925 272.997620,168.670166 256.046509,167.995193  z"
   id="path62" />
<path
   fill="#D18A09"
   opacity="1.000000"
   stroke="none"
   d=" M256.009521,168.174133   C272.997620,168.670166 289.986237,168.857925 306.888977,170.160263   C323.055756,171.405884 339.133270,173.810486 355.591644,175.900513   C354.603790,186.869110 354.613129,186.734055 344.673615,186.046082   C315.423859,184.021545 286.165955,182.114212 256.475464,180.079590   C256.040466,176.556747 256.041229,173.115341 256.003723,169.196198   C255.965454,168.718445 255.972504,168.353058 256.009521,168.174133  z"
   id="path64" />
<path
   fill="#E5CC88"
   opacity="1.000000"
   stroke="none"
   d=" M341.319885,259.821106   C341.685791,247.324417 342.386353,234.743591 343.518860,221.686859   C344.851868,220.093781 346.201233,219.106186 346.568726,217.834793   C347.612274,214.224625 348.254761,210.498520 349.055115,206.818054   C351.670685,209.162552 355.278473,211.012894 356.733887,213.935181   C363.870239,228.264359 356.599762,253.602753 341.319885,259.821106  z"
   id="path66" />
<path
   fill="#2E3545"
   opacity="1.000000"
   stroke="none"
   d=" M315.560303,369.910767   C316.333282,367.261078 317.299896,364.544678 318.747284,362.114624   C320.516724,359.143982 322.689392,356.413513 324.855225,353.285583   C330.504089,354.174011 335.985413,355.356049 341.655090,357.165894   C340.292328,363.301697 338.741180,368.809723 337.190033,374.317749   C330.115723,372.868805 323.041382,371.419861 315.560303,369.910767  z"
   id="path68" />
<path
   fill="#5B380F"
   opacity="1.000000"
   stroke="none"
   d=" M349.062836,206.411072   C348.254761,210.498520 347.612274,214.224625 346.568726,217.834793   C346.201233,219.106186 344.851868,220.093781 343.554260,221.264313   C341.689240,221.134979 340.220764,220.952255 338.409546,220.726883   C337.824829,216.999313 337.243134,213.290985 336.403381,209.294525   C335.158905,205.261185 334.172455,201.515991 333.080627,197.422363   C338.689026,194.209747 344.402802,191.345535 351.363708,187.856155   C350.514099,194.579956 349.792328,200.292023 349.062836,206.411072  z"
   id="path70" />
<path
   fill="#2F3645"
   opacity="1.000000"
   stroke="none"
   d=" M371.975281,369.585083   C371.367126,371.639099 370.596771,373.237640 370.174103,374.923340   C368.540741,381.438080 368.245941,381.666473 361.944489,380.215942   C360.192322,379.812622 358.441772,379.402435 356.374512,378.533020   C357.376343,372.379852 358.694122,366.689056 360.011902,360.998291   C362.412811,361.532104 364.798096,362.155396 367.218292,362.579163   C371.006195,363.242401 372.597839,365.378387 371.975281,369.585083  z"
   id="path72" />
<path
   fill="#F3BE1E"
   opacity="1.000000"
   stroke="none"
   d=" M337.455505,374.489990   C338.741180,368.809723 340.292328,363.301697 341.927551,357.431946   C343.733887,357.345184 345.456146,357.620148 347.562836,358.360413   C346.431030,364.505432 344.914795,370.185120 343.398560,375.864838   C341.506012,375.463959 339.613495,375.063080 337.455505,374.489990  z"
   id="path74" />
<path
   fill="#333843"
   opacity="1.000000"
   stroke="none"
   d=" M343.822388,375.957520   C344.914795,370.185120 346.431030,364.505432 347.928467,358.438293   C349.792572,358.557587 351.675507,359.064331 353.791077,360.233673   C352.691010,366.360657 351.358307,371.825073 350.025635,377.289429   C348.099182,376.876373 346.172729,376.463287 343.822388,375.957520  z"
   id="path76" />
<path
   fill="#F4BF1E"
   opacity="1.000000"
   stroke="none"
   d=" M350.300568,377.485596   C351.358307,371.825073 352.691010,366.360657 354.028503,360.504608   C355.784790,360.328430 357.536224,360.543915 359.649780,360.878845   C358.694122,366.689056 357.376343,372.379852 355.982758,378.438141   C354.129822,378.431000 352.352692,378.056366 350.300568,377.485596  z"
   id="path78" />
<path
   fill="#3F3F3F"
   opacity="1.000000"
   stroke="none"
   d=" M256.725342,87.906067   C264.987244,88.815483 269.734894,92.730507 271.164215,99.520798   C272.551178,106.109680 269.743286,111.607956 263.156372,115.563240   C262.189484,116.143845 261.591614,117.338966 260.822968,118.249741   C261.589294,118.841705 262.842865,119.309998 263.030426,120.048889   C263.588837,122.248558 264.219604,126.471901 263.959717,126.538483   C257.517670,128.188934 262.178772,132.808655 260.851440,135.681763   C261.230164,136.090454 261.608917,136.499130 261.987671,136.907822   C266.018066,134.312653 270.048462,131.717484 274.567017,128.807968   C275.730072,129.597153 277.466492,130.775391 279.505615,132.159027   C273.905579,139.774506 266.822540,143.644104 257.388062,144.119843   C256.804474,144.142456 256.642914,144.085876 256.246460,143.460571   C256.010284,131.952850 256.009003,121.013832 256.245911,109.995888   C256.640045,109.856567 256.796051,109.796188 257.312958,109.772705   C261.767181,108.749115 264.463989,106.532646 264.076752,101.882751   C263.715485,97.545097 261.017822,95.643723 256.719727,95.153641   C256.325989,95.015961 256.167358,94.964081 256.003723,94.494125   C256.006927,92.130157 256.015198,90.184265 256.023468,88.238365   C256.176666,88.158279 256.329834,88.078201 256.725342,87.906067  z"
   id="path80" />
<path
   fill="#4E4E4D"
   opacity="1.000000"
   stroke="none"
   d=" M255.652374,88.201485   C256.015198,90.184265 256.006927,92.130157 255.668198,94.629128   C251.663330,96.417313 249.566360,98.874115 249.695007,102.846878   C249.826675,106.913063 252.485443,108.902397 256.007751,110.074821   C256.009003,121.013832 256.010284,131.952850 256.015747,143.347855   C247.154053,143.443771 240.202133,139.600189 234.769165,132.185364   C236.541382,130.932587 238.137970,129.803955 239.308167,128.976746   C243.887619,131.827042 248.086197,134.440277 253.354507,137.719345   C253.066055,132.342712 255.944901,127.814987 249.735428,126.248619   C249.735428,124.415565 249.735428,122.612137 249.735428,121.102547   C251.158936,120.077866 252.336105,119.230515 253.513260,118.383163   C252.764053,117.430580 252.213745,116.082458 251.233429,115.589478   C244.772247,112.340309 241.921371,107.084427 242.950684,100.088676   C243.968124,93.173576 248.560867,89.443459 255.652374,88.201485  z"
   id="path82" />
<path
   fill="#FEECB4"
   opacity="1.000000"
   stroke="none"
   d=" M255.601837,211.184967   C256.033386,227.011230 256.002625,242.736893 255.548431,258.782745   C251.449448,259.143616 247.207809,258.003967 244.203842,259.444794   C234.938263,263.888855 225.642059,263.445190 216.064056,261.672119   C214.456436,261.374542 212.800873,261.335999 211.167465,261.177734   C210.522736,261.021179 209.861450,260.679840 209.235764,260.735901   C200.557175,261.513153 197.584930,255.960876 194.909103,248.967667   C189.802460,235.621552 183.954163,222.559219 178.119888,209.170258   C178.830429,205.220215 179.834824,201.479034 180.943161,197.382263   C196.860428,202.785828 212.944183,207.560455 229.740051,209.338928   C238.173599,210.231934 246.671005,210.521759 255.601837,211.184967  z"
   id="path84" />
<path
   fill="#724C15"
   opacity="1.000000"
   stroke="none"
   d=" M211.339264,261.443848   C212.800873,261.335999 214.456436,261.374542 216.064056,261.672119   C225.642059,263.445190 234.938263,263.888855 244.203842,259.444794   C247.207809,258.003967 251.449448,259.143616 255.496857,259.277466   C255.868729,259.451965 255.886337,259.832642 255.939301,260.383636   C256.321686,262.513580 256.651123,264.092499 256.980591,265.671448   C256.659790,265.787140 256.397827,265.981903 256.075317,266.468811   C241.336472,274.957214 224.186462,273.038727 211.339264,261.443848  z"
   id="path86" />
<path
   fill="#5F3B10"
   opacity="1.000000"
   stroke="none"
   d=" M257.271301,265.892883   C256.651123,264.092499 256.321686,262.513580 255.973846,260.571014   C261.793243,256.675110 267.630890,257.547363 273.339355,260.420441   C282.531708,265.046906 291.804962,262.384033 301.490906,260.890137   C300.580627,262.401093 299.501343,264.304474 297.902924,265.531708   C287.161133,273.778961 268.432587,273.978729 257.271301,265.892883  z"
   id="path88" />
<path
   fill="#FCFCFC"
   opacity="1.000000"
   stroke="none"
   d=" M256.245911,109.995888   C252.485443,108.902397 249.826675,106.913063 249.695007,102.846878   C249.566360,98.874115 251.663330,96.417313 255.673248,95.047195   C256.167358,94.964081 256.325989,95.015961 256.717529,95.603088   C256.950958,100.670837 256.951477,105.203323 256.952026,109.735809   C256.796051,109.796188 256.640045,109.856567 256.245911,109.995888  z"
   id="path90" />
<path
   fill="#DFDFDF"
   opacity="1.000000"
   stroke="none"
   d=" M257.312958,109.772705   C256.951477,105.203323 256.950958,100.670837 256.952667,95.688904   C261.017822,95.643723 263.715485,97.545097 264.076752,101.882751   C264.463989,106.532646 261.767181,108.749115 257.312958,109.772705  z"
   id="path92" />
</svg>
