<?xml version="1.0" encoding="UTF-8" standalone="no"?>
<svg
   version="1.1"
   id="Layer_1"
   x="0px"
   y="0px"
   width="100%"
   viewBox="0 0 512 512"
   enable-background="new 0 0 512 512"
   xml:space="preserve"
   sodipodi:docname="day_adobe_express.svg"
   inkscape:version="1.2.2 (b0a8486, 2022-12-01)"
   xmlns:inkscape="http://www.inkscape.org/namespaces/inkscape"
   xmlns:sodipodi="http://sodipodi.sourceforge.net/DTD/sodipodi-0.dtd"
   xmlns="http://www.w3.org/2000/svg"
   xmlns:svg="http://www.w3.org/2000/svg"><defs
   id="defs124" /><sodipodi:namedview
   id="namedview122"
   pagecolor="#ffffff"
   bordercolor="#000000"
   borderopacity="0.25"
   inkscape:showpageshadow="2"
   inkscape:pageopacity="0.0"
   inkscape:pagecheckerboard="0"
   inkscape:deskcolor="#d1d1d1"
   showgrid="false"
   inkscape:zoom="0.4609375"
   inkscape:cx="257.08475"
   inkscape:cy="256"
   inkscape:window-width="1463"
   inkscape:window-height="456"
   inkscape:window-x="0"
   inkscape:window-y="25"
   inkscape:window-maximized="0"
   inkscape:current-layer="Layer_1" />

<path
   fill="#FAA019"
   opacity="1.000000"
   stroke="none"
   d=" M255.004211,496.834747   C244.345352,496.887726 233.618134,497.736176 223.041901,496.827454   C201.301514,494.959442 180.086670,490.420685 159.651230,482.351166   C139.388962,474.350037 120.483894,463.953186 103.366547,450.619568   C82.086891,434.043671 64.087784,414.329163 50.013027,391.172943   C40.279739,375.159424 31.711863,358.517700 26.959072,340.378967   C23.142952,325.814941 19.984646,310.939972 18.271854,296.003754   C16.672832,282.059601 16.234097,267.766418 17.307541,253.782135   C18.940254,232.511963 23.595640,211.704163 31.641241,191.754166   C40.222954,170.474838 50.902462,150.426712 65.776962,132.870193   C73.138847,124.180908 80.690193,115.550514 88.974678,107.764801   C108.649467,89.274544 131.339355,75.354492 156.288635,64.985420   C171.975754,58.465763 188.313904,54.373039 204.889954,51.205097   C212.114243,49.824429 219.574219,49.216026 226.938644,49.117760   C247.404938,48.844666 267.877258,49.022991 289.000000,49.022991   C289.000000,45.172413 289.312195,41.542553 288.939117,37.984539   C287.976501,28.804111 293.056976,23.749557 302.901276,25.279400   C305.933746,27.108381 308.581757,28.366257 310.533844,30.319599   C322.866852,42.660675 335.295746,54.922661 347.190643,67.679153   C355.652740,76.754173 354.940094,86.644409 346.149902,95.465446   C333.944977,107.713211 321.737457,119.958916 309.438538,132.111893   C307.584320,133.944122 305.228516,135.268784 302.675415,136.896790   C293.077606,137.001373 289.067261,133.062714 288.994202,123.973770   C288.983704,122.666939 288.892944,121.360756 288.905457,119.605865   C288.971588,117.233330 288.971588,115.309196 288.971588,112.564667   C278.777374,113.046028 269.216644,113.497475 259.240387,113.884384   C241.136734,112.156448 223.581085,113.124069 206.259872,117.022789   C121.578835,136.083099 67.007683,218.485474 84.333817,304.555908   C101.123894,387.963470 179.388763,443.219391 263.438843,431.052765   C317.538055,423.221680 357.302582,394.106445 383.112762,346.088074   C397.167297,319.940491 401.860138,291.619141 401.255127,261.956085   C403.421234,258.001587 406.531708,256.870728 410.572693,256.945099   C418.045227,257.082550 425.523865,256.890076 432.999939,256.835083   C441.674500,256.902802 450.349091,256.970490 459.742737,257.330109   C463.816925,259.614136 464.935760,262.628448 465.039642,266.440552   C465.508667,283.654663 464.022888,300.730438 460.517303,317.533081   C450.027161,367.813690 425.255798,409.792114 386.280457,443.313049   C356.187683,469.194427 321.547852,485.695801 282.592377,493.039703   C273.481659,494.757263 264.204681,495.593201 255.004211,496.834747  z"
   id="path91" />
<path
   fill="#F06423"
   opacity="1.000000"
   stroke="none"
   d=" M255.466125,496.914459   C264.204681,495.593201 273.481659,494.757263 282.592377,493.039703   C321.547852,485.695801 356.187683,469.194427 386.280457,443.313049   C425.255798,409.792114 450.027161,367.813690 460.517303,317.533081   C464.022888,300.730438 465.508667,283.654663 465.039642,266.440552   C464.935760,262.628448 463.816925,259.614136 460.203369,257.399353   C469.931610,257.118195 479.918518,256.991516 489.904755,257.030762   C494.705627,257.049622 496.792114,259.200012 496.994446,263.913971   C498.433899,297.452393 493.059021,329.769104 479.728485,360.681366   C470.361908,382.401550 458.074005,402.184814 442.530609,420.122345   C420.787720,445.214294 394.811279,464.378693 364.683502,478.034546   C347.907928,485.638306 330.351776,490.663879 312.234894,494.111877   C293.542480,497.669403 274.735901,496.858734 255.466125,496.914459  z"
   id="path93" />
<path
   fill="#A5C3DC"
   opacity="1.000000"
   stroke="none"
   d=" M432.985718,256.429260   C425.523865,256.890076 418.045227,257.082550 410.572693,256.945099   C406.531708,256.870728 403.421234,258.001587 401.110596,261.557159   C400.505219,260.427246 400.204742,259.460510 400.119110,258.475128   C396.769501,219.928925 381.107147,186.998611 353.908173,159.775314   C345.504547,151.364212 335.400787,144.651779 326.513306,137.096130   C334.495117,138.440186 339.855499,134.421875 344.966400,129.783386   C355.428619,136.478745 366.499054,142.401718 376.211060,150.049744   C390.932068,161.642258 402.561829,176.233505 411.977478,192.491058   C420.546265,207.286423 426.630432,223.040970 429.988464,239.818451   C431.066254,245.203415 431.981720,250.620880 432.985718,256.429260  z"
   id="path95" />
<path
   fill="#F06423"
   opacity="1.000000"
   stroke="none"
   d=" M345.121735,129.497681   C339.855499,134.421875 334.495117,138.440186 326.040771,137.030334   C317.788513,136.962738 310.446594,136.895462 303.104706,136.828201   C305.228516,135.268784 307.584320,133.944122 309.438538,132.111893   C321.737457,119.958916 333.944977,107.713211 346.149902,95.465446   C354.940094,86.644409 355.652740,76.754173 347.190643,67.679153   C335.295746,54.922661 322.866852,42.660675 310.533844,30.319599   C308.581757,28.366257 305.933746,27.108381 303.340424,25.343102   C313.392273,25.105186 323.715515,24.881983 334.026733,25.139101   C336.203979,25.193388 338.816498,26.518064 340.415680,28.086235   C354.085388,41.490791 367.613739,55.040916 381.084778,68.646065   C386.930634,74.550072 386.599091,87.874588 380.591156,93.906731   C368.845032,105.700264 357.051178,117.446304 345.121735,129.497681  z"
   id="path97" />
<path
   fill="#D7E6F0"
   opacity="1.000000"
   stroke="none"
   d=" M302.675415,136.896774   C310.446594,136.895462 317.788513,136.962738 325.602905,137.095795   C335.400787,144.651779 345.504547,151.364212 353.908173,159.775314   C381.107147,186.998611 396.769501,219.928925 400.119110,258.475128   C400.204742,259.460510 400.505219,260.427246 400.850037,261.801605   C401.860138,291.619141 397.167297,319.940491 383.112762,346.088074   C357.302582,394.106445 317.538055,423.221680 263.438843,431.052765   C179.388763,443.219391 101.123894,387.963470 84.333817,304.555908   C67.007683,218.485474 121.578835,136.083099 206.259872,117.022789   C223.581085,113.124069 241.136734,112.156448 259.667725,113.980682   C269.953491,116.112434 279.396393,118.083351 288.839294,120.054268   C288.892944,121.360756 288.983704,122.666939 288.994202,123.973770   C289.067261,133.062714 293.077606,137.001373 302.675415,136.896774  M198.800308,246.971329   C194.535995,238.594971 187.786743,233.705353 178.367493,233.100433   C172.730850,232.738449 167.049713,232.890915 161.394836,233.043915   C156.132843,233.186264 153.069763,236.241852 153.044754,241.588928   C152.950546,261.729462 152.941299,281.871094 153.051407,302.011475   C153.079285,307.111145 156.079590,310.005676 161.196899,310.178009   C166.517273,310.357147 171.851593,310.346283 177.173889,310.201141   C190.954529,309.825287 200.827591,299.743927 200.979004,285.874023   C201.082550,276.387238 201.159866,266.894196 200.910706,257.412811   C200.825241,254.160187 199.713837,250.934509 198.800308,246.971329  M216.998535,271.500671   C216.998657,280.988495 216.981003,290.476318 217.004913,299.964111   C217.021942,306.725098 219.871155,310.262787 225.149216,310.173462   C230.260818,310.086975 232.962006,306.671722 232.994324,300.158813   C233.025391,293.895081 233.001038,287.631104 233.001038,281.375122   C238.670334,281.375122 243.717270,281.375122 249.000717,281.375122   C249.000717,288.224152 248.936310,294.702759 249.020218,301.179474   C249.092865,306.788605 252.067505,310.103729 256.866699,310.173462   C261.710480,310.243866 264.935638,306.949982 264.967010,301.439880   C265.052216,286.459686 265.163391,271.476013 264.936218,256.498718   C264.735046,243.232788 253.855530,232.885452 240.738281,233.007736   C227.881592,233.127594 217.389420,243.486404 217.030807,256.519714   C216.902664,261.176941 217.002655,265.840454 216.998535,271.500671  M294.382721,278.433441   C295.253418,279.975098 296.813904,281.489532 296.875977,283.063080   C297.151611,290.046814 296.922729,297.048584 297.022888,304.041748   C297.100708,309.475861 300.363434,312.991028 305.034821,312.966431   C309.697662,312.941864 312.900208,309.427032 312.977966,303.964111   C313.075104,297.137451 313.107056,290.306030 312.952332,283.481537   C312.893005,280.865326 313.594818,279.409912 316.085449,278.084076   C324.589355,273.557190 328.844482,266.216064 328.989319,256.570862   C329.061829,251.742355 329.071838,246.910568 328.982971,242.082611   C328.881531,236.572495 325.773743,233.087906 321.090424,233.030182   C316.399963,232.972366 313.137878,236.469955 313.019440,241.894333   C312.917694,246.555206 313.063599,251.221313 312.974243,255.882675   C312.868927,261.375610 309.747833,264.893585 305.096222,264.956573   C300.426025,265.019806 297.151978,261.501434 297.028870,256.081512   C296.926758,251.587280 297.047058,247.088440 296.992645,242.592560   C296.921326,236.696716 293.913330,233.096161 289.100983,233.030182   C284.266052,232.963898 281.094421,236.580505 281.009705,242.383133   C280.946503,246.712189 281.045288,251.043564 280.986115,255.372726   C280.848969,265.404510 284.988770,273.013855 294.382721,278.433441  M248.782196,135.297699   C247.358612,130.616425 244.163803,128.345367 239.379486,129.270157   C234.772766,130.160599 232.950409,133.553207 233.001678,138.072556   C233.029892,140.560822 232.870071,143.065216 233.098969,145.534149   C233.514862,150.020111 236.726135,152.931183 240.970840,152.947693   C245.217834,152.964203 248.511734,150.071991 248.882034,145.589066   C249.140533,142.459732 248.920273,139.290833 248.782196,135.297699  M99.100700,278.388702   C103.437294,282.565887 108.848404,280.977661 113.822891,280.793457   C118.179504,280.632141 120.665749,277.640106 120.920319,273.220947   C121.163712,268.995880 118.179916,265.591156 113.772644,265.120056   C111.307480,264.856506 108.794228,264.954712 106.305641,265.014709   C98.282448,265.208130 95.176712,270.382446 99.100700,278.388702  M370.762207,281.001801   C372.752106,280.994659 374.747498,281.080231 376.730804,280.962158   C381.816101,280.659485 385.036346,277.432678 384.947693,272.845490   C384.862732,268.447174 381.748810,265.359955 376.921509,265.045654   C374.774414,264.905853 372.610657,264.964813 370.456024,265.008667   C364.712524,265.125488 361.376648,267.790710 361.063507,272.458069   C360.739075,277.293365 363.799988,280.259674 370.762207,281.001801  M233.082886,400.133942   C233.076904,403.285431 232.859726,406.454163 233.115387,409.584290   C233.481140,414.061737 236.775421,416.959717 241.022491,416.947662   C245.267670,416.935669 248.477676,414.029755 248.898895,409.537415   C249.130356,407.068756 248.972000,404.563904 248.997543,402.075470   C249.043869,397.559998 247.227020,394.160889 242.618973,393.270111   C237.835037,392.345367 234.638901,394.615875 233.082886,400.133942  z"
   id="path99" />
<path
   fill="#A8C2D9"
   opacity="1.000000"
   stroke="none"
   d=" M288.905457,119.605865   C279.396393,118.083351 269.953491,116.112434 260.083252,114.045212   C269.216644,113.497475 278.777374,113.046028 288.971588,112.564667   C288.971588,115.309196 288.971588,117.233330 288.905457,119.605865  z"
   id="path101" />
<path
   fill="#F06524"
   opacity="1.000000"
   stroke="none"
   d=" M198.935730,247.333923   C199.713837,250.934509 200.825241,254.160187 200.910706,257.412811   C201.159866,266.894196 201.082550,276.387238 200.979004,285.874023   C200.827591,299.743927 190.954529,309.825287 177.173889,310.201141   C171.851593,310.346283 166.517273,310.357147 161.196899,310.178009   C156.079590,310.005676 153.079285,307.111145 153.051407,302.011475   C152.941299,281.871094 152.950546,261.729462 153.044754,241.588928   C153.069763,236.241852 156.132843,233.186264 161.394836,233.043915   C167.049713,232.890915 172.730850,232.738449 178.367493,233.100433   C187.786743,233.705353 194.535995,238.594971 198.935730,247.333923  M182.322876,251.116806   C178.138779,250.147888 173.954666,249.178970 169.379913,248.119583   C169.379913,264.307190 169.379913,279.146301 169.379913,294.246246   C171.081772,294.246246 172.404266,294.241974 173.726746,294.246948   C182.579498,294.280304 184.987289,291.906616 184.997299,283.097992   C185.006561,274.948792 185.152161,266.794830 184.901535,258.653351   C184.829483,256.312653 183.592560,254.007828 182.322876,251.116806  z"
   id="path103" />
<path
   fill="#F06524"
   opacity="1.000000"
   stroke="none"
   d=" M216.998535,271.000885   C217.002655,265.840454 216.902664,261.176941 217.030807,256.519714   C217.389420,243.486404 227.881592,233.127594 240.738281,233.007736   C253.855530,232.885452 264.735046,243.232788 264.936218,256.498718   C265.163391,271.476013 265.052216,286.459686 264.967010,301.439880   C264.935638,306.949982 261.710480,310.243866 256.866699,310.173462   C252.067505,310.103729 249.092865,306.788605 249.020218,301.179474   C248.936310,294.702759 249.000717,288.224152 249.000717,281.375122   C243.717270,281.375122 238.670334,281.375122 233.001038,281.375122   C233.001038,287.631104 233.025391,293.895081 232.994324,300.158813   C232.962006,306.671722 230.260818,310.086975 225.149216,310.173462   C219.871155,310.262787 217.021942,306.725098 217.004913,299.964111   C216.981003,290.476318 216.998657,280.988495 216.998535,271.000885  M247.865082,252.996552   C245.048904,249.052246 241.429108,247.806137 237.051926,250.146988   C232.895035,252.370010 231.798767,257.752686 233.786636,264.732391   C238.738419,264.732391 243.663086,264.732391 249.306900,264.732391   C248.915985,260.856567 248.557312,257.300385 247.865082,252.996552  z"
   id="path105" />
<path
   fill="#F06525"
   opacity="1.000000"
   stroke="none"
   d=" M294.040558,278.256104   C284.988770,273.013855 280.848969,265.404510 280.986115,255.372726   C281.045288,251.043564 280.946503,246.712189 281.009705,242.383133   C281.094421,236.580505 284.266052,232.963898 289.100983,233.030182   C293.913330,233.096161 296.921326,236.696716 296.992645,242.592560   C297.047058,247.088440 296.926758,251.587280 297.028870,256.081512   C297.151978,261.501434 300.426025,265.019806 305.096222,264.956573   C309.747833,264.893585 312.868927,261.375610 312.974243,255.882675   C313.063599,251.221313 312.917694,246.555206 313.019440,241.894333   C313.137878,236.469955 316.399963,232.972366 321.090424,233.030182   C325.773743,233.087906 328.881531,236.572495 328.982971,242.082611   C329.071838,246.910568 329.061829,251.742355 328.989319,256.570862   C328.844482,266.216064 324.589355,273.557190 316.085449,278.084076   C313.594818,279.409912 312.893005,280.865326 312.952332,283.481537   C313.107056,290.306030 313.075104,297.137451 312.977966,303.964111   C312.900208,309.427032 309.697662,312.941864 305.034821,312.966431   C300.363434,312.991028 297.100708,309.475861 297.022888,304.041748   C296.922729,297.048584 297.151611,290.046814 296.875977,283.063080   C296.813904,281.489532 295.253418,279.975098 294.040558,278.256104  z"
   id="path107" />
<path
   fill="#A6C4DD"
   opacity="1.000000"
   stroke="none"
   d=" M248.848022,135.718658   C248.920273,139.290833 249.140533,142.459732 248.882034,145.589066   C248.511734,150.071991 245.217834,152.964203 240.970840,152.947693   C236.726135,152.931183 233.514862,150.020111 233.098969,145.534149   C232.870071,143.065216 233.029892,140.560822 233.001678,138.072556   C232.950409,133.553207 234.772766,130.160599 239.379486,129.270157   C244.163803,128.345367 247.358612,130.616425 248.848022,135.718658  z"
   id="path109" />
<path
   fill="#A6C4DD"
   opacity="1.000000"
   stroke="none"
   d=" M98.851883,278.082458   C95.176712,270.382446 98.282448,265.208130 106.305641,265.014709   C108.794228,264.954712 111.307480,264.856506 113.772644,265.120056   C118.179916,265.591156 121.163712,268.995880 120.920319,273.220947   C120.665749,277.640106 118.179504,280.632141 113.822891,280.793457   C108.848404,280.977661 103.437294,282.565887 98.851883,278.082458  z"
   id="path111" />
<path
   fill="#A6C4DD"
   opacity="1.000000"
   stroke="none"
   d=" M370.317505,280.998413   C363.799988,280.259674 360.739075,277.293365 361.063507,272.458069   C361.376648,267.790710 364.712524,265.125488 370.456024,265.008667   C372.610657,264.964813 374.774414,264.905853 376.921509,265.045654   C381.748810,265.359955 384.862732,268.447174 384.947693,272.845490   C385.036346,277.432678 381.816101,280.659485 376.730804,280.962158   C374.747498,281.080231 372.752106,280.994659 370.317505,280.998413  z"
   id="path113" />
<path
   fill="#A6C4DD"
   opacity="1.000000"
   stroke="none"
   d=" M233.148331,399.715393   C234.638901,394.615875 237.835037,392.345367 242.618973,393.270111   C247.227020,394.160889 249.043869,397.559998 248.997543,402.075470   C248.972000,404.563904 249.130356,407.068756 248.898895,409.537415   C248.477676,414.029755 245.267670,416.935669 241.022491,416.947662   C236.775421,416.959717 233.481140,414.061737 233.115387,409.584290   C232.859726,406.454163 233.076904,403.285431 233.148331,399.715393  z"
   id="path115" />
<path
   fill="#D7E5EF"
   opacity="1.000000"
   stroke="none"
   d=" M182.606293,251.401672   C183.592560,254.007828 184.829483,256.312653 184.901535,258.653351   C185.152161,266.794830 185.006561,274.948792 184.997299,283.097992   C184.987289,291.906616 182.579498,294.280304 173.726746,294.246948   C172.404266,294.241974 171.081772,294.246246 169.379913,294.246246   C169.379913,279.146301 169.379913,264.307190 169.379913,248.119583   C173.954666,249.178970 178.138779,250.147888 182.606293,251.401672  z"
   id="path117" />
<path
   fill="#D8E3EC"
   opacity="1.000000"
   stroke="none"
   d=" M248.031860,253.370361   C248.557312,257.300385 248.915985,260.856567 249.306900,264.732391   C243.663086,264.732391 238.738419,264.732391 233.786636,264.732391   C231.798767,257.752686 232.895035,252.370010 237.051926,250.146988   C241.429108,247.806137 245.048904,249.052246 248.031860,253.370361  z"
   id="path119" />
</svg>
