<?xml version="1.0" encoding="UTF-8" standalone="no"?>
<svg
   version="1.1"
   id="Layer_1"
   x="0px"
   y="0px"
   width="100%"
   viewBox="0 0 512 512"
   enable-background="new 0 0 512 512"
   xml:space="preserve"
   sodipodi:docname="other_adobe_express.svg"
   inkscape:version="1.2.2 (b0a8486, 2022-12-01)"
   xmlns:inkscape="http://www.inkscape.org/namespaces/inkscape"
   xmlns:sodipodi="http://sodipodi.sourceforge.net/DTD/sodipodi-0.dtd"
   xmlns="http://www.w3.org/2000/svg"
   xmlns:svg="http://www.w3.org/2000/svg"><defs
   id="defs19" /><sodipodi:namedview
   id="namedview17"
   pagecolor="#ffffff"
   bordercolor="#000000"
   borderopacity="0.25"
   inkscape:showpageshadow="2"
   inkscape:pageopacity="0.0"
   inkscape:pagecheckerboard="0"
   inkscape:deskcolor="#d1d1d1"
   showgrid="false"
   inkscape:zoom="0.4609375"
   inkscape:cx="257.08475"
   inkscape:cy="256"
   inkscape:window-width="1463"
   inkscape:window-height="456"
   inkscape:window-x="0"
   inkscape:window-y="25"
   inkscape:window-maximized="0"
   inkscape:current-layer="Layer_1" />

<path
   fill="#DEA806"
   opacity="1.000000"
   stroke="none"
   d=" M0.999999,241.468658   C1.654699,240.521774 2.726573,240.163635 2.903798,239.547958   C9.227821,217.578690 23.421484,202.963470 44.882198,195.758850   C50.916931,193.732910 57.679920,193.876251 64.561218,193.552551   C65.017822,236.332291 65.022095,278.584076 65.026367,320.835846   C39.680130,321.262238 21.031214,309.998047 8.681097,288.157135   C5.855794,283.160645 3.954319,277.641815 1.313830,272.681702   C1.000000,262.645782 1.000000,252.291550 0.999999,241.468658  z"
   id="path4" />
<path
   fill="#FFC107"
   opacity="1.000000"
   stroke="none"
   d=" M449.027191,193.164139   C474.437256,192.666489 492.961182,204.151123 505.338623,225.918884   C508.171082,230.900162 510.074768,236.409561 512.703003,241.337952   C513.000000,251.354233 513.000000,261.708466 513.000000,272.531342   C512.339783,273.446381 511.243164,273.773590 511.083954,274.356750   C508.111664,285.243042 502.847260,294.869812 494.730896,302.679962   C482.278809,314.662170 467.576660,321.517426 449.473846,320.449707   C449.018341,277.667786 449.022766,235.415970 449.027191,193.164139  z"
   id="path6" />
<path
   fill="#FFC107"
   opacity="1.000000"
   stroke="none"
   d=" M65.479584,320.907837   C65.022095,278.584076 65.017822,236.332291 65.020096,193.622345   C90.443993,192.688690 109.428192,203.931061 121.299065,225.988403   C135.071091,251.578293 132.069489,276.710785 114.131027,298.968811   C102.189514,313.785828 85.603966,321.533508 65.479584,320.907837  z"
   id="path8" />
<path
   fill="#DEA806"
   opacity="1.000000"
   stroke="none"
   d=" M257.026398,320.835876   C231.177338,321.265228 212.359985,309.559052 200.068726,287.227814   C186.192245,262.016449 191.854080,228.557907 213.008362,209.580078   C225.117569,198.716736 239.265640,192.089828 256.561218,193.552551   C257.017853,236.332291 257.022125,278.584076 257.026398,320.835876  z"
   id="path10" />
<path
   fill="#FFC107"
   opacity="1.000000"
   stroke="none"
   d=" M257.479614,320.907837   C257.022125,278.584076 257.017853,236.332291 257.020111,193.622345   C282.443970,192.688751 301.428131,203.931168 313.299072,225.988342   C327.071259,251.578247 324.069489,276.710785 306.131042,298.968811   C294.189545,313.785797 277.604004,321.533508 257.479614,320.907837  z"
   id="path12" />
<path
   fill="#DEA806"
   opacity="1.000000"
   stroke="none"
   d=" M448.568237,193.094360   C449.022766,235.415970 449.018341,277.667786 449.020691,320.377808   C423.178131,321.265656 404.360138,309.559906 392.068878,287.228302   C378.192139,262.016113 383.853973,228.558273 405.008453,209.580109   C417.117737,198.716599 431.265900,192.089706 448.568237,193.094360  z"
   id="path14" />
</svg>
