<svg width="24" height="24" viewBox="0 0 24 24" fill="none" xmlns="http://www.w3.org/2000/svg">
<path d="M11.5806 16.9047L14.9393 13.5459L19.7123 8.77297L19.1503 7.83631C18.4747 6.71031 17.5323 5.76793 16.4063 5.09233L15.4697 4.53033L10.6967 9.3033L7.33794 12.6621M11.5806 16.9047L9.63604 18.8492C9.63604 18.8492 8.47489 18.617 7.28383 18.6184M11.5806 16.9047V16.9047C10.7886 14.9814 9.26127 13.454 7.33794 12.6621V12.6621M7.33794 12.6621L5.3934 14.6066C5.3934 14.6066 5.49928 15.136 5.56764 15.8466C5.60052 16.1883 5.62472 16.572 5.62428 16.9588M7.28383 18.6184C6.39655 18.6194 5.49266 18.75 5.03985 19.2028C5.49266 18.75 5.62328 17.8461 5.62428 16.9588M7.28383 18.6184L5.62428 16.9588" stroke="#0F1013" stroke-width="2" stroke-linecap="round" stroke-linejoin="round"/>
</svg>
