<svg id="svg" version="1.1" xmlns="http://www.w3.org/2000/svg" xmlns:xlink="http://www.w3.org/1999/xlink" width="400" height="400" viewBox="0, 0, 400,400"><g id="svgg"><path id="path0" d="M98.635 104.635 C 90.829 106.761,85.291 112.764,83.254 121.306 C 82.614 123.993,82.613 194.402,83.253 197.094 C 85.177 205.179,90.230 210.784,97.799 213.229 C 101.653 214.474,298.997 214.243,302.400 212.990 C 309.004 210.557,313.338 206.308,315.648 200.000 L 316.600 197.400 316.600 159.000 C 316.600 123.304,316.550 120.464,315.894 118.669 C 313.075 110.957,307.349 106.048,299.280 104.426 C 295.832 103.733,101.201 103.935,98.635 104.635 M281.463 126.638 C 284.736 129.275,284.642 133.985,281.272 136.272 C 280.405 136.861,279.127 137.038,274.600 137.200 L 269.000 137.400 268.800 162.800 C 268.658 180.867,268.466 188.499,268.134 189.235 C 266.625 192.593,261.888 193.800,259.033 191.554 C 256.729 189.742,256.800 190.647,256.800 163.063 C 256.800 140.291,256.735 137.661,256.167 137.443 C 255.819 137.309,253.371 137.200,250.728 137.200 C 244.132 137.200,242.783 136.507,241.585 132.506 C 241.145 131.040,241.188 130.678,241.993 129.015 C 243.800 125.281,243.973 125.252,263.863 125.334 L 279.927 125.400 281.463 126.638 M146.006 126.039 C 151.047 127.120,152.722 132.478,149.138 136.062 L 147.600 137.600 138.008 137.600 L 128.415 137.600 128.194 138.500 C 128.072 138.995,128.023 142.460,128.086 146.200 L 128.200 153.000 136.600 153.200 C 143.677 153.369,145.207 153.513,146.318 154.119 C 150.035 156.149,150.212 162.062,146.627 164.449 C 146.013 164.858,143.530 165.052,137.000 165.200 L 128.200 165.400 128.200 173.000 L 128.200 180.600 137.800 180.832 C 143.080 180.960,147.439 181.095,147.486 181.132 C 152.429 185.014,152.006 191.499,146.741 192.552 C 144.725 192.955,120.948 192.836,119.846 192.418 C 115.893 190.915,116.000 191.830,116.000 159.400 C 116.000 126.295,115.868 127.192,120.887 126.069 C 123.323 125.524,143.492 125.500,146.006 126.039 M168.265 126.623 C 169.003 127.185,170.497 128.940,171.586 130.523 C 177.332 138.875,182.664 146.200,182.998 146.200 C 183.205 146.200,186.016 142.420,189.244 137.800 C 197.081 126.585,198.033 125.600,201.034 125.600 C 203.753 125.600,205.647 126.780,206.605 129.073 C 207.767 131.855,207.530 132.541,203.291 138.657 C 200.492 142.695,200.176 143.145,194.332 151.400 C 190.218 157.211,190.190 157.279,191.339 158.689 C 191.837 159.300,193.686 161.870,195.449 164.400 C 197.211 166.930,199.803 170.620,201.207 172.600 C 209.425 184.186,209.835 184.938,209.660 188.086 C 209.577 189.594,207.432 191.899,205.601 192.447 C 202.168 193.475,200.287 192.249,196.151 186.286 C 186.930 172.996,183.347 168.017,183.000 168.013 C 182.780 168.010,181.070 170.196,179.200 172.870 C 177.330 175.545,174.575 179.458,173.077 181.567 C 171.579 183.675,169.479 186.674,168.411 188.232 C 164.692 193.651,160.328 194.270,157.025 189.846 C 155.533 187.847,155.875 185.397,158.098 182.162 C 162.626 175.574,165.068 172.070,166.032 170.781 C 166.600 170.021,168.998 166.659,171.361 163.308 L 175.657 157.216 172.683 152.908 C 171.047 150.539,168.237 146.530,166.439 144.000 C 160.525 135.680,159.331 133.815,159.074 132.500 C 158.062 127.318,164.108 123.452,168.265 126.623 M229.032 126.354 C 231.888 128.096,231.787 126.976,231.916 158.400 C 232.000 179.056,231.906 187.056,231.562 188.306 C 230.147 193.448,223.021 194.282,220.594 189.588 C 219.639 187.742,219.709 130.535,220.668 128.513 C 221.984 125.740,226.228 124.644,229.032 126.354 M238.606 303.467 C 235.526 304.412,232.404 306.965,231.215 309.511 C 230.936 310.110,230.548 310.913,230.353 311.295 C 229.867 312.251,229.906 319.095,230.400 319.400 C 230.620 319.536,230.800 319.909,230.800 320.228 C 230.800 320.914,233.257 324.747,233.717 324.778 C 233.891 324.790,234.420 325.160,234.892 325.600 C 237.446 327.979,236.938 327.945,270.600 327.978 C 303.844 328.009,304.061 327.996,306.193 325.864 C 306.529 325.528,307.119 325.145,307.502 325.014 C 310.975 323.828,312.727 314.614,310.388 309.843 C 308.735 306.472,307.298 305.304,302.281 303.257 C 300.382 302.481,241.182 302.677,238.606 303.467 " stroke="none" fill="#5acd94" fill-rule="evenodd"></path><path id="path1" d="M59.200 22.000 C 59.200 22.222,58.133 22.400,56.800 22.400 C 55.467 22.400,54.400 22.578,54.400 22.800 C 54.400 23.020,53.781 23.200,53.024 23.200 C 52.267 23.200,51.536 23.380,51.400 23.600 C 51.264 23.820,50.803 24.000,50.376 24.000 C 49.949 24.000,49.600 24.180,49.600 24.400 C 49.600 24.620,49.323 24.800,48.984 24.800 C 48.064 24.800,45.556 26.169,43.724 27.671 C 42.833 28.402,41.736 29.254,41.285 29.564 C 40.835 29.875,40.244 30.544,39.973 31.051 C 39.701 31.558,39.299 31.861,39.078 31.725 C 38.857 31.588,38.792 31.664,38.934 31.893 C 39.075 32.122,38.563 32.995,37.796 33.833 C 37.028 34.671,36.400 35.591,36.400 35.878 C 36.400 36.165,36.220 36.400,36.000 36.400 C 35.780 36.400,35.600 36.760,35.600 37.200 C 35.600 37.640,35.420 38.000,35.200 38.000 C 34.980 38.000,34.800 38.360,34.800 38.800 C 34.800 39.240,34.620 39.600,34.400 39.600 C 34.180 39.600,34.000 40.140,34.000 40.800 C 34.000 41.460,33.820 42.000,33.600 42.000 C 33.380 42.000,33.200 42.504,33.200 43.120 C 33.200 43.736,33.036 44.411,32.835 44.620 C 31.714 45.787,31.101 89.488,32.193 90.394 C 32.732 90.842,32.800 100.336,32.800 175.441 L 32.800 259.985 33.700 260.172 C 34.195 260.275,37.030 260.463,40.000 260.590 C 42.970 260.717,48.100 260.989,51.400 261.194 C 54.700 261.399,59.110 261.656,61.200 261.766 L 65.000 261.965 64.898 158.383 L 64.797 54.800 199.998 54.800 L 335.200 54.800 335.205 200.500 C 335.211 341.407,335.249 348.000,336.070 348.000 C 336.278 348.000,336.336 347.820,336.200 347.600 C 336.064 347.380,336.159 347.200,336.411 347.200 C 336.662 347.200,337.888 346.097,339.134 344.749 C 340.380 343.400,341.832 341.915,342.359 341.449 C 344.456 339.594,351.600 332.245,351.600 331.943 C 351.600 331.766,352.408 330.813,353.395 329.826 C 354.382 328.839,355.237 327.809,355.295 327.538 C 355.353 327.267,355.940 326.459,356.600 325.744 C 358.368 323.828,358.800 323.271,358.800 322.905 C 358.800 322.724,359.160 322.317,359.600 322.000 C 360.040 321.683,360.400 321.183,360.400 320.888 C 360.400 320.585,360.601 320.477,360.862 320.638 C 361.138 320.809,361.215 320.749,361.054 320.488 C 360.906 320.248,361.238 319.598,361.792 319.044 C 362.347 318.490,362.800 317.847,362.800 317.615 C 362.800 317.383,363.340 316.628,364.000 315.937 C 364.660 315.246,365.200 314.521,365.200 314.324 C 365.200 314.127,365.560 313.580,366.000 313.108 C 366.440 312.636,366.800 312.013,366.800 311.725 C 366.800 311.436,366.935 311.200,367.100 311.200 C 367.265 311.200,367.353 261.671,367.296 201.135 C 367.204 102.929,367.259 90.998,367.803 90.396 C 368.530 89.594,368.711 49.361,367.986 49.809 C 367.753 49.953,367.600 49.015,367.600 47.447 C 367.600 46.017,367.420 44.736,367.200 44.600 C 366.980 44.464,366.800 43.823,366.800 43.176 C 366.800 42.529,366.620 42.000,366.400 42.000 C 366.180 42.000,366.000 41.460,366.000 40.800 C 366.000 40.140,365.820 39.600,365.600 39.600 C 365.380 39.600,365.200 39.240,365.200 38.800 C 365.200 38.360,365.020 38.000,364.800 38.000 C 364.580 38.000,364.400 37.640,364.400 37.200 C 364.400 36.760,364.220 36.400,364.000 36.400 C 363.780 36.400,363.600 36.165,363.600 35.878 C 363.600 35.591,362.972 34.671,362.204 33.833 C 361.437 32.995,360.925 32.122,361.066 31.893 C 361.208 31.664,361.143 31.588,360.922 31.725 C 360.701 31.861,360.299 31.558,360.027 31.051 C 359.756 30.544,359.165 29.875,358.715 29.564 C 358.264 29.254,357.167 28.402,356.276 27.671 C 354.444 26.169,351.936 24.800,351.016 24.800 C 350.677 24.800,350.400 24.620,350.400 24.400 C 350.400 24.180,350.051 24.000,349.624 24.000 C 349.197 24.000,348.736 23.820,348.600 23.600 C 348.464 23.380,347.733 23.200,346.976 23.200 C 346.219 23.200,345.600 23.020,345.600 22.800 C 345.600 22.578,344.533 22.400,343.200 22.400 C 341.867 22.400,340.800 22.222,340.800 22.000 C 340.800 21.738,332.400 21.600,316.400 21.600 C 300.400 21.600,292.000 21.738,292.000 22.000 C 292.000 22.266,261.067 22.400,200.000 22.400 C 138.933 22.400,108.000 22.266,108.000 22.000 C 108.000 21.738,99.600 21.600,83.600 21.600 C 67.600 21.600,59.200 21.738,59.200 22.000 M138.889 259.276 L 138.800 265.952 137.300 266.109 L 135.800 266.266 137.313 266.333 C 139.269 266.420,139.243 266.524,139.100 258.984 L 138.978 252.600 138.889 259.276 M67.505 262.283 C 68.002 262.379,68.722 262.375,69.105 262.275 C 69.487 262.175,69.080 262.096,68.200 262.101 C 67.320 262.105,67.007 262.187,67.505 262.283 M75.907 262.690 C 76.626 262.779,77.706 262.777,78.307 262.686 C 78.908 262.595,78.320 262.522,77.000 262.524 C 75.680 262.526,75.188 262.601,75.907 262.690 M81.305 263.087 C 81.914 263.179,82.814 263.177,83.305 263.082 C 83.797 262.987,83.300 262.911,82.200 262.914 C 81.100 262.917,80.697 262.995,81.305 263.087 M90.105 263.487 C 90.714 263.579,91.614 263.577,92.105 263.482 C 92.597 263.387,92.100 263.311,91.000 263.314 C 89.900 263.317,89.497 263.395,90.105 263.487 M95.300 263.876 C 95.685 263.976,96.315 263.976,96.700 263.876 C 97.085 263.775,96.770 263.693,96.000 263.693 C 95.230 263.693,94.915 263.775,95.300 263.876 M104.105 264.287 C 104.714 264.379,105.614 264.377,106.105 264.282 C 106.597 264.187,106.100 264.111,105.000 264.114 C 103.900 264.117,103.497 264.195,104.105 264.287 M108.905 264.687 C 109.514 264.779,110.414 264.777,110.905 264.682 C 111.397 264.587,110.900 264.511,109.800 264.514 C 108.700 264.517,108.297 264.595,108.905 264.687 M117.705 265.087 C 118.314 265.179,119.214 265.177,119.705 265.082 C 120.197 264.987,119.700 264.911,118.600 264.914 C 117.500 264.917,117.097 264.995,117.705 265.087 M122.700 265.482 C 123.195 265.578,124.005 265.578,124.500 265.482 C 124.995 265.387,124.590 265.309,123.600 265.309 C 122.610 265.309,122.205 265.387,122.700 265.482 M131.900 265.882 C 132.395 265.978,133.205 265.978,133.700 265.882 C 134.195 265.787,133.790 265.709,132.800 265.709 C 131.810 265.709,131.405 265.787,131.900 265.882 M212.575 293.300 L 211.400 294.600 212.700 293.425 C 213.415 292.779,214.000 292.194,214.000 292.125 C 214.000 291.816,213.670 292.088,212.575 293.300 M238.120 302.739 C 235.330 303.711,232.960 305.411,231.653 307.379 C 229.664 310.372,228.800 312.768,228.800 315.290 C 228.800 320.375,231.924 325.288,236.647 327.631 L 238.600 328.600 270.800 328.600 L 303.000 328.600 304.894 327.659 C 315.282 322.496,315.041 307.948,304.487 303.072 C 301.759 301.812,241.646 301.510,238.120 302.739 M302.281 303.257 C 307.298 305.304,308.735 306.472,310.388 309.843 C 312.727 314.614,310.975 323.828,307.502 325.014 C 307.119 325.145,306.529 325.528,306.193 325.864 C 304.061 327.996,303.844 328.009,270.600 327.978 C 236.938 327.945,237.446 327.979,234.892 325.600 C 234.420 325.160,233.891 324.790,233.717 324.778 C 233.257 324.747,230.800 320.914,230.800 320.228 C 230.800 319.909,230.620 319.536,230.400 319.400 C 229.906 319.095,229.867 312.251,230.353 311.295 C 230.548 310.913,230.936 310.110,231.215 309.511 C 232.404 306.965,235.526 304.412,238.606 303.467 C 241.182 302.677,300.382 302.481,302.281 303.257 M131.900 305.882 C 132.395 305.978,133.205 305.978,133.700 305.882 C 134.195 305.787,133.790 305.709,132.800 305.709 C 131.810 305.709,131.405 305.787,131.900 305.882 M125.100 306.289 C 125.815 306.378,126.985 306.378,127.700 306.289 C 128.415 306.201,127.830 306.128,126.400 306.128 C 124.970 306.128,124.385 306.201,125.100 306.289 M138.959 311.600 C 138.959 314.790,139.021 316.095,139.097 314.500 C 139.173 312.905,139.173 310.295,139.097 308.700 C 139.021 307.105,138.959 308.410,138.959 311.600 M116.705 306.683 C 117.202 306.779,117.922 306.775,118.305 306.675 C 118.687 306.575,118.280 306.496,117.400 306.501 C 116.520 306.505,116.207 306.587,116.705 306.683 M108.500 307.091 C 109.325 307.178,110.675 307.178,111.500 307.091 C 112.325 307.005,111.650 306.934,110.000 306.934 C 108.350 306.934,107.675 307.005,108.500 307.091 M100.705 307.483 C 101.202 307.579,101.922 307.575,102.305 307.475 C 102.687 307.375,102.280 307.296,101.400 307.301 C 100.520 307.305,100.207 307.387,100.705 307.483 M93.107 307.890 C 93.826 307.979,94.906 307.977,95.507 307.886 C 96.108 307.795,95.520 307.722,94.200 307.724 C 92.880 307.726,92.388 307.801,93.107 307.890 M85.505 308.283 C 86.002 308.379,86.722 308.375,87.105 308.275 C 87.487 308.175,87.080 308.096,86.200 308.101 C 85.320 308.105,85.007 308.187,85.505 308.283 M76.691 308.689 C 77.401 308.777,78.661 308.779,79.491 308.692 C 80.321 308.605,79.740 308.533,78.200 308.531 C 76.660 308.529,75.981 308.600,76.691 308.689 M70.305 309.083 C 70.802 309.179,71.522 309.175,71.905 309.075 C 72.287 308.975,71.880 308.896,71.000 308.901 C 70.120 308.905,69.807 308.987,70.305 309.083 M61.167 309.354 C 61.075 309.439,56.230 309.724,50.400 309.988 C 32.512 310.799,31.465 311.002,33.966 313.171 C 34.425 313.568,34.800 314.053,34.801 314.247 C 34.801 314.441,35.341 315.230,36.000 316.000 C 36.659 316.770,37.199 317.543,37.199 317.718 C 37.200 317.893,37.653 318.490,38.208 319.044 C 38.762 319.598,39.094 320.248,38.946 320.488 C 38.785 320.749,38.862 320.809,39.138 320.638 C 39.392 320.481,39.600 320.528,39.600 320.742 C 39.600 320.956,40.230 321.780,41.000 322.573 C 41.770 323.366,42.400 324.209,42.400 324.447 C 42.400 324.685,42.895 325.358,43.500 325.943 C 44.105 326.529,44.651 327.248,44.713 327.542 C 44.775 327.836,45.720 328.948,46.813 330.012 C 47.906 331.077,48.800 332.230,48.800 332.574 C 48.800 332.918,49.076 333.200,49.413 333.200 C 49.749 333.200,50.134 333.485,50.268 333.832 C 50.401 334.180,52.125 336.025,54.099 337.932 C 56.072 339.840,58.072 341.826,58.543 342.348 C 60.943 345.003,63.242 347.200,63.622 347.200 C 63.856 347.200,63.936 347.380,63.800 347.600 C 63.594 347.934,64.223 348.209,64.485 347.900 C 64.531 347.845,64.666 339.115,64.785 328.500 L 65.000 309.200 63.167 309.200 C 62.158 309.200,61.258 309.269,61.167 309.354 M138.901 319.400 C 138.905 320.280,138.987 320.593,139.083 320.095 C 139.179 319.598,139.175 318.878,139.075 318.495 C 138.975 318.113,138.896 318.520,138.901 319.400 " stroke="none" fill="#987bcb" fill-rule="evenodd"></path><path id="path2" d="M64.800 158.144 L 64.800 261.489 67.300 261.763 C 68.675 261.913,73.040 262.205,77.000 262.412 C 80.960 262.618,87.350 262.967,91.200 263.188 C 105.777 264.023,112.019 264.385,119.000 264.804 C 130.843 265.515,138.182 265.851,138.500 265.698 C 138.665 265.618,138.807 262.278,138.815 258.276 C 138.833 249.671,139.409 247.818,142.878 245.211 C 147.328 241.867,150.635 241.990,157.000 245.739 C 158.100 246.387,159.990 247.458,161.200 248.120 C 162.410 248.781,163.878 249.655,164.462 250.061 C 165.046 250.467,165.619 250.800,165.736 250.800 C 165.853 250.800,168.256 252.176,171.075 253.858 C 173.894 255.539,176.785 257.249,177.500 257.658 C 179.631 258.874,181.520 259.954,182.900 260.744 C 183.615 261.153,185.190 262.079,186.400 262.800 C 187.610 263.521,189.140 264.419,189.800 264.794 C 194.441 267.435,202.911 272.381,207.800 275.304 C 208.460 275.699,209.315 276.128,209.700 276.258 C 210.085 276.387,210.400 276.652,210.400 276.847 C 210.400 277.041,210.633 277.200,210.919 277.200 C 213.027 277.200,215.784 282.186,215.786 286.000 C 215.789 292.235,214.542 293.339,195.500 303.963 C 194.675 304.423,193.370 305.160,192.600 305.600 C 191.830 306.040,190.525 306.779,189.700 307.243 C 188.875 307.706,188.020 308.220,187.800 308.385 C 187.580 308.550,186.410 309.228,185.200 309.892 C 183.412 310.873,174.620 315.891,168.100 319.650 C 167.385 320.063,166.170 320.760,165.400 321.200 C 164.630 321.640,163.370 322.360,162.600 322.800 C 161.830 323.240,160.570 323.960,159.800 324.400 C 159.030 324.840,157.770 325.560,157.000 326.000 C 156.230 326.440,155.004 327.138,154.276 327.551 C 148.878 330.610,141.955 328.252,139.308 322.452 C 138.758 321.248,138.658 319.762,138.721 313.748 C 138.798 306.406,138.529 304.978,137.225 305.785 C 136.999 305.924,132.896 306.216,128.107 306.434 C 118.325 306.880,107.559 307.397,96.000 307.976 C 83.136 308.621,80.140 308.784,72.300 309.268 L 64.800 309.731 64.796 327.766 C 64.793 337.684,64.675 346.503,64.533 347.362 C 64.346 348.494,64.403 348.846,64.738 348.639 C 65.003 348.475,65.200 348.590,65.200 348.909 C 65.200 349.215,65.693 349.720,66.295 350.032 C 66.897 350.345,68.154 351.357,69.087 352.281 C 70.020 353.206,71.811 354.722,73.066 355.649 C 75.492 357.441,76.565 358.292,77.416 359.100 C 77.706 359.375,78.146 359.600,78.395 359.600 C 78.644 359.600,78.736 359.780,78.600 360.000 C 78.464 360.220,78.607 360.400,78.917 360.400 C 79.227 360.400,80.046 360.940,80.737 361.600 C 81.428 362.260,82.176 362.800,82.400 362.800 C 82.624 362.800,83.372 363.340,84.063 364.000 C 84.754 364.660,85.479 365.200,85.676 365.200 C 85.873 365.200,86.420 365.560,86.892 366.000 C 87.364 366.440,87.987 366.800,88.275 366.800 C 88.564 366.800,88.800 366.980,88.800 367.200 C 88.800 367.420,89.070 367.600,89.400 367.600 C 89.730 367.600,90.000 367.780,90.000 368.000 C 90.000 368.220,90.188 368.400,90.417 368.400 C 90.646 368.400,91.181 368.724,91.607 369.121 C 92.032 369.517,93.060 370.212,93.890 370.666 C 94.721 371.120,96.542 372.146,97.938 372.946 C 99.335 373.746,100.640 374.400,100.838 374.400 C 101.037 374.400,101.200 374.580,101.200 374.800 C 101.200 375.020,101.560 375.200,102.000 375.200 C 102.440 375.200,102.800 375.380,102.800 375.600 C 102.800 375.820,103.160 376.000,103.600 376.000 C 104.040 376.000,104.400 376.180,104.400 376.400 C 104.400 376.620,104.760 376.800,105.200 376.800 C 105.640 376.800,106.000 376.980,106.000 377.200 C 106.000 377.420,106.360 377.600,106.800 377.600 C 107.240 377.600,107.600 377.754,107.600 377.942 C 107.600 378.335,113.947 381.608,114.700 381.603 C 114.975 381.601,115.200 381.780,115.200 382.000 C 115.200 382.220,115.560 382.400,116.000 382.400 C 116.440 382.400,116.800 382.580,116.800 382.800 C 116.800 383.020,117.160 383.200,117.600 383.200 C 118.040 383.200,118.400 383.380,118.400 383.600 C 118.400 383.820,118.749 384.000,119.176 384.000 C 119.603 384.000,120.064 384.180,120.200 384.400 C 120.336 384.620,120.887 384.800,121.424 384.800 C 121.961 384.800,122.400 384.980,122.400 385.200 C 122.400 385.420,122.760 385.600,123.200 385.600 C 123.640 385.600,124.000 385.747,124.000 385.928 C 124.000 386.108,124.900 386.500,126.000 386.800 C 127.100 387.100,128.000 387.492,128.000 387.672 C 128.000 387.853,128.362 388.000,128.805 388.000 C 129.248 388.000,129.923 388.166,130.305 388.368 C 132.375 389.464,137.334 391.009,140.300 391.481 C 141.015 391.594,141.600 391.848,141.600 392.044 C 141.600 392.240,142.129 392.400,142.776 392.400 C 143.423 392.400,144.064 392.580,144.200 392.800 C 144.336 393.020,145.067 393.200,145.824 393.200 C 146.581 393.200,147.200 393.380,147.200 393.600 C 147.200 393.820,147.830 394.000,148.600 394.000 C 149.370 394.000,150.000 394.180,150.000 394.400 C 150.000 394.620,150.619 394.800,151.376 394.800 C 152.133 394.800,152.864 394.980,153.000 395.200 C 153.136 395.420,154.047 395.600,155.024 395.600 C 156.001 395.600,156.800 395.762,156.800 395.960 C 156.800 396.307,158.263 396.577,162.700 397.050 C 163.855 397.173,164.800 397.437,164.800 397.637 C 164.800 397.837,165.754 398.000,166.920 398.000 C 168.086 398.000,169.211 398.168,169.420 398.373 C 169.629 398.577,171.060 398.786,172.600 398.836 C 174.140 398.886,175.528 399.123,175.685 399.363 C 176.090 399.982,223.912 399.980,224.315 399.361 C 224.472 399.119,225.950 398.882,227.600 398.834 C 229.250 398.785,230.660 398.578,230.733 398.373 C 230.807 398.168,231.806 398.000,232.953 398.000 C 234.101 398.000,235.211 397.837,235.420 397.639 C 235.629 397.440,236.610 397.174,237.600 397.047 C 238.590 396.920,240.255 396.704,241.300 396.568 C 242.345 396.431,243.200 396.158,243.200 395.960 C 243.200 395.762,243.772 395.600,244.472 395.600 C 245.171 395.600,246.296 395.432,246.972 395.227 C 247.647 395.022,249.010 394.644,250.000 394.388 C 250.990 394.132,252.113 393.760,252.495 393.561 C 252.877 393.362,253.732 393.200,254.395 393.200 C 255.058 393.200,255.600 393.020,255.600 392.800 C 255.600 392.580,256.230 392.400,257.000 392.400 C 257.770 392.400,258.400 392.220,258.400 392.000 C 258.400 391.780,258.929 391.600,259.576 391.600 C 260.223 391.600,260.850 391.442,260.969 391.250 C 261.088 391.057,261.594 390.896,262.093 390.890 C 262.592 390.885,263.900 390.583,265.000 390.220 C 266.927 389.584,267.416 389.400,269.600 388.491 C 270.150 388.262,271.410 387.773,272.400 387.404 C 273.390 387.036,274.785 386.479,275.500 386.167 C 276.215 385.855,277.475 385.310,278.300 384.956 C 279.125 384.602,280.323 384.062,280.961 383.756 C 281.600 383.450,282.365 383.200,282.661 383.200 C 282.958 383.200,283.200 383.020,283.200 382.800 C 283.200 382.580,283.560 382.400,284.000 382.400 C 284.440 382.400,284.800 382.220,284.800 382.000 C 284.800 381.780,285.065 381.600,285.388 381.600 C 285.711 381.600,286.617 381.240,287.400 380.800 C 288.183 380.360,289.089 380.000,289.412 380.000 C 289.735 380.000,290.000 379.820,290.000 379.600 C 290.000 379.380,290.360 379.200,290.800 379.200 C 291.240 379.200,291.600 379.020,291.600 378.800 C 291.600 378.580,291.870 378.400,292.200 378.400 C 292.530 378.400,292.800 378.254,292.800 378.075 C 292.800 377.896,293.430 377.502,294.200 377.200 C 294.970 376.898,295.600 376.504,295.600 376.325 C 295.600 376.146,295.960 376.000,296.400 376.000 C 296.840 376.000,297.200 375.820,297.200 375.600 C 297.200 375.380,297.560 375.200,298.000 375.200 C 298.440 375.200,298.800 375.020,298.800 374.800 C 298.800 374.580,298.994 374.400,299.230 374.400 C 299.467 374.400,300.952 373.636,302.530 372.703 C 304.109 371.769,305.850 370.778,306.401 370.501 C 306.951 370.223,307.918 369.552,308.549 369.010 C 309.181 368.467,310.036 367.916,310.449 367.784 C 310.862 367.653,311.200 367.378,311.200 367.173 C 311.200 366.968,311.520 366.800,311.912 366.800 C 312.303 366.800,312.883 366.440,313.200 366.000 C 313.517 365.560,313.980 365.200,314.229 365.200 C 314.478 365.200,315.206 364.705,315.848 364.100 C 316.489 363.495,317.506 362.745,318.107 362.432 C 318.708 362.120,319.200 361.715,319.200 361.532 C 319.200 361.350,319.470 361.200,319.800 361.200 C 320.130 361.200,320.400 361.020,320.400 360.800 C 320.400 360.580,320.598 360.400,320.840 360.400 C 321.081 360.400,321.783 359.860,322.400 359.200 C 323.017 358.540,323.624 358.000,323.749 358.000 C 324.123 358.000,329.192 353.926,330.966 352.200 C 331.870 351.320,333.096 350.348,333.691 350.040 C 334.286 349.732,334.678 349.327,334.563 349.140 C 334.447 348.953,334.657 348.800,335.029 348.800 C 335.587 348.800,335.662 348.539,335.457 347.300 C 335.320 346.475,335.207 280.325,335.204 200.300 L 335.200 54.800 200.000 54.800 L 64.800 54.800 64.800 158.144 M31.600 90.351 C 31.600 90.598,31.780 90.800,31.999 90.800 C 32.263 90.800,32.433 119.433,32.500 175.300 L 32.602 259.800 32.701 175.349 C 32.789 100.688,32.730 90.840,32.200 90.400 C 31.785 90.056,31.600 90.041,31.600 90.351 M367.673 90.487 C 367.078 91.082,366.990 309.048,367.584 309.988 C 367.789 310.312,368.101 310.422,368.278 310.234 C 368.455 310.045,368.375 309.810,368.100 309.712 C 367.702 309.570,367.600 287.305,367.600 200.200 C 367.600 113.095,367.702 90.830,368.100 90.688 C 368.375 90.590,368.498 90.398,368.373 90.261 C 368.249 90.125,367.934 90.226,367.673 90.487 M299.280 104.426 C 307.349 106.048,313.075 110.957,315.894 118.669 C 316.550 120.464,316.600 123.304,316.600 159.000 L 316.600 197.400 315.648 200.000 C 313.338 206.308,309.004 210.557,302.400 212.990 C 298.997 214.243,101.653 214.474,97.799 213.229 C 90.230 210.784,85.177 205.179,83.253 197.094 C 82.613 194.402,82.614 123.993,83.254 121.306 C 85.291 112.764,90.829 106.761,98.635 104.635 C 101.201 103.935,295.832 103.733,299.280 104.426 M246.400 125.553 C 245.630 125.689,252.830 125.800,262.400 125.800 C 281.765 125.800,281.103 125.710,282.855 128.583 C 283.263 129.252,283.598 129.547,283.599 129.238 C 283.602 128.018,280.572 125.732,278.591 125.461 C 276.219 125.136,248.310 125.215,246.400 125.553 M127.900 125.899 C 131.035 125.967,136.165 125.967,139.300 125.899 C 142.435 125.832,139.870 125.776,133.600 125.776 C 127.330 125.776,124.765 125.832,127.900 125.899 M160.863 127.138 C 159.213 128.787,158.668 130.421,159.074 132.500 C 159.328 133.801,162.758 139.280,163.672 139.844 C 163.938 140.009,163.158 138.717,161.937 136.972 C 157.702 130.919,158.984 126.000,164.796 126.000 C 167.782 126.000,168.735 126.862,173.600 133.961 C 175.470 136.690,177.415 139.390,177.923 139.961 C 178.430 140.533,177.660 139.290,176.212 137.200 C 174.763 135.110,172.685 132.105,171.592 130.523 C 167.845 125.094,164.091 123.909,160.863 127.138 M197.367 127.034 L 195.800 128.469 197.391 127.234 C 202.567 123.219,209.041 128.663,205.810 134.314 C 205.271 135.257,205.006 135.920,205.221 135.787 C 205.877 135.382,207.200 132.492,207.200 131.465 C 207.200 126.425,201.055 123.657,197.367 127.034 M222.455 126.423 C 221.715 126.874,221.230 127.363,221.377 127.510 C 221.523 127.657,221.769 127.584,221.922 127.348 C 223.091 125.548,228.509 125.548,229.678 127.348 C 229.831 127.584,230.077 127.657,230.223 127.510 C 230.817 126.916,227.771 125.603,225.800 125.603 C 224.488 125.603,223.337 125.885,222.455 126.423 M119.400 126.625 C 118.740 126.966,117.930 127.533,117.600 127.885 C 117.260 128.247,117.527 128.165,118.215 127.696 C 118.883 127.240,120.053 126.688,120.815 126.470 C 121.632 126.235,121.872 126.058,121.400 126.039 C 120.960 126.020,120.060 126.284,119.400 126.625 M146.403 126.531 C 148.440 127.212,149.004 127.636,149.950 129.200 C 150.416 129.970,150.798 130.358,150.799 130.062 C 150.803 128.494,147.613 125.953,145.740 126.031 C 145.333 126.048,145.631 126.273,146.403 126.531 M243.360 127.004 C 242.260 128.104,241.184 130.366,241.228 131.487 C 241.243 131.879,241.515 131.357,241.832 130.326 C 242.149 129.296,242.961 127.901,243.635 127.226 C 244.310 126.552,244.750 126.000,244.613 126.000 C 244.476 126.000,243.912 126.452,243.360 127.004 M194.689 130.100 C 191.922 133.879,189.996 136.798,190.280 136.783 C 190.605 136.765,196.124 128.800,195.811 128.800 C 195.717 128.800,195.212 129.385,194.689 130.100 M220.190 159.200 C 220.190 175.590,220.239 182.295,220.300 174.100 C 220.360 165.905,220.360 152.495,220.300 144.300 C 220.239 136.105,220.190 142.810,220.190 159.200 M231.256 159.200 C 231.256 176.171,231.404 188.656,231.600 188.200 C 231.789 187.760,231.944 174.710,231.944 159.200 C 231.944 143.690,231.789 130.640,231.600 130.200 C 231.404 129.744,231.256 142.229,231.256 159.200 M116.190 159.400 C 116.190 175.240,116.239 181.662,116.300 173.671 C 116.360 165.679,116.360 152.719,116.300 144.871 C 116.239 137.022,116.190 143.560,116.190 159.400 M241.862 133.200 C 242.678 136.418,244.430 137.198,250.860 137.206 C 253.577 137.209,256.024 137.354,256.297 137.528 C 256.683 137.773,256.818 143.572,256.900 163.422 L 257.006 189.000 257.103 163.324 C 257.179 143.136,257.093 137.578,256.700 137.324 C 256.425 137.146,253.649 136.910,250.531 136.800 C 244.283 136.580,243.500 136.261,242.167 133.400 C 241.718 132.435,241.658 132.396,241.862 133.200 M281.211 135.820 C 280.447 136.359,279.997 136.799,280.211 136.798 C 280.425 136.797,281.140 136.353,281.800 135.812 C 283.341 134.549,283.005 134.553,281.211 135.820 M149.145 135.827 C 148.800 136.172,147.816 136.704,146.959 137.009 C 145.665 137.470,145.573 137.568,146.415 137.582 C 147.235 137.597,150.741 135.274,149.986 135.216 C 149.868 135.207,149.489 135.482,149.145 135.827 M203.552 137.700 C 203.056 138.415,201.832 140.161,200.832 141.581 C 199.832 143.001,199.214 144.038,199.459 143.887 C 199.973 143.570,204.943 136.400,204.649 136.400 C 204.542 136.400,204.049 136.985,203.552 137.700 M268.593 137.300 C 268.493 137.575,268.364 149.140,268.306 163.000 C 268.210 185.834,268.136 188.316,267.520 189.441 C 265.672 192.815,261.361 193.335,258.548 190.522 C 257.743 189.717,257.304 189.447,257.552 189.910 C 259.183 192.958,263.646 193.656,266.444 191.302 C 268.634 189.459,268.585 190.049,268.800 162.800 L 269.000 137.400 274.400 137.182 L 279.800 136.964 274.287 136.882 C 270.180 136.821,268.729 136.927,268.593 137.300 M188.752 138.500 C 188.256 139.215,187.032 140.961,186.032 142.381 C 185.032 143.801,184.440 144.822,184.717 144.652 C 185.253 144.320,190.146 137.200,189.838 137.200 C 189.737 137.200,189.249 137.785,188.752 138.500 M127.867 137.867 C 127.362 138.371,127.562 153.002,128.080 153.520 C 128.424 153.864,131.001 154.000,137.147 154.000 C 148.099 154.000,147.777 153.462,136.667 153.200 L 128.200 153.000 128.200 145.300 C 128.200 141.064,128.185 137.599,128.167 137.600 C 128.148 137.600,128.013 137.720,127.867 137.867 M166.163 143.622 C 167.450 145.480,168.776 147.270,169.110 147.600 C 169.443 147.930,168.589 146.532,167.210 144.494 C 165.832 142.456,164.506 140.666,164.264 140.516 C 164.022 140.367,164.877 141.764,166.163 143.622 M180.443 143.600 C 182.731 147.106,183.080 147.334,183.960 145.900 C 184.508 145.009,184.505 145.008,183.678 145.742 C 182.852 146.477,182.829 146.464,181.522 144.584 C 179.362 141.479,178.610 140.793,180.443 143.600 M197.498 146.300 C 195.302 149.347,193.435 152.251,194.092 151.600 C 194.899 150.800,199.322 144.400,199.067 144.400 C 198.958 144.400,198.252 145.255,197.498 146.300 M172.608 152.709 L 175.658 157.217 173.763 159.873 C 172.720 161.334,172.078 162.399,172.336 162.240 C 172.593 162.081,173.535 160.874,174.428 159.559 L 176.052 157.167 173.821 153.883 C 172.594 152.078,171.133 150.060,170.574 149.400 C 170.015 148.740,170.930 150.229,172.608 152.709 M191.892 154.230 C 189.902 157.050,189.887 157.270,191.531 159.462 C 192.339 160.539,193.720 162.539,194.600 163.906 C 195.480 165.274,196.339 166.395,196.509 166.397 C 196.817 166.400,193.063 160.805,191.339 158.689 C 190.289 157.401,190.388 156.946,192.297 154.300 C 193.051 153.255,193.559 152.400,193.426 152.400 C 193.293 152.400,192.602 153.224,191.892 154.230 M146.663 154.673 C 147.137 155.073,147.901 156.030,148.361 156.800 C 148.821 157.570,149.197 158.020,149.197 157.800 C 149.197 157.005,147.622 154.841,146.721 154.399 L 145.800 153.946 146.663 154.673 M148.613 161.561 C 148.469 162.012,147.692 162.926,146.885 163.591 C 146.078 164.256,145.605 164.800,145.833 164.800 C 146.721 164.800,149.571 161.438,149.091 160.957 C 148.971 160.838,148.756 161.109,148.613 161.561 M169.910 165.300 C 166.563 170.053,166.244 170.543,166.674 170.278 C 167.169 169.972,172.140 162.800,171.857 162.800 C 171.754 162.800,170.878 163.925,169.910 165.300 M128.040 165.352 C 127.723 165.734,127.615 168.223,127.691 173.452 L 127.800 181.000 137.000 181.015 L 146.200 181.031 137.200 180.815 L 128.200 180.600 128.200 173.000 L 128.200 165.400 136.800 165.188 L 145.400 164.976 136.949 164.888 C 130.171 164.817,128.407 164.909,128.040 165.352 M181.822 168.700 L 181.153 169.800 181.940 168.900 C 183.049 167.634,183.188 167.708,185.186 170.639 C 186.168 172.080,187.135 173.360,187.334 173.483 C 187.533 173.606,186.769 172.333,185.636 170.653 C 183.389 167.323,182.834 167.039,181.822 168.700 M199.588 170.946 C 200.759 172.640,201.903 174.140,202.129 174.280 C 202.355 174.420,201.583 173.148,200.412 171.454 C 199.241 169.760,198.097 168.260,197.871 168.120 C 197.645 167.980,198.417 169.252,199.588 170.946 M180.319 170.700 C 179.396 171.767,175.412 177.885,176.086 177.200 C 176.838 176.435,181.310 170.000,181.090 170.000 C 180.998 170.000,180.652 170.315,180.319 170.700 M165.518 171.500 C 165.184 171.885,163.761 173.887,162.356 175.949 C 160.950 178.010,159.035 180.798,158.100 182.143 C 157.165 183.488,156.400 184.750,156.400 184.946 C 156.400 185.142,157.291 183.975,158.380 182.351 C 159.469 180.728,161.726 177.465,163.394 175.100 C 166.216 171.100,166.968 169.825,165.518 171.500 M205.762 179.710 C 209.894 185.725,210.279 187.637,207.956 190.609 L 206.713 192.200 208.156 190.706 C 209.581 189.232,209.834 188.387,209.624 185.819 C 209.535 184.731,203.719 175.568,202.729 174.956 C 202.506 174.818,203.871 176.958,205.762 179.710 M191.686 179.900 C 193.041 181.825,195.114 184.789,196.293 186.487 C 197.471 188.185,198.637 189.699,198.884 189.852 C 199.131 190.005,198.127 188.436,196.652 186.365 C 195.177 184.294,193.032 181.209,191.885 179.509 C 190.738 177.809,189.670 176.414,189.511 176.409 C 189.351 176.404,190.330 177.975,191.686 179.900 M172.260 182.117 C 170.753 184.363,169.790 185.930,170.120 185.600 C 171.079 184.640,175.608 177.998,175.289 178.017 C 175.130 178.027,173.767 179.872,172.260 182.117 M147.904 181.998 C 148.621 182.435,149.565 183.379,150.002 184.096 C 150.439 184.813,150.798 185.154,150.799 184.853 C 150.799 184.552,150.101 183.607,149.247 182.753 C 148.393 181.899,147.448 181.201,147.147 181.201 C 146.846 181.202,147.187 181.561,147.904 181.998 M156.093 186.800 C 156.093 187.570,156.175 187.885,156.276 187.500 C 156.376 187.115,156.376 186.485,156.276 186.100 C 156.175 185.715,156.093 186.030,156.093 186.800 M167.534 188.776 C 165.422 191.671,164.505 192.206,161.703 192.178 C 160.027 192.161,159.744 192.237,160.465 192.508 C 163.009 193.465,165.763 192.094,168.044 188.735 C 170.110 185.694,169.762 185.722,167.534 188.776 M116.415 188.800 C 116.426 189.454,117.499 191.048,117.741 190.771 C 117.823 190.677,117.556 190.060,117.147 189.400 C 116.739 188.740,116.409 188.470,116.415 188.800 M149.911 189.626 C 149.540 190.272,149.380 190.800,149.554 190.800 C 149.883 190.800,150.924 188.791,150.707 188.574 C 150.640 188.507,150.282 188.980,149.911 189.626 M156.400 188.689 C 156.400 188.921,156.771 189.536,157.224 190.056 L 158.047 191.000 157.345 189.800 C 156.420 188.221,156.400 188.197,156.400 188.689 M220.754 189.913 C 221.789 191.848,224.617 193.073,227.011 192.624 C 228.378 192.368,231.200 190.293,231.200 189.545 C 231.200 189.341,230.581 189.793,229.824 190.550 C 227.394 192.979,224.195 192.968,221.748 190.522 C 220.936 189.709,220.502 189.444,220.754 189.913 M200.200 191.413 C 201.687 192.632,203.658 193.036,205.328 192.464 L 206.600 192.029 205.334 192.239 C 203.558 192.533,201.416 192.061,200.451 191.162 C 200.001 190.743,199.491 190.406,199.317 190.414 C 199.143 190.422,199.540 190.872,200.200 191.413 M118.811 191.900 C 119.707 192.534,121.101 192.600,133.600 192.600 C 146.099 192.600,147.493 192.534,148.389 191.900 C 148.933 191.515,149.194 191.200,148.969 191.200 C 148.744 191.200,148.335 191.425,148.060 191.700 C 147.679 192.081,144.235 192.200,133.600 192.200 C 122.965 192.200,119.521 192.081,119.140 191.700 C 118.865 191.425,118.456 191.200,118.231 191.200 C 118.006 191.200,118.267 191.515,118.811 191.900 M304.487 303.072 C 315.041 307.948,315.282 322.496,304.894 327.659 L 303.000 328.600 270.800 328.600 L 238.600 328.600 236.647 327.631 C 230.872 324.766,227.233 317.135,229.250 312.119 C 230.842 308.160,232.263 306.081,234.385 304.610 C 238.287 301.906,236.841 302.004,271.400 302.107 C 302.516 302.200,302.605 302.202,304.487 303.072 " stroke="none" fill="#c4ebfb" fill-rule="evenodd"></path><path id="path3" d="M145.882 243.889 C 140.722 245.609,139.458 248.355,139.200 258.400 L 139.000 266.200 137.400 266.171 C 135.708 266.141,119.966 265.256,99.000 264.012 C 95.260 263.790,88.870 263.426,84.800 263.202 C 80.730 262.978,74.520 262.612,71.000 262.388 C 64.209 261.957,56.586 261.510,44.200 260.816 C 40.020 260.582,32.280 260.132,27.000 259.816 C 21.720 259.501,15.352 259.126,12.849 258.984 L 8.298 258.726 8.518 259.863 C 8.638 260.488,8.816 261.270,8.912 261.600 C 9.009 261.930,9.227 262.969,9.397 263.909 C 9.566 264.849,9.861 265.714,10.053 265.832 C 10.244 265.951,10.400 266.397,10.400 266.824 C 10.400 267.251,10.541 267.600,10.713 267.600 C 10.885 267.600,11.066 268.095,11.116 268.700 C 11.166 269.305,11.385 269.860,11.603 269.933 C 11.822 270.007,12.000 270.391,12.000 270.788 C 12.000 271.184,12.261 272.011,12.580 272.626 C 12.898 273.240,13.068 273.891,12.956 274.071 C 12.844 274.252,12.943 274.400,13.176 274.400 C 13.409 274.400,13.600 274.760,13.600 275.200 C 13.600 275.640,13.780 276.000,14.000 276.000 C 14.220 276.000,14.400 276.450,14.400 277.000 C 14.400 277.550,14.580 278.000,14.800 278.000 C 15.020 278.000,15.200 278.450,15.200 279.000 C 15.200 279.550,15.380 280.000,15.600 280.000 C 15.820 280.000,16.000 280.360,16.000 280.800 C 16.000 281.240,16.180 281.600,16.400 281.600 C 16.620 281.600,16.800 281.872,16.800 282.205 C 16.800 282.538,16.968 283.123,17.174 283.505 C 17.379 283.887,17.783 284.785,18.071 285.500 C 18.360 286.215,18.731 286.800,18.898 286.800 C 19.064 286.800,19.200 287.053,19.200 287.362 C 19.200 288.028,20.868 291.341,21.300 291.533 C 21.465 291.607,21.600 292.012,21.600 292.433 C 21.600 292.855,21.780 293.200,22.000 293.200 C 22.220 293.200,22.400 293.478,22.400 293.817 C 22.400 294.156,22.760 294.820,23.200 295.292 C 23.640 295.764,24.000 296.387,24.000 296.675 C 24.000 296.964,24.180 297.200,24.400 297.200 C 24.620 297.200,24.800 297.560,24.800 298.000 C 24.800 298.440,25.010 298.800,25.267 298.800 C 25.523 298.800,25.617 298.917,25.474 299.059 C 25.203 299.330,26.779 302.502,27.300 302.733 C 27.465 302.807,27.600 303.088,27.600 303.358 C 27.600 303.628,27.915 304.198,28.300 304.625 C 28.685 305.051,29.269 305.940,29.597 306.600 C 29.926 307.260,30.511 308.091,30.897 308.447 C 31.284 308.803,31.600 309.398,31.600 309.771 C 31.600 310.143,31.780 310.336,32.000 310.200 C 32.220 310.064,32.400 310.248,32.400 310.608 C 32.400 311.110,32.657 311.212,33.500 311.041 C 34.571 310.825,40.859 310.449,57.600 309.601 C 62.110 309.372,69.040 309.004,73.000 308.783 C 76.960 308.562,87.130 308.031,95.600 307.603 C 104.070 307.176,117.048 306.521,124.441 306.148 C 131.833 305.774,138.182 305.584,138.548 305.725 C 139.139 305.951,139.210 306.832,139.179 313.490 C 139.151 319.288,139.278 321.319,139.735 322.400 C 142.049 327.870,148.979 330.174,154.176 327.201 C 154.849 326.816,160.350 323.668,166.400 320.207 C 172.450 316.745,178.210 313.461,179.200 312.907 C 180.190 312.354,181.630 311.518,182.400 311.051 C 183.170 310.583,184.626 309.750,185.635 309.200 C 194.129 304.569,210.822 294.708,212.196 293.508 C 215.500 290.623,216.506 286.184,214.773 282.133 C 213.370 278.854,213.458 278.917,197.400 269.601 C 193.229 267.181,178.393 258.580,177.400 258.006 C 176.740 257.624,175.210 256.721,174.000 256.000 C 172.790 255.279,171.215 254.353,170.500 253.944 C 167.698 252.340,166.377 251.577,160.214 248.005 C 151.409 242.901,150.031 242.506,145.882 243.889 " stroke="none" fill="#fb5c64" fill-rule="evenodd"></path><path id="path4" d="M178.300 0.275 C 176.375 0.361,174.800 0.604,174.800 0.816 C 174.800 1.027,173.461 1.200,171.824 1.200 C 170.187 1.200,168.736 1.380,168.600 1.600 C 168.464 1.820,167.564 2.000,166.600 2.000 C 165.636 2.000,164.736 2.180,164.600 2.400 C 164.464 2.620,163.373 2.800,162.176 2.800 C 160.979 2.800,160.000 2.980,160.000 3.200 C 160.000 3.420,159.201 3.600,158.224 3.600 C 157.247 3.600,156.336 3.780,156.200 4.000 C 156.064 4.220,155.243 4.400,154.376 4.400 C 153.509 4.400,152.800 4.580,152.800 4.800 C 152.800 5.020,152.080 5.200,151.200 5.200 C 150.320 5.200,149.600 5.380,149.600 5.600 C 149.600 5.820,148.981 6.000,148.224 6.000 C 147.467 6.000,146.736 6.180,146.600 6.400 C 146.464 6.620,145.823 6.800,145.176 6.800 C 144.529 6.800,144.000 6.980,144.000 7.200 C 144.000 7.420,143.370 7.600,142.600 7.600 C 141.830 7.600,141.200 7.741,141.200 7.914 C 141.200 8.087,140.165 8.451,138.900 8.724 C 137.635 8.997,136.105 9.326,135.500 9.455 C 134.895 9.585,134.400 9.850,134.400 10.045 C 134.400 10.240,134.048 10.400,133.619 10.400 C 133.189 10.400,132.334 10.602,131.719 10.850 C 131.103 11.097,130.150 11.478,129.600 11.696 C 129.050 11.915,128.287 12.252,127.905 12.447 C 127.523 12.641,126.848 12.800,126.405 12.800 C 125.962 12.800,125.600 12.980,125.600 13.200 C 125.600 13.420,125.240 13.600,124.800 13.600 C 124.360 13.600,124.000 13.780,124.000 14.000 C 124.000 14.220,123.561 14.400,123.024 14.400 C 122.487 14.400,121.936 14.580,121.800 14.800 C 121.664 15.020,121.203 15.200,120.776 15.200 C 120.349 15.200,120.000 15.336,120.000 15.502 C 120.000 15.772,119.311 16.113,116.600 17.183 C 114.794 17.896,111.733 19.410,110.738 20.082 C 110.154 20.477,109.370 20.800,108.995 20.800 C 108.539 20.800,108.394 21.008,108.557 21.433 C 108.691 21.781,108.800 22.141,108.800 22.233 C 108.800 22.896,291.433 22.353,291.483 21.690 C 291.520 21.197,290.875 20.677,289.370 19.990 C 288.178 19.445,287.202 18.865,287.201 18.700 C 287.201 18.535,286.928 18.400,286.595 18.400 C 286.007 18.400,285.582 18.233,283.705 17.262 C 283.213 17.008,282.538 16.800,282.205 16.800 C 281.872 16.800,281.600 16.620,281.600 16.400 C 281.600 16.180,281.240 16.000,280.800 16.000 C 280.360 16.000,280.000 15.820,280.000 15.600 C 280.000 15.380,279.651 15.200,279.224 15.200 C 278.797 15.200,278.336 15.020,278.200 14.800 C 278.064 14.580,277.513 14.400,276.976 14.400 C 276.439 14.400,276.000 14.220,276.000 14.000 C 276.000 13.780,275.640 13.600,275.200 13.600 C 274.760 13.600,274.400 13.420,274.400 13.200 C 274.400 12.980,274.038 12.800,273.595 12.800 C 273.152 12.800,272.477 12.641,272.095 12.447 C 271.713 12.252,270.860 11.871,270.200 11.600 C 269.540 11.329,268.687 10.948,268.305 10.753 C 267.923 10.559,267.336 10.400,267.000 10.400 C 266.664 10.400,266.077 10.242,265.695 10.049 C 264.310 9.350,261.995 8.756,261.602 8.999 C 261.381 9.135,261.200 9.057,261.200 8.824 C 261.200 8.591,260.660 8.400,260.000 8.400 C 259.340 8.400,258.800 8.220,258.800 8.000 C 258.800 7.780,258.170 7.600,257.400 7.600 C 256.630 7.600,256.000 7.420,256.000 7.200 C 256.000 6.980,255.471 6.800,254.824 6.800 C 254.177 6.800,253.536 6.620,253.400 6.400 C 253.264 6.180,252.533 6.000,251.776 6.000 C 251.019 6.000,250.400 5.820,250.400 5.600 C 250.400 5.380,249.680 5.200,248.800 5.200 C 247.920 5.200,247.200 5.020,247.200 4.800 C 247.200 4.580,246.491 4.400,245.624 4.400 C 244.757 4.400,243.936 4.220,243.800 4.000 C 243.664 3.780,242.753 3.600,241.776 3.600 C 240.799 3.600,240.000 3.420,240.000 3.200 C 240.000 2.980,239.111 2.800,238.024 2.800 C 236.937 2.800,235.936 2.620,235.800 2.400 C 235.664 2.180,234.584 2.000,233.400 2.000 C 232.216 2.000,231.136 1.820,231.000 1.600 C 230.864 1.380,229.518 1.200,228.010 1.200 C 226.193 1.200,225.211 1.034,225.103 0.708 C 224.941 0.222,187.291 -0.126,178.300 0.275 M30.861 91.547 C 30.388 91.958,30.000 92.420,30.000 92.575 C 30.000 92.729,29.460 93.641,28.800 94.600 C 28.140 95.559,27.600 96.537,27.600 96.772 C 27.600 97.007,27.390 97.200,27.133 97.200 C 26.877 97.200,26.771 97.305,26.899 97.433 C 27.027 97.560,26.684 98.325,26.136 99.133 C 25.588 99.940,25.041 101.095,24.920 101.700 C 24.799 102.305,24.543 102.800,24.350 102.800 C 24.157 102.800,24.000 103.036,24.000 103.325 C 24.000 103.613,23.640 104.236,23.200 104.708 C 22.760 105.180,22.400 105.844,22.400 106.183 C 22.400 106.522,22.220 106.800,22.000 106.800 C 21.780 106.800,21.600 107.160,21.600 107.600 C 21.600 108.040,21.420 108.400,21.200 108.400 C 20.980 108.400,20.800 108.745,20.800 109.167 C 20.800 109.588,20.665 109.993,20.500 110.067 C 20.005 110.287,17.600 115.254,17.600 116.056 C 17.600 116.465,17.420 116.800,17.200 116.800 C 16.980 116.800,16.800 117.160,16.800 117.600 C 16.800 118.040,16.620 118.400,16.400 118.400 C 16.180 118.400,16.000 118.760,16.000 119.200 C 16.000 119.640,15.820 120.000,15.600 120.000 C 15.380 120.000,15.200 120.349,15.200 120.776 C 15.200 121.203,15.020 121.664,14.800 121.800 C 14.580 121.936,14.400 122.487,14.400 123.024 C 14.400 123.561,14.220 124.000,14.000 124.000 C 13.780 124.000,13.600 124.360,13.600 124.800 C 13.600 125.240,13.420 125.600,13.200 125.600 C 12.980 125.600,12.800 126.039,12.800 126.576 C 12.800 127.113,12.620 127.664,12.400 127.800 C 12.180 127.936,12.000 128.487,12.000 129.024 C 12.000 129.561,11.859 130.000,11.687 130.000 C 11.515 130.000,11.125 130.855,10.820 131.900 C 10.515 132.945,10.127 134.070,9.957 134.400 C 9.618 135.058,9.058 137.126,9.016 137.872 C 9.002 138.131,8.857 138.476,8.695 138.638 C 8.533 138.801,8.400 139.544,8.400 140.290 C 8.400 141.093,8.237 141.546,8.000 141.400 C 7.762 141.253,7.600 141.729,7.600 142.576 C 7.600 143.359,7.420 144.000,7.200 144.000 C 6.980 144.000,6.800 144.529,6.800 145.176 C 6.800 145.823,6.620 146.464,6.400 146.600 C 6.180 146.736,6.000 147.467,6.000 148.224 C 6.000 148.981,5.820 149.600,5.600 149.600 C 5.380 149.600,5.200 150.320,5.200 151.200 C 5.200 152.080,5.020 152.800,4.800 152.800 C 4.580 152.800,4.400 153.509,4.400 154.376 C 4.400 155.243,4.220 156.064,4.000 156.200 C 3.780 156.336,3.600 157.247,3.600 158.224 C 3.600 159.201,3.420 160.000,3.200 160.000 C 2.980 160.000,2.800 160.990,2.800 162.200 C 2.800 163.410,2.620 164.400,2.400 164.400 C 2.180 164.400,2.000 165.379,2.000 166.576 C 2.000 167.773,1.820 168.864,1.600 169.000 C 1.380 169.136,1.200 170.482,1.200 171.990 C 1.200 173.829,1.035 174.788,0.700 174.900 C -0.032 175.144,-0.032 224.856,0.700 225.100 C 1.035 225.212,1.200 226.171,1.200 228.010 C 1.200 229.518,1.380 230.864,1.600 231.000 C 1.820 231.136,2.000 232.126,2.000 233.200 C 2.000 234.274,2.180 235.264,2.400 235.400 C 2.620 235.536,2.800 236.627,2.800 237.824 C 2.800 239.021,2.980 240.000,3.200 240.000 C 3.420 240.000,3.600 240.684,3.600 241.520 C 3.600 242.356,3.770 243.211,3.979 243.420 C 4.187 243.629,4.402 244.565,4.457 245.500 C 4.512 246.435,4.701 247.200,4.878 247.200 C 5.055 247.200,5.200 247.920,5.200 248.800 C 5.200 249.680,5.380 250.400,5.600 250.400 C 5.820 250.400,6.000 251.019,6.000 251.776 C 6.000 252.533,6.180 253.264,6.400 253.400 C 6.620 253.536,6.800 254.177,6.800 254.824 C 6.800 255.471,6.980 256.000,7.200 256.000 C 7.420 256.000,7.600 256.612,7.600 257.360 L 7.600 258.719 12.700 258.976 C 15.505 259.117,20.354 259.405,23.475 259.616 C 26.596 259.827,29.926 260.000,30.875 260.000 L 32.600 260.000 32.498 175.400 C 32.442 128.870,32.245 90.800,32.059 90.800 C 31.874 90.800,31.335 91.136,30.861 91.547 M367.600 200.200 C 367.600 260.370,367.698 309.600,367.818 309.600 C 368.087 309.600,370.000 307.710,370.000 307.445 C 370.000 307.097,372.589 303.006,372.999 302.706 C 373.219 302.544,373.270 302.409,373.112 302.406 C 372.954 302.403,373.282 301.725,373.842 300.900 C 374.402 300.075,374.959 298.905,375.080 298.300 C 375.201 297.695,375.457 297.200,375.650 297.200 C 375.843 297.200,376.000 296.964,376.000 296.675 C 376.000 296.387,376.360 295.764,376.800 295.292 C 377.240 294.820,377.600 294.156,377.600 293.817 C 377.600 293.478,377.780 293.200,378.000 293.200 C 378.220 293.200,378.400 292.840,378.400 292.400 C 378.400 291.960,378.580 291.600,378.800 291.600 C 379.020 291.600,379.200 291.313,379.200 290.962 C 379.200 290.611,379.523 289.846,379.918 289.262 C 380.313 288.678,381.052 287.300,381.562 286.200 C 382.071 285.100,382.648 283.887,382.844 283.505 C 383.040 283.123,383.200 282.538,383.200 282.205 C 383.200 281.872,383.380 281.600,383.600 281.600 C 383.820 281.600,384.000 281.240,384.000 280.800 C 384.000 280.360,384.180 280.000,384.400 280.000 C 384.620 280.000,384.800 279.651,384.800 279.224 C 384.800 278.797,384.980 278.336,385.200 278.200 C 385.420 278.064,385.600 277.513,385.600 276.976 C 385.600 276.439,385.780 276.000,386.000 276.000 C 386.220 276.000,386.400 275.640,386.400 275.200 C 386.400 274.760,386.580 274.400,386.800 274.400 C 387.020 274.400,387.200 273.961,387.200 273.424 C 387.200 272.887,387.380 272.336,387.600 272.200 C 387.820 272.064,388.000 271.513,388.000 270.976 C 388.000 270.439,388.141 270.000,388.313 270.000 C 388.485 270.000,388.871 269.145,389.171 268.100 C 389.471 267.055,389.846 266.020,390.004 265.800 C 390.162 265.580,390.302 265.130,390.316 264.800 C 390.330 264.470,390.617 263.480,390.953 262.600 C 391.290 261.720,391.573 260.404,391.582 259.676 C 391.592 258.948,391.743 258.441,391.917 258.549 C 392.091 258.656,392.277 258.172,392.330 257.472 C 392.382 256.773,392.600 256.140,392.813 256.067 C 393.026 255.993,393.200 255.419,393.200 254.790 C 393.200 254.162,393.380 253.536,393.600 253.400 C 393.820 253.264,394.000 252.533,394.000 251.776 C 394.000 251.019,394.180 250.400,394.400 250.400 C 394.620 250.400,394.800 249.680,394.800 248.800 C 394.800 247.920,394.945 247.200,395.122 247.200 C 395.299 247.200,395.488 246.435,395.543 245.500 C 395.598 244.565,395.813 243.629,396.021 243.420 C 396.230 243.211,396.400 242.356,396.400 241.520 C 396.400 240.684,396.580 240.000,396.800 240.000 C 397.020 240.000,397.200 239.010,397.200 237.800 C 397.200 236.590,397.380 235.600,397.600 235.600 C 397.820 235.600,398.000 234.621,398.000 233.424 C 398.000 232.227,398.180 231.136,398.400 231.000 C 398.620 230.864,398.800 229.518,398.800 228.010 C 398.800 226.171,398.965 225.212,399.300 225.100 C 400.032 224.856,400.032 175.144,399.300 174.900 C 398.965 174.788,398.800 173.829,398.800 171.990 C 398.800 170.482,398.620 169.136,398.400 169.000 C 398.180 168.864,398.000 167.773,398.000 166.576 C 398.000 165.379,397.820 164.400,397.600 164.400 C 397.380 164.400,397.200 163.410,397.200 162.200 C 397.200 160.990,397.020 160.000,396.800 160.000 C 396.580 160.000,396.400 159.201,396.400 158.224 C 396.400 157.247,396.220 156.336,396.000 156.200 C 395.780 156.064,395.600 155.243,395.600 154.376 C 395.600 153.509,395.420 152.800,395.200 152.800 C 394.980 152.800,394.800 152.080,394.800 151.200 C 394.800 150.320,394.620 149.600,394.400 149.600 C 394.180 149.600,394.000 148.981,394.000 148.224 C 394.000 147.467,393.820 146.736,393.600 146.600 C 393.380 146.464,393.200 145.838,393.200 145.210 C 393.200 144.581,393.026 144.007,392.813 143.933 C 392.600 143.860,392.382 143.227,392.330 142.528 C 392.277 141.828,392.091 141.344,391.917 141.451 C 391.743 141.559,391.592 141.052,391.582 140.324 C 391.573 139.596,391.290 138.280,390.953 137.400 C 390.617 136.520,390.330 135.530,390.316 135.200 C 390.302 134.870,390.162 134.420,390.004 134.200 C 389.846 133.980,389.471 132.945,389.171 131.900 C 388.871 130.855,388.485 130.000,388.313 130.000 C 388.141 130.000,388.000 129.661,388.000 129.246 C 388.000 128.831,387.739 127.989,387.420 127.374 C 387.102 126.760,386.950 126.082,387.082 125.867 C 387.216 125.650,387.118 125.604,386.862 125.762 C 386.559 125.949,386.400 125.695,386.400 125.024 C 386.400 124.461,386.220 124.000,386.000 124.000 C 385.780 124.000,385.600 123.561,385.600 123.024 C 385.600 122.487,385.420 121.936,385.200 121.800 C 384.980 121.664,384.800 121.203,384.800 120.776 C 384.800 120.349,384.620 120.000,384.400 120.000 C 384.180 120.000,384.000 119.640,384.000 119.200 C 384.000 118.760,383.820 118.400,383.600 118.400 C 383.380 118.400,383.200 118.128,383.200 117.795 C 383.200 117.462,382.992 116.787,382.738 116.295 C 381.767 114.418,381.600 113.993,381.600 113.405 C 381.600 113.072,381.446 112.800,381.257 112.800 C 381.068 112.800,380.487 111.810,379.964 110.600 C 379.442 109.390,378.876 108.400,378.707 108.400 C 378.538 108.400,378.400 108.040,378.400 107.600 C 378.400 107.160,378.220 106.800,378.000 106.800 C 377.780 106.800,377.600 106.522,377.600 106.183 C 377.600 105.844,377.240 105.180,376.800 104.708 C 376.360 104.236,376.000 103.613,376.000 103.325 C 376.000 103.036,375.843 102.800,375.650 102.800 C 375.457 102.800,375.201 102.305,375.080 101.700 C 374.959 101.095,374.412 99.940,373.864 99.133 C 373.316 98.325,372.973 97.560,373.101 97.433 C 373.229 97.305,373.123 97.200,372.867 97.200 C 372.610 97.200,372.400 97.007,372.400 96.772 C 372.400 96.537,371.820 95.502,371.112 94.472 C 370.404 93.442,369.875 92.541,369.938 92.470 C 370.106 92.278,368.336 90.800,367.939 90.800 C 367.752 90.800,367.600 140.030,367.600 200.200 M246.307 125.879 C 243.304 126.218,241.038 129.884,242.010 132.830 C 243.089 136.100,244.105 136.574,250.525 136.800 C 253.646 136.910,256.425 137.146,256.700 137.324 C 257.091 137.577,257.200 143.239,257.200 163.410 L 257.200 189.173 258.594 190.567 C 261.361 193.334,265.687 192.788,267.520 189.441 C 268.134 188.321,268.220 185.698,268.400 162.600 L 268.600 137.000 274.400 136.800 C 280.803 136.579,281.826 136.234,282.991 133.899 C 284.263 131.349,283.497 128.437,281.106 126.732 L 279.800 125.800 263.800 125.755 C 255.000 125.730,247.128 125.786,246.307 125.879 M120.848 126.450 C 116.128 127.846,116.400 125.840,116.400 159.226 C 116.400 191.333,116.302 190.156,119.112 191.660 C 120.582 192.446,146.618 192.446,148.088 191.660 C 150.477 190.382,151.469 186.503,150.018 184.122 C 148.425 181.510,148.041 181.421,137.419 181.200 L 127.800 181.000 127.691 173.452 C 127.553 163.886,126.579 164.800,136.911 164.800 C 145.315 164.800,145.326 164.799,146.663 163.779 C 149.222 161.827,149.842 159.280,148.361 156.800 C 146.692 154.005,146.746 154.019,137.149 154.009 C 126.542 153.998,127.553 154.923,127.691 145.348 L 127.800 137.800 137.200 137.600 C 145.188 137.430,146.795 137.294,147.896 136.692 C 151.738 134.593,151.585 128.882,147.634 126.914 C 145.959 126.080,123.421 125.689,120.848 126.450 M161.065 127.362 C 157.614 130.813,157.787 131.214,170.388 149.000 C 171.635 150.760,173.424 153.311,174.363 154.669 L 176.072 157.138 174.441 159.469 C 171.484 163.696,167.796 168.925,164.049 174.200 C 155.680 185.981,155.475 186.446,157.251 189.605 C 158.316 191.500,159.598 192.200,162.000 192.200 C 165.165 192.200,165.385 191.992,171.509 183.200 C 173.119 180.890,174.672 178.713,174.961 178.362 C 175.250 178.011,176.262 176.571,177.210 175.162 C 180.370 170.464,182.595 167.600,183.083 167.600 C 183.349 167.600,184.789 169.421,186.283 171.646 C 187.777 173.872,189.190 175.897,189.423 176.146 C 189.656 176.396,190.736 177.889,191.823 179.464 C 199.715 190.897,200.461 191.772,202.664 192.186 C 206.479 192.901,209.209 190.651,209.188 186.809 C 209.176 184.664,209.058 184.431,205.123 178.800 C 202.894 175.610,200.074 171.560,198.856 169.800 C 197.639 168.040,196.529 166.510,196.389 166.400 C 196.250 166.290,195.176 164.760,194.002 163.000 C 192.829 161.240,191.464 159.310,190.969 158.711 C 189.875 157.386,190.018 156.720,191.940 154.168 C 192.756 153.085,194.418 150.760,195.635 149.000 C 196.852 147.240,199.565 143.370,201.664 140.400 C 207.167 132.613,207.420 131.982,206.209 129.082 C 205.339 127.001,203.705 126.000,201.176 126.000 C 198.345 126.000,197.299 126.865,193.623 132.245 C 191.986 134.640,190.531 136.690,190.390 136.800 C 190.248 136.910,188.978 138.687,187.566 140.748 C 183.682 146.422,183.416 146.790,183.200 146.789 C 182.687 146.786,181.983 145.978,180.076 143.200 C 178.943 141.550,176.923 138.670,175.588 136.800 C 174.253 134.930,172.275 132.111,171.193 130.536 C 167.773 125.560,164.037 124.389,161.065 127.362 M223.000 126.486 C 221.948 127.093,221.426 127.630,220.863 128.682 C 220.524 129.315,220.400 137.539,220.400 159.360 L 220.400 189.173 221.794 190.567 C 224.193 192.967,227.414 192.960,229.824 190.550 L 231.200 189.173 231.200 159.360 C 231.200 129.372,231.172 128.715,229.829 127.371 C 228.452 125.995,224.694 125.508,223.000 126.486 M149.633 242.943 C 149.725 243.021,150.430 243.201,151.200 243.342 C 152.185 243.523,152.422 243.482,152.000 243.206 C 151.458 242.850,149.237 242.603,149.633 242.943 M141.375 246.500 L 140.200 247.800 141.500 246.625 C 142.712 245.530,142.984 245.200,142.675 245.200 C 142.606 245.200,142.021 245.785,141.375 246.500 M65.900 261.882 C 66.395 261.978,67.205 261.978,67.700 261.882 C 68.195 261.787,67.790 261.709,66.800 261.709 C 65.810 261.709,65.405 261.787,65.900 261.882 M80.105 262.687 C 80.714 262.779,81.614 262.777,82.105 262.682 C 82.597 262.587,82.100 262.511,81.000 262.514 C 79.900 262.517,79.497 262.595,80.105 262.687 M93.705 263.487 C 94.314 263.579,95.214 263.577,95.705 263.482 C 96.197 263.387,95.700 263.311,94.600 263.314 C 93.500 263.317,93.097 263.395,93.705 263.487 M97.900 263.882 C 98.395 263.978,99.205 263.978,99.700 263.882 C 100.195 263.787,99.790 263.709,98.800 263.709 C 97.810 263.709,97.405 263.787,97.900 263.882 M107.705 264.287 C 108.314 264.379,109.214 264.377,109.705 264.282 C 110.197 264.187,109.700 264.111,108.600 264.114 C 107.500 264.117,107.097 264.195,107.705 264.287 M112.100 264.676 C 112.485 264.776,113.115 264.776,113.500 264.676 C 113.885 264.575,113.570 264.493,112.800 264.493 C 112.030 264.493,111.715 264.575,112.100 264.676 M121.100 265.082 C 121.595 265.178,122.405 265.178,122.900 265.082 C 123.395 264.987,122.990 264.909,122.000 264.909 C 121.010 264.909,120.605 264.987,121.100 265.082 M125.905 265.483 C 126.402 265.579,127.122 265.575,127.505 265.475 C 127.887 265.375,127.480 265.296,126.600 265.301 C 125.720 265.305,125.407 265.387,125.905 265.483 M135.100 265.882 C 135.595 265.978,136.405 265.978,136.900 265.882 C 137.395 265.787,136.990 265.709,136.000 265.709 C 135.010 265.709,134.605 265.787,135.100 265.882 M215.720 286.000 C 215.720 287.210,215.795 287.705,215.887 287.100 C 215.978 286.495,215.978 285.505,215.887 284.900 C 215.795 284.295,215.720 284.790,215.720 286.000 M135.105 305.883 C 135.602 305.979,136.322 305.975,136.705 305.875 C 137.087 305.775,136.680 305.696,135.800 305.701 C 134.920 305.705,134.607 305.787,135.105 305.883 M129.907 306.290 C 130.626 306.379,131.706 306.377,132.307 306.286 C 132.908 306.195,132.320 306.122,131.000 306.124 C 129.680 306.126,129.188 306.201,129.907 306.290 M119.505 306.683 C 120.002 306.779,120.722 306.775,121.105 306.675 C 121.487 306.575,121.080 306.496,120.200 306.501 C 119.320 306.505,119.007 306.587,119.505 306.683 M113.891 307.089 C 114.601 307.177,115.861 307.179,116.691 307.092 C 117.521 307.005,116.940 306.933,115.400 306.931 C 113.860 306.929,113.181 307.000,113.891 307.089 M103.505 307.483 C 104.002 307.579,104.722 307.575,105.105 307.475 C 105.487 307.375,105.080 307.296,104.200 307.301 C 103.320 307.305,103.007 307.387,103.505 307.483 M97.491 307.889 C 98.201 307.977,99.461 307.979,100.291 307.892 C 101.121 307.805,100.540 307.733,99.000 307.731 C 97.460 307.729,96.781 307.800,97.491 307.889 M88.100 308.276 C 88.485 308.376,89.115 308.376,89.500 308.276 C 89.885 308.175,89.570 308.093,88.800 308.093 C 88.030 308.093,87.715 308.175,88.100 308.276 M81.891 308.689 C 82.601 308.777,83.861 308.779,84.691 308.692 C 85.521 308.605,84.940 308.533,83.400 308.531 C 81.860 308.529,81.181 308.600,81.891 308.689 M72.900 309.076 C 73.285 309.176,73.915 309.176,74.300 309.076 C 74.685 308.975,74.370 308.893,73.600 308.893 C 72.830 308.893,72.515 308.975,72.900 309.076 M66.300 309.489 C 67.015 309.578,68.185 309.578,68.900 309.489 C 69.615 309.401,69.030 309.328,67.600 309.328 C 66.170 309.328,65.585 309.401,66.300 309.489 M138.528 316.400 C 138.528 317.830,138.601 318.415,138.689 317.700 C 138.778 316.985,138.778 315.815,138.689 315.100 C 138.601 314.385,138.528 314.970,138.528 316.400 M140.400 324.525 C 140.400 324.594,140.985 325.179,141.700 325.825 L 143.000 327.000 141.825 325.700 C 140.730 324.488,140.400 324.216,140.400 324.525 " stroke="none" fill="#f0f0e8" fill-rule="evenodd"></path></g></svg>