<svg width="80" height="80" viewBox="0 0 80 80" fill="none" xmlns="http://www.w3.org/2000/svg">
<rect width="80" height="80" rx="16" fill="#E6ECEF"/>
<g style="mix-blend-mode:soft-light">
<path d="M33.9594 38.0078C32.3732 38.0078 31.3776 37.0797 31.3776 35.6116C31.3776 35.1898 31.4957 34.616 31.7151 33.9917L38.3636 15.8855C39.0723 13.9112 40.2704 13 42.1941 13C44.1852 13 45.3664 13.8775 46.092 15.8686L52.7743 33.9917C53.0105 34.6498 53.0949 35.1054 53.0949 35.6116C53.0949 37.0122 52.0318 38.0078 50.5469 38.0078C49.1125 38.0078 48.3532 37.3497 47.8976 35.7635L46.6151 31.9161H37.8236L36.5411 35.7129C36.0687 37.3328 35.3093 38.0078 33.9594 38.0078ZM38.9373 27.9675H45.4339L42.2109 17.9948H42.0928L38.9373 27.9675Z" fill="white"/>
<path d="M22.4958 38.0078C20.8928 38.0078 19.9478 37.0291 19.9478 35.3585V28.5919L12.5231 17.1173C12.1519 16.5436 12 15.9699 12 15.3962C12 14.0125 13.08 13 14.548 13C15.6449 13 16.2355 13.405 16.9104 14.5693L22.479 23.7321H22.5971L28.1825 14.5693C28.8237 13.4556 29.4818 13 30.4943 13C31.9286 13 33.0086 14.0125 33.0086 15.3624C33.0086 15.953 32.8398 16.5099 32.4686 17.1005L25.0439 28.5919V35.3585C25.0439 37.0291 24.0989 38.0078 22.4958 38.0078Z" fill="white"/>
<path d="M44.8013 67.1358C43.1983 67.1358 42.2533 66.1571 42.2533 64.4866V44.7942C42.2533 43.1068 43.1983 42.1281 44.8013 42.1281C46.4044 42.1281 47.3493 43.1068 47.3493 44.7942V64.4866C47.3493 66.1571 46.4044 67.1358 44.8013 67.1358Z" fill="white"/>
<path d="M57.8114 59.728C56.3771 59.728 55.5334 58.7493 55.5334 57.3656V57.1293C55.5334 55.1382 56.5627 53.822 58.5539 52.6576C60.7307 51.3583 61.3888 50.5146 61.3888 48.9622C61.3888 47.3085 60.1064 46.161 58.2502 46.161C56.5965 46.161 55.4828 46.971 54.9428 48.4728C54.5209 49.5528 53.7616 50.0252 52.7323 50.0252C51.3992 50.0252 50.5724 49.1984 50.5724 47.916C50.5724 47.1904 50.7411 46.5491 51.0786 45.9079C52.1585 43.6805 54.8584 42.2462 58.4864 42.2462C63.2787 42.2462 66.5017 44.8786 66.5017 48.8103C66.5017 51.3583 65.2699 53.0964 62.8906 54.497C60.6463 55.7963 60.1401 56.5219 59.9207 57.9393C59.6676 59.0699 59.0095 59.728 57.8114 59.728ZM57.8452 67.2371C56.3265 67.2371 55.0947 66.0728 55.0947 64.5878C55.0947 63.1029 56.3265 61.9385 57.8452 61.9385C59.3808 61.9385 60.6126 63.1029 60.6126 64.5878C60.6126 66.0728 59.3808 67.2371 57.8452 67.2371Z" fill="white"/>
<path d="M22.4471 67.1358C20.8441 67.1358 19.8991 66.1571 19.8991 64.4866V44.7942C19.8991 43.1068 20.8441 42.1281 22.4471 42.1281C24.0502 42.1281 24.9952 43.1068 24.9952 44.7942V53.2314H25.147L34.3098 43.2249C35.0185 42.4487 35.6598 42.1281 36.5035 42.1281C37.8534 42.1281 38.8996 43.1574 38.8996 44.4736C38.8996 45.1823 38.6465 45.7392 38.0053 46.4141L31.2893 53.4507L38.5959 62.3266C39.3552 63.2716 39.6927 63.9972 39.6927 64.6891C39.6927 66.0728 38.6296 67.1527 37.2291 67.1527C36.1829 67.1527 35.4741 66.7646 34.681 65.7521L27.4251 56.8256L24.9952 59.3736V64.4866C24.9952 66.1571 24.0502 67.1358 22.4471 67.1358Z" fill="white"/>
</g>
</svg>
