<svg width="78" height="94" viewBox="0 0 78 94" fill="none" xmlns="http://www.w3.org/2000/svg">
<path d="M37 93.5C40 93.5 51 85.5 51 82L37 84C37 84 33.29 93.5 37 93.5Z" fill="#383452" fill-opacity="0.25"/>
<path d="M0 12C0 10.8954 0.895431 10 2 10H49C50.1046 10 51 10.8954 51 12V82C51 83.1046 50.1046 84 49 84H2C0.89543 84 0 83.1046 0 82V12Z" fill="#383452"/>
<path fill-rule="evenodd" clip-rule="evenodd" d="M77.7121 47.4999L56.8646 31.8643V39H28C26.8954 39 26 39.8954 26 41V55C26 56.1046 26.8954 57 28 57H56.8646V63.1356L77.7121 47.4999Z" fill="#FF936B"/>
<rect y="10" width="42" height="74" fill="black" fill-opacity="0.5"/>
<path d="M0 10.4442C0 9.51007 0.646591 8.70037 1.55755 8.49373L36.5575 0.554058C37.8089 0.270199 39 1.22139 39 2.5045V91.4955C39 92.7786 37.8089 93.7298 36.5575 93.4459L1.55755 85.5063C0.646591 85.2996 0 84.4899 0 83.5558V10.4442Z" fill="#9289C8"/>
<ellipse cx="33.5" cy="47.5" rx="2.5" ry="3.5" fill="#494466"/>
<ellipse cx="33.5" cy="47.5" rx="2.5" ry="3.5" fill="#494466"/>
<path opacity="0.25" d="M36 47.5C36 49.433 34.8807 51 33.5 51C33.5 51 34 49.433 34 47.5C34 45.567 33.5 44 33.5 44C34.8807 44 36 45.567 36 47.5Z" fill="black"/>
<path opacity="0.11" d="M6 7.48608V86.5141L1.55755 85.5064C0.646591 85.2997 0 84.49 0 83.5559V10.4443C0 9.51019 0.646591 8.70049 1.55755 8.49384L6 7.48608Z" fill="white"/>
</svg>
