<?xml version="1.0" encoding="UTF-8" standalone="no"?>
<svg
   version="1.1"
   id="Layer_1"
   x="0px"
   y="0px"
   width="100%"
   viewBox="0 0 512 512"
   enable-background="new 0 0 512 512"
   xml:space="preserve"
   sodipodi:docname="moon_adobe_express.svg"
   inkscape:version="1.2.2 (b0a8486, 2022-12-01)"
   xmlns:inkscape="http://www.inkscape.org/namespaces/inkscape"
   xmlns:sodipodi="http://sodipodi.sourceforge.net/DTD/sodipodi-0.dtd"
   xmlns="http://www.w3.org/2000/svg"
   xmlns:svg="http://www.w3.org/2000/svg"><defs
   id="defs72" /><sodipodi:namedview
   id="namedview70"
   pagecolor="#ffffff"
   bordercolor="#000000"
   borderopacity="0.25"
   inkscape:showpageshadow="2"
   inkscape:pageopacity="0.0"
   inkscape:pagecheckerboard="0"
   inkscape:deskcolor="#d1d1d1"
   showgrid="false"
   inkscape:zoom="0.4609375"
   inkscape:cx="257.08475"
   inkscape:cy="256"
   inkscape:window-width="1463"
   inkscape:window-height="456"
   inkscape:window-x="0"
   inkscape:window-y="25"
   inkscape:window-maximized="0"
   inkscape:current-layer="Layer_1" />

<path
   fill="#555A6E"
   opacity="1.000000"
   stroke="none"
   d=" M105.793335,69.744194   C116.998062,62.168964 127.733185,54.500103 138.935883,47.589191   C154.723145,37.850067 172.012268,31.439890 189.693619,25.989510   C217.614990,17.382572 246.305130,15.662721 275.163269,17.167692   C298.473358,18.383329 321.081726,23.949272 342.942657,32.156292   C366.301239,40.925568 387.667664,53.417210 407.205353,68.807434   C429.062592,86.024803 447.040009,106.888840 461.725311,130.504547   C477.112976,155.249710 487.132721,182.103210 493.082794,210.617996   C497.566010,232.103149 497.836182,253.830048 496.774109,275.486969   C495.672577,297.949066 490.395111,319.799225 482.512177,340.915588   C474.329803,362.833954 463.268219,383.197388 449.041260,401.809692   C436.540039,418.164337 422.373993,432.763031 406.176788,445.622955   C382.860443,464.135132 357.071167,477.608063 328.818512,486.558136   C313.397003,491.443451 297.678864,495.193695 281.462158,495.946777   C267.194794,496.609406 252.843735,497.612854 238.629089,496.776306   C216.013718,495.445312 194.054977,490.226440 172.728912,482.379913   C155.001968,475.857574 138.361649,467.171600 122.694229,456.810120   C113.508522,450.735199 105.258820,443.221588 96.726540,436.187195   C81.786751,423.870300 69.383774,409.165436 58.847237,393.083710   C51.116081,381.283813 43.843033,368.959290 38.226040,356.058594   C31.951275,341.647247 26.635302,326.591309 23.019920,311.314728   C19.589491,296.819611 18.101124,281.725342 17.184546,266.806976   C15.747911,243.424164 17.878271,220.226761 23.929783,197.456757   C30.582502,172.424591 40.418118,148.829025 54.508930,127.037270   C64.602226,111.427780 76.318474,97.142487 89.521164,84.102760   C94.574982,79.111320 100.179085,74.677040 105.793335,69.744194  M260.029327,49.073837   C241.095551,48.468483 222.478973,50.792603 204.242661,55.744553   C150.753067,70.269302 109.140862,101.125587 79.857582,148.081726   C58.385952,182.511765 47.991558,220.245163 49.084190,261.886658   C49.883484,292.483307 56.776512,321.629608 70.552330,348.975189   C111.251793,429.765259 194.394882,474.641083 284.434326,462.895050   C349.463226,454.411713 399.203888,420.791107 434.262817,365.511475   C436.262482,362.358459 437.433685,357.959412 437.207336,354.249054   C436.500244,342.657837 424.528809,336.700256 413.354675,342.197906   C395.381775,351.040558 376.625305,354.587280 356.643616,352.163788   C302.895752,345.644928 264.339783,293.110992 274.531525,240.035416   C286.703491,176.647232 353.483734,143.033020 411.666534,170.970261   C414.193878,172.183807 416.869171,173.454956 419.593353,173.819977   C426.096130,174.691269 431.440857,172.219025 434.970551,166.634979   C438.737701,160.675232 438.221863,154.607925 434.597015,148.717941   C416.711090,119.655060 393.246979,96.158997 363.964508,78.631485   C332.281219,59.666950 297.942413,49.728176 260.029327,49.073837  z"
   id="path57" />
<path
   fill="#A5C3DC"
   opacity="1.000000"
   stroke="none"
   d=" M260.954956,49.188629   C297.942413,49.728176 332.281219,59.666950 363.964508,78.631485   C393.246979,96.158997 416.711090,119.655060 434.597015,148.717941   C438.221863,154.607925 438.737701,160.675232 434.970551,166.634979   C431.440857,172.219025 426.096130,174.691269 419.593353,173.819977   C416.869171,173.454956 414.193878,172.183807 411.666534,170.970261   C353.483734,143.033020 286.703491,176.647232 274.531525,240.035416   C264.339783,293.110992 302.895752,345.644928 356.643616,352.163788   C376.625305,354.587280 395.381775,351.040558 413.354675,342.197906   C424.528809,336.700256 436.500244,342.657837 437.207336,354.249054   C437.433685,357.959412 436.262482,362.358459 434.262817,365.511475   C399.203888,420.791107 349.463226,454.411713 284.434326,462.895050   C194.394882,474.641083 111.251793,429.765259 70.552330,348.975189   C56.776512,321.629608 49.883484,292.483307 49.328487,261.716797   C53.639317,270.210114 60.283661,274.193542 68.038963,272.617828   C76.135117,270.972870 80.615875,264.598450 81.064751,254.926254   C81.427170,247.116943 81.990562,239.290451 83.003288,231.541962   C92.049751,162.326675 146.992661,101.598877 215.096405,86.297974   C228.654694,83.251831 242.750626,82.503662 256.635620,81.048775   C263.120789,80.369247 268.205841,77.965729 271.187836,72.070160   C273.983154,66.543709 273.770508,60.821220 269.919647,56.053078   C267.621552,53.207546 263.988129,51.440487 260.954956,49.188629  M231.471954,129.772903   C215.774429,127.016701 201.496033,134.501038 195.576965,148.588043   C189.868530,162.173828 194.150208,178.286636 205.934280,186.559113   C217.405365,194.611877 229.528885,195.467834 241.577286,188.142548   C253.042160,181.172012 258.280151,170.448349 256.586487,157.213684   C254.756927,142.917191 246.323578,133.751755 231.471954,129.772903  M192.009384,214.206955   C194.053574,205.944656 191.497375,199.046432 184.984375,195.249191   C179.048721,191.788528 171.478287,192.462952 166.454849,197.126984   C161.504715,201.723007 159.883865,207.392654 161.910950,213.897110   C163.839722,220.086105 169.525269,224.592514 175.953583,224.846786   C183.378860,225.140472 188.638702,221.690643 192.009384,214.206955  M201.653473,415.074768   C209.970428,418.428101 217.449860,416.605774 222.028030,410.110687   C226.194412,404.199829 225.857315,396.123260 221.065079,390.718719   C216.718796,385.817139 211.251404,383.967102 204.878448,385.688660   C198.514328,387.407867 194.548935,391.722687 193.397568,398.157349   C192.123993,405.274902 194.955399,410.800873 201.653473,415.074768  z"
   id="path59" />
<path
   fill="#D6E5EF"
   opacity="1.000000"
   stroke="none"
   d=" M260.492126,49.131233   C263.988129,51.440487 267.621552,53.207546 269.919647,56.053078   C273.770508,60.821220 273.983154,66.543709 271.187836,72.070160   C268.205841,77.965729 263.120789,80.369247 256.635620,81.048775   C242.750626,82.503662 228.654694,83.251831 215.096405,86.297974   C146.992661,101.598877 92.049751,162.326675 83.003288,231.541962   C81.990562,239.290451 81.427170,247.116943 81.064751,254.926254   C80.615875,264.598450 76.135117,270.972870 68.038963,272.617828   C60.283661,274.193542 53.639317,270.210114 49.386688,261.264282   C47.991558,220.245163 58.385952,182.511765 79.857582,148.081726   C109.140862,101.125587 150.753067,70.269302 204.242661,55.744553   C222.478973,50.792603 241.095551,48.468483 260.492126,49.131233  z"
   id="path61" />
<path
   fill="#D7E6F0"
   opacity="1.000000"
   stroke="none"
   d=" M231.881317,129.861832   C246.323578,133.751755 254.756927,142.917191 256.586487,157.213684   C258.280151,170.448349 253.042160,181.172012 241.577286,188.142548   C229.528885,195.467834 217.405365,194.611877 205.934280,186.559113   C194.150208,178.286636 189.868530,162.173828 195.576965,148.588043   C201.496033,134.501038 215.774429,127.016701 231.881317,129.861832  z"
   id="path63" />
<path
   fill="#D6E5F0"
   opacity="1.000000"
   stroke="none"
   d=" M191.875275,214.576172   C188.638702,221.690643 183.378860,225.140472 175.953583,224.846786   C169.525269,224.592514 163.839722,220.086105 161.910950,213.897110   C159.883865,207.392654 161.504715,201.723007 166.454849,197.126984   C171.478287,192.462952 179.048721,191.788528 184.984375,195.249191   C191.497375,199.046432 194.053574,205.944656 191.875275,214.576172  z"
   id="path65" />
<path
   fill="#D6E5F0"
   opacity="1.000000"
   stroke="none"
   d=" M201.320084,414.896057   C194.955399,410.800873 192.123993,405.274902 193.397568,398.157349   C194.548935,391.722687 198.514328,387.407867 204.878448,385.688660   C211.251404,383.967102 216.718796,385.817139 221.065079,390.718719   C225.857315,396.123260 226.194412,404.199829 222.028030,410.110687   C217.449860,416.605774 209.970428,418.428101 201.320084,414.896057  z"
   id="path67" />
</svg>
