<?xml version="1.0" encoding="UTF-8" standalone="no"?>
<svg
   version="1.1"
   id="Layer_1"
   x="0px"
   y="0px"
   width="100%"
   viewBox="0 0 512 512"
   enable-background="new 0 0 512 512"
   xml:space="preserve"
   sodipodi:docname="team_adobe_express.svg"
   inkscape:version="1.2.2 (b0a8486, 2022-12-01)"
   xmlns:inkscape="http://www.inkscape.org/namespaces/inkscape"
   xmlns:sodipodi="http://sodipodi.sourceforge.net/DTD/sodipodi-0.dtd"
   xmlns="http://www.w3.org/2000/svg"
   xmlns:svg="http://www.w3.org/2000/svg"><defs
   id="defs136" /><sodipodi:namedview
   id="namedview134"
   pagecolor="#ffffff"
   bordercolor="#000000"
   borderopacity="0.25"
   inkscape:showpageshadow="2"
   inkscape:pageopacity="0.0"
   inkscape:pagecheckerboard="0"
   inkscape:deskcolor="#d1d1d1"
   showgrid="false"
   inkscape:zoom="0.4609375"
   inkscape:cx="257.08475"
   inkscape:cy="256"
   inkscape:window-width="1463"
   inkscape:window-height="456"
   inkscape:window-x="0"
   inkscape:window-y="25"
   inkscape:window-maximized="0"
   inkscape:current-layer="Layer_1" />


<path
   fill="#FD7A6E"
   opacity="1.000000"
   stroke="none"
   d=" M340.090790,451.942535   C351.750641,455.716705 355.999969,461.435242 356.000000,473.352295   C356.000000,477.996918 355.697449,482.665405 356.060883,487.281403   C356.902039,497.965149 354.785370,507.106323 344.675537,512.735474   C315.979095,513.000000 286.958221,513.000000 257.413635,512.653870   C256.224792,511.162109 255.595276,509.994019 254.889175,508.874176   C244.513153,492.418182 243.181625,475.331024 251.215714,457.548126   C251.953552,455.914948 252.358780,454.131500 253.383850,452.325073   C262.491852,452.213196 271.134521,452.203705 279.777130,452.173035   C299.881683,452.101624 319.986237,452.020020 340.090790,451.942535  z"
   id="path87" />
<path
   fill="#9CDA82"
   opacity="1.000000"
   stroke="none"
   d=" M300.531342,1.000002   C301.284424,1.648710 301.384827,2.569082 301.881012,2.905161   C308.760376,7.564901 312.255188,13.962599 311.993744,22.306435   C311.751770,30.029295 311.495300,37.752438 311.147369,45.471046   C310.729584,54.738636 304.533844,58.982639 295.938568,61.847847   C293.309448,61.897621 291.482178,61.860832 289.654846,61.855328   C264.730042,61.780209 239.805267,61.709415 214.902161,61.282509   C214.428940,59.543732 214.067749,58.093666 213.419052,56.786240   C203.845428,37.490852 204.511307,18.870565 217.000000,1.000000   C244.687561,1.000000 272.375122,1.000000 300.531342,1.000002  z"
   id="path89" />
<path
   fill="#55D47B"
   opacity="1.000000"
   stroke="none"
   d=" M216.531342,1.000000   C204.511307,18.870565 203.845428,37.490852 213.419052,56.786240   C214.067749,58.093666 214.428940,59.543732 214.442215,61.313957   C210.818634,61.711731 207.676514,61.704140 204.534805,61.737774   C194.664398,61.843445 184.794128,61.964615 174.923813,62.079784   C162.681946,58.312458 158.267685,49.601109 158.938797,37.368122   C159.283493,31.085115 158.669128,24.745115 159.094910,18.472052   C159.619186,10.747756 164.244003,5.448002 170.318924,1.266087   C185.354233,1.000000 200.708450,1.000000 216.531342,1.000000  z"
   id="path91" />
<path
   fill="#F85647"
   opacity="1.000000"
   stroke="none"
   d=" M252.918457,452.417847   C252.358780,454.131500 251.953552,455.914948 251.215714,457.548126   C243.181625,475.331024 244.513153,492.418182 254.889175,508.874176   C255.595276,509.994019 256.224792,511.162109 256.944977,512.653870   C242.979111,513.000000 228.958206,513.000000 214.468658,513.000000   C213.552628,512.291260 213.257446,511.385040 212.634140,510.904510   C207.003860,506.563629 203.434601,501.380920 203.915817,493.772675   C204.323883,487.320892 204.361816,480.798218 203.923523,474.350433   C203.046707,461.451416 208.739151,455.248749 219.994583,452.121582   C231.520432,452.295166 242.219437,452.356506 252.918457,452.417847  z"
   id="path93" />
<path
   fill="#FED2A4"
   opacity="1.000000"
   stroke="none"
   d=" M174.958069,62.542370   C184.794128,61.964615 194.664398,61.843445 204.534805,61.737774   C207.676514,61.704140 210.818634,61.711731 214.420532,61.669006   C239.805267,61.709415 264.730042,61.780209 289.654846,61.855328   C291.482178,61.860832 293.309448,61.897621 295.604065,61.995270   C296.071411,68.872894 296.071411,75.675125 296.071411,82.689964   C310.458466,88.524559 321.961700,98.361557 332.070557,109.768097   C337.912964,116.360512 343.590820,123.330132 345.572388,132.576935   C314.325653,132.980286 283.511810,132.982697 252.697968,132.998199   C231.197891,133.009018 213.993500,147.761703 210.974884,168.980606   C210.262451,173.988586 208.767471,177.455917 202.793121,177.198883   C200.929749,177.118729 198.919159,178.140350 197.131302,178.986008   C180.045959,187.067352 169.933594,199.837219 169.919983,219.462601   C169.918869,221.075867 169.273041,223.600204 168.156387,224.157455   C158.942474,228.755417 152.878494,236.244537 147.843918,244.945663   C147.661407,244.916779 147.296310,244.859329 147.257462,244.401581   C147.192108,240.463455 147.152420,236.983124 147.141220,233.502701   C147.065506,209.969025 146.995804,186.435364 146.924149,162.901688   C146.949402,151.946014 146.700714,140.981323 147.060623,130.036652   C147.684509,111.064903 155.409225,95.731247 171.376144,84.956093   C173.906479,83.248535 175.392456,81.376106 175.104675,77.936890   C174.690842,72.991074 174.994781,67.985199 174.958069,62.542370  z"
   id="path95" />
<path
   fill="#DB9E82"
   opacity="1.000000"
   stroke="none"
   d=" M160.905045,361.024750   C152.349777,360.567810 143.599884,361.089996 135.282364,359.436859   C120.849014,356.568146 109.677216,348.140137 101.313133,335.953094   C100.338150,334.532471 98.167412,333.243195 96.471054,333.133881   C91.000893,332.781281 85.493332,333.008911 79.482193,332.580872   C78.947769,321.671326 78.905304,311.193695 78.919853,300.716156   C78.960968,271.114258 79.025467,241.512329 79.080750,211.910416   C85.040527,211.940140 91.004524,212.096466 96.956696,211.898026   C98.222221,211.855820 100.092896,210.817947 100.588295,209.736526   C106.624008,196.560776 115.951271,185.960831 126.665688,176.503754   C126.981377,198.499008 127.059273,220.156372 126.968719,241.813049   C126.869736,265.485687 136.290237,284.525574 157.465729,294.988464   C167.276642,299.836060 170.147217,305.228729 171.397690,315.171326   C173.395844,331.058838 191.054794,346.210571 206.333649,346.948242   C217.788086,347.501282 229.260468,347.786102 240.728165,347.933655   C253.487534,348.097900 253.489166,347.971252 253.639984,360.824036   C222.412201,360.940460 191.658630,360.982605 160.905045,361.024750  z"
   id="path97" />
<path
   fill="#FFD4BD"
   opacity="1.000000"
   stroke="none"
   d=" M253.383850,452.325073   C242.219437,452.356506 231.520432,452.295166 220.366898,452.085022   C219.941589,446.290741 220.170151,440.634552 219.867264,435.006958   C219.786163,433.500275 218.421738,431.397034 217.071640,430.728485   C205.096695,424.798645 194.655502,416.830261 185.659912,407.061035   C178.771896,399.580719 172.414520,391.622467 169.557831,381.398682   C200.228256,381.013062 230.369553,380.964539 260.510193,381.083313   C262.821686,381.092407 265.687531,381.619934 267.350922,383.024994   C283.752289,396.879395 301.530121,399.239655 321.296448,390.976685   C336.632111,384.565857 352.308868,378.971069 367.834015,373.013580   C369.017639,387.616119 367.892273,401.905884 358.826447,414.036621   C354.613770,419.673492 348.888672,424.228394 343.585052,428.978851   C341.334229,430.994904 339.610382,432.617188 339.895844,436.060211   C340.306732,441.015381 340.005615,446.029633 340.049591,451.480591   C319.986237,452.020020 299.881683,452.101624 279.777130,452.173035   C271.134521,452.203705 262.491852,452.213196 253.383850,452.325073  z"
   id="path99" />
<path
   fill="#C8866A"
   opacity="1.000000"
   stroke="none"
   d=" M254.114197,360.749756   C253.489166,347.971252 253.487534,348.097900 240.728165,347.933655   C229.260468,347.786102 217.788086,347.501282 206.333649,346.948242   C191.054794,346.210571 173.395844,331.058838 171.397690,315.171326   C170.147217,305.228729 167.276642,299.836060 157.465729,294.988464   C136.290237,284.525574 126.869736,265.485687 126.968719,241.813049   C127.059273,220.156372 126.981377,198.499008 126.974632,176.366364   C133.380646,171.594604 139.789719,167.298431 146.561478,162.951965   C146.995804,186.435364 147.065506,209.969025 147.141220,233.502701   C147.152420,236.983124 147.192108,240.463455 147.206055,244.708282   C147.428879,246.023880 147.664261,246.575012 147.909607,247.515717   C149.466461,257.876770 155.945023,263.138611 165.331024,266.054626   C165.793854,266.831757 166.000107,267.423248 166.233948,268.245972   C166.426270,268.764984 166.670380,268.945557 166.996780,269.008240   C166.999680,268.997559 166.981079,269.010742 167.046661,269.357483   C170.664322,277.824585 176.542923,282.840057 185.661789,283.265717   C192.125687,283.567413 198.600784,283.628784 205.033386,284.073303   C204.970108,284.532959 204.944351,284.716736 204.579437,284.990753   C194.739655,289.730133 188.168396,300.089020 190.196091,308.014191   C192.973694,318.870392 200.975372,327.370270 214.076202,327.107086   C237.726059,326.631927 261.392426,326.978912 284.930420,327.298645   C281.572601,332.416840 278.336273,337.218903 274.877502,342.377655   C274.506714,347.491119 274.358398,352.247894 273.848022,357.101654   C267.410553,360.465485 260.904510,361.383026 254.114197,360.749756  z"
   id="path101" />
<path
   fill="#F9D171"
   opacity="1.000000"
   stroke="none"
   d=" M69.106133,346.068726   C66.617157,347.039124 64.130157,348.829590 61.638859,348.835571   C51.737373,348.859436 41.797482,348.741547 31.944498,347.861969   C24.670448,347.212646 17.709585,337.576141 17.791836,330.527954   C18.233097,292.715637 18.397821,254.888702 17.756327,217.082108   C17.565462,205.833466 24.883656,197.132111 34.889900,196.382767   C45.593819,195.581161 56.481606,197.234802 67.583992,198.324982   C67.374115,199.688385 66.917580,200.576599 66.357590,201.393951   C53.580719,220.042664 47.704781,241.068863 46.155506,263.260315   C44.748890,283.408447 47.726498,303.192535 55.660397,321.837036   C59.257729,330.290680 64.571182,338.014069 69.106133,346.068726  z"
   id="path103" />
<path
   fill="#FFBF9D"
   opacity="1.000000"
   stroke="none"
   d=" M253.639984,360.824036   C260.904510,361.383026 267.410553,360.465485 274.112610,357.294525   C284.776703,375.143066 295.374390,378.860046 314.488861,371.356445   C324.714722,367.342194 334.924469,363.284668 345.192688,359.381378   C352.786316,356.494843 360.462646,353.825806 368.102112,351.059875   C368.062469,358.068359 368.022797,365.076813 367.908569,372.549438   C352.308868,378.971069 336.632111,384.565857 321.296448,390.976685   C301.530121,399.239655 283.752289,396.879395 267.350922,383.024994   C265.687531,381.619934 262.821686,381.092407 260.510193,381.083313   C230.369553,380.964539 200.228256,381.013062 169.629303,381.022980   C166.449265,374.610535 163.727051,368.194550 160.954941,361.401672   C191.658630,360.982605 222.412201,360.940460 253.639984,360.824036  z"
   id="path105" />
<path
   fill="#F9EE80"
   opacity="1.000000"
   stroke="none"
   d=" M69.456131,346.034729   C64.571182,338.014069 59.257729,330.290680 55.660397,321.837036   C47.726498,303.192535 44.748890,283.408447 46.155506,263.260315   C47.704781,241.068863 53.580719,220.042664 66.357590,201.393951   C66.917580,200.576599 67.374115,199.688385 67.951988,198.499817   C74.065338,200.503906 76.746590,205.603333 78.927811,211.575043   C79.025467,241.512329 78.960968,271.114258 78.919853,300.716156   C78.905304,311.193695 78.947769,321.671326 79.019821,332.619812   C77.365334,338.384674 74.828728,343.085175 69.456131,346.034729  z"
   id="path107" />
<path
   fill="#FFDDCF"
   opacity="1.000000"
   stroke="none"
   d=" M368.429932,350.920837   C360.462646,353.825806 352.786316,356.494843 345.192688,359.381378   C334.924469,363.284668 324.714722,367.342194 314.488861,371.356445   C295.374390,378.860046 284.776703,375.143066 274.474731,357.197571   C274.358398,352.247894 274.506714,347.491119 275.338013,342.371643   C291.454376,342.005493 306.887787,342.026245 322.321045,341.986603   C328.467010,341.970825 331.765137,339.229492 331.871063,334.237274   C331.962280,329.938568 328.228668,327.032867 322.390533,327.012360   C309.944427,326.968628 297.498138,326.988678 285.051910,326.982574   C261.392426,326.978912 237.726059,326.631927 214.076202,327.107086   C200.975372,327.370270 192.973694,318.870392 190.196091,308.014191   C188.168396,300.089020 194.739655,289.730133 204.946823,284.975403   C207.075226,284.567200 208.497086,284.264526 210.392532,283.973389   C235.847580,283.987091 260.829010,283.991272 285.810455,283.986664   C287.307770,283.986389 288.823761,284.053955 290.299011,283.853821   C295.215118,283.186890 299.136993,279.368408 298.875885,275.633453   C298.591278,271.561798 294.961578,268.995728 289.390076,268.995605   C248.587082,268.994690 207.784073,269.004395 166.981079,269.010742   C166.981079,269.010742 166.999680,268.997559 166.901413,268.814453   C166.641937,268.389282 166.442993,268.183777 166.206345,268.014771   C166.000107,267.423248 165.793854,266.831757 165.309509,265.631897   C164.989761,249.768600 174.488052,240.119461 189.627472,240.044250   C195.412994,240.015518 201.198578,240.000366 207.286591,240.220734   C211.190552,240.308929 214.791840,240.028534 218.393585,240.022400   C242.030701,239.982132 265.667938,240.016876 289.305084,239.989532   C295.197449,239.982712 298.932617,237.112549 298.873047,232.811172   C298.803864,227.815338 295.473999,225.017471 289.323853,225.014603   C256.864441,224.999466 224.405045,225.025177 191.714584,224.741608   C185.890900,215.079681 196.692139,196.923981 211.142258,196.959976   C222.082153,196.987228 233.022369,196.895615 244.376404,196.902863   C246.166519,196.952133 247.542664,196.955460 249.392365,196.972794   C265.650635,196.990509 281.439392,197.181442 297.216583,196.839279   C300.354340,196.771225 304.559479,195.548004 306.338593,193.316010   C310.500458,188.094742 306.325073,182.054306 298.865417,182.026611   C276.601013,181.943985 254.336151,181.977585 231.972687,181.565735   C229.603653,172.900818 231.550385,165.857834 237.576599,159.695923   C242.660049,154.498001 248.950333,153.123199 255.770004,153.105408   C288.543640,153.019882 321.317383,152.983215 354.091095,152.929214   C363.728455,153.206726 373.490997,152.133423 382.862854,155.383591   C395.280975,159.690262 405.157074,167.318680 412.737823,178.072815   C413.725891,179.474442 415.846954,180.761108 417.522430,180.868759   C422.979980,181.219376 428.474213,180.998611 434.563995,181.433624   C435.198822,219.446396 435.231323,257.023254 435.232361,294.600128   C435.232452,297.074524 434.992188,299.548920 434.863708,302.023315   C428.043152,302.023315 421.222595,302.023315 414.558746,302.023315   C404.307373,323.205048 389.298767,339.592499 368.429932,350.920837  z"
   id="path109" />
<path
   fill="#FFBD86"
   opacity="1.000000"
   stroke="none"
   d=" M206.984131,239.979019   C201.198578,240.000366 195.412994,240.015518 189.627472,240.044250   C174.488052,240.119461 164.989761,249.768600 165.052917,265.446289   C155.945023,263.138611 149.466461,257.876770 147.941986,247.156891   C147.985062,245.930527 148.005737,245.452530 148.026428,244.974548   C152.878494,236.244537 158.942474,228.755417 168.156387,224.157455   C169.273041,223.600204 169.918869,221.075867 169.919983,219.462601   C169.933594,199.837219 180.045959,187.067352 197.131302,178.986008   C198.919159,178.140350 200.929749,177.118729 202.793121,177.198883   C208.767471,177.455917 210.262451,173.988586 210.974884,168.980606   C213.993500,147.761703 231.197891,133.009018 252.697968,132.998199   C283.511810,132.982697 314.325653,132.980286 345.612396,132.959778   C348.722656,139.355484 351.359985,145.763702 354.044189,152.550568   C321.317383,152.983215 288.543640,153.019882 255.770004,153.105408   C248.950333,153.123199 242.660049,154.498001 237.576599,159.695923   C231.550385,165.857834 229.603653,172.900818 232.085632,181.894073   C234.400574,188.447815 238.369537,192.516830 243.985901,195.340927   C243.979523,196.048798 243.970978,196.452866 243.962433,196.856918   C233.022369,196.895615 222.082153,196.987228 211.142258,196.959976   C196.692139,196.923981 185.890900,215.079681 191.774811,225.091721   C194.462448,233.182907 200.306381,237.017654 206.984131,239.979019  z"
   id="path111" />
<path
   fill="#00C5FD"
   opacity="1.000000"
   stroke="none"
   d=" M434.919342,302.392639   C434.992188,299.548920 435.232452,297.074524 435.232361,294.600128   C435.231323,257.023254 435.198822,219.446396 435.024536,181.418671   C437.795685,170.381607 445.793915,164.665787 456.925568,164.969131   C463.239380,165.141190 469.562988,164.930420 475.879395,165.045517   C477.621033,165.077255 479.352631,165.660202 481.350555,166.364380   C472.080597,180.037979 465.912323,194.823364 461.875031,210.619797   C458.492676,223.853943 458.169983,237.359390 459.283722,250.730545   C460.169525,261.365112 461.925049,272.260162 465.497040,282.252136   C469.774017,294.216217 476.392395,305.343292 481.996765,316.832886   C478.098083,317.221954 474.206604,317.809326 470.298889,317.951752   C464.978668,318.145721 459.638306,318.183990 454.320404,317.960510   C444.305084,317.539612 438.266144,311.848633 434.919342,302.392639  z"
   id="path113" />
<path
   fill="#5AD6FF"
   opacity="1.000000"
   stroke="none"
   d=" M482.360260,316.903748   C476.392395,305.343292 469.774017,294.216217 465.497040,282.252136   C461.925049,272.260162 460.169525,261.365112 459.283722,250.730545   C458.169983,237.359390 458.492676,223.853943 461.875031,210.619797   C465.912323,194.823364 472.080597,180.037979 481.765778,166.451996   C490.507233,168.260223 495.994843,175.045013 495.996674,183.638382   C496.004669,221.277817 495.806030,258.918884 496.127106,296.555573   C496.214905,306.847351 491.906342,313.261902 482.360260,316.903748  z"
   id="path115" />
<path
   fill="#EAB68F"
   opacity="1.000000"
   stroke="none"
   d=" M147.843918,244.945663   C148.005737,245.452530 147.985062,245.930527 147.932022,246.767334   C147.664261,246.575012 147.428879,246.023880 147.244904,245.166046   C147.296310,244.859329 147.661407,244.916779 147.843918,244.945663  z"
   id="path117" />
<path
   fill="#FFCBBE"
   opacity="1.000000"
   stroke="none"
   d=" M167.046661,269.357483   C207.784073,269.004395 248.587082,268.994690 289.390076,268.995605   C294.961578,268.995728 298.591278,271.561798 298.875885,275.633453   C299.136993,279.368408 295.215118,283.186890 290.299011,283.853821   C288.823761,284.053955 287.307770,283.986389 285.810455,283.986664   C260.829010,283.991272 235.847580,283.987091 210.150635,283.749146   C207.980377,283.608032 206.525635,283.702728 205.070892,283.797424   C198.600784,283.628784 192.125687,283.567413 185.661789,283.265717   C176.542923,282.840057 170.664322,277.824585 167.046661,269.357483  z"
   id="path119" />
<path
   fill="#FFCBBE"
   opacity="1.000000"
   stroke="none"
   d=" M284.930420,327.298645   C297.498138,326.988678 309.944427,326.968628 322.390533,327.012360   C328.228668,327.032867 331.962280,329.938568 331.871063,334.237274   C331.765137,339.229492 328.467010,341.970825 322.321045,341.986603   C306.887787,342.026245 291.454376,342.005493 275.560486,342.014954   C278.336273,337.218903 281.572601,332.416840 284.930420,327.298645  z"
   id="path121" />
<path
   fill="#E8AF9B"
   opacity="1.000000"
   stroke="none"
   d=" M205.033386,284.073303   C206.525635,283.702728 207.980377,283.608032 209.677032,283.737610   C208.497086,284.264526 207.075226,284.567200 205.285980,284.885193   C204.944351,284.716736 204.970108,284.532959 205.033386,284.073303  z"
   id="path123" />
<path
   fill="#FFCBBE"
   opacity="1.000000"
   stroke="none"
   d=" M166.233948,268.245972   C166.442993,268.183777 166.641937,268.389282 166.898514,268.825104   C166.670380,268.945557 166.426270,268.764984 166.233948,268.245972  z"
   id="path125" />
<path
   fill="#FFCBBE"
   opacity="1.000000"
   stroke="none"
   d=" M207.286591,240.220734   C200.306381,237.017654 194.462448,233.182907 192.005875,225.386810   C224.405045,225.025177 256.864441,224.999466 289.323853,225.014603   C295.473999,225.017471 298.803864,227.815338 298.873047,232.811172   C298.932617,237.112549 295.197449,239.982712 289.305084,239.989532   C265.667938,240.016876 242.030701,239.982132 218.393585,240.022400   C214.791840,240.028534 211.190552,240.308929 207.286591,240.220734  z"
   id="path127" />
<path
   fill="#FFCBBE"
   opacity="1.000000"
   stroke="none"
   d=" M243.983749,195.037109   C238.369537,192.516830 234.400574,188.447815 232.184418,182.294144   C254.336151,181.977585 276.601013,181.943985 298.865417,182.026611   C306.325073,182.054306 310.500458,188.094742 306.338593,193.316010   C304.559479,195.548004 300.354340,196.771225 297.216583,196.839279   C281.439392,197.181442 265.650635,196.990509 249.157410,196.745361   C246.960510,196.014999 245.472137,195.526062 243.983749,195.037109  z"
   id="path129" />
<path
   fill="#FFC395"
   opacity="1.000000"
   stroke="none"
   d=" M243.985901,195.340927   C245.472137,195.526062 246.960510,196.014999 248.683838,196.731384   C247.542664,196.955460 246.166519,196.952133 244.376404,196.902863   C243.970978,196.452866 243.979523,196.048798 243.985901,195.340927  z"
   id="path131" />
</svg>
