<?xml version="1.0" encoding="UTF-8" standalone="no"?>
<svg
   version="1.1"
   id="Layer_1"
   x="0px"
   y="0px"
   width="100%"
   viewBox="0 0 512 512"
   enable-background="new 0 0 512 512"
   xml:space="preserve"
   sodipodi:docname="pm_adobe_express.svg"
   inkscape:version="1.2.2 (b0a8486, 2022-12-01)"
   xmlns:inkscape="http://www.inkscape.org/namespaces/inkscape"
   xmlns:sodipodi="http://sodipodi.sourceforge.net/DTD/sodipodi-0.dtd"
   xmlns="http://www.w3.org/2000/svg"
   xmlns:svg="http://www.w3.org/2000/svg"><defs
   id="defs92" /><sodipodi:namedview
   id="namedview90"
   pagecolor="#ffffff"
   bordercolor="#000000"
   borderopacity="0.25"
   inkscape:showpageshadow="2"
   inkscape:pageopacity="0.0"
   inkscape:pagecheckerboard="0"
   inkscape:deskcolor="#d1d1d1"
   showgrid="false"
   inkscape:zoom="0.4609375"
   inkscape:cx="257.08475"
   inkscape:cy="256"
   inkscape:window-width="1463"
   inkscape:window-height="456"
   inkscape:window-x="0"
   inkscape:window-y="25"
   inkscape:window-maximized="0"
   inkscape:current-layer="Layer_1" />

<path
   fill="#FAA019"
   opacity="1.000000"
   stroke="none"
   d=" M264.781250,457.934601   C249.617874,457.955994 234.452789,457.872192 219.293030,458.117279   C217.129135,458.152283 214.478851,459.250824 212.923813,460.756042   C202.629150,470.720917 192.581863,480.941071 182.434738,491.058746   C173.826584,499.641937 164.168396,499.669556 155.671402,491.168640   C145.776443,481.269104 135.778183,471.469208 126.058693,461.400269   C123.499130,458.748657 120.918640,457.882385 117.361435,457.926941   C103.366356,458.102386 89.364143,457.800507 75.371582,458.057281   C62.592762,458.291779 55.577377,449.678131 55.896057,438.829651   C56.316662,424.511475 55.916897,410.170746 56.065647,395.841766   C56.097301,392.792572 55.282837,390.643982 53.062401,388.472229   C42.223286,377.870697 31.568361,367.080719 20.859407,356.346313   C14.361076,349.832520 14.360204,340.168945 20.857805,333.655701   C31.566591,322.921112 42.221874,312.131531 53.060528,301.529510   C55.279915,299.358582 56.096607,297.211243 56.065880,294.160828   C55.918175,279.498505 56.098598,264.832977 55.966385,250.170349   C55.871014,239.593323 62.763481,232.133698 73.875183,232.033661   C88.537819,231.901627 103.203362,231.918320 117.865685,232.066177   C121.070335,232.098495 123.385551,231.289902 125.684860,228.926941   C135.561218,218.777222 145.658737,208.842728 155.673798,198.827942   C164.167236,190.334747 173.834549,190.362961 182.434128,198.940155   C192.579742,209.059372 202.628357,219.278183 212.923019,229.243073   C214.478134,230.748383 217.128326,231.847809 219.291809,231.882034   C233.785355,232.111313 248.287155,231.829407 262.780273,232.071747   C270.334015,232.198059 277.056610,234.555252 280.046906,242.439758   C280.828827,244.501389 280.721771,246.900208 281.028320,250.033554   C281.009857,265.218597 281.097717,279.515930 280.885773,293.808807   C280.831116,297.494415 281.678925,300.287109 285.080017,302.440643   C289.089752,306.495758 292.953430,310.255737 296.965729,314.322845   C302.867218,320.409058 308.627197,326.181061 314.371338,331.968781   C322.915863,340.578125 322.925629,349.430725 314.349396,358.046722   C304.134949,368.308533 293.826996,378.478180 283.706940,388.831848   C282.351227,390.218811 281.159912,392.421631 281.089172,394.291901   C280.831604,401.100555 281.082153,407.928406 281.075989,415.229614   C280.991730,424.037476 281.055298,432.365997 280.929535,440.691681   C280.812653,448.431000 276.447723,454.278076 269.423981,456.467255   C267.874451,456.950226 266.328735,457.445190 264.781250,457.934601  M189.411484,439.006317   C196.476562,436.562531 203.845901,434.758606 210.555832,431.567932   C245.889130,414.766418 268.698364,375.859039 264.184723,335.418396   C261.721283,313.346893 253.170547,294.167419 237.750198,278.548523   C216.196335,256.717072 189.893112,247.095886 158.966049,249.834595   C114.234268,253.795792 75.861748,292.285187 73.097748,337.140503   C71.072914,370.000366 82.041626,397.808441 107.584267,418.980621   C131.201569,438.556885 158.476837,444.880585 189.411484,439.006317  z"
   id="path67" />
<path
   fill="#555A6E"
   opacity="1.000000"
   stroke="none"
   d=" M284.933929,302.145508   C281.678925,300.287109 280.831116,297.494415 280.885773,293.808807   C281.097717,279.515930 281.009857,265.218597 281.099426,250.459686   C298.019867,238.696777 315.923584,229.600616 336.289642,227.120193   C348.742493,225.603531 361.450989,224.544266 373.930756,225.261612   C394.470123,226.442230 413.774750,233.070908 431.204010,243.991486   C440.503693,249.818329 449.651367,256.418671 457.339630,264.182983   C477.293945,284.334625 490.376892,308.378967 495.138489,336.701752   C499.517670,362.749939 497.449371,388.221832 487.568939,412.616028   C481.937012,426.520935 473.885956,439.244934 463.899841,450.772736   C444.051849,473.684875 419.111084,487.822357 389.912384,494.423248   C372.682404,498.318329 355.114502,498.115997 337.604828,495.350586   C316.487427,492.015381 297.536163,483.611572 280.381561,471.064178   C275.082458,467.188202 270.205444,462.735168 264.958191,458.240479   C266.328735,457.445190 267.874451,456.950226 269.423981,456.467255   C276.447723,454.278076 280.812653,448.431000 280.929535,440.691681   C281.055298,432.365997 280.991730,424.037476 281.352783,415.431122   C282.391937,416.085388 283.089386,417.018494 283.786133,417.952057   C326.853302,475.657135 415.693268,467.891693 446.960968,403.689056   C450.423615,396.579132 450.383362,393.147858 446.801666,390.103271   C443.087280,386.945862 440.074005,387.490417 433.616913,392.473602   C432.958252,392.981934 432.279175,393.465393 431.592865,393.936066   C416.592316,404.224457 396.627441,403.132477 382.926575,391.277893   C369.154724,379.361786 365.119812,359.818878 373.071564,343.545715   C381.073486,327.169983 398.934143,317.873383 416.622040,322.071259   C423.179047,323.627472 429.335175,327.492279 435.216339,331.059113   C439.136780,333.436890 442.559906,335.206268 446.540222,332.051025   C450.482239,328.926086 450.341675,324.978180 448.146637,320.845703   C446.508057,317.760834 445.087524,314.539032 443.221436,311.599426   C424.776459,282.543732 398.503967,266.801392 363.503387,265.155975   C330.888123,264.535553 305.188629,277.603363 284.933929,302.145508  z"
   id="path69" />
<path
   fill="#4182C3"
   opacity="1.000000"
   stroke="none"
   d=" M290.357086,50.187500   C267.349487,49.705235 244.758316,49.021172 222.171188,49.135677   C210.360275,49.195549 198.717407,51.143169 189.007523,58.989876   C177.957794,67.919334 170.684036,78.882248 169.985199,93.515617   C169.741577,98.616867 169.855453,103.822250 168.802399,108.766289   C168.133118,111.908569 166.151169,115.211563 163.816223,117.468124   C158.784897,122.330559 152.301208,122.155022 146.255676,119.951675   C139.969574,117.660645 136.928024,112.721725 136.937454,105.738663   C136.954590,93.044075 136.886826,80.538788 141.781403,68.329659   C152.071655,42.661388 170.441940,26.332651 196.893082,19.136349   C202.668884,17.564983 208.895386,17.148165 214.922668,17.091700   C238.743896,16.868528 262.572754,16.721828 286.390381,17.089918   C304.784912,17.374199 320.562164,24.676962 334.309418,36.765717   C348.805298,49.512733 357.207458,65.553078 360.668518,84.357651   C360.965820,85.972832 360.984619,87.655113 360.986511,89.306389   C361.007629,107.618980 360.999847,125.931602 360.999847,145.000122   C366.631653,145.000122 372.059235,145.140320 377.476654,144.965469   C384.627472,144.734680 389.767761,147.907272 392.022339,154.466248   C394.246368,160.936356 393.677155,167.898743 389.082550,172.440964   C378.183289,183.215820 367.435760,194.144165 356.535095,204.917587   C350.586548,210.796661 339.554291,210.900421 333.640076,205.077103   C322.600708,194.207413 311.759674,183.136337 300.717224,172.269867   C296.265350,167.888947 295.907562,159.391388 298.013214,154.207169   C300.535522,147.997147 305.307159,144.736771 312.287140,144.965591   C317.600128,145.139771 322.923370,145.000183 328.682922,145.000183   C328.798035,143.373428 328.984039,141.947433 328.986542,140.521088   C329.009247,127.526596 329.405762,114.515190 328.866852,101.543045   C328.462555,91.810966 327.377991,82.091507 321.928680,73.374779   C314.516266,61.518040 304.111237,54.014824 290.357086,50.187500  z"
   id="path71" />
<path
   fill="#4182C3"
   opacity="1.000000"
   stroke="none"
   d=" M168.881805,147.811005   C168.975571,155.715942 169.015839,163.199783 168.992111,170.683426   C168.966507,178.756058 162.671982,184.367783 154.642700,185.140076   C143.589828,186.203201 135.606262,177.835419 136.883072,167.440399   C137.547165,162.033737 136.965393,156.478043 137.008545,150.990158   C137.068771,143.329773 143.469650,137.420197 151.185196,136.905655   C159.705139,136.337479 165.432434,139.686432 168.881805,147.811005  z"
   id="path73" />
<path
   fill="#F06423"
   opacity="1.000000"
   stroke="none"
   d=" M188.993927,439.070129   C158.476837,444.880585 131.201569,438.556885 107.584267,418.980621   C82.041626,397.808441 71.072914,370.000366 73.097748,337.140503   C75.861748,292.285187 114.234268,253.795792 158.966049,249.834595   C189.893112,247.095886 216.196335,256.717072 237.750198,278.548523   C253.170547,294.167419 261.721283,313.346893 264.184723,335.418396   C268.698364,375.859039 245.889130,414.766418 210.555832,431.567932   C203.845901,434.758606 196.476562,436.562531 188.993927,439.070129  M168.958221,323.409363   C168.957016,305.590942 168.897644,287.772156 169.003189,269.954346   C169.024551,266.347290 167.925125,264.743103 164.087830,265.126984   C140.844650,267.452271 121.239090,276.738556 106.416054,295.151642   C95.877670,308.242401 90.059464,323.205536 88.975075,340.010223   C88.745491,343.567902 89.933647,345.124573 93.738853,345.100128   C113.721291,344.971802 133.704987,345.054260 153.688065,345.002411   C159.588318,344.987091 164.191238,342.124023 166.410202,336.886658   C168.037552,333.045624 168.163086,328.568359 168.958221,323.409363  z"
   id="path75" />
<path
   fill="#A5C3DC"
   opacity="1.000000"
   stroke="none"
   d=" M363.960083,265.232422   C398.503967,266.801392 424.776459,282.543732 443.221436,311.599426   C445.087524,314.539032 446.508057,317.760834 448.146637,320.845703   C450.341675,324.978180 450.482239,328.926086 446.540222,332.051025   C442.559906,335.206268 439.136780,333.436890 435.216339,331.059113   C429.335175,327.492279 423.179047,323.627472 416.622040,322.071259   C398.934143,317.873383 381.073486,327.169983 373.071564,343.545715   C365.119812,359.818878 369.154724,379.361786 382.926575,391.277893   C396.627441,403.132477 416.592316,404.224457 431.592865,393.936066   C432.279175,393.465393 432.958252,392.981934 433.616913,392.473602   C440.074005,387.490417 443.087280,386.945862 446.801666,390.103271   C450.383362,393.147858 450.423615,396.579132 446.960968,403.689056   C415.693268,467.891693 326.853302,475.657135 283.786133,417.952057   C283.089386,417.018494 282.391937,416.085388 281.417999,414.950562   C281.082153,407.928406 280.831604,401.100555 281.089172,394.291901   C281.159912,392.421631 282.351227,390.218811 283.706940,388.831848   C293.826996,378.478180 304.134949,368.308533 314.349396,358.046722   C322.925629,349.430725 322.915863,340.578125 314.371338,331.968781   C308.627197,326.181061 302.867218,320.409058 297.082062,313.997681   C312.638672,293.044067 333.219757,282.199005 358.807648,281.064148   C363.100494,280.873749 366.873260,280.203278 368.454712,275.685455   C370.109528,270.958191 367.792755,267.715698 363.960083,265.232422  M318.235443,408.073608   C325.158936,405.351257 328.933319,400.265717 328.926544,392.836914   C328.920319,386.047852 325.468658,381.119324 319.316956,378.358673   C312.726837,375.401276 305.632660,377.202118 300.798828,382.714081   C296.490814,387.626465 295.775787,395.059692 299.051147,400.882263   C302.652039,407.283508 309.333832,409.981964 318.235443,408.073608  M337.048004,317.405884   C337.404266,318.850708 337.513977,320.418365 338.161438,321.718140   C340.408936,326.229980 344.041168,329.003235 349.205414,328.895935   C354.346680,328.789154 357.999786,325.996033 359.988434,321.338684   C362.041077,316.531525 360.872467,312.236633 357.184784,308.595947   C353.956726,305.409058 350.133972,304.190308 345.776703,305.613983   C340.521240,307.331085 337.614777,311.078003 337.048004,317.405884  M348.232697,423.413116   C351.938568,425.755829 355.971680,425.899475 358.524139,422.429291   C360.103424,420.282196 360.622284,416.540375 360.062622,413.836151   C359.324402,410.268982 355.818604,408.368530 352.299744,409.257629   C349.878723,409.869415 347.234161,411.787842 345.874298,413.889038   C343.886322,416.960907 345.042816,420.284943 348.232697,423.413116  z"
   id="path77" />
<path
   fill="#D6E5EF"
   opacity="1.000000"
   stroke="none"
   d=" M363.503387,265.155975   C367.792755,267.715698 370.109528,270.958191 368.454712,275.685455   C366.873260,280.203278 363.100494,280.873749 358.807648,281.064148   C333.219757,282.199005 312.638672,293.044067 296.933441,313.690521   C292.953430,310.255737 289.089752,306.495758 285.080017,302.440643   C305.188629,277.603363 330.888123,264.535553 363.503387,265.155975  z"
   id="path79" />
<path
   fill="#FAA019"
   opacity="1.000000"
   stroke="none"
   d=" M168.958084,323.891998   C168.163086,328.568359 168.037552,333.045624 166.410202,336.886658   C164.191238,342.124023 159.588318,344.987091 153.688065,345.002411   C133.704987,345.054260 113.721291,344.971802 93.738853,345.100128   C89.933647,345.124573 88.745491,343.567902 88.975075,340.010223   C90.059464,323.205536 95.877670,308.242401 106.416054,295.151642   C121.239090,276.738556 140.844650,267.452271 164.087830,265.126984   C167.925125,264.743103 169.024551,266.347290 169.003189,269.954346   C168.897644,287.772156 168.957016,305.590942 168.958084,323.891998  z"
   id="path81" />
<path
   fill="#D6E5F0"
   opacity="1.000000"
   stroke="none"
   d=" M317.850830,408.196411   C309.333832,409.981964 302.652039,407.283508 299.051147,400.882263   C295.775787,395.059692 296.490814,387.626465 300.798828,382.714081   C305.632660,377.202118 312.726837,375.401276 319.316956,378.358673   C325.468658,381.119324 328.920319,386.047852 328.926544,392.836914   C328.933319,400.265717 325.158936,405.351257 317.850830,408.196411  z"
   id="path83" />
<path
   fill="#D6E5F0"
   opacity="1.000000"
   stroke="none"
   d=" M337.047882,317.003906   C337.614777,311.078003 340.521240,307.331085 345.776703,305.613983   C350.133972,304.190308 353.956726,305.409058 357.184784,308.595947   C360.872467,312.236633 362.041077,316.531525 359.988434,321.338684   C357.999786,325.996033 354.346680,328.789154 349.205414,328.895935   C344.041168,329.003235 340.408936,326.229980 338.161438,321.718140   C337.513977,320.418365 337.404266,318.850708 337.047882,317.003906  z"
   id="path85" />
<path
   fill="#D5E4EF"
   opacity="1.000000"
   stroke="none"
   d=" M347.930054,423.167908   C345.042816,420.284943 343.886322,416.960907 345.874298,413.889038   C347.234161,411.787842 349.878723,409.869415 352.299744,409.257629   C355.818604,408.368530 359.324402,410.268982 360.062622,413.836151   C360.622284,416.540375 360.103424,420.282196 358.524139,422.429291   C355.971680,425.899475 351.938568,425.755829 347.930054,423.167908  z"
   id="path87" />
</svg>
