<svg width="112" height="112" viewBox="0 0 112 112" fill="none" xmlns="http://www.w3.org/2000/svg">
<g clip-path="url(#clip0_874_15373)">
<mask id="mask0_874_15373" style="mask-type:alpha" maskUnits="userSpaceOnUse" x="8" y="-21" width="96" height="125">
<path d="M104 56C104 82.5097 82.5097 104 56 104C29.4903 104 8 82.5097 8 56C8 -0.5 29.4903 -21 56 -21C82.5097 -21 104 1 104 56Z" fill="#FF0000"/>
</mask>
<g mask="url(#mask0_874_15373)">
<path d="M104 56C104 82.5097 82.5097 104 56 104C29.4903 104 8 82.5097 8 56C8 29.4903 29.4903 8 56 8C82.5097 8 104 29.4903 104 56Z" fill="#FFD7C0"/>
<g style="mix-blend-mode:difference">
<path d="M30.4756 73.375C28.9053 73.375 27.8506 72.4141 27.8506 70.9844C27.8506 70.5859 27.9444 70.0703 28.1787 69.4375L38.4678 41.5469C39.1475 39.6719 40.2959 38.8047 42.1475 38.8047C43.9756 38.8047 45.1006 39.6484 45.8037 41.5234L56.1162 69.4375C56.3506 70.0938 56.4444 70.5391 56.4444 70.9844C56.4444 72.3672 55.3428 73.375 53.8194 73.375C52.4131 73.375 51.6397 72.7188 51.1709 71.2188L48.5928 63.9297H35.6553L33.1006 71.1953C32.6084 72.7188 31.835 73.375 30.4756 73.375ZM36.9912 59.6406H47.2569L42.1709 44.8047H42.0303L36.9912 59.6406ZM61.6259 73C59.9853 73 59.0009 71.9688 59.0009 70.2812V41.8984C59.0009 40.2109 59.9853 39.1797 61.6259 39.1797H72.5009C78.5009 39.1797 82.4384 42.5078 82.4384 47.6172C82.4384 51.2031 79.79 54.4141 76.415 54.9766V55.1641C81.0087 55.6797 84.1025 58.9375 84.1025 63.4375C84.1025 69.3906 79.7666 73 72.5712 73H61.6259ZM64.2509 53.5703H70.1337C74.6806 53.5703 77.1884 51.6953 77.1884 48.3438C77.1884 45.2031 75.0322 43.4688 71.2353 43.4688H64.2509V53.5703ZM64.2509 68.7109H71.4931C76.2275 68.7109 78.7353 66.7656 78.7353 63.1094C78.7353 59.4531 76.1572 57.5781 71.1884 57.5781H64.2509V68.7109Z" fill="#7D818C"/>
</g>
</g>
</g>
<defs>
<clipPath id="clip0_874_15373">
<rect width="112" height="112" fill="white"/>
</clipPath>
</defs>
</svg>
