<?xml version="1.0" encoding="UTF-8" standalone="no"?>
<svg
   version="1.1"
   id="Layer_1"
   x="0px"
   y="0px"
   width="100%"
   viewBox="0 0 512 512"
   enable-background="new 0 0 512 512"
   xml:space="preserve"
   sodipodi:docname="remote_adobe_express.svg"
   inkscape:version="1.2.2 (b0a8486, 2022-12-01)"
   xmlns:inkscape="http://www.inkscape.org/namespaces/inkscape"
   xmlns:sodipodi="http://sodipodi.sourceforge.net/DTD/sodipodi-0.dtd"
   xmlns="http://www.w3.org/2000/svg"
   xmlns:svg="http://www.w3.org/2000/svg"><defs
   id="defs81" /><sodipodi:namedview
   id="namedview79"
   pagecolor="#ffffff"
   bordercolor="#000000"
   borderopacity="0.25"
   inkscape:showpageshadow="2"
   inkscape:pageopacity="0.0"
   inkscape:pagecheckerboard="0"
   inkscape:deskcolor="#d1d1d1"
   showgrid="false"
   inkscape:zoom="0.28605801"
   inkscape:cx="368.80631"
   inkscape:cy="258.68879"
   inkscape:window-width="1463"
   inkscape:window-height="456"
   inkscape:window-x="0"
   inkscape:window-y="25"
   inkscape:window-maximized="0"
   inkscape:current-layer="Layer_1" />

<path
   fill="#4980AC"
   opacity="1.000000"
   stroke="none"
   d=" M1.000000,120.468658   C1.919204,119.188637 3.239883,118.557373 3.696876,117.538666   C9.718141,104.116272 20.083279,97.249039 34.717255,97.035744   C46.820026,96.859337 58.927376,96.996872 71.969627,96.994637   C97.282722,96.987968 121.658882,96.981972 146.035049,96.975975   C184.698730,96.975174 223.362411,96.974373 262.798096,97.069656   C271.383148,105.551872 281.363770,106.852066 292.291290,105.928009   C292.710754,106.003014 292.879944,106.024925 293.061005,106.284035   C293.072876,106.521240 293.213501,106.974960 293.151733,107.441040   C293.016388,113.943199 292.942841,119.979286 292.698456,126.119095   C292.313690,126.387459 292.142914,126.588753 291.547485,126.867828   C262.022736,126.969955 232.965820,127.030960 203.451721,127.023056   C176.022293,126.934532 149.050064,126.906601 122.077820,126.897598   C93.939743,126.888199 65.801598,126.926872 37.663666,126.864655   C33.603271,126.855675 30.882254,127.819580 30.893112,132.590149   C30.983669,172.379700 31.018318,212.169403 31.013321,252.427429   C30.942894,292.005707 30.916643,331.115601 30.928783,370.225494   C30.930542,375.894653 32.085403,377.154297 37.571365,377.163116   C56.042980,377.192841 74.514771,377.113525 93.446503,377.176636   C113.276039,377.210815 132.645554,377.144318 152.481171,377.122681   C169.964386,377.114044 186.981506,377.060516 204.466736,377.035095   C225.191147,377.099762 245.447495,377.136261 265.752991,377.627716   C265.816315,384.182983 265.948303,390.286133 265.802094,396.382599   C265.708740,400.274628 265.203735,404.156830 264.422791,408.026276   C253.688278,408.010132 243.414261,408.011108 233.024948,408.108826   C232.909637,408.205597 232.688599,408.001221 232.699890,407.791229   C232.570679,407.276306 232.337341,407.163879 231.546417,407.176361   C213.639053,407.090515 196.196365,407.046448 178.753937,407.097504   C177.162186,407.102173 175.572189,407.716797 173.514252,408.028931   C131.754456,408.006561 90.461723,408.041595 49.169243,407.956451   C43.405396,407.944580 37.635441,407.437225 31.881027,406.994080   C17.631567,405.896759 8.604213,397.794067 2.899419,385.244354   C2.634751,384.662079 1.649602,384.407288 1.000001,384.000000   C1.000000,296.312439 1.000000,208.624878 1.000000,120.468658  z"
   id="path4" />

<path
   fill="#ECC52E"
   opacity="1.000000"
   stroke="none"
   d=" M513.000000,507.531311   C503.635040,508.333923 494.270538,508.680603 484.904816,508.991577   C482.920135,509.057495 480.931152,508.992920 478.676392,508.616516   C479.275085,505.857178 480.891968,503.471680 480.897980,501.082153   C481.038391,445.416107 481.099335,389.749176 480.826172,334.084076   C480.803741,329.519714 478.953949,324.619019 476.789795,320.483429   C472.503418,312.292358 464.728394,308.461456 456.487518,306.158295   C458.268921,306.001648 459.643280,305.919678 461.017639,305.837738   C468.655243,305.889496 476.310669,306.292175 483.926086,305.906189   C493.957214,305.397736 507.713654,312.918701 511.295502,324.647614   C511.417633,325.047607 512.022339,325.300232 512.701050,325.310791   C513.000000,385.687561 513.000000,446.375122 513.000000,507.531311  z"
   id="path8" />
<path
   fill="#785252"
   opacity="1.000000"
   stroke="none"
   d=" M292.041046,105.874893   C281.363770,106.852066 271.383148,105.551872 263.260864,97.015076   C253.801758,81.680840 263.169922,67.654396 275.067505,64.534706   C277.585938,63.874344 280.308411,63.992325 282.677277,63.775448   C281.790436,58.272572 280.233521,52.731342 280.120483,47.160809   C279.736786,28.250540 295.788086,10.826265 316.988800,9.968143   C323.398834,9.708689 329.464661,10.706116 335.207153,13.598691   C339.838654,15.931653 344.067169,14.700152 348.265686,12.248803   C351.505341,10.357281 354.913635,8.754542 358.681946,7.292669   C364.214447,11.678226 369.497345,15.588627 374.359528,19.966311   C379.658295,24.737036 384.568787,25.454115 391.040833,22.078087   C394.251221,20.403418 397.756836,19.294619 401.128876,17.929810   C402.574585,19.266531 403.875732,20.821163 405.495361,21.895693   C409.131042,24.307768 412.934723,24.840160 416.994141,22.566456   C419.974243,20.897278 423.161163,19.597353 426.705627,18.483007   C434.543671,23.389997 441.932556,28.163506 445.501068,36.442822   C447.683472,41.506149 451.394806,43.352425 456.158295,44.995819   C479.733246,53.129082 486.749298,81.426552 474.379852,99.058693   C469.363220,106.209717 469.697418,112.023331 474.447754,118.936295   C484.509277,133.578384 481.440277,154.292374 468.096222,166.069031   C467.126587,166.924774 466.464020,168.873810 466.646606,170.176056   C468.825653,185.719818 461.211243,201.060089 446.944427,208.386078   C443.072571,210.374283 441.523315,212.680573 441.957245,216.893463   C442.647552,223.595245 439.611145,228.388519 433.838196,231.657684   C433.069916,232.092758 432.620331,233.090668 431.600586,233.895447   C422.216553,233.703201 413.255768,233.260971 404.293457,233.226746   C391.067596,233.176208 377.450317,221.205338 376.130493,205.640289   C375.486938,198.050797 377.976807,191.266083 385.285278,187.295883   C394.033051,182.543808 396.336823,164.201187 388.906555,157.510452   C387.606964,156.340195 385.826935,155.187561 384.169922,155.023163   C378.264374,154.437286 372.265594,153.646042 366.396088,154.113312   C357.867279,154.792267 352.819122,147.355072 355.792908,139.282608   C357.941437,133.450302 359.375671,127.358078 361.232086,121.414139   C363.633728,113.724487 360.768799,108.136772 352.755371,105.562088   C332.864685,105.242172 313.324951,105.145012 293.785034,105.096436   C293.204346,105.094986 292.622406,105.603920 292.041046,105.874893  z"
   id="path10" />
<path
   fill="#FFCDBE"
   opacity="1.000000"
   stroke="none"
   d=" M353.106232,105.791916   C360.768799,108.136772 363.633728,113.724487 361.232086,121.414139   C359.375671,127.358078 357.941437,133.450302 355.792908,139.282608   C352.819122,147.355072 357.867279,154.792267 366.396088,154.113312   C372.265594,153.646042 378.264374,154.437286 384.169922,155.023163   C385.826935,155.187561 387.606964,156.340195 388.906555,157.510452   C396.336823,164.201187 394.033051,182.543808 385.285278,187.295883   C377.976807,191.266083 375.486938,198.050797 376.130493,205.640289   C377.450317,221.205338 391.067596,233.176208 404.293457,233.226746   C413.255768,233.260971 422.216553,233.703201 432.054932,233.962128   C436.610352,233.975998 440.288849,233.990723 443.967285,234.005463   C443.982513,247.020935 443.997711,260.036438 443.963135,273.474243   C443.913300,273.896576 443.734192,274.059174 443.583923,274.148865   C443.248962,274.388306 443.105225,274.570343 442.536438,274.837524   C417.376099,274.855377 392.681671,274.820435 367.857117,274.617554   C367.523590,274.244110 367.285492,274.093414 366.958313,273.531525   C366.889893,266.409515 366.681122,259.746002 366.936707,253.100311   C367.083832,249.275467 366.061737,247.807236 361.963043,247.962021   C353.654602,248.275818 345.325500,248.109070 337.005890,248.033188   C332.698822,247.993912 328.219757,248.438324 324.118256,247.436539   C306.768768,243.199066 292.643311,228.772552 292.934143,207.842896   C293.308563,180.893539 292.930634,153.933731 292.921417,126.737289   C292.966064,126.496170 292.869263,126.015373 292.869263,126.015373   C292.942841,119.979286 293.016388,113.943199 293.307861,107.335373   C293.717773,106.596512 293.868500,106.398041 294.445007,106.113159   C314.310120,105.969360 333.708160,105.880638 353.106232,105.791916  z"
   id="path12" />
<path
   fill="#664646"
   opacity="1.000000"
   stroke="none"
   d=" M444.435791,234.009430   C440.288849,233.990723 436.610352,233.975998 432.477509,233.894592   C432.620331,233.090668 433.069916,232.092758 433.838196,231.657684   C439.611145,228.388519 442.647552,223.595245 441.957245,216.893463   C441.523315,212.680573 443.072571,210.374283 446.944427,208.386078   C461.211243,201.060089 468.825653,185.719818 466.646606,170.176056   C466.464020,168.873810 467.126587,166.924774 468.096222,166.069031   C481.440277,154.292374 484.509277,133.578384 474.447754,118.936295   C469.697418,112.023331 469.363220,106.209717 474.379852,99.058693   C486.749298,81.426552 479.733246,53.129082 456.158295,44.995819   C451.394806,43.352425 447.683472,41.506149 445.501068,36.442822   C441.932556,28.163506 434.543671,23.389997 427.066711,18.513081   C442.847992,11.238610 465.594574,19.341219 473.461182,35.155811   C475.766113,39.789497 478.631897,42.462566 483.634827,44.156975   C507.099670,52.104073 516.829956,80.294533 502.343842,100.241692   C497.740387,106.580566 498.346222,112.069244 502.707611,118.293694   C513.790405,134.110870 509.783783,153.662506 496.933990,166.608719   C495.855316,167.695511 494.953400,169.706345 495.114349,171.161194   C497.109100,189.191528 489.201355,201.648270 473.565948,209.672745   C469.990265,211.507858 471.131287,214.391998 471.060394,217.002487   C470.778137,227.394135 464.207336,233.988007 453.898712,234.017349   C450.900604,234.025879 447.902405,234.015244 444.435791,234.009430  z"
   id="path14" />
<path
   fill="#4980AC"
   opacity="1.000000"
   stroke="none"
   d=" M89.965416,61.023518   C82.192673,60.565289 73.414604,53.373985 72.486168,44.369942   C71.620872,35.978203 72.179916,27.136721 73.897629,18.863981   C75.732140,10.028699 83.961487,5.011060 93.068970,5.002695   C103.897011,4.992750 114.725067,4.996100 125.553116,5.001660   C135.393723,5.006712 142.433563,9.999660 145.149506,19.634947   C147.961273,29.610231 148.446426,39.663601 144.131226,49.480198   C141.347290,55.813313 136.519669,59.572208 128.949585,61.015717   C115.384567,61.028152 102.674995,61.025833 89.965416,61.023518  M102.631584,27.962126   C98.143448,32.139843 99.957817,36.177670 104.218094,39.722824   C107.185745,42.192337 113.185104,41.096535 115.352325,37.907818   C117.965561,34.062874 117.445595,28.457708 113.531113,27.150896   C110.456535,26.124479 106.667084,27.239437 102.631584,27.962126  z"
   id="path16" />
<path
   fill="#5D91B9"
   opacity="1.000000"
   stroke="none"
   d=" M367.987244,274.785461   C392.681671,274.820435 417.376099,274.855377 442.754211,274.840393   C443.761322,274.637756 443.860107,274.393982 443.734192,274.059174   C443.734192,274.059174 443.913300,273.896576 444.027039,273.937683   C459.574829,273.287170 461.638336,275.958038 461.029175,290.989166   C460.841248,295.626434 461.001892,300.277832 461.010315,305.380249   C459.643280,305.919678 458.268921,306.001648 456.016052,306.094757   C429.100311,306.162811 403.063019,306.219696 376.566101,306.170959   C367.052124,306.148041 357.997772,306.230774 348.719635,306.255066   C348.495819,306.196686 348.075043,306.004456 348.048889,305.538330   C348.015930,301.603516 347.924225,298.132538 348.017975,294.666595   C348.313171,283.754700 356.127075,275.618988 367.191772,274.905975   C367.637054,274.871185 367.812134,274.828339 367.987244,274.785461  z"
   id="path18" />
<path
   fill="#9EC8FC"
   opacity="1.000000"
   stroke="none"
   d=" M89.880127,61.371067   C102.674995,61.025833 115.384567,61.028152 128.564865,61.026802   C134.393387,71.846802 139.759232,82.666519 145.093369,93.501831   C145.510025,94.348206 145.705078,95.303673 146.019089,96.592209   C121.658882,96.981972 97.282722,96.987968 72.436035,96.984917   C77.908630,85.223450 83.851738,73.471031 89.880127,61.371067  z"
   id="path20" />
<path
   fill="#674646"
   opacity="1.000000"
   stroke="none"
   d=" M400.964355,17.635326   C397.756836,19.294619 394.251221,20.403418 391.040833,22.078087   C384.568787,25.454115 379.658295,24.737036 374.359528,19.966311   C369.497345,15.588627 364.214447,11.678226 359.047607,7.212147   C374.939484,2.290242 389.092346,4.935597 400.964355,17.635326  z"
   id="path22" />
<path
   fill="#F5DE46"
   opacity="1.000000"
   stroke="none"
   d=" M377.025757,306.276581   C403.063019,306.219696 429.100311,306.162811 455.609009,306.169434   C464.728394,308.461456 472.503418,312.292358 476.789795,320.483429   C478.953949,324.619019 480.803741,329.519714 480.826172,334.084076   C481.099335,389.749176 481.038391,445.416107 480.897980,501.082153   C480.891968,503.471680 479.275085,505.857178 478.214050,508.543335   C455.889130,508.894745 433.758850,508.977905 411.628479,508.992828   C379.010223,509.014862 346.391998,508.988251 313.576416,508.683685   C328.663391,503.005646 335.736237,493.301910 335.863129,476.916107   C335.997040,459.629303 335.853119,442.340332 335.775116,424.826813   C335.555542,424.313446 335.311127,424.136353 334.748169,424.016632   C334.509949,423.963257 334.035156,423.849182 334.210022,423.484192   C334.594910,421.821838 334.984619,420.524872 334.987762,419.226990   C335.027740,402.591766 335.045715,385.956299 334.993286,369.321136   C334.974518,363.364319 330.796844,359.105499 325.131012,359.018707   C319.097595,358.926300 315.008545,363.052399 314.997040,369.466461   C314.964569,387.598755 315.004486,405.731171 314.762085,423.922028   C314.339630,424.021484 314.170929,424.062500 313.535767,424.053314   C297.360168,423.972382 281.651001,423.941620 265.855927,423.728363   C265.612823,423.319000 265.411835,423.141846 265.092957,422.552856   C264.973663,417.408691 264.928497,412.726044 264.883301,408.043427   C265.203735,404.156830 265.708740,400.274628 265.802094,396.382599   C265.948303,390.286133 265.816315,384.182983 265.747559,377.201874   C265.851624,370.782593 265.080597,365.025116 266.324860,359.742310   C272.796936,332.264038 288.770874,313.436554 317.353058,307.962830   C327.352020,306.047943 337.820801,306.586395 348.075043,306.004456   C348.075043,306.004456 348.495819,306.196686 349.078766,306.459259   C358.783051,306.573425 367.904419,306.425018 377.025757,306.276581  z"
   id="path24" />
<path
   fill="#80B6FC"
   opacity="1.000000"
   stroke="none"
   d=" M348.048889,305.538330   C337.820801,306.586395 327.352020,306.047943 317.353058,307.962830   C288.770874,313.436554 272.796936,332.264038 266.324860,359.742310   C265.080597,365.025116 265.851624,370.782593 265.698395,376.746918   C245.447495,377.136261 225.191147,377.099762 204.466492,376.565765   C203.961578,334.667389 203.924988,293.266510 203.911942,251.410339   C203.926620,209.667358 203.917755,168.379654 203.908890,127.091965   C232.965820,127.030960 262.022736,126.969955 291.759705,126.923599   C292.439728,126.938240 292.876770,126.978416 292.876770,126.978416   C292.930634,153.933731 293.308563,180.893539 292.934143,207.842896   C292.643311,228.772552 306.768768,243.199066 324.118256,247.436539   C328.219757,248.438324 332.698822,247.993912 337.005890,248.033188   C345.325500,248.109070 353.654602,248.275818 361.963043,247.962021   C366.061737,247.807236 367.083832,249.275467 366.936707,253.100311   C366.681122,259.746002 366.889893,266.409515 366.917297,273.754761   C366.930603,274.444000 366.921509,274.897888 366.921509,274.897888   C356.127075,275.618988 348.313171,283.754700 348.017975,294.666595   C347.924225,298.132538 348.015930,301.603516 348.048889,305.538330  z"
   id="path26" />
<path
   fill="#9EC8FC"
   opacity="1.000000"
   stroke="none"
   d=" M203.888397,251.865616   C203.924988,293.266510 203.961578,334.667389 203.998398,376.537659   C186.981506,377.060516 169.964386,377.114044 152.476501,376.648621   C151.998322,372.323151 152.093002,368.513214 151.964691,364.710785   C151.550186,352.425079 142.029449,342.089417 130.120392,340.512482   C129.999100,337.003113 129.938950,333.941986 130.072144,330.606689   C137.402603,325.894562 140.816650,319.595337 140.033981,311.103455   C139.836792,308.963806 140.070160,306.788147 139.977509,304.634552   C139.680176,297.721893 134.026123,290.510223 127.899887,289.146027   C118.712654,287.100220 110.448624,289.797760 107.517059,297.330963   C105.502838,302.506897 105.550217,308.548035 105.059357,314.235535   C104.599480,319.564056 107.141762,323.811371 110.873184,327.437927   C112.028816,328.561066 113.055489,329.816895 114.090729,331.461151   C114.020126,334.891815 113.999992,337.873291 113.598587,340.901123   C103.460342,343.054291 96.758865,349.009308 94.311928,358.448578   C92.775871,364.374054 93.355873,370.848053 92.986496,377.075958   C74.514771,377.113525 56.042980,377.192841 37.571365,377.163116   C32.085403,377.154297 30.930542,375.894653 30.928783,370.225494   C30.916643,331.115601 30.942894,292.005707 31.476559,252.441376   C52.358120,251.963120 72.719925,251.939331 93.544632,251.957001   C113.315765,251.970947 132.623993,251.943436 152.404480,251.941589   C169.880630,251.933380 186.884521,251.899506 203.888397,251.865616  z"
   id="path28" />
<path
   fill="#DDEBFD"
   opacity="1.000000"
   stroke="none"
   d=" M93.081734,251.915527   C72.719925,251.939331 52.358120,251.963120 31.533077,251.972992   C31.018318,212.169403 30.983669,172.379700 30.893112,132.590149   C30.882254,127.819580 33.603271,126.855675 37.663666,126.864655   C65.801598,126.926872 93.939743,126.888199 122.077820,126.897598   C149.050064,126.906601 176.022293,126.934532 203.451721,127.023056   C203.917755,168.379654 203.926620,209.667358 203.911942,251.410339   C186.884521,251.899506 169.880630,251.933380 152.421753,251.484039   C151.970291,248.334824 152.024429,245.667770 151.968918,243.003021   C151.673935,228.845963 145.084763,218.432999 130.098648,215.004211   C130.012497,211.742279 129.959610,208.883575 130.072540,205.725906   C137.340103,200.698318 140.895142,194.247437 140.034012,185.563889   C139.837860,183.585968 140.068161,181.569672 139.981140,179.576324   C139.597214,170.782990 132.384186,163.479279 123.678337,163.017334   C114.577774,162.534439 106.060616,168.909409 105.240463,177.739365   C104.314232,187.711304 103.572899,197.976273 113.641998,204.695496   C113.976822,204.918945 114.010506,205.593658 114.117783,206.499405   C113.959366,209.885178 113.867722,212.829575 113.391129,215.811035   C101.487122,218.023346 93.148788,227.866348 93.060944,239.435242   C93.029358,243.595047 93.072632,247.755417 93.081734,251.915527  z"
   id="path30" />
<path
   fill="#EDF6FF"
   opacity="1.000000"
   stroke="none"
   d=" M93.446510,377.176636   C93.355873,370.848053 92.775871,364.374054 94.311928,358.448578   C96.758865,349.009308 103.460342,343.054291 113.869781,341.132202   C115.991531,345.335632 118.459496,348.318451 123.108070,347.896179   C127.116737,347.532074 129.610199,345.095917 130.181503,340.960693   C142.029449,342.089417 151.550186,352.425079 151.964691,364.710785   C152.093002,368.513214 151.998322,372.323151 152.010406,376.603729   C132.645554,377.144318 113.276039,377.210815 93.446510,377.176636  z"
   id="path32" />
<path
   fill="#BED9FD"
   opacity="1.000000"
   stroke="none"
   d=" M166.160828,432.002716   C168.771988,424.282562 171.383133,416.562378 173.987839,408.445190   C175.572189,407.716797 177.162186,407.102173 178.753937,407.097504   C196.196365,407.046448 213.639053,407.090515 231.633057,407.324097   C232.322739,407.725861 232.490784,407.879791 232.688599,408.001221   C232.688599,408.001221 232.909637,408.205597 233.083588,408.482697   C235.875824,416.487122 238.494125,424.214478 240.637360,431.957794   C215.495163,431.983429 190.827988,431.993073 166.160828,432.002716  z"
   id="path34" />

<path
   fill="#A99396"
   opacity="1.000000"
   stroke="none"
   d=" M352.755371,105.562088   C333.708160,105.880638 314.310120,105.969360 294.214783,106.068253   C293.517487,106.078423 293.049133,106.046829 293.049133,106.046829   C292.879944,106.024925 292.710754,106.003014 292.291290,105.928001   C292.622406,105.603920 293.204346,105.094986 293.785034,105.096436   C313.324951,105.145012 332.864685,105.242172 352.755371,105.562088  z"
   id="path38" />
<path
   fill="#B3CEF2"
   opacity="1.000000"
   stroke="none"
   d=" M232.699890,407.791229   C232.490784,407.879791 232.322739,407.725861 232.097809,407.391724   C232.337341,407.163879 232.570679,407.276306 232.699890,407.791229  z"
   id="path40" />
<path
   fill="#5087B7"
   opacity="1.000000"
   stroke="none"
   d=" M292.921417,126.737289   C292.876770,126.978416 292.439728,126.938240 292.227539,126.882462   C292.142914,126.588753 292.313690,126.387459 292.698456,126.119095   C292.869263,126.015373 292.966064,126.496170 292.921417,126.737289  z"
   id="path42" />
<path
   fill="#F1CAC3"
   opacity="1.000000"
   stroke="none"
   d=" M293.061005,106.284035   C293.049133,106.046829 293.517487,106.078423 293.747711,106.123329   C293.868500,106.398041 293.717773,106.596512 293.369629,106.869301   C293.213501,106.974960 293.072876,106.521240 293.061005,106.284035  z"
   id="path44" />
<path
   fill="#FFCDBE"
   opacity="1.000000"
   stroke="none"
   d=" M251.076736,460.928650   C255.382278,460.950195 259.687805,460.971771 264.754608,460.681610   C265.700897,448.277588 265.885925,436.185242 266.054077,424.036499   C266.037231,423.980042 265.941864,423.910858 265.941864,423.910858   C281.651001,423.941620 297.360168,423.972382 313.547516,424.512451   C314.027222,443.933777 314.305450,462.852661 313.835388,481.752930   C313.718079,486.468170 311.837555,491.460052 309.624512,495.732788   C305.608124,503.487335 297.911957,506.515961 289.988068,508.841156   C246.883606,508.893951 203.779114,508.995300 160.674759,508.948730   C153.981232,508.941528 147.714798,501.566833 147.012711,493.564819   C146.925903,492.575470 147.000870,491.571899 147.000870,490.009033   C139.471436,490.009033 131.998642,489.577637 124.606506,490.163666   C119.834564,490.541992 116.399635,494.072937 114.303139,498.341339   C109.341805,508.442291 100.580505,509.909485 90.756989,508.956238   C86.945328,508.586365 83.067001,502.555756 84.061073,498.331421   C88.336372,480.163635 101.643562,465.089264 120.857666,462.239471   C132.057098,460.578430 143.614029,461.327667 155.943024,460.994141   C188.276215,460.973419 219.676483,460.951019 251.076736,460.928650  z"
   id="path46" />
<path
   fill="#DDEBFD"
   opacity="1.000000"
   stroke="none"
   d=" M251.041290,460.533020   C219.676483,460.951019 188.276215,460.973419 156.406357,460.956299   C159.293655,451.536224 162.650558,442.155670 166.084137,432.388916   C190.827988,431.993073 215.495163,431.983429 240.637360,431.957794   C244.410217,441.340332 247.708023,450.738892 251.041290,460.533020  z"
   id="path48" />
<path
   fill="#EBAE9D"
   opacity="1.000000"
   stroke="none"
   d=" M290.451019,508.924194   C297.911957,506.515961 305.608124,503.487335 309.624512,495.732788   C311.837555,491.460052 313.718079,486.468170 313.835388,481.752930   C314.305450,462.852661 314.027222,443.933777 314.013977,424.562622   C314.170929,424.062500 314.339630,424.021484 315.227417,423.970032   C321.976074,423.922760 328.005615,423.885986 334.035156,423.849182   C334.035156,423.849182 334.509949,423.963257 334.855591,424.207214   C335.368774,424.695770 335.578552,424.896149 335.830566,425.052307   C335.853119,442.340332 335.997040,459.629303 335.863129,476.916107   C335.736237,493.301910 328.663391,503.005646 313.100952,508.615326   C305.519867,508.899536 298.216919,508.953400 290.451019,508.924194  z"
   id="path50" />
<path
   fill="#E9C5BE"
   opacity="1.000000"
   stroke="none"
   d=" M443.583923,274.148865   C443.860107,274.393982 443.761322,274.637756 443.220123,274.787598   C443.105225,274.570343 443.248962,274.388306 443.583923,274.148865  z"
   id="path52" />
<path
   fill="#E9C5BE"
   opacity="1.000000"
   stroke="none"
   d=" M367.191772,274.905975   C366.921509,274.897888 366.930603,274.444000 366.971649,274.220764   C367.285492,274.093414 367.523590,274.244110 367.857117,274.617554   C367.812134,274.828339 367.637054,274.871185 367.191772,274.905975  z"
   id="path54" />
<path
   fill="#9CC6FA"
   opacity="1.000000"
   stroke="none"
   d=" M102.913391,27.682625   C106.667084,27.239437 110.456535,26.124479 113.531113,27.150896   C117.445595,28.457708 117.965561,34.062874 115.352325,37.907818   C113.185104,41.096535 107.185745,42.192337 104.218094,39.722824   C99.957817,36.177670 98.143448,32.139843 102.913391,27.682625  z"
   id="path56" />
<path
   fill="#CDCE7F"
   opacity="1.000000"
   stroke="none"
   d=" M376.566101,306.170959   C367.904419,306.425018 358.783051,306.573425 349.302582,306.517639   C357.997772,306.230774 367.052124,306.148041 376.566101,306.170959  z"
   id="path58" />
<path
   fill="#ECC52E"
   opacity="1.000000"
   stroke="none"
   d=" M334.210022,423.484222   C328.005615,423.885986 321.976074,423.922760 315.481201,423.911560   C315.004486,405.731171 314.964569,387.598755 314.997040,369.466461   C315.008545,363.052399 319.097595,358.926300 325.131012,359.018707   C330.796844,359.105499 334.974518,363.364319 334.993286,369.321136   C335.045715,385.956299 335.027740,402.591766 334.987762,419.226990   C334.984619,420.524872 334.594910,421.821838 334.210022,423.484222  z"
   id="path60" />

<path
   fill="#F3C983"
   opacity="1.000000"
   stroke="none"
   d=" M335.775116,424.826813   C335.578552,424.896149 335.368774,424.695770 335.093811,424.260620   C335.311127,424.136353 335.555542,424.313446 335.775116,424.826813  z"
   id="path64" />
<path
   fill="#E27C49"
   opacity="1.000000"
   stroke="none"
   d=" M130.131912,215.407425   C145.084763,218.432999 151.673935,228.845963 151.968918,243.003021   C152.024429,245.667770 151.970291,248.334824 151.949493,251.458374   C132.623993,251.943436 113.315765,251.970947 93.544632,251.957001   C93.072632,247.755417 93.029358,243.595047 93.060944,239.435242   C93.148788,227.866348 101.487122,218.023346 113.671524,216.040497   C116.358055,219.744385 118.357216,223.512741 123.269150,222.864548   C127.422592,222.316422 129.592102,219.504486 130.131912,215.407425  z"
   id="path66" />
<path
   fill="#FEDECF"
   opacity="1.000000"
   stroke="none"
   d=" M114.141205,331.011963   C113.055489,329.816895 112.028816,328.561066 110.873184,327.437927   C107.141762,323.811371 104.599480,319.564056 105.059357,314.235535   C105.550217,308.548035 105.502838,302.506897 107.517059,297.330963   C110.448624,289.797760 118.712654,287.100220 127.899887,289.146027   C134.026123,290.510223 139.680176,297.721893 139.977509,304.634552   C140.070160,306.788147 139.836792,308.963806 140.033981,311.103455   C140.816650,319.595337 137.402603,325.894562 129.662430,330.638550   C124.086639,330.967041 119.113930,330.989502 114.141205,331.011963  z"
   id="path68" />
<path
   fill="#EBAF9E"
   opacity="1.000000"
   stroke="none"
   d=" M114.090736,331.461151   C119.113930,330.989502 124.086639,330.967041 129.469086,330.912720   C129.938950,333.941986 129.999100,337.003113 130.120392,340.512482   C129.610199,345.095917 127.116737,347.532074 123.108070,347.896179   C118.459496,348.318451 115.991531,345.335632 114.251060,341.085876   C113.999992,337.873291 114.020126,334.891815 114.090736,331.461151  z"
   id="path70" />
<path
   fill="#EBAF9E"
   opacity="1.000000"
   stroke="none"
   d=" M114.184563,206.058029   C114.010506,205.593658 113.976822,204.918945 113.641998,204.695496   C103.572899,197.976273 104.314232,187.711304 105.240463,177.739365   C106.060616,168.909409 114.577774,162.534439 123.678337,163.017334   C132.384186,163.479279 139.597214,170.782990 139.981140,179.576324   C140.068161,181.569672 139.837860,183.585968 140.034012,185.563889   C140.895142,194.247437 137.340103,200.698318 129.661270,205.712402   C124.117630,206.017914 119.151100,206.037979 114.184563,206.058029  z"
   id="path72" />
<path
   fill="#E09380"
   opacity="1.000000"
   stroke="none"
   d=" M114.117783,206.499405   C119.151100,206.037979 124.117630,206.017914 129.495453,206.011368   C129.959610,208.883575 130.012497,211.742279 130.098648,215.004211   C129.592102,219.504486 127.422592,222.316422 123.269150,222.864548   C118.357216,223.512741 116.358055,219.744385 114.056473,216.003418   C113.867722,212.829575 113.959366,209.885178 114.117783,206.499405  z"
   id="path74" />

</svg>
