<svg width="24" height="24" viewBox="0 0 24 24" fill="none" xmlns="http://www.w3.org/2000/svg">
<path fill-rule="evenodd" clip-rule="evenodd" d="M6.65677 6.65677C4.31363 8.99992 4.31363 12.7989 6.65677 15.1421C8.99992 17.4852 12.7989 17.4852 15.1421 15.1421C17.4852 12.7989 17.4852 8.99992 15.1421 6.65677C12.7989 4.31363 8.99992 4.31363 6.65677 6.65677ZM5.24256 16.5563C2.11837 13.4321 2.11837 8.36675 5.24256 5.24256C8.36675 2.11837 13.4321 2.11837 16.5563 5.24256C19.509 8.19532 19.6711 12.882 17.0424 16.0251C17.1156 16.1419 17.2089 16.2754 17.3266 16.4197C17.7696 16.9629 18.5797 17.6866 20.0211 18.232C20.5376 18.4274 20.7979 19.0046 20.6024 19.5211C20.407 20.0377 19.8298 20.298 19.3133 20.1025C17.5371 19.4305 16.4382 18.495 15.7766 17.6836C15.6983 17.5876 15.6265 17.4938 15.5606 17.4027C12.4346 19.649 8.05312 19.3668 5.24256 16.5563Z" fill="#0F1013"/>
</svg>
