<svg width="393" height="427" viewBox="0 0 393 427" fill="none" xmlns="http://www.w3.org/2000/svg">
<g style="mix-blend-mode:soft-light">
<path d="M155.095 196.531C142.63 196.531 134.805 189.237 134.805 177.7C134.805 174.384 135.734 169.876 137.458 164.969L189.707 22.6766C195.276 7.16103 204.692 0 219.81 0C235.458 0 244.741 6.89581 250.443 22.544L302.957 164.969C304.814 170.141 305.477 173.721 305.477 177.7C305.477 188.706 297.122 196.531 285.452 196.531C274.18 196.531 268.213 191.359 264.632 178.893L254.554 148.658H185.463L175.385 178.495C171.672 191.226 165.704 196.531 155.095 196.531ZM194.216 117.627H245.271L219.942 39.2531H219.014L194.216 117.627Z" fill="white"/>
<path d="M65.0062 196.531C52.4081 196.531 44.9819 188.839 44.9819 175.711V122.533L-13.3673 32.3573C-16.2847 27.8485 -17.4782 23.3397 -17.4782 18.8309C-17.4782 7.9567 -8.99109 0 2.54613 0C11.1659 0 15.8073 3.18268 21.1118 12.3329L64.8736 84.3411H65.8019L109.696 12.3329C114.736 3.58052 119.907 0 127.864 0C139.136 0 147.623 7.9567 147.623 18.5656C147.623 23.2071 146.297 27.5832 143.38 32.2246L85.0306 122.533V175.711C85.0306 188.839 77.6043 196.531 65.0062 196.531Z" fill="white"/>
<path d="M240.3 425.441C227.702 425.441 220.276 417.75 220.276 404.621V249.864C220.276 236.602 227.702 228.911 240.3 228.911C252.898 228.911 260.324 236.602 260.324 249.864V404.621C260.324 417.75 252.898 425.441 240.3 425.441Z" fill="white"/>
<path d="M342.544 367.225C331.272 367.225 324.641 359.533 324.641 348.659V346.803C324.641 331.155 332.73 320.811 348.379 311.661C365.485 301.45 370.657 294.819 370.657 282.619C370.657 269.623 360.579 260.605 345.992 260.605C332.996 260.605 324.243 266.97 320 278.773C316.684 287.26 310.717 290.973 302.628 290.973C292.151 290.973 285.653 284.475 285.653 274.397C285.653 268.694 286.979 263.655 289.632 258.616C298.119 241.111 319.337 229.839 347.848 229.839C385.51 229.839 410.839 250.527 410.839 281.425C410.839 301.45 401.158 315.109 382.46 326.115C364.822 336.326 360.844 342.029 359.12 353.168C357.131 362.053 351.959 367.225 342.544 367.225ZM342.809 426.237C330.874 426.237 321.193 417.087 321.193 405.417C321.193 393.747 330.874 384.597 342.809 384.597C354.877 384.597 364.557 393.747 364.557 405.417C364.557 417.087 354.877 426.237 342.809 426.237Z" fill="white"/>
<path d="M64.6236 425.441C52.0254 425.441 44.5992 417.75 44.5992 404.621V249.864C44.5992 236.602 52.0254 228.911 64.6236 228.911C77.2217 228.911 84.6479 236.602 84.6479 249.864V316.169H85.8414L157.85 237.531C163.419 231.431 168.459 228.911 175.089 228.911C185.698 228.911 193.92 237 193.92 247.344C193.92 252.914 191.931 257.29 186.892 262.594L134.112 317.893L191.533 387.647C197.501 395.073 200.153 400.776 200.153 406.213C200.153 417.087 191.798 425.574 180.791 425.574C172.569 425.574 167 422.524 160.767 414.567L103.744 344.416L84.6479 364.44V404.621C84.6479 417.75 77.2217 425.441 64.6236 425.441Z" fill="white"/>
</g>
</svg>
