<?xml version="1.0" encoding="UTF-8" standalone="no"?>
<svg
   version="1.1"
   id="Layer_1"
   x="0px"
   y="0px"
   width="100%"
   viewBox="0 0 512 512"
   enable-background="new 0 0 512 512"
   xml:space="preserve"
   sodipodi:docname="sun_adobe_express.svg"
   inkscape:version="1.2.2 (b0a8486, 2022-12-01)"
   xmlns:inkscape="http://www.inkscape.org/namespaces/inkscape"
   xmlns:sodipodi="http://sodipodi.sourceforge.net/DTD/sodipodi-0.dtd"
   xmlns="http://www.w3.org/2000/svg"
   xmlns:svg="http://www.w3.org/2000/svg"><defs
   id="defs179" /><sodipodi:namedview
   id="namedview177"
   pagecolor="#ffffff"
   bordercolor="#000000"
   borderopacity="0.25"
   inkscape:showpageshadow="2"
   inkscape:pageopacity="0.0"
   inkscape:pagecheckerboard="0"
   inkscape:deskcolor="#d1d1d1"
   showgrid="false"
   inkscape:zoom="0.4609375"
   inkscape:cx="257.08475"
   inkscape:cy="256"
   inkscape:window-width="1463"
   inkscape:window-height="456"
   inkscape:window-x="0"
   inkscape:window-y="25"
   inkscape:window-maximized="0"
   inkscape:current-layer="Layer_1" />

<path
   fill="#FAA019"
   opacity="1.000000"
   stroke="none"
   d=" M17.015358,261.388947   C15.327455,250.350311 20.618639,244.317017 29.608891,239.568817   C40.263290,233.941711 50.712120,227.698425 56.963520,216.561890   C66.127167,200.237350 65.809158,184.911072 57.263988,168.792709   C54.219398,163.049866 50.309280,157.652771 48.063499,151.624969   C44.314514,141.562500 48.321091,129.848129 61.188786,128.995773   C71.034180,128.343643 81.046753,128.580688 90.686111,126.802307   C109.201546,123.386353 123.506416,109.149765 126.840881,90.284058   C128.150757,82.873093 127.553551,75.137589 128.047943,67.564445   C128.280365,64.004074 128.481049,60.277557 129.665466,56.973862   C133.361496,46.664555 143.608582,44.649807 152.470657,48.327957   C162.311691,52.412418 171.479874,58.189270 181.432114,61.918701   C198.310593,68.243614 219.695053,58.958649 229.767349,45.363369   C234.674820,38.739422 238.704681,31.447289 242.910172,24.326717   C246.592163,18.092550 252.120728,16.568594 258.861481,16.938404   C264.473053,17.246264 268.176239,19.911688 271.201874,24.487871   C277.118347,33.436378 282.263245,43.267139 289.719238,50.747395   C304.756653,65.833672 327.157043,68.071686 345.825043,56.759670   C351.239441,53.478771 356.760406,50.088448 362.671417,47.976971   C372.349152,44.519974 383.985229,48.055637 384.971649,60.981304   C385.498993,67.891487 385.862762,74.826118 385.964142,81.754639   C386.282349,103.500961 402.327911,123.611336 424.483032,126.934868   C429.992462,127.761345 435.641022,127.647568 441.222992,128.007126   C445.983368,128.313766 450.767456,128.465683 455.491272,129.073105   C461.417999,129.835205 466.394653,136.562943 467.111084,142.606659   C468.322540,152.825516 461.967896,160.133896 457.384674,167.682022   C444.065399,189.617645 450.537781,217.239319 470.490570,230.911484   C476.513428,235.038528 482.613281,239.194244 489.128571,242.429092   C499.394226,247.525955 500.034241,265.040314 490.178955,270.995300   C483.098145,275.273804 475.816833,279.290955 469.108673,284.099457   C458.829102,291.467987 453.406830,301.920380 450.907959,314.292725   C447.782043,329.769440 454.735443,342.193054 462.109985,354.552490   C466.480896,361.877930 469.532959,369.231934 465.077148,377.546997   C462.592255,382.184174 458.691071,384.735474 453.263184,385.035156   C443.418823,385.578705 433.533325,385.900238 423.760132,387.093567   C406.584717,389.190704 389.220337,406.584930 387.098480,423.755127   C386.170410,431.265228 386.491974,438.921875 385.934265,446.488953   C385.649780,450.348877 385.302521,454.407837 383.893402,457.942139   C380.036987,467.614716 370.217255,468.911407 361.944550,465.845459   C356.504974,463.829529 351.398682,460.750458 346.411255,457.707977   C329.050720,447.117523 311.939941,447.929230 295.018768,458.535309   C286.394562,463.940887 281.540009,472.545807 276.446655,480.969940   C273.201233,486.337616 271.047211,492.790863 264.767181,495.642059   C258.210938,498.618652 247.618454,497.907227 242.938171,489.954895   C238.819595,482.956909 234.589035,475.998871 229.965118,469.330231   C222.711227,458.868591 212.248428,453.488098 199.941345,450.940186   C184.531464,447.749847 171.949677,454.546265 159.654419,462.007080   C153.189407,465.930084 146.602859,468.577576 139.223557,466.561890   C131.932922,464.570374 128.258865,457.455872 127.975586,447.227356   C127.756233,439.307129 128.222778,431.231110 126.821945,423.507721   C123.443710,404.882080 109.170540,390.586914 90.448807,387.162048   C83.213104,385.838348 75.609718,386.664490 68.239166,385.889709   C63.139339,385.353668 57.511852,384.854462 53.255890,382.383026   C45.967682,378.150604 45.119835,368.720428 48.423256,361.218964   C52.656006,351.607178 58.340584,342.565948 61.876293,332.731232   C67.948906,315.840027 59.173752,293.643707 44.625340,283.997131   C37.861309,279.512085 30.653021,275.660706 24.131990,270.861847   C21.157108,268.672607 19.358891,264.884430 17.015358,261.388947  M104.267563,208.869080   C97.323936,232.651291 94.893105,256.738525 98.919617,281.358612   C105.907883,324.088440 126.486771,358.713135 160.926682,384.866730   C185.090134,403.216431 212.455933,413.416260 242.778381,416.226471   C266.084808,418.386475 288.594208,415.475433 310.501862,407.722290   C339.616760,397.418518 363.757812,380.073273 382.850098,355.703064   C404.180939,328.475464 415.329681,297.479797 416.901672,263.091492   C417.877014,241.755798 414.356415,221.005020 406.851349,200.950760   C396.634186,173.649490 380.341797,150.579193 357.552948,132.529968   C320.696228,103.338722 278.700562,92.034225 232.123840,99.046814   C199.053894,104.025818 170.362564,118.449707 146.210724,141.481613   C126.707230,160.080704 112.919525,182.461990 104.267563,208.869080  z"
   id="path146" />
<path
   fill="#FFD205"
   opacity="1.000000"
   stroke="none"
   d=" M81.334335,71.893341   C88.519905,69.921539 94.601364,70.785873 99.686844,76.152092   C103.238815,79.900139 106.998108,83.450920 110.631531,87.122734   C116.879845,93.437057 116.625305,103.933510 110.094475,110.410805   C103.836395,116.617592 93.319298,116.747948 87.162140,110.666580   C83.724037,107.270805 80.618599,103.466339 76.857246,100.484283   C68.375999,93.760239 68.050125,77.889748 81.334335,71.893341  z"
   id="path148" />
<path
   fill="#FFD205"
   opacity="1.000000"
   stroke="none"
   d=" M426.666626,110.829994   C419.039154,117.215622 409.126038,116.311821 402.455505,109.001907   C397.618561,103.701340 397.752838,91.717003 403.626678,86.746346   C407.797150,83.217155 411.396057,79.019043 415.325531,75.197037   C421.573242,69.120209 431.858521,69.377113 438.204468,75.699265   C444.608643,82.079346 444.952087,92.315208 438.893280,98.572853   C434.964874,102.630180 430.928772,106.583206 426.666626,110.829994  z"
   id="path150" />
<path
   fill="#FFD205"
   opacity="1.000000"
   stroke="none"
   d=" M416.799042,399.000305   C420.763977,400.773865 424.642090,402.089478 427.734894,404.438934   C431.414764,407.234375 434.423859,410.913940 437.717224,414.216766   C446.832733,423.358398 444.398651,436.855530 432.692169,442.096008   C427.784088,444.293213 419.668488,442.971771 415.725708,439.181641   C411.883820,435.488525 408.395813,431.393890 404.336670,427.968140   C398.732300,423.238190 397.355499,414.688110 400.428284,408.228851   C403.484039,401.805420 409.014526,398.559448 416.799042,399.000305  z"
   id="path152" />
<path
   fill="#FFD205"
   opacity="1.000000"
   stroke="none"
   d=" M71.556442,421.933228   C72.972839,419.510376 73.744850,417.074982 75.297485,415.336975   C78.843597,411.367462 82.771072,407.738586 86.545074,403.972778   C93.415970,397.116852 103.456070,397.425323 110.605934,403.921082   C116.074547,408.889374 116.789230,422.383667 109.912041,427.727448   C106.257202,430.567383 102.976990,434.018738 100.023224,437.602539   C95.131264,443.537933 85.926285,443.961304 81.644699,442.174744   C74.120468,439.035126 70.930573,434.052124 71.010857,425.702850   C71.021973,424.546997 71.177727,423.392487 71.556442,421.933228  z"
   id="path154" />
<path
   fill="#FFD205"
   opacity="1.000000"
   stroke="none"
   d=" M319.289215,56.911224   C311.444458,57.589680 304.460663,56.353714 300.897034,49.099651   C299.215149,45.676094 298.486511,41.040504 299.222565,37.330357   C300.677094,29.998573 302.849854,22.665192 305.845947,15.823062   C308.963898,8.702752 316.037262,8.438651 322.663635,9.110693   C328.680603,9.720933 333.787323,14.713644 334.910706,20.741861   C335.418884,23.468874 335.493500,26.476582 334.903931,29.168398   C333.495789,35.597839 332.397522,42.315472 329.563171,48.131699   C327.791016,51.768303 323.091980,53.978596 319.289215,56.911224  z"
   id="path156" />
<path
   fill="#FFD205"
   opacity="1.000000"
   stroke="none"
   d=" M299.044189,478.751465   C298.021332,472.953644 298.292938,468.008362 301.860077,463.293091   C306.189423,457.570282 312.050232,456.053284 318.326660,457.200745   C323.583954,458.161896 328.313080,461.091553 330.012451,466.909363   C332.044769,473.866852 334.256134,480.790283 335.865448,487.848083   C337.550232,495.236816 329.402832,504.540161 321.312469,504.999237   C310.319580,505.622925 304.707306,501.052979 301.981232,489.433289   C301.170197,485.976440 300.055023,482.590942 299.044189,478.751465  z"
   id="path158" />
<path
   fill="#FFD205"
   opacity="1.000000"
   stroke="none"
   d=" M214.455017,466.910797   C216.460327,478.472900 212.945389,488.703003 208.001236,498.489990   C204.541214,505.339111 197.834213,505.515930 191.384216,504.890991   C185.397522,504.310944 180.197433,499.308960 179.098328,493.339203   C178.566132,490.448547 178.508621,487.276947 179.103455,484.412659   C180.341141,478.452545 181.756439,472.465637 183.846863,466.764069   C185.942322,461.048798 190.707397,457.716644 196.709091,457.086853   C204.523285,456.266815 210.783463,458.997009 214.455017,466.910797  z"
   id="path160" />
<path
   fill="#FFD205"
   opacity="1.000000"
   stroke="none"
   d=" M184.349747,12.165760   C193.413315,6.004866 208.429962,8.124421 211.154221,22.259840   C212.564224,29.575951 216.179108,36.481125 215.003464,44.256645   C213.471161,54.391174 202.582214,59.091537 193.850342,56.365356   C188.151871,54.586231 184.597397,50.704395 183.042023,44.987858   C181.352890,38.779747 179.059708,32.637699 178.275009,26.312380   C177.627594,21.093937 179.889252,16.120556 184.349747,12.165760  z"
   id="path162" />
<path
   fill="#FFD205"
   opacity="1.000000"
   stroke="none"
   d=" M475.373718,181.272141   C479.055176,180.363785 482.365021,179.619644 485.695770,178.985077   C494.180115,177.368637 502.878357,182.234894 504.906708,189.685211   C507.303040,198.487106 502.762360,207.803452 494.096680,210.299088   C486.835602,212.390198 479.342377,213.927780 471.846649,214.891586   C460.946320,216.293167 454.299652,202.295425 457.874878,192.995987   C461.006897,184.849442 467.961823,183.312469 475.373718,181.272141  z"
   id="path164" />
<path
   fill="#FFD205"
   opacity="1.000000"
   stroke="none"
   d=" M33.938667,179.997009   C38.072254,181.065155 41.795502,182.079788 45.485775,183.202759   C51.978222,185.178482 55.919373,189.787460 56.882236,196.252167   C58.077457,204.276962 54.649109,210.833786 47.785202,213.915436   C45.123466,215.110443 41.547226,215.498642 38.713371,214.844040   C30.944191,213.049377 23.054129,211.187195 15.774952,208.046722   C9.819078,205.477127 7.253714,197.594391 9.114188,190.267105   C10.608535,184.381775 14.693164,180.032455 20.841022,179.173782   C24.946968,178.600311 29.281334,179.662247 33.938667,179.997009  z"
   id="path166" />
<path
   fill="#FFD205"
   opacity="1.000000"
   stroke="none"
   d=" M500.223328,331.283447   C493.483276,337.083496 486.162018,335.648895 478.914856,333.927612   C475.171539,333.038574 471.537659,331.664612 467.887451,330.413177   C461.985199,328.389709 457.414917,322.461914 456.956390,317.020050   C456.262970,308.790497 460.379608,301.827332 466.903351,299.816864   C470.679047,298.653290 475.094971,298.670044 479.061798,299.252350   C483.959717,299.971252 488.741882,301.672119 493.483276,303.225800   C505.696259,307.227844 509.239319,321.459412 500.223328,331.283447  z"
   id="path168" />
<path
   fill="#FFD205"
   opacity="1.000000"
   stroke="none"
   d=" M18.912075,334.424561   C12.102084,332.194244 8.292500,325.582825 8.969999,316.791718   C9.441545,310.673035 13.127107,305.518768 19.930561,303.665344   C27.223766,301.678558 34.684616,300.065704 42.176926,299.109222   C52.739647,297.760803 59.624664,310.996613 56.367519,320.089600   C54.414783,325.541046 50.780247,329.421173 45.001648,330.964874   C38.793129,332.623383 32.635033,334.533295 26.347328,335.798920   C24.127897,336.245667 21.590942,335.114929 18.912075,334.424561  z"
   id="path170" />
<path
   fill="#F06423"
   opacity="1.000000"
   stroke="none"
   d=" M104.396271,208.491776   C112.919525,182.461990 126.707230,160.080704 146.210724,141.481613   C170.362564,118.449707 199.053894,104.025818 232.123840,99.046814   C278.700562,92.034225 320.696228,103.338722 357.552948,132.529968   C380.341797,150.579193 396.634186,173.649490 406.851349,200.950760   C414.356415,221.005020 417.877014,241.755798 416.901672,263.091492   C415.329681,297.479797 404.180939,328.475464 382.850098,355.703064   C363.757812,380.073273 339.616760,397.418518 310.501862,407.722290   C288.594208,415.475433 266.084808,418.386475 242.778381,416.226471   C212.455933,413.416260 185.090134,403.216431 160.926682,384.866730   C126.486771,358.713135 105.907883,324.088440 98.919617,281.358612   C94.893105,256.738525 97.323936,232.651291 104.396271,208.491776  M257.000000,160.500000   C256.999725,146.503311 256.833801,132.503510 257.094910,118.511703   C257.179016,114.004593 255.622452,112.357346 251.332794,113.018578   C240.839325,114.636116 230.128860,115.415688 219.896713,118.050751   C190.316589,125.668480 165.834610,141.626190 146.255203,165.142517   C125.603493,189.946777 114.943924,218.592117 113.058014,250.636383   C112.685867,256.959747 112.904663,256.995178 119.311386,256.996490   C153.803223,257.003571 188.295074,257.007111 222.786911,256.996948   C243.426743,256.990875 256.983002,243.511505 256.996704,222.985458   C257.010376,202.490311 256.999878,181.995148 257.000000,160.500000  z"
   id="path172" />
<path
   fill="#FAA019"
   opacity="1.000000"
   stroke="none"
   d=" M257.000000,161.000000   C256.999878,181.995148 257.010376,202.490311 256.996704,222.985458   C256.983002,243.511505 243.426743,256.990875 222.786911,256.996948   C188.295074,257.007111 153.803223,257.003571 119.311386,256.996490   C112.904663,256.995178 112.685867,256.959747 113.058014,250.636383   C114.943924,218.592117 125.603493,189.946777 146.255203,165.142517   C165.834610,141.626190 190.316589,125.668480 219.896713,118.050751   C230.128860,115.415688 240.839325,114.636116 251.332794,113.018578   C255.622452,112.357346 257.179016,114.004593 257.094910,118.511703   C256.833801,132.503510 256.999725,146.503311 257.000000,161.000000  z"
   id="path174" />
</svg>
