<svg version="1.1" id="Layer_1" xmlns="http://www.w3.org/2000/svg" xmlns:xlink="http://www.w3.org/1999/xlink" x="0px" y="0px"
	 width="100%" viewBox="0 0 512 512" enable-background="new 0 0 512 512" xml:space="preserve">
<path fill="#000000" opacity="1.000000" stroke="none" 
	d="
M211.467941,513.000000 
	C189.428009,499.978149 174.689056,479.548340 156.690765,462.662903 
	C140.663193,447.626343 125.485298,431.682709 109.967140,416.104797 
	C92.977234,399.049500 91.783531,369.339050 107.662148,351.123718 
	C124.636353,331.651520 143.907867,314.403351 161.906006,295.917358 
	C172.131424,285.414734 182.389130,274.930969 192.973801,264.795349 
	C199.536133,258.511444 206.433075,252.892303 216.192245,251.331787 
	C231.099976,248.948013 241.600372,259.328217 244.334717,270.690857 
	C246.928131,281.467957 246.492920,292.479401 246.241653,303.422455 
	C246.138718,307.905304 248.233795,309.030914 252.045700,309.667236 
	C265.565186,311.924133 279.190369,312.067108 292.791687,311.546051 
	C312.450104,310.792969 331.545837,306.821960 350.159607,300.379547 
	C369.923309,293.539154 388.227051,284.037903 405.285767,271.918732 
	C422.891907,259.410706 437.913696,244.332230 451.140320,227.391617 
	C457.250061,219.566299 464.408997,216.944244 472.266846,220.205765 
	C479.053589,223.022736 482.568115,230.998108 481.231415,240.027786 
	C478.161346,260.766663 473.050201,280.998413 465.146820,300.395355 
	C455.520569,324.020752 442.727142,345.829468 426.552856,365.687836 
	C418.969177,374.998871 411.004486,383.964478 402.133362,391.920654 
	C387.819763,404.757904 372.328064,416.108765 355.601929,425.783173 
	C336.485474,436.840118 316.120575,444.558533 294.943573,450.508179 
	C280.375977,454.600861 265.461243,456.501068 250.529282,458.300568 
	C246.853867,458.743530 246.310745,460.288666 246.274918,463.410065 
	C246.187332,471.041046 246.262878,478.648804 245.569092,486.308777 
	C244.510803,497.993042 240.013901,506.957306 229.251175,512.778931 
	C223.311966,513.000000 217.623917,513.000000 211.467941,513.000000 
M253.502701,425.657928 
	C258.088104,425.003662 262.688416,424.439301 267.256561,423.681152 
	C312.230804,416.217224 350.722198,395.759674 383.784698,364.833710 
	C398.786957,350.800995 411.099823,334.437988 421.356537,316.670197 
	C425.606384,309.308136 430.704102,302.177399 432.464844,292.738403 
	C429.299164,294.839355 426.646820,296.457428 424.145905,298.282959 
	C409.875183,308.699646 394.513214,317.256042 378.344849,324.241577 
	C353.533081,334.961487 327.489929,341.594574 300.571899,343.163971 
	C278.388245,344.457336 256.162598,343.443298 234.148392,338.914490 
	C217.587585,335.507599 213.785172,331.815582 214.590973,314.508423 
	C214.950348,306.789459 214.651688,299.039825 214.651688,291.169983 
	C212.232559,291.527771 211.394165,292.851196 210.365387,293.877777 
	C185.127029,319.062714 159.884949,344.243927 134.675232,369.457520 
	C126.021370,378.112701 126.010719,386.707642 134.756439,395.466858 
	C160.066162,420.815857 185.434113,446.106781 210.817261,471.382263 
	C211.751022,472.312073 212.401688,474.049408 214.663330,473.382721 
	C214.663330,462.922455 214.594635,452.440063 214.685699,441.959076 
	C214.754944,433.988037 220.433929,428.823792 228.309860,427.468689 
	C236.403503,426.076172 244.627090,427.815857 253.502701,425.657928 
z"/>
<path fill="#000000" opacity="1.000000" stroke="none" 
	d="
M301.532043,1.000000 
	C318.912079,8.466321 329.254547,23.577120 341.979736,35.813091 
	C362.507965,55.552128 382.303558,76.051811 402.473999,96.164635 
	C418.094971,111.741051 421.790283,135.264709 411.597809,154.888123 
	C409.741150,158.462753 407.370850,161.655685 404.553711,164.483047 
	C374.682343,194.462814 344.974121,224.609528 314.776520,254.257568 
	C304.378540,264.466339 289.243561,266.882751 277.717194,257.400360 
	C270.266846,251.271179 268.211121,242.406097 267.733215,233.284042 
	C267.341431,225.806427 267.482056,218.286942 267.718903,210.796509 
	C267.830322,207.272400 266.988220,205.408157 263.182037,204.769180 
	C246.714813,202.004608 230.246674,201.879684 213.612640,203.168610 
	C196.460373,204.497711 179.799759,207.861374 163.643250,213.495392 
	C139.806961,221.807465 117.930809,233.649994 98.316719,249.812592 
	C84.131096,261.501984 71.584778,274.525543 60.822430,289.369690 
	C57.322834,294.196564 49.243927,296.340851 43.254105,294.373016 
	C36.131992,292.033203 32.617691,287.490173 32.707863,279.937836 
	C32.908165,263.161682 37.305439,247.172043 42.240532,231.306778 
	C48.546165,211.035522 57.370064,191.865219 68.577820,173.892303 
	C77.281235,159.935379 87.403961,146.978836 98.730331,134.973297 
	C112.136841,120.762894 126.902367,108.119995 143.136047,97.360184 
	C159.795731,86.318001 177.513855,77.204758 196.440933,70.449478 
	C216.221176,63.389698 236.418533,58.488026 257.345459,56.617531 
	C259.484528,56.426338 261.596222,55.714169 263.726227,55.687183 
	C266.879150,55.647243 267.694275,54.015656 267.660400,51.239788 
	C267.589264,45.408951 267.647766,39.576557 267.650299,33.744801 
	C267.656097,20.373144 271.347748,8.831970 283.814758,1.277251 
	C289.688049,1.000000 295.376068,1.000000 301.532043,1.000000 
M233.536636,92.446243 
	C214.332916,97.728691 195.707977,104.369957 178.122513,113.959854 
	C161.256073,123.157654 145.906143,134.325958 131.845230,147.299133 
	C124.147865,154.401047 117.362213,162.363998 110.731316,170.505005 
	C98.990410,184.919739 89.670219,200.724335 81.929077,217.539124 
	C81.410828,218.664841 80.975838,219.865723 81.724419,221.331100 
	C93.519768,212.270996 105.777519,204.338959 118.734634,197.530197 
	C148.703201,181.782227 180.773209,173.007950 214.403122,170.877060 
	C238.279297,169.364197 262.193329,170.572495 285.611206,176.532990 
	C295.360779,179.014526 299.291534,183.794189 299.339661,193.772217 
	C299.379852,202.102631 299.310822,210.433777 299.391937,218.763611 
	C299.404846,220.090546 298.686890,221.772095 300.529205,222.793900 
	C301.070770,222.399643 301.662170,222.077255 302.119598,221.620621 
	C328.411530,195.373840 354.736725,169.160065 380.941315,142.826355 
	C387.070770,136.666687 386.889496,126.032578 380.695984,119.838768 
	C354.779999,93.921532 328.786163,68.082123 302.803833,42.231285 
	C302.022430,41.453842 301.385925,40.341946 299.596497,40.437901 
	C299.516083,42.162552 299.368042,43.932892 299.362152,45.703705 
	C299.333313,54.367447 299.454376,63.033260 299.304413,71.694565 
	C299.171387,79.376312 293.381897,85.822342 286.332397,86.337708 
	C268.876892,87.613808 251.356049,88.305534 233.536636,92.446243 
z"/>
</svg>