<svg version="1.1" id="Layer_1" xmlns="http://www.w3.org/2000/svg" xmlns:xlink="http://www.w3.org/1999/xlink" x="0px" y="0px"
	 width="100%" viewBox="0 0 512 512" enable-background="new 0 0 512 512" xml:space="preserve">
<path fill="#000000" opacity="1.000000" stroke="none" 
	d="
M211.467941,513.000000 
	C174.281891,484.035339 144.199158,448.195953 110.677391,415.918396 
	C97.385979,403.120300 94.061577,386.805206 98.920265,368.821808 
	C101.411980,359.599243 106.587791,352.089661 113.082314,345.533142 
	C139.823563,318.536713 166.740234,291.713684 193.653107,264.887817 
	C200.748749,257.815094 208.797440,252.412643 219.085297,250.975082 
	C225.721863,250.047699 236.166550,256.062744 240.326889,262.639923 
	C245.012848,270.048096 245.322495,278.289581 245.892975,286.452087 
	C246.402100,293.736816 246.000000,301.085266 246.000000,309.033081 
	C253.609344,310.030945 261.092255,311.369476 268.631927,311.896362 
	C275.597809,312.383179 282.624939,312.053375 289.624237,311.989502 
	C306.970459,311.831177 323.879211,308.790833 340.489563,303.985199 
	C362.403473,297.645050 382.962646,288.330597 401.521088,274.994385 
	C409.695068,269.120544 417.946594,263.132294 425.096985,256.110565 
	C434.849213,246.533798 443.656158,235.984543 452.720490,225.721588 
	C456.878418,221.013809 465.016449,217.183487 472.295044,220.755325 
	C478.824219,223.959427 482.454071,231.821609 480.989014,239.929520 
	C477.838562,257.364471 474.244537,274.664032 468.040955,291.347229 
	C458.609497,316.711121 446.333008,340.476410 429.026337,361.407104 
	C422.023621,369.876251 414.947235,378.351807 407.204315,386.127319 
	C391.886597,401.509521 374.362152,414.044220 355.672302,425.127380 
	C334.878235,437.458313 312.461578,445.607849 289.301117,451.678833 
	C278.381104,454.541290 266.908051,455.295105 255.684677,456.998444 
	C252.635315,457.461243 249.582672,457.902374 246.000000,458.432068 
	C246.000000,464.989044 246.446793,471.810028 245.888992,478.547852 
	C245.161942,487.330139 245.370132,496.620636 238.945404,503.777374 
	C236.075485,506.974213 232.445496,509.488739 229.080231,512.656494 
	C223.311966,513.000000 217.623917,513.000000 211.467941,513.000000 
z"/>
<path fill="#000000" opacity="1.000000" stroke="none" 
	d="
M300.533142,1.000000 
	C315.264435,6.977433 324.390686,19.126225 334.919189,29.512680 
	C357.460632,51.749989 379.745667,74.247223 402.135254,96.638458 
	C412.293396,106.797371 417.472412,119.140297 416.881195,133.419006 
	C416.387482,145.342453 412.388947,156.147125 403.680023,164.841064 
	C374.193726,194.276611 344.753876,223.758652 315.279907,253.206558 
	C309.313141,259.168060 301.826874,262.273315 293.648468,262.872559 
	C283.653259,263.604889 271.568237,254.346313 270.186676,244.270233 
	C268.447418,231.585587 268.054718,218.716309 267.012115,205.021515 
	C260.767517,204.116028 253.485321,202.302429 246.171646,202.164978 
	C232.931931,201.916199 219.567963,201.737320 206.448303,203.225601 
	C188.214493,205.294022 170.465866,209.866089 153.313583,216.846542 
	C136.374939,223.740051 120.339661,232.199570 105.808685,243.147629 
	C91.660736,253.807114 78.206963,265.399689 67.597633,279.855011 
	C65.193924,283.130035 62.626118,286.288910 60.046204,289.429260 
	C56.404209,293.862427 48.266064,295.950562 42.799297,293.947479 
	C36.454357,291.622681 32.826008,286.730957 33.043274,279.893280 
	C33.613773,261.938538 38.434174,244.871918 43.913105,227.895157 
	C50.117069,208.671814 58.821758,190.590775 69.398170,173.551300 
	C76.126534,162.711334 84.591225,152.909866 92.647438,142.941849 
	C107.407440,124.679184 125.332733,109.814102 144.764374,96.893616 
	C169.306168,80.575317 196.193344,69.156151 224.800751,62.221027 
	C235.946777,59.518963 247.546570,58.691833 258.937012,56.992744 
	C261.813507,56.563663 264.679688,56.065643 268.000000,55.526310 
	C268.000000,47.567738 267.708252,39.430973 268.075806,31.324095 
	C268.509644,21.754396 270.747559,12.692557 278.490662,6.079221 
	C280.436188,4.417548 282.712311,3.142936 284.918274,1.345222 
	C290.022095,1.000000 295.044189,1.000000 300.533142,1.000000 
z"/>
</svg>