<svg width="316" height="328" viewBox="0 0 316 328" fill="none" xmlns="http://www.w3.org/2000/svg">
<rect width="316" height="328" rx="125" fill="url(#paint0_linear_201_1024)"/>
<path d="M154.021 199.005C145.299 199.005 140.168 192.175 140.168 182.518V180.869C140.168 166.973 146.428 157.787 158.536 149.661C171.773 140.593 175.775 134.705 175.775 123.871C175.775 112.33 167.977 104.322 156.689 104.322C146.633 104.322 139.86 109.974 136.577 120.456C134.012 127.993 129.394 131.29 123.135 131.29C115.028 131.29 110 125.519 110 116.569C110 111.505 111.026 107.03 113.078 102.555C119.646 87.0101 136.064 77 158.126 77C187.268 77 206.867 95.3714 206.867 122.811C206.867 140.593 199.376 152.723 184.908 162.498C171.26 171.566 168.182 176.63 166.848 186.522C165.309 194.412 161.307 199.005 154.021 199.005ZM154.226 251.411C144.991 251.411 137.5 243.285 137.5 232.922C137.5 222.558 144.991 214.433 154.226 214.433C163.564 214.433 171.055 222.558 171.055 232.922C171.055 243.285 163.564 251.411 154.226 251.411Z" fill="white"/>
<defs>
<linearGradient id="paint0_linear_201_1024" x1="158" y1="0" x2="158" y2="328" gradientUnits="userSpaceOnUse">
<stop stop-color="#FF936B"/>
<stop offset="1" stop-color="#FF7746"/>
</linearGradient>
</defs>
</svg>
