<?xml version="1.0" encoding="UTF-8" standalone="no"?>
<svg
   version="1.1"
   id="Layer_1"
   x="0px"
   y="0px"
   width="100%"
   viewBox="0 0 512 512"
   enable-background="new 0 0 512 512"
   xml:space="preserve"
   sodipodi:docname="unknown_adobe_express.svg"
   inkscape:version="1.2.2 (b0a8486, 2022-12-01)"
   xmlns:inkscape="http://www.inkscape.org/namespaces/inkscape"
   xmlns:sodipodi="http://sodipodi.sourceforge.net/DTD/sodipodi-0.dtd"
   xmlns="http://www.w3.org/2000/svg"
   xmlns:svg="http://www.w3.org/2000/svg"><defs
   id="defs157" /><sodipodi:namedview
   id="namedview155"
   pagecolor="#ffffff"
   bordercolor="#000000"
   borderopacity="0.25"
   inkscape:showpageshadow="2"
   inkscape:pageopacity="0.0"
   inkscape:pagecheckerboard="0"
   inkscape:deskcolor="#d1d1d1"
   showgrid="false"
   inkscape:zoom="0.4609375"
   inkscape:cx="257.08475"
   inkscape:cy="256"
   inkscape:window-width="1463"
   inkscape:window-height="456"
   inkscape:window-x="0"
   inkscape:window-y="25"
   inkscape:window-maximized="0"
   inkscape:current-layer="Layer_1" />
<path
   fill="#FCA84C"
   opacity="1.000000"
   stroke="none"
   d=" M194.000000,0.999998   C235.354233,1.000000 276.708466,1.000000 318.188995,1.349764   C319.163818,2.130242 319.987030,2.874644 320.864563,2.945413   C338.900452,4.399945 356.942535,5.777691 375.011200,7.539079   C376.008759,10.558692 376.854553,13.263145 377.966949,15.853096   C392.004059,48.534847 398.982574,82.811981 399.784821,118.214851   C400.106995,132.431885 398.566010,146.756699 397.006622,160.937195   C393.754333,190.512161 384.878235,218.526291 371.865234,245.227921   C356.449188,276.860352 335.710114,304.612671 309.877014,328.450928   C302.585724,335.179169 294.329803,340.862030 286.455963,346.562866   C286.164307,342.618927 286.143311,339.107025 285.661682,335.659515   C284.307312,325.965302 279.050842,320.598267 269.322815,320.002869   C260.907745,319.487915 252.411530,319.556641 243.992355,320.058411   C235.353104,320.573273 229.678055,325.746277 228.689667,334.384033   C227.806778,342.099976 228.046799,349.957001 228.003265,357.752930   C227.959381,365.613525 230.879791,371.988251 237.738220,376.211426   C225.686874,380.949402 214.090530,386.068329 202.072098,389.843567   C180.771454,396.534637 158.877960,399.926666 136.503204,401.322815   C119.126579,402.407043 102.039696,401.269958 84.912605,399.194550   C75.537880,398.058563 66.222633,396.431793 56.571655,394.892761   C49.272274,387.770752 42.054169,380.993622 35.335060,373.753387   C16.972803,353.967010 10.741830,329.151611 7.074469,303.446899   C5.341272,291.298859 4.358747,279.044403 2.916661,266.852264   C2.835826,266.168854 1.664025,265.614441 1.000001,265.000000   C1.000000,232.312439 1.000000,199.624878 1.341355,166.811920   C2.119118,165.843155 2.835445,165.036118 2.950376,164.150986   C5.012224,148.271759 6.356873,132.265686 9.221773,116.535690   C11.296249,105.145576 14.317599,93.680244 18.774227,83.025406   C26.988333,63.387241 41.158600,47.891392 57.812611,35.039791   C66.069969,28.667740 75.660049,23.905888 84.982918,19.061670   C96.084747,13.293095 108.273003,11.227476 120.642509,9.910953   C133.637527,8.527855 146.555725,6.411411 159.555801,5.091189   C170.036789,4.026795 180.593414,3.719668 191.104706,2.921439   C192.112625,2.844897 193.036896,1.666748 194.000000,0.999998  M247.947205,85.285652   C246.803162,85.510040 245.656921,85.723801 244.515396,85.960365   C210.315094,93.047836 186.010651,112.061638 173.480942,145.122879   C172.256500,148.353760 171.340286,151.852142 171.108429,155.282303   C170.126709,169.805267 179.914795,182.861450 193.750977,185.931473   C208.581497,189.222122 222.435120,181.823730 228.138168,167.795959   C230.071533,163.040451 231.965668,158.112122 234.842743,153.925995   C244.232849,140.263382 264.897491,134.760284 282.646393,140.716019   C295.132690,144.905853 300.786987,153.861481 299.030304,166.827408   C298.102173,173.677948 294.207520,178.942352 289.022858,183.021011   C282.887543,187.847534 276.293823,192.095016 269.859650,196.536865   C264.517365,200.224915 258.963898,203.624420 253.771423,207.509247   C232.345459,223.539383 226.416916,245.670029 229.954071,270.936646   C232.270432,287.482941 249.378159,297.456512 265.299255,292.385773   C277.450714,288.515625 284.930481,278.203461 284.558197,264.018250   C284.295258,253.998566 287.964783,246.626450 295.985199,241.072433   C298.996307,238.987320 302.032837,236.936935 305.000854,234.791946   C314.976685,227.582291 325.361298,220.855484 334.771973,212.968491   C345.447388,204.021606 352.703491,192.467133 356.034607,178.712128   C364.310822,144.537598 347.785431,110.788330 314.581726,94.149506   C293.687744,83.679222 271.578613,81.966690 247.947205,85.285652  z"
   id="path138" />
<path
   fill="#F9973E"
   opacity="1.000000"
   stroke="none"
   d=" M286.516327,347.024353   C294.329803,340.862030 302.585724,335.179169 309.877014,328.450928   C335.710114,304.612671 356.449188,276.860352 371.865234,245.227921   C384.878235,218.526291 393.754333,190.512161 397.006622,160.937195   C398.566010,146.756699 400.106995,132.431885 399.784821,118.214851   C398.982574,82.811981 392.004059,48.534847 377.966949,15.853096   C376.854553,13.263145 376.008759,10.558692 375.427307,7.479391   C377.227844,7.367440 378.627167,7.769001 380.054535,7.985937   C390.029358,9.501938 400.137024,10.408368 409.961273,12.593211   C428.291382,16.669699 444.464569,25.264063 458.938843,37.320560   C473.351868,49.326080 485.375610,63.161133 493.975006,79.878136   C502.909851,97.247139 505.129395,116.344048 507.925568,135.245728   C509.360352,144.944351 509.992310,154.760757 511.109467,164.509949   C511.173798,165.071472 512.344299,165.506241 513.000000,166.000000   C513.000000,198.687561 513.000000,231.375122 512.617554,264.260956   C511.824493,265.476868 511.136475,266.471466 511.049683,267.516022   C510.585999,273.093872 510.594330,278.728241 509.837280,284.260651   C508.446899,294.420807 506.558960,304.511688 505.020996,314.653107   C503.259155,326.270752 500.390839,337.535309 495.368164,348.220520   C487.921265,364.063019 477.206146,377.417389 464.346222,389.114075   C452.447662,399.936340 439.193207,408.539368 423.960815,414.124603   C411.449280,418.712219 398.570251,420.898376 385.383606,422.083740   C369.391846,423.521271 353.426270,425.270935 337.474670,427.105347   C335.747314,427.304016 333.719879,428.599335 332.640259,430.006409   C329.779633,433.734680 327.426666,437.847382 324.757507,441.728546   C313.805756,457.653107 303.111023,473.767181 291.713470,489.367126   C285.492310,497.882050 279.455170,506.988831 268.860199,511.116364   C268.398865,511.296082 268.278961,512.352173 268.000000,513.000000   C260.979065,513.000000 253.958099,513.000000 246.795593,512.738281   C245.312637,511.613770 243.867630,510.876099 242.648285,509.865997   C238.115417,506.110901 232.693970,502.964447 229.336365,498.334717   C214.561920,477.962646 200.267487,457.237122 186.081314,436.447144   C182.117798,430.638519 178.858948,426.360168 170.244492,426.550995   C157.923004,426.823975 145.516846,424.500885 133.190506,422.941315   C123.358925,421.697388 113.486435,420.421692 103.820465,418.301392   C86.315254,414.461548 70.780533,406.309357 56.880566,395.026337   C66.222633,396.431793 75.537880,398.058563 84.912605,399.194550   C102.039696,401.269958 119.126579,402.407043 136.503204,401.322815   C158.877960,399.926666 180.771454,396.534637 202.072098,389.843567   C214.090530,386.068329 225.686874,380.949402 238.143585,376.245575   C250.115448,378.795013 261.540863,378.708801 272.852844,376.642822   C279.365112,375.453430 283.889526,371.010925 285.030212,364.331146   C286.001465,358.643494 286.056152,352.799286 286.516327,347.024353  z"
   id="path140" />




<path
   fill="#FFFFFE"
   opacity="1.000000"
   stroke="none"
   d=" M248.377533,85.211975   C271.578613,81.966690 293.687744,83.679222 314.581726,94.149506   C347.785431,110.788330 364.310822,144.537598 356.034607,178.712128   C352.703491,192.467133 345.447388,204.021606 334.771973,212.968491   C325.361298,220.855484 314.976685,227.582291 305.000854,234.791946   C302.032837,236.936935 298.996307,238.987320 295.985199,241.072433   C287.964783,246.626450 284.295258,253.998566 284.558197,264.018250   C284.930481,278.203461 277.450714,288.515625 265.299255,292.385773   C249.378159,297.456512 232.270432,287.482941 229.954071,270.936646   C226.416916,245.670029 232.345459,223.539383 253.771423,207.509247   C258.963898,203.624420 264.517365,200.224915 269.859650,196.536865   C276.293823,192.095016 282.887543,187.847534 289.022858,183.021011   C294.207520,178.942352 298.102173,173.677948 299.030304,166.827408   C300.786987,153.861481 295.132690,144.905853 282.646393,140.716019   C264.897491,134.760284 244.232849,140.263382 234.842743,153.925995   C231.965668,158.112122 230.071533,163.040451 228.138168,167.795959   C222.435120,181.823730 208.581497,189.222122 193.750977,185.931473   C179.914795,182.861450 170.126709,169.805267 171.108429,155.282303   C171.340286,151.852142 172.256500,148.353760 173.480942,145.122879   C186.010651,112.061638 210.315094,93.047836 244.515396,85.960365   C245.656921,85.723801 246.803162,85.510040 248.377533,85.211975  z"
   id="path150" />
<path
   fill="#FFFEFE"
   opacity="1.000000"
   stroke="none"
   d=" M286.455963,346.562866   C286.056152,352.799286 286.001465,358.643494 285.030212,364.331146   C283.889526,371.010925 279.365112,375.453430 272.852844,376.642822   C261.540863,378.708801 250.115448,378.795013 238.408447,376.021240   C230.879791,371.988251 227.959381,365.613525 228.003265,357.752930   C228.046799,349.957001 227.806778,342.099976 228.689667,334.384033   C229.678055,325.746277 235.353104,320.573273 243.992355,320.058411   C252.411530,319.556641 260.907745,319.487915 269.322815,320.002869   C279.050842,320.598267 284.307312,325.965302 285.661682,335.659515   C286.143311,339.107025 286.164307,342.618927 286.455963,346.562866  z"
   id="path152" />
</svg>
