<?xml version="1.0" encoding="UTF-8" standalone="no"?>
<svg
   version="1.1"
   id="Layer_1"
   x="0px"
   y="0px"
   width="100%"
   viewBox="0 0 512 512"
   enable-background="new 0 0 512 512"
   xml:space="preserve"
   sodipodi:docname="vacationning_adobe_express.svg"
   inkscape:version="1.2.2 (b0a8486, 2022-12-01)"
   xmlns:inkscape="http://www.inkscape.org/namespaces/inkscape"
   xmlns:sodipodi="http://sodipodi.sourceforge.net/DTD/sodipodi-0.dtd"
   xmlns="http://www.w3.org/2000/svg"
   xmlns:svg="http://www.w3.org/2000/svg"><defs
   id="defs168" /><sodipodi:namedview
   id="namedview166"
   pagecolor="#ffffff"
   bordercolor="#000000"
   borderopacity="0.25"
   inkscape:showpageshadow="2"
   inkscape:pageopacity="0.0"
   inkscape:pagecheckerboard="0"
   inkscape:deskcolor="#d1d1d1"
   showgrid="false"
   inkscape:zoom="0.4609375"
   inkscape:cx="257.08475"
   inkscape:cy="256"
   inkscape:window-width="1463"
   inkscape:window-height="456"
   inkscape:window-x="0"
   inkscape:window-y="25"
   inkscape:window-maximized="0"
   inkscape:current-layer="Layer_1" />

<path
   fill="#5F276D"
   opacity="1.000000"
   stroke="none"
   d=" M205.914795,216.071106   C211.545746,231.927429 217.946289,247.563309 222.570709,263.707947   C226.459030,277.282745 228.570465,291.400146 230.953873,305.365173   C235.553421,332.315277 235.558731,359.563171 234.842133,386.758606   C234.464340,401.096619 232.998505,415.462524 231.084946,429.689514   C228.559921,448.462646 225.105606,467.110504 222.088760,485.818359   C221.962006,486.604370 222.218597,487.452179 222.330856,488.630981   C231.996201,488.630981 241.587555,488.630981 250.331436,488.630981   C250.221344,470.110626 250.067551,451.601654 250.013596,433.092407   C249.959671,414.594421 249.860703,396.094635 250.058960,377.598602   C250.190201,365.355713 263.313599,353.141510 276.163818,353.027588   C288.474243,352.918488 300.786407,353.004028 314.004089,353.004028   C314.004089,346.856354 313.953888,341.102051 314.014923,335.348907   C314.128448,324.650238 320.650604,313.963501 330.799530,313.045746   C347.096344,311.572113 363.708588,311.532715 380.011871,312.932953   C390.259094,313.812988 396.723328,324.447540 396.972565,335.699646   C397.093842,341.173065 396.993561,346.651428 396.993561,352.560730   C408.596588,352.560730 419.750580,352.560730 431.698547,352.560730   C430.160217,350.869293 429.132996,349.646027 428.009216,348.519073   C419.536682,340.022827 411.026672,331.563934 402.567108,323.054871   C398.120148,318.581879 397.882812,313.914093 401.789368,309.969574   C404.921417,306.807159 410.727631,307.325562 414.719177,311.243988   C419.713684,316.146942 424.745087,321.021942 429.525787,326.128815   C431.810944,328.569824 433.500702,328.808380 436.118591,326.583374   C439.118530,324.033600 442.495697,321.904785 445.817230,319.760773   C454.025848,314.462128 462.025665,314.047699 469.185974,320.398621   C478.235107,328.424805 486.665070,337.243652 494.642731,346.350769   C500.170837,352.661560 499.355896,360.123993 494.949646,367.059845   C491.857971,371.926392 488.575165,376.671509 485.086121,381.908447   C491.176208,387.894775 497.345123,393.730621 503.245056,399.826782   C508.388611,405.141418 506.733887,412.023102 499.986511,414.479645   C496.279938,415.829102 493.598907,414.115356 491.121460,411.631409   C482.648254,403.135895 474.162415,394.652924 465.669769,386.176819   C464.508240,385.017548 463.280731,383.924377 460.998169,381.781372   C460.998169,384.657074 460.998199,386.352142 460.998199,388.047211   C460.998169,415.877716 461.044495,443.708405 460.959076,471.538635   C460.941956,477.119446 460.423279,482.698700 460.098663,489.001221   C466.897339,489.001221 474.314117,489.000397 481.730896,489.001587   C485.397186,489.002167 489.065918,488.922455 492.729156,489.029449   C497.754150,489.176208 499.999481,491.718231 499.993317,497.027893   C499.986908,502.551178 497.992432,504.753754 492.766876,504.985474   C491.935181,505.022339 491.100616,504.998047 490.267395,504.998047   C332.783295,504.998413 175.299210,504.998993 17.815117,504.996490   C11.054994,504.996399 8.120309,502.691254 8.006327,497.337708   C7.893052,492.017426 10.720826,489.032166 16.116062,489.018768   C32.780941,488.977448 49.447006,488.900665 66.110298,489.067780   C70.651749,489.113342 74.128197,487.914246 77.852005,485.013885   C93.318504,472.967743 106.288475,458.659088 116.972267,442.386414   C133.605194,417.052490 145.715302,389.575348 152.971222,360.140015   C157.741577,340.788086 162.232132,321.323669 165.683716,301.704834   C168.138184,287.753601 169.117950,273.487305 169.919327,259.314331   C171.024521,239.767624 171.344818,220.176453 171.983429,200.603760   C172.009598,199.801956 171.853287,198.994186 171.712112,197.399811   C170.198166,198.659683 169.062256,199.468292 168.086899,200.438339   C160.406738,208.076614 152.820221,215.810150 145.077927,223.384583   C139.149445,229.184509 133.081757,234.844864 126.988693,240.472794   C123.000816,244.156265 118.569527,244.151321 114.675758,240.058823   C109.557541,234.679337 104.809074,228.948044 99.440407,222.843628   C94.980736,230.485367 90.885002,237.745224 86.505348,244.829544   C85.475655,246.495117 83.697685,248.271866 81.908211,248.806244   C61.360504,254.942505 40.790382,261.015900 20.123978,266.736694   C11.405005,269.150208 6.070421,263.243713 8.704435,254.660782   C15.696770,231.876297 25.346241,210.294296 40.789024,191.989746   C57.845890,171.772003 78.883537,157.789337 106.030281,154.945160   C109.471985,154.584564 112.895309,154.048645 117.408447,153.450684   C112.864075,150.905197 109.032501,148.611176 105.070023,146.571442   C97.736145,142.796219 96.498398,138.104187 100.978569,131.008224   C104.466766,125.483398 107.797585,119.859215 111.546249,113.708351   C103.037300,111.706078 95.164314,110.144974 87.493996,107.893402   C84.739540,107.084839 81.695068,105.142899 80.108864,102.814835   C68.489288,85.760773 57.056290,68.572784 45.981808,51.161568   C44.344051,48.586704 43.871136,44.318310 44.717400,41.366070   C45.694523,37.957314 49.286278,36.938847 53.270123,36.890156   C75.127502,36.623028 96.462440,39.304585 117.180534,46.561085   C154.045288,59.472939 177.847534,84.523117 186.727417,122.659637   C189.248199,133.485672 189.009918,144.957779 189.974960,156.138962   C190.142136,158.075882 189.998642,160.039642 189.998642,161.857758   C198.945419,159.703827 207.323822,157.097687 215.899658,155.724747   C251.683517,149.995895 283.915863,156.717758 310.653870,183.042725   C327.060059,199.195511 337.852692,218.649796 346.031311,239.816696   C347.874847,244.587845 349.397491,249.482071 351.174927,254.279984   C352.616028,258.169922 352.917877,262.435516 349.401398,264.690918   C346.721680,266.409607 342.540161,267.027374 339.339935,266.437103   C332.565277,265.187531 325.994476,262.831085 319.341614,260.923279   C306.493408,257.238861 293.671326,253.459778 280.785492,249.912048   C276.087280,248.618530 273.303680,245.668259 271.121277,241.498413   C267.910400,235.363449 264.286041,229.444916 260.478455,222.807739   C256.398529,227.484131 252.468735,231.506775 249.103271,235.956268   C243.754730,243.027664 238.205490,246.483490 230.156601,237.842453   C222.913391,230.066360 214.844650,223.059235 206.718201,215.324707   C205.931839,214.932266 205.567322,214.928085 205.202805,214.923889   C205.440140,215.306290 205.677475,215.688705 205.914795,216.071106  M173.625351,158.124496   C173.415634,152.137360 173.521790,146.119659 172.946152,140.167908   C168.391663,93.076401 135.937790,62.369122 85.314468,55.568733   C79.762627,54.897053 74.210785,54.225372 68.315376,53.512127   C68.554169,54.759525 68.511597,55.303867 68.748650,55.664314   C76.431435,67.346359 84.113640,79.029129 91.895828,90.644859   C92.564339,91.642670 93.826416,92.586372 94.977501,92.858597   C100.313049,94.120445 105.706757,95.136353 111.706429,96.641281   C114.761818,97.338776 117.929237,97.732361 120.845497,98.807312   C124.891434,100.298683 128.748749,102.301704 132.862366,104.925934   C132.283005,107.915329 132.383881,111.276016 130.993729,113.822853   C127.185913,120.798950 122.750847,127.432663 118.230942,134.740646   C136.530426,144.439987 154.466782,153.946884 173.150177,163.849716   C173.260483,161.533234 173.320190,160.279068 173.625351,158.124496  M100.111382,172.605042   C69.220543,180.233795 33.298180,217.947998 29.863804,246.826584   C36.374844,244.821533 42.683453,242.878799 49.772198,240.930267   C56.330429,239.059418 62.975235,237.436234 69.402100,235.189590   C71.800980,234.351013 74.355309,232.476120 75.694763,230.352280   C80.663940,222.473175 85.128960,214.277359 89.835915,206.231262   C94.510368,198.240723 99.891235,197.718048 105.913506,204.659714   C111.025146,210.551697 116.082054,216.491150 121.361168,222.640228   C135.796082,207.627502 149.881668,192.978088 163.763916,178.540161   C149.633774,170.661865 119.570061,167.549957 100.111382,172.605042  M207.151062,174.738693   C203.004456,176.053635 198.857849,177.368576 195.912292,178.302643   C210.053192,193.140533 224.015045,207.790543 238.389511,222.873520   C240.795364,219.929764 242.865265,217.397079 245.477722,214.491821   C248.638779,210.844666 251.728546,207.132553 254.977570,203.565506   C259.880768,198.182404 265.503479,198.683578 269.289764,204.909882   C272.747009,210.595108 276.508820,216.182816 279.186493,222.233856   C283.219849,231.348495 289.532440,236.442581 299.484802,238.106888   C306.982025,239.360641 314.219116,242.161392 321.579102,244.248459   C324.385712,245.044327 327.212097,245.770279 330.933350,246.771240   C329.725983,243.689575 329.081512,241.463654 328.027008,239.452759   C323.244110,230.332001 319.021393,220.825928 313.372833,212.266418   C287.481262,173.031738 248.326172,163.146774 207.151062,174.738693  M118.883011,488.910004   C145.018692,488.940338 171.154388,488.974396 197.290070,488.998535   C204.480698,489.005188 204.463623,488.987976 205.946381,481.994965   C216.780045,430.901031 221.495102,379.315521 216.738464,327.205536   C215.157639,309.887207 211.225983,292.783447 208.272491,274.804260   C204.397049,256.417389 198.155548,238.885010 189.612717,222.125458   C188.951584,223.043259 188.752899,223.826187 188.707169,224.617950   C187.833298,239.748764 187.302689,254.907471 186.055313,270.007080   C182.654724,311.171082 175.143188,351.529694 160.982040,390.455658   C147.963699,426.240295 129.922134,458.982941 102.292450,485.804962   C101.567429,486.508820 101.158966,487.538727 100.371376,488.782043   C106.649933,488.782043 112.298286,488.782043 118.883011,488.910004  M292.814484,489.000549   C306.117188,489.012177 319.419891,489.049225 332.722565,489.030212   C361.486359,488.989075 390.250092,488.919189 419.937653,489.005035   C423.934296,489.014404 427.932800,489.105957 431.927185,489.015656   C439.631897,488.841461 444.696533,484.318359 444.737427,476.649811   C444.906067,445.009521 444.898376,413.367401 444.743622,381.726990   C444.707184,374.277222 439.928680,369.662689 432.477264,369.271576   C428.002441,369.036652 423.499329,369.340729 418.084351,369.232788   C388.838593,369.215576 359.592865,369.174103 330.347107,369.192383   C317.557495,369.200378 304.767944,369.330658 291.059662,369.230743   C287.237946,369.215149 283.413666,369.102448 279.595032,369.203552   C270.788513,369.436707 266.161072,374.137909 266.078247,382.951141   C266.006439,390.594513 266.061554,398.239105 266.061584,405.883148   C266.061676,428.981476 266.028290,452.079865 266.079559,475.178101   C266.099762,484.280884 270.828400,488.956573 279.917053,489.021729   C283.900787,489.050293 287.885651,488.918457 292.814484,489.000549  M331.030823,350.167999   C330.992737,353.688232 333.644562,352.962555 335.651672,352.973389   C345.801788,353.028259 355.952332,353.000366 366.102722,353.001190   C370.539520,353.001526 374.976349,353.001221 379.998993,353.001221   C379.998993,347.511993 380.050598,342.730103 379.986176,337.949829   C379.902191,331.722595 376.970581,328.282623 370.703461,328.104126   C360.561462,327.815308 350.396606,327.771698 340.257965,328.114960   C333.214203,328.353485 331.024353,331.144653 331.001648,338.242737   C330.989899,341.903503 331.004974,345.564301 331.030823,350.167999  M474.081299,348.418335   C469.485443,343.828979 464.989410,339.131287 460.216522,334.734100   C459.158447,333.759338 456.671448,333.017090 455.618225,333.591156   C451.734924,335.707855 448.177307,338.421997 444.837524,340.681244   C454.472290,350.379120 463.688232,359.655426 473.173950,369.203278   C474.029877,368.107697 475.080688,366.868561 476.016327,365.547852   C482.317413,356.653778 482.309540,356.648193 474.081299,348.418335  z"
   id="path111" />
<path
   fill="#60276D"
   opacity="1.000000"
   stroke="none"
   d=" M362.303497,138.598816   C345.315460,110.988724 358.887909,75.380173 389.379486,66.704475   C415.888550,59.161907 443.960632,76.117867 449.104187,103.257111   C454.153778,129.900558 437.494873,155.697678 409.408691,159.715149   C390.012817,162.489532 373.986420,155.206009 362.303497,138.598816  M403.769836,81.471886   C385.155975,81.175163 370.406799,95.739204 371.180725,113.651955   C371.961029,131.712021 387.876831,145.586411 406.181091,143.491928   C407.164856,143.334167 408.157043,143.216705 409.131104,143.012619   C424.021912,139.892822 434.930878,125.364037 433.556885,110.497009   C432.060089,94.300980 419.786835,82.181122 403.769836,81.471886  z"
   id="path113" />
<path
   fill="#5F266D"
   opacity="1.000000"
   stroke="none"
   d=" M468.260315,140.663422   C475.010712,144.569000 481.466583,148.231293 487.867462,151.987335   C493.557617,155.326309 495.273590,160.094910 492.582489,164.732193   C490.043823,169.106796 484.715210,170.051361 479.570251,167.050995   C472.311432,162.817917 465.050659,158.588211 457.785004,154.366882   C453.419128,151.830307 451.844055,147.170303 453.995117,143.093811   C456.345581,138.639404 461.046417,137.134613 465.722839,139.347107   C466.470734,139.700958 467.202606,140.088791 468.260315,140.663422  z"
   id="path115" />
<path
   fill="#5F266D"
   opacity="1.000000"
   stroke="none"
   d=" M328.272339,165.327026   C326.210876,166.403885 324.533081,167.468384 322.707214,168.114731   C318.072174,169.755493 314.179993,168.173721 311.985718,163.847794   C309.796814,159.532440 311.313416,155.874268 314.985535,153.582214   C323.089325,148.524063 331.405823,143.794556 339.760498,139.156097   C343.483795,137.088959 348.508759,138.747269 350.559906,142.232758   C352.925873,146.253296 351.832642,151.521988 347.842529,153.934662   C341.491333,157.774979 335.013092,161.405197 328.272339,165.327026  z"
   id="path117" />
<path
   fill="#5F266D"
   opacity="1.000000"
   stroke="none"
   d=" M453.038391,78.099808   C453.832672,73.864227 456.277191,71.503044 459.648895,69.658661   C467.026367,65.623085 474.218903,61.248981 481.603241,57.226570   C485.560760,55.070827 490.696442,56.775311 492.693756,60.510509   C494.863831,64.568619 493.553162,69.761940 489.593506,72.112495   C482.081299,76.571938 474.566742,81.033638 466.941376,85.294418   C460.252533,89.031929 454.913452,86.323387 453.038391,78.099808  z"
   id="path119" />
<path
   fill="#5F266D"
   opacity="1.000000"
   stroke="none"
   d=" M328.772522,60.234119   C334.805603,63.695484 340.624725,66.799782 346.282440,70.174606   C351.605286,73.349663 353.160736,78.252922 350.592621,82.711357   C347.934509,87.325981 342.902771,88.067039 337.205933,84.749428   C330.081482,80.600433 322.929230,76.499153 315.790466,72.374733   C311.420105,69.849754 309.830627,65.101463 311.999847,61.065948   C314.392212,56.615204 319.110565,55.098682 323.726257,57.361290   C325.352997,58.158722 326.903015,59.112690 328.772522,60.234119  z"
   id="path121" />
<path
   fill="#5F266D"
   opacity="1.000000"
   stroke="none"
   d=" M409.346924,175.945770   C410.074066,178.142288 410.901123,180.033127 410.934692,181.937973   C411.081390,190.254837 411.034454,198.575974 410.984711,206.895142   C410.951416,212.457901 407.373322,216.695618 402.701050,216.875320   C397.954773,217.057861 394.044922,212.586655 394.013885,206.802612   C393.969208,198.483398 393.591339,190.132339 394.222290,181.860977   C394.450104,178.874100 396.498077,174.977661 398.935974,173.470367   C402.055298,171.541794 406.297607,172.074997 409.346924,175.945770  z"
   id="path123" />
<path
   fill="#5F266D"
   opacity="1.000000"
   stroke="none"
   d=" M408.732697,11.271843   C409.675934,13.719881 410.848541,15.858727 410.907104,18.027653   C411.131348,26.331179 411.038147,34.644638 410.983429,42.953865   C410.945709,48.680954 407.206940,52.842262 402.170319,52.936810   C397.896240,53.017044 394.043762,48.325729 394.014374,42.858154   C393.969727,34.548813 393.644165,26.215029 394.197693,17.942463   C394.392151,15.035742 396.197418,10.737048 398.393738,9.843697   C401.138306,8.727341 405.045258,10.468774 408.732697,11.271843  z"
   id="path125" />
<path
   fill="#F9D335"
   opacity="1.000000"
   stroke="none"
   d=" M291.978333,369.405396   C304.767944,369.330658 317.557495,369.200378 330.347107,369.192383   C359.592865,369.174103 388.838593,369.215576 418.717896,369.606873   C420.548737,374.917938 422.727264,379.844055 422.782135,384.793671   C423.108337,414.234955 423.134186,443.684082 422.766632,473.124420   C422.700958,478.384766 420.323730,483.616272 419.013855,488.861084   C390.250092,488.919189 361.486359,488.989075 332.722565,489.030212   C319.419891,489.049225 306.117188,489.012177 292.187958,488.623413   C290.383728,483.641510 288.232666,479.046539 288.186005,474.430359   C287.880066,444.148895 287.858704,413.860901 288.205292,383.580322   C288.259552,378.841583 290.661804,374.129700 291.978333,369.405396  z"
   id="path127" />
<path
   fill="#B66C6C"
   opacity="1.000000"
   stroke="none"
   d=" M208.369080,275.581604   C211.225983,292.783447 215.157639,309.887207 216.738464,327.205536   C221.495102,379.315521 216.780045,430.901031 205.946381,481.994965   C204.463623,488.987976 204.480698,489.005188 197.290070,488.998535   C171.154388,488.974396 145.018692,488.940338 118.615387,488.590332   C120.093407,486.493835 121.763481,484.634613 123.596161,482.952606   C146.764404,461.689209 163.504929,435.990265 175.833908,407.257599   C179.297806,399.184998 182.588989,391.038300 186.029800,383.355865   C186.375412,387.428436 186.631958,391.072266 186.930450,394.712646   C187.330444,399.590912 190.402557,402.805878 194.667419,402.854279   C198.860291,402.901855 202.408051,399.637329 202.744308,394.958893   C202.957062,391.998718 202.622742,388.993195 202.449677,386.012878   C202.219925,382.055939 201.441635,378.395905 197.197174,376.635803   C192.889999,374.849670 189.906677,377.264099 186.943359,379.351593   C187.266663,377.673218 187.460403,376.345306 187.866730,375.085968   C195.553070,351.262939 200.755966,326.884644 204.309952,302.128876   C205.582001,293.268158 207.011459,284.430023 208.369080,275.581604  M182.869720,424.470062   C177.645676,436.844696 172.534515,449.269012 167.124344,461.561707   C165.626419,464.965179 164.465546,468.027618 166.827118,471.379791   C170.451248,476.524200 177.018204,476.008575 180.767380,470.025299   C188.871613,457.091797 194.519684,443.079651 198.358276,428.336609   C199.793762,422.823242 197.891434,418.622772 193.621017,417.254822   C188.997223,415.773621 185.444885,417.945343 182.869720,424.470062  z"
   id="path129" />
<path
   fill="#C88485"
   opacity="1.000000"
   stroke="none"
   d=" M208.320786,275.192932   C207.011459,284.430023 205.582001,293.268158 204.309952,302.128876   C200.755966,326.884644 195.553070,351.262939 187.866730,375.085968   C187.460403,376.345306 187.266663,377.673218 186.722794,379.613007   C186.300888,381.146393 186.130157,382.035980 185.959412,382.925568   C182.588989,391.038300 179.297806,399.184998 175.833908,407.257599   C163.504929,435.990265 146.764404,461.689209 123.596161,482.952606   C121.763481,484.634613 120.093407,486.493835 118.147209,488.526367   C112.298286,488.782043 106.649933,488.782043 100.371376,488.782043   C101.158966,487.538727 101.567429,486.508820 102.292450,485.804962   C129.922134,458.982941 147.963699,426.240295 160.982040,390.455658   C175.143188,351.529694 182.654724,311.171082 186.055313,270.007080   C187.302689,254.907471 187.833298,239.748764 188.707169,224.617950   C188.752899,223.826187 188.951584,223.043259 189.612717,222.125458   C198.155548,238.885010 204.397049,256.417389 208.320786,275.192932  z"
   id="path131" />
<path
   fill="#44C6B5"
   opacity="1.000000"
   stroke="none"
   d=" M207.939743,174.595490   C248.326172,163.146774 287.481262,173.031738 313.372833,212.266418   C319.021393,220.825928 323.244110,230.332001 328.027008,239.452759   C329.081512,241.463654 329.725983,243.689575 330.933350,246.771240   C327.212097,245.770279 324.385712,245.044327 321.579102,244.248459   C314.219116,242.161392 306.982025,239.360641 299.484802,238.106888   C289.532440,236.442581 283.219849,231.348495 279.186493,222.233856   C276.508820,216.182816 272.747009,210.595108 269.289764,204.909882   C265.503479,198.683578 259.880768,198.182404 254.977570,203.565506   C251.728546,207.132553 248.638779,210.844666 245.017365,214.416687   C243.199036,212.893326 241.896866,211.387619 240.474136,210.006088   C230.501495,200.322388 220.420471,190.747620 210.603256,180.909393   C209.107971,179.410904 208.797958,176.729675 207.939743,174.595490  z"
   id="path133" />
<path
   fill="#44C6B6"
   opacity="1.000000"
   stroke="none"
   d=" M100.921402,172.463257   C119.570061,167.549957 149.633774,170.661865 163.763916,178.540161   C149.881668,192.978088 135.796082,207.627502 121.361168,222.640228   C116.082054,216.491150 111.025146,210.551697 105.913506,204.659714   C99.891235,197.718048 94.510368,198.240723 89.835915,206.231262   C85.128960,214.277359 80.663940,222.473175 75.694763,230.352280   C74.355309,232.476120 71.800980,234.351013 69.402100,235.189590   C62.975235,237.436234 56.330429,239.059418 49.476738,240.584213   C59.593140,214.260834 73.817619,191.198990 98.203117,175.838013   C99.359100,175.109802 100.026474,173.605911 100.921402,172.463257  z"
   id="path135" />
<path
   fill="#44C6B5"
   opacity="1.000000"
   stroke="none"
   d=" M86.021492,55.919182   C135.937790,62.369122 168.391663,93.076401 172.946152,140.167908   C173.521790,146.119659 173.415634,152.137360 173.201004,158.463440   C161.039490,152.623276 149.374405,146.300613 137.522995,140.349014   C133.773132,138.465881 133.691666,136.668808 135.736420,133.484482   C140.305756,126.368614 144.592697,119.072060 149.089935,111.908913   C150.714752,109.320915 150.630905,107.539139 147.316711,106.874161   C142.449524,105.897598 137.564346,105.010742 132.686829,104.085670   C128.748749,102.301704 124.891434,100.298683 120.845497,98.807312   C117.929237,97.732361 114.761818,97.338776 111.302643,96.078903   C107.495911,90.020065 104.125122,84.503365 100.682274,79.032013   C95.823288,71.310150 90.910995,63.621838 86.021492,55.919182  z"
   id="path137" />
<path
   fill="#F0C101"
   opacity="1.000000"
   stroke="none"
   d=" M419.475769,488.933044   C420.323730,483.616272 422.700958,478.384766 422.766632,473.124420   C423.134186,443.684082 423.108337,414.234955 422.782135,384.793671   C422.727264,379.844055 420.548737,374.917938 419.180176,369.691772   C423.499329,369.340729 428.002441,369.036652 432.477264,369.271576   C439.928680,369.662689 444.707184,374.277222 444.743622,381.726990   C444.898376,413.367401 444.906067,445.009521 444.737427,476.649811   C444.696533,484.318359 439.631897,488.841461 431.927185,489.015656   C427.932800,489.105957 423.934296,489.014404 419.475769,488.933044  z"
   id="path139" />
<path
   fill="#F8E17D"
   opacity="1.000000"
   stroke="none"
   d=" M291.518982,369.318054   C290.661804,374.129700 288.259552,378.841583 288.205292,383.580322   C287.858704,413.860901 287.880066,444.148895 288.186005,474.430359   C288.232666,479.046539 290.383728,483.641510 291.715698,488.552856   C287.885651,488.918457 283.900787,489.050293 279.917053,489.021729   C270.828400,488.956573 266.099762,484.280884 266.079559,475.178101   C266.028290,452.079865 266.061676,428.981476 266.061584,405.883148   C266.061554,398.239105 266.006439,390.594513 266.078247,382.951141   C266.161072,374.137909 270.788513,369.436707 279.595032,369.203552   C283.413666,369.102448 287.237946,369.215149 291.518982,369.318054  z"
   id="path141" />

<path
   fill="#4BD8C2"
   opacity="1.000000"
   stroke="none"
   d=" M100.516388,172.534149   C100.026474,173.605911 99.359100,175.109802 98.203117,175.838013   C73.817619,191.198990 59.593140,214.260834 49.086670,240.587128   C42.683453,242.878799 36.374844,244.821533 29.863804,246.826584   C33.298180,217.947998 69.220543,180.233795 100.516388,172.534149  z"
   id="path145" />
<path
   fill="#4BD8C2"
   opacity="1.000000"
   stroke="none"
   d=" M132.774597,104.505798   C137.564346,105.010742 142.449524,105.897598 147.316711,106.874161   C150.630905,107.539139 150.714752,109.320915 149.089935,111.908913   C144.592697,119.072060 140.305756,126.368614 135.736420,133.484482   C133.691666,136.668808 133.773132,138.465881 137.522995,140.349014   C149.374405,146.300613 161.039490,152.623276 173.078278,158.913651   C173.320190,160.279068 173.260483,161.533234 173.150177,163.849716   C154.466782,153.946884 136.530426,144.439987 118.230942,134.740646   C122.750847,127.432663 127.185913,120.798950 130.993729,113.822853   C132.383881,111.276016 132.283005,107.915329 132.774597,104.505798  z"
   id="path147" />
<path
   fill="#4BD8C2"
   opacity="1.000000"
   stroke="none"
   d=" M85.667984,55.743958   C90.910995,63.621838 95.823288,71.310150 100.682274,79.032013   C104.125122,84.503365 107.495911,90.020065 110.989250,95.878433   C105.706757,95.136353 100.313049,94.120445 94.977501,92.858597   C93.826416,92.586372 92.564339,91.642670 91.895828,90.644859   C84.113640,79.029129 76.431435,67.346359 68.748650,55.664314   C68.511597,55.303867 68.554169,54.759525 68.315376,53.512127   C74.210785,54.225372 79.762627,54.897053 85.667984,55.743958  z"
   id="path149" />
<path
   fill="#4BD8C2"
   opacity="1.000000"
   stroke="none"
   d=" M207.545410,174.667084   C208.797958,176.729675 209.107971,179.410904 210.603256,180.909393   C220.420471,190.747620 230.501495,200.322388 240.474136,210.006088   C241.896866,211.387619 243.199036,212.893326 244.746078,214.602966   C242.865265,217.397079 240.795364,219.929764 238.389511,222.873520   C224.015045,207.790543 210.053192,193.140533 195.912292,178.302643   C198.857849,177.368576 203.004456,176.053635 207.545410,174.667084  z"
   id="path151" />
<path
   fill="#FB4973"
   opacity="1.000000"
   stroke="none"
   d=" M474.331329,348.668335   C482.309540,356.648193 482.317413,356.653778 476.016327,365.547852   C475.080688,366.868561 474.029877,368.107697 473.173950,369.203278   C463.688232,359.655426 454.472290,350.379120 444.837524,340.681244   C448.177307,338.421997 451.734924,335.707855 455.618225,333.591156   C456.671448,333.017090 459.158447,333.759338 460.216522,334.734100   C464.989410,339.131287 469.485443,343.828979 474.331329,348.668335  z"
   id="path153" />
<path
   fill="#000000"
   opacity="1.000000"
   stroke="none"
   d=" M206.096436,215.876038   C205.677475,215.688705 205.440140,215.306290 205.202805,214.923889   C205.567322,214.928085 205.931839,214.932266 206.463013,215.108383   C206.512497,215.413864 206.395294,215.547409 206.096436,215.876038  z"
   id="path155" />
<path
   fill="#F8D236"
   opacity="1.000000"
   stroke="none"
   d=" M404.518738,81.821716   C419.786835,82.181122 432.060089,94.300980 433.556885,110.497009   C434.930878,125.364037 424.021912,139.892822 409.131104,143.012619   C408.157043,143.216705 407.164856,143.334167 405.487579,143.250809   C391.800354,131.572479 386.745209,117.333771 392.346649,100.881409   C394.706451,93.950226 400.361572,88.140961 404.518738,81.821716  z"
   id="path157" />
<path
   fill="#F7DF7C"
   opacity="1.000000"
   stroke="none"
   d=" M404.144287,81.646797   C400.361572,88.140961 394.706451,93.950226 392.346649,100.881409   C386.745209,117.333771 391.800354,131.572479 405.086609,143.236816   C387.876831,145.586411 371.961029,131.712021 371.180725,113.651955   C370.406799,95.739204 385.155975,81.175163 404.144287,81.646797  z"
   id="path159" />
<path
   fill="#61276D"
   opacity="1.000000"
   stroke="none"
   d=" M182.964661,424.090820   C185.444885,417.945343 188.997223,415.773621 193.621017,417.254822   C197.891434,418.622772 199.793762,422.823242 198.358276,428.336609   C194.519684,443.079651 188.871613,457.091797 180.767380,470.025299   C177.018204,476.008575 170.451248,476.524200 166.827118,471.379791   C164.465546,468.027618 165.626419,464.965179 167.124344,461.561707   C172.534515,449.269012 177.645676,436.844696 182.964661,424.090820  z"
   id="path161" />
<path
   fill="#61286D"
   opacity="1.000000"
   stroke="none"
   d=" M186.029816,383.355865   C186.130157,382.035980 186.300888,381.146393 186.692169,379.995392   C189.906677,377.264099 192.889999,374.849670 197.197174,376.635803   C201.441635,378.395905 202.219925,382.055939 202.449677,386.012878   C202.622742,388.993195 202.957062,391.998718 202.744308,394.958893   C202.408051,399.637329 198.860291,402.901855 194.667419,402.854279   C190.402557,402.805878 187.330444,399.590912 186.930450,394.712646   C186.631958,391.072266 186.375412,387.428436 186.029816,383.355865  z"
   id="path163" />
</svg>
