<svg width="88" height="88" viewBox="0 0 88 88" fill="none" xmlns="http://www.w3.org/2000/svg">
<g clip-path="url(#clip0_343_3389)">
<circle cx="44" cy="44" r="44" fill="#C4DEFB"/>
<circle cx="44" cy="38.5679" r="44" fill="white"/>
<path fill-rule="evenodd" clip-rule="evenodd" d="M66.1833 23.4394C68.2384 25.1907 68.4847 28.2764 66.7334 30.3314L40.2423 61.4179L21.6219 43.7434C19.6636 41.8845 19.583 38.7901 21.4418 36.8318C23.3007 34.8734 26.3951 34.7928 28.3534 36.6517L39.4915 47.224L59.2913 23.9895C61.0426 21.9344 64.1283 21.6881 66.1833 23.4394Z" fill="#00B448"/>
<path fill-rule="evenodd" clip-rule="evenodd" d="M67.6618 25.6472C68.1687 27.2093 67.8767 28.9901 66.7334 30.3318L40.2423 61.4183L21.6219 43.7437C20.2884 42.4779 19.8255 40.6391 20.2529 38.9762L38.7016 56.2078C39.5331 56.9845 40.8441 56.9119 41.5849 56.0483L67.6618 25.6472Z" fill="#008B38"/>
</g>
<defs>
<clipPath id="clip0_343_3389">
<rect width="88" height="88" rx="44" fill="white"/>
</clipPath>
</defs>
</svg>
