<svg width="112" height="112" viewBox="0 0 112 112" fill="none" xmlns="http://www.w3.org/2000/svg">
<g clip-path="url(#clip0_173_5853)">
<path d="M74.8462 97C68.856 97 64 92.107 64 86.0714C64 82.2614 65.9351 78.9067 68.8691 76.9506C69.4894 69.142 75.9752 63 83.8846 63C89.8388 63 94.9862 66.4807 97.4319 71.5329C97.7339 71.5113 98.0387 71.5 98.3462 71.5C105.335 71.5 111 77.2083 111 84.25C111 91.2917 105.335 97 98.3462 97C89.6855 97 82.8114 97 74.8462 97Z" fill="#008B38"/>
<circle cx="89" cy="63" r="17" fill="#00B448"/>
<path d="M45 60.8462C45 54.856 40.107 50 34.0714 50C30.2614 50 26.9067 51.9351 24.9506 54.8691C17.142 55.4894 11 61.9752 11 69.8846C11 75.8388 14.4807 80.9862 19.5329 83.4319C19.5113 83.7339 19.5 84.0387 19.5 84.3462C19.5 91.3346 25.2083 97 32.25 97C39.2917 97 45 91.3346 45 84.3462C45 75.6855 45 68.8114 45 60.8462Z" fill="#008B38"/>
<path d="M105.154 96C107.83 96 110 93.6974 110 90.8571C110 89.0642 109.135 87.4855 107.824 86.565C107.547 82.8903 104.649 80 101.115 80C98.455 80 96.1551 81.638 95.0624 84.0155C94.9274 84.0053 94.7912 84 94.6538 84C91.5313 84 89 86.6862 89 90C89 93.3138 89 96 89 96C92.8696 96 101.595 96 105.154 96Z" fill="#00B448"/>
<rect x="87" y="71" width="4" height="27" rx="2" fill="#5E470C"/>
<path d="M90.1087 63.5651L71.1089 39.6521H39.0217L58.5934 63.5651H90.1087Z" fill="#D65D31"/>
<path d="M53.1522 59.7608L68.913 39.6521L84.6739 59.7608V93.9999H53.1522V59.7608Z" fill="#FFE0C5"/>
<path d="M23.8043 57.8368L38.4782 39.6521H67.8261L53.1522 57.8368V93.9999H23.8043V57.8368Z" fill="#E9B090"/>
<path d="M20 62.4782L37.9348 39.6521H70.5435L53.1147 62.4782H20Z" fill="#FF936B"/>
<ellipse cx="69.4565" cy="60.3044" rx="4.34783" ry="4.34783" fill="#E9B090"/>
<path d="M62.9348 80.9565C62.9348 77.8822 62.9348 76.345 63.8899 75.3899C64.8449 74.4348 66.3821 74.4348 69.4565 74.4348C72.5309 74.4348 74.0681 74.4348 75.0232 75.3899C75.9782 76.345 75.9782 77.8822 75.9782 80.9566V94H62.9348V80.9565Z" fill="#E9B090"/>
<path d="M49.8913 33.1304H54.7826V42.913L49.8913 49.4347V33.1304Z" fill="#D65D31"/>
<rect x="43.3696" y="33.1304" width="6.52174" height="16.3043" fill="#E67248"/>
<path d="M47.1538 24C44.8597 24 43 22.1291 43 19.8214C43 18.3646 43.7411 17.082 44.8647 16.3341C45.1023 13.3484 47.5863 11 50.6154 11C52.8957 11 54.867 12.3309 55.8037 14.2626C55.9194 14.2543 56.0361 14.25 56.1538 14.25C58.8303 14.25 61 16.4326 61 19.125C61 21.8174 58.8303 24 56.1538 24C52.837 24 50.2044 24 47.1538 24Z" fill="#C4DEFB"/>
<path d="M44.0769 16C46.2436 16 48 14.2731 48 12.1429C48 10.7981 47.3001 9.61412 46.2389 8.92376C46.0145 6.16776 43.6685 4 40.8077 4C38.6541 4 36.7922 5.22848 35.9076 7.01161C35.7984 7.00398 35.6881 7 35.5769 7C33.0492 7 31 9.01468 31 11.5C31 13.9853 33.0492 16 35.5769 16C38.7095 16 41.1959 16 44.0769 16Z" fill="#C4DEFB"/>
<circle cx="52" cy="3" r="5" fill="#C4DEFB"/>
<circle cx="40.5" cy="26.5" r="3.5" fill="#C4DEFB"/>
<rect x="2" y="94" width="108" height="4" rx="2" fill="#00B448"/>
<path d="M10.6923 98C6.99623 98 4 94.9778 4 91.25C4 88.8967 5.19399 86.8247 7.00431 85.6166C7.38709 80.7936 11.389 77 16.2692 77C19.9431 77 23.1191 79.1498 24.6282 82.2703C24.8145 82.257 25.0026 82.25 25.1923 82.25C29.5043 82.25 33 85.7757 33 90.125C33 94.4743 29.5043 98 25.1923 98C19.8485 98 15.607 98 10.6923 98Z" fill="#00B448"/>
</g>
<defs>
<clipPath id="clip0_173_5853">
<rect width="112" height="112" fill="white"/>
</clipPath>
</defs>
</svg>
