<svg width="112" height="112" viewBox="0 0 112 112" fill="none" xmlns="http://www.w3.org/2000/svg">
<path d="M19.6923 40C15.9962 40 13 36.9778 13 33.25C13 30.8967 14.194 28.8247 16.0043 27.6166C16.3871 22.7936 20.389 19 25.2692 19C28.9431 19 32.1191 21.1498 33.6282 24.2703C33.8145 24.257 34.0026 24.25 34.1923 24.25C38.5043 24.25 42 27.7757 42 32.125C42 36.4743 38.5043 40 34.1923 40C28.8485 40 24.607 40 19.6923 40Z" fill="#C4DEFB"/>
<path d="M87.6154 26C90.0369 26 92 23.9852 92 21.5C92 19.9312 91.2177 18.5498 90.0317 17.7444C89.7809 14.5291 87.159 12 83.9615 12C81.5545 12 79.4737 13.4332 78.485 15.5135C78.3629 15.5046 78.2397 15.5 78.1154 15.5C75.2903 15.5 73 17.8505 73 20.75C73 23.6495 75.2903 26 78.1154 26C81.6165 26 84.3954 26 87.6154 26Z" fill="#C4DEFB"/>
<path d="M13.8462 96C7.85597 96 3 91.107 3 85.0714C3 81.2614 4.93509 77.9067 7.86906 75.9506C8.48942 68.142 14.9752 62 22.8846 62C28.8388 62 33.9862 65.4807 36.4319 70.5329C36.7339 70.5113 37.0387 70.5 37.3462 70.5C44.3346 70.5 50 76.2083 50 83.25C50 90.2917 44.3346 96 37.3462 96C28.6855 96 21.8114 96 13.8462 96Z" fill="#008B38"/>
<path d="M71.8462 96C65.856 96 61 91.107 61 85.0714C61 81.2614 62.9351 77.9067 65.8691 75.9506C66.4894 68.142 72.9752 62 80.8846 62C86.8388 62 91.9862 65.4807 94.4319 70.5329C94.7339 70.5113 95.0387 70.5 95.3462 70.5C102.335 70.5 108 76.2083 108 83.25C108 90.2917 102.335 96 95.3462 96C86.6855 96 79.8114 96 71.8462 96Z" fill="#008B38"/>
<path d="M33.3846 94C35.9336 94 38 91.8413 38 89.1786C38 87.4977 37.1766 86.0176 35.9281 85.1547C35.6641 81.7097 32.9042 79 29.5385 79C27.0048 79 24.8144 80.5356 23.7737 82.7645C23.6452 82.755 23.5155 82.75 23.3846 82.75C20.4108 82.75 18 85.2684 18 88.375C18 91.4816 18.0262 94 21 94C24.6854 94 29.9952 94 33.3846 94Z" fill="#00B448"/>
<circle cx="19.5" cy="64.5" r="14.5" fill="#00B448"/>
<rect x="18" y="72" width="4" height="26" rx="2" fill="#5E470C"/>
<path d="M27 39.4545C27 31.2264 27 27.1123 29.5562 24.5562C32.1123 22 36.2264 22 44.4545 22H49.9091V94H27V39.4545Z" fill="#AEA8D0"/>
<path d="M36.8182 35.0909C36.8182 28.9198 36.8182 25.8342 38.7353 23.9171C40.6524 22 43.738 22 49.9091 22H60.8182C69.0463 22 73.1604 22 75.7166 24.5562C78.2727 27.1123 78.2727 31.2264 78.2727 39.4545V94H36.8182V35.0909Z" fill="#EDEAFF"/>
<rect x="46.6364" y="29.6365" width="10.9091" height="9.81818" rx="3" fill="#AEA8D0"/>
<rect x="46.6364" y="42.7273" width="10.9091" height="9.81818" rx="3" fill="#AEA8D0"/>
<rect x="46.6364" y="55.8181" width="10.9091" height="9.81818" rx="3" fill="#AEA8D0"/>
<path d="M51 80.3635C51 77.5351 51 76.1209 51.8787 75.2422C52.7574 74.3635 54.1716 74.3635 57 74.3635H61.3636C64.1921 74.3635 65.6063 74.3635 66.485 75.2422C67.3636 76.1209 67.3636 77.5351 67.3636 80.3635V93.9999H51V80.3635Z" fill="#AEA8D0"/>
<rect x="59.7273" y="29.6365" width="10.9091" height="9.81818" rx="3" fill="#AEA8D0"/>
<rect x="59.7273" y="42.7273" width="10.9091" height="9.81818" rx="3" fill="#AEA8D0"/>
<rect x="59.7273" y="55.8181" width="10.9091" height="9.81818" rx="3" fill="#AEA8D0"/>
<circle cx="88" cy="63" r="17" fill="#00B448"/>
<path d="M102.692 97C105.624 97 108 94.4096 108 91.2143C108 89.1972 107.053 87.4212 105.617 86.3856C105.314 82.2516 102.14 79 98.2692 79C95.3555 79 92.8366 80.8427 91.6397 83.5174C91.4919 83.506 91.3428 83.5 91.1923 83.5C87.7724 83.5 85 86.522 85 90.25C85 93.978 85 97 85 97C89.2382 97 98.7944 97 102.692 97Z" fill="#00B448"/>
<rect x="86" y="66" width="4" height="32" rx="2" fill="#5E470C"/>
<rect x="93.4815" y="70.1807" width="4" height="8.63892" rx="2" transform="rotate(60 93.4815 70.1807)" fill="#5E470C"/>
<rect x="26.7143" y="89.2856" width="2.28571" height="5.71429" rx="1.14286" fill="#625D80"/>
<rect x="37" y="89.2856" width="2.28571" height="5.71429" rx="1.14286" fill="#625D80"/>
<rect x="29" y="89.2856" width="2.28571" height="5.71429" rx="1.14286" fill="#9289C8"/>
<rect x="39.2857" y="89.2856" width="2.28571" height="5.71429" rx="1.14286" fill="#9289C8"/>
<rect x="21" y="79" width="21.7143" height="11.4286" rx="2" fill="#625D80"/>
<rect x="23.2857" y="79" width="22.8571" height="11.4286" rx="2" fill="#9289C8"/>
<rect x="2" y="94" width="108" height="4" rx="2" fill="#00B448"/>
</svg>
